DBRep_DrawableShape

CASCADE Topology V1, (c) Matra-Datavision
Locations 94
1
              1               0               0               0 
              0               1               0               0 
              0               0               1               0 
1
              1               0               0               0 
              0               1               0               0 
              0               0               1               0 
1
              1               0               0               0 
              0               1               0               0 
              0               0               1               0 
1
              1               0               0               0 
              0               1               0               0 
              0               0               1               0 
1
              1               0               0               0 
              0               1               0               0 
              0               0               1               0 
1
              1               0               0               0 
              0               1               0               0 
              0               0               1               0 
1
              1               0               0               0 
              0               1               0               0 
              0               0               1               0 
1
              1               0               0               0 
              0               1               0               0 
              0               0               1               0 
1
              1               0               0               0 
              0               1               0               0 
              0               0               1               0 
2  2 1 3 -1 4 1 5 1 6 -1 7 1 8 -1 9 1 0
1
              1               0               0               0 
              0               1               0               0 
              0               0               1               0 
1
              1               0               0               0 
              0               1               0               0 
              0               0               1               0 
1
              1               0               0               0 
              0               1               0               0 
              0               0               1               0 
2  11 -1 12 1 13 -1 0
1
              1               0               0               0 
              0               1               0               0 
              0               0               1               0 
2  15 1 11 -1 12 1 13 -1 0
2  15 -1 0
2  9 -1 8 1 7 -1 6 1 5 -1 4 -1 3 1 2 -1 13 1 12 -1 11 1 15 -1 0
2  1 -1 9 -1 8 1 7 -1 6 1 5 -1 4 -1 3 1 2 -1 13 1 12 -1 11 1 15 -1 0
2  4 -1 3 1 2 -1 13 1 12 -1 11 1 15 -1 0
1
              1               0               0               0 
              0              -1               0              -0 
              0               0              -1               0 
2  21 1 13 -1 0
2  11 -1 12 1 21 -1 0
2  13 1 21 -1 0
2  1 -1 9 -1 8 1 7 -1 6 1 5 -1 4 -1 3 1 2 -1 13 1 21 -1 0
2  5 1 6 -1 7 1 8 -1 9 1 0
2  9 -1 8 1 7 -1 6 1 5 -1 0
2  1 -1 9 -1 8 1 7 -1 6 1 5 -1 0
1
              1               0               0              -0 
              0               1               0               0 
              0               0               1             3.8 
1
              1               0               0               0 
              0               1               0               0 
              0               0               1             3.8 
2  29 1 3 -1 30 1 4 1 0
2  4 -1 30 -1 3 1 29 -1 0
2  29 -1 0
2  1 -1 9 -1 8 1 7 -1 6 1 5 -1 4 -1 30 -1 3 1 29 -1 0
2  15 1 11 -1 12 1 13 -1 2 1 3 -1 4 1 0
2  1 -1 9 -1 8 1 7 -1 6 1 5 -1 4 -1 3 1 2 -1 0
1
              1               0               0               0 
              0               1               0               0 
              0               0               1           -0.51 
2  21 1 13 -1 37 1 0
2  37 -1 13 1 21 -1 0
2  21 -1 0
2  1 -1 9 -1 8 1 7 -1 6 1 5 -1 4 -1 3 1 2 -1 37 -1 13 1 21 -1 0
2  3 -1 30 1 4 1 5 1 6 -1 7 1 8 -1 9 1 0
2  9 -1 8 1 7 -1 6 1 5 -1 4 -1 30 -1 3 1 29 -1 0
2  30 -1 3 1 29 -1 0
2  4 1 5 1 6 -1 7 1 8 -1 9 1 0
2  9 -1 8 1 7 -1 6 1 5 -1 4 -1 0
2  1 -1 9 -1 8 1 7 -1 6 1 5 -1 4 -1 0
2  29 1 3 -1 0
2  3 1 29 -1 0
1
              1               0               0               0 
              0               1               0               0 
              0               0               1             3.8 
2  11 -1 50 1 12 1 13 -1 2 1 29 -1 0
2  1 -1 9 -1 8 1 7 -1 6 1 5 -1 4 -1 3 1 29 -1 0
2  29 1 3 -1 30 1 0
2  7 1 8 -1 9 1 0
2  11 -1 50 1 12 1 13 -1 2 1 3 -1 4 1 5 1 6 -1 0
2  15 1 11 -1 50 1 12 1 13 -1 2 1 3 -1 4 1 5 1 6 -1 0
2  9 -1 8 1 7 -1 6 1 5 -1 4 -1 3 1 2 -1 13 1 12 -1 50 -1 11 1 15 -1 0
2  1 -1 9 -1 8 1 7 -1 6 1 5 -1 4 -1 3 1 2 -1 13 1 12 -1 50 -1 11 1 15 -1 0
1
              1               0               0              -0 
              0               1               0               0 
              0               0               1             3.8 
2  59 1 6 -1 0
2  11 -1 50 1 12 1 13 -1 2 1 3 -1 4 1 5 1 59 -1 0
2  9 -1 8 1 7 -1 6 1 59 -1 0
2  1 -1 9 -1 8 1 7 -1 6 1 59 -1 0
2  29 1 3 -1 4 1 5 1 6 -1 0
2  13 -1 37 1 2 1 3 -1 4 1 5 1 6 -1 7 1 8 -1 9 1 0
2  29 1 3 -1 30 1 4 1 5 1 6 -1 7 1 8 -1 9 1 0
2  15 1 11 -1 50 1 12 1 13 -1 2 1 3 -1 4 1 5 1 6 -1 7 1 8 -1 9 1 0
2  9 -1 8 1 7 -1 0
2  1 -1 9 -1 8 1 7 -1 0
1
              1               0               0               0 
              0               1               0               0 
              0               0               1             1.5 
2  59 1 6 -1 70 1 7 1 8 -1 9 1 0
2  9 -1 8 1 7 -1 70 -1 6 1 59 -1 0
2  59 -1 0
2  1 -1 9 -1 8 1 7 -1 70 -1 6 1 59 -1 0
2  1 -1 0
2  15 1 11 -1 12 1 13 -1 2 1 3 -1 4 1 5 1 6 -1 7 1 8 -1 9 1 0
2  6 -1 70 1 7 1 8 -1 0
2  59 1 6 -1 70 1 7 1 8 -1 0
1
              1               0               0              -0 
              0               1               0               0 
              0               0               1             5.3 
2  79 1 8 -1 0
2  6 -1 70 1 7 1 79 -1 0
2  8 1 79 -1 0
2  1 -1 9 -1 8 1 79 -1 0
2  9 -1 0
2  1 -1 9 -1 0
1
              1               0               0               0 
              0               1               0               0 
              0               0               1             2.3 
2  79 1 8 -1 86 1 0
2  86 -1 8 1 79 -1 0
2  79 -1 0
2  1 -1 9 -1 86 -1 8 1 79 -1 0
2  8 -1 86 1 9 1 0
2  9 -1 86 -1 8 1 79 -1 0
2  79 1 8 -1 86 1 9 1 0
2  59 1 6 -1 7 1 8 -1 9 1 0
Curve2ds 66
1 0 0 1 0 
1 0 0 0 1 
1 0 -15.02 0 1 
1 0 0 0 -1 
1 50.399999999999999 0 0 -1 
1 0 -0 0 1 
1 50.399999999999999 -15.02 -1 0 
1 0 0 0 -1 
2 25.199999999999999 -7.5099999999999998 1 0 0 -1 1.48
1 0 0 1 0 
1 0 0 1 0 
1 0 -50.399999999999999 1 0 
1 7.5999999999999996 0 0 -1 
1 0 -15.02 0 1 
1 0 -15.02 1 0 
1 0 0 -1 0 
1 0 0 0 -1 
1 6.2831853071795862 0 0 -1 
1 0 -0.51000000000000001 1 0 
2 -1.48 0 1 0 0 -1 1.48
1 0 0 1 0 
1 -7.5999999999999996 0 0 1 
1 4.1999999999999993 0 0 -1 
1 0 -3.7999999999999998 1 0 
1 4.1999999999999993 -15.02 -1 0 
1 7.5999999999999996 -46.200000000000003 0 -1 
1 0 0 0 -1 
1 -3.7999999999999998 4.1999999999999993 -1 0 
1 0 0 1 0 
1 4.1999999999999993 0 0 -1 
1 15.02 0 0 -1 
1 3.7999999999999998 -46.200000000000003 1 0 
1 0 0 1 0 
1 -3.7999999999999998 0 0 1 
1 46.200000000000003 -15.02 0 1 
1 0 0 0 -1 
1 50.399999999999999 -15.02 -1 0 
1 3.7999999999999998 0 0 -1 
1 -3.7999999999999998 46.200000000000003 -1 0 
1 0 -15.02 1 0 
1 -5.2999999999999998 46.200000000000003 0 1 
1 0 0 1 0 
1 -3.7999999999999998 50.399999999999999 -1 0 
1 -3.7999999999999998 -0 -1 -0 
1 4.1999999999999993 0 0 -1 
1 -5.2999999999999998 -0 0 1 
1 0 -2.1999999999999993 1 0 
1 0 0 1 0 
1 0 -15.02 0 1 
1 1.5 0 0 -1 
1 0 0 0 -1 
1 1.5 -12.82 1 0 
1 0 -2.2999999999999998 1 0 
1 0 0 1 0 
1 4.1999999999999993 0 0 -1 
1 -5.2999999999999998 2.1999999999999993 -1 -0 
1 4.1999999999999993 0 0 -1 
1 -7.5999999999999996 2.1999999999999993 0 1 
1 4.1999999999999993 -12.82 -1 0 
1 7.5999999999999996 0 0 -1 
1 0 -12.82 0 1 
1 3.7999999999999998 0 0 -1 
1 -5.2999999999999998 15.02 -1 -0 
1 5.2999999999999998 0 1 0 
1 5.2999999999999998 -4.1999999999999993 1 0 
1 1.5 0 1 0 
Curves 33
1 -25.199999999999999 7.5099999999999998 0 1 0 0 
1 -25.199999999999999 -7.5099999999999998 0 0 1 0 
1 25.199999999999999 7.5099999999999998 0 0 -1 0 
1 25.199999999999999 -7.5099999999999998 0 -1 0 0 
2 0 0 0 0 0 1 1 0 -0 -0 1 0 1.48
1 -25.199999999999999 -7.5099999999999998 0 0 0 1 
1 -25.199999999999999 -7.5099999999999998 0 0 1 0 
1 -25.199999999999999 7.5099999999999998 0 0 0 1 
1 1.48 0 0 0 0 -1 
2 0 0 0 0 0 1 1 0 -0 -0 1 0 1.48
1 -25.199999999999999 7.5099999999999998 0 1 0 0 
1 -21 7.5099999999999998 0 0 -1 0 
1 -21 -7.5099999999999998 0 -1 0 0 
1 -21 7.5099999999999998 3.7999999999999998 0 0 1 
1 -21 7.5099999999999998 0 0 -1 0 
1 -21 -7.5099999999999998 3.7999999999999998 0 0 1 
1 -25.199999999999999 7.5099999999999998 0 1 0 0 
1 21 -7.5099999999999998 0 0 1 0 
1 25.199999999999999 -7.5099999999999998 0 -1 0 0 
1 21 7.5099999999999998 3.7999999999999998 0 0 1 
1 21 7.5099999999999998 0 1 0 0 
1 25.199999999999999 7.5099999999999998 3.7999999999999998 0 0 1 
1 25.199999999999999 7.5099999999999998 0 0 -1 0 
1 21 5.3100000000000005 0 1 0 0 
1 21 -7.5099999999999998 0 0 1 0 
1 21 5.3100000000000005 5.2999999999999998 0 0 1 
1 21 5.3100000000000005 0 1 0 0 
1 25.199999999999999 5.3100000000000005 5.2999999999999998 0 0 1 
1 25.199999999999999 5.3100000000000005 0 0 -1 0 
1 25.199999999999999 -7.5099999999999998 0 -1 0 0 
1 21 -7.5099999999999998 0 0 1 0 
1 25.199999999999999 -7.5099999999999998 5.2999999999999998 0 0 1 
1 21 -7.5099999999999998 5.2999999999999998 0 0 1 
Polygon3D 0
PolygonOnTriangulations 0
Surfaces 14
1 -25.199999999999999 7.5099999999999998 0 -0 0 1 1 0 0 0 1 -0 
1 -25.199999999999999 7.5099999999999998 0 0 -1 0 0 -0 -1 1 0 0 
1 -25.199999999999999 -7.5099999999999998 0 1 0 0 -0 0 1 0 -1 0 
1 25.199999999999999 7.5099999999999998 0 -1 0 0 0 0 -1 -0 -1 -0 
1 25.199999999999999 -7.5099999999999998 0 0 1 -0 0 0 1 1 -0 0 
2 0 0 0 -0 -0 1 1 0 0 0 -1 -0 1.48
1 -25.199999999999999 7.5099999999999998 3.7999999999999998 -0 0 1 1 0 0 0 1 -0 
1 1.48 0 0 0 0 1 1 0 -0 -0 1 0 
1 -21 7.5099999999999998 3.7999999999999998 1 0 -0 0 -1 0 0 -0 -1 
1 -25.199999999999999 7.5099999999999998 0 -0 0 1 1 0 0 0 1 -0 
1 21 -7.5099999999999998 3.7999999999999998 1 0 0 -0 0 1 0 -1 0 
1 21 7.5099999999999998 3.7999999999999998 -0 0 1 1 0 0 0 1 -0 
1 21 5.3100000000000005 5.2999999999999998 0 1 0 1 0 0 0 0 -1 
1 21 5.3100000000000005 5.2999999999999998 -0 0 1 1 0 0 0 1 -0 
Triangulations 0

TShapes 86
Ve
1e-007
-25.2 7.51 0
0 0

0101101
*
Ve
1e-007
25.2 7.51 0
0 0

0101101
*
Ed
 1e-007 1 1 0
1  1 0 0 50.4
2  1 1 17 0 50.4
2  2 2 18 0 50.4
0

0101000
+86 19 -85 19 *
Ve
1e-007
-25.2 -7.51 0
0 0

0101101
*
Ed
 1e-007 1 1 0
1  2 0 0 15.02
2  3 1 17 0 15.02
2  4 3 20 0 15.02
0

0101000
+83 19 -86 19 *
Ve
1e-007
25.2 -7.51 0
0 0

0101101
*
Ed
 1e-007 1 1 0
1  3 0 0 15.02
2  5 1 17 0 15.02
2  6 4 18 0 15.02
0

0101000
+85 19 -81 19 *
Ed
 1e-007 1 1 0
1  4 0 0 50.4
2  7 1 17 0 50.4
2  8 5 18 0 50.4
0

0101000
+81 19 -83 19 *
Wi

0101000
-84 16 -82 16 -80 16 -79 16 *
Ve
1e-007
1.48 0 0
0 0

0101101
*
Ed
 1e-007 1 1 0
1  5 0 0 6.28318530717959
2  9 1 23 0 6.28318530717959
2  10 6 24 0 6.28318530717959
0

0101100
+77 25 -77 25 *
Wi

0101000
+76 22 *
Fa
0  1e-007 1 14

0101000
+78 0 +75 0 *
Ve
1e-007
-25.2 -7.51 7.6
0 0

0101101
*
Ed
 1e-007 1 1 0
1  6 0 0 7.6
2  11 3 0 0 7.6
2  12 5 27 0 7.6
0

0101000
+83 28 -73 28 *
Ve
1e-007
-25.2 7.51 7.6
0 0

0101101
*
Ed
 1e-007 1 1 0
1  7 0 0 15.02
2  13 3 32 0 15.02
2  14 7 33 0 15.02
0

0101000
+73 34 -71 34 *
Ed
 1e-007 1 1 0
1  8 0 0 7.6
2  15 3 0 0 7.6
2  16 2 27 0 7.6
0

0101000
+86 28 -71 28 *
Wi

0101000
+72 0 +70 31 -69 0 -82 35 *
Fa
0  1e-007 3 0

0101000
-68 0 *
Ve
1e-007
1.48 0 -0.51
0 0

0101101
*
Ed
 1e-007 1 1 0
1  9 0 0 0.51
3  17 18CN 6 0 0 0.51
0

0101000
+77 36 -66 36 *
Ed
 1e-007 1 1 0
1  10 0 0 6.28318530717959
2  19 6 39 0 6.28318530717959
2  20 8 40 0 6.28318530717959
0

0101100
+66 41 -66 41 *
Wi

0101000
-76 22 -65 0 +64 38 +65 0 *
Fa
0  1e-007 6 0

0101000
+63 0 *
Ve
1e-007
-21 7.51 7.6
0 0

0101101
*
Ed
 1e-007 1 1 0
1  11 0 0 4.2
2  21 7 33 0 4.2
2  22 2 43 0 4.2
0

0101000
+71 34 -61 34 *
Ve
1e-007
-21 -7.51 7.6
0 0

0101101
*
Ed
 1e-007 1 1 0
1  12 0 0 15.02
2  23 7 33 0 15.02
2  24 9 44 0 15.02
0

0101000
+61 34 -59 34 *
Ed
 1e-007 1 1 0
1  13 0 0 4.2
2  25 7 33 0 4.2
2  26 5 43 0 4.2
0

0101000
+59 34 -73 34 *
Wi

0101100
+60 0 +58 0 +57 0 +70 0 *
Fa
0  1e-007 7 0

0101000
-56 29 *
Ve
1e-007
-21 7.51 3.8
0 0

0101101
*
Ed
 1e-007 1 1 0
1  14 0 0 3.8
2  27 9 0 0 3.8
2  28 2 46 0 3.8
0

0101000
+54 47 -61 47 *
Ve
1e-007
-21 -7.51 3.8
0 0

0101101
*
Ed
 1e-007 1 1 0
1  15 0 0 15.02
2  29 9 49 0 15.02
2  30 10 51 0 15.02
0

0101000
+54 52 -52 52 *
Ed
 1e-007 1 1 0
1  16 0 0 3.8
2  31 9 0 0 3.8
2  32 5 46 0 3.8
0

0101000
+52 47 -59 47 *
Wi

0101000
+53 0 -51 48 +58 53 -50 0 *
Fa
0  1e-007 9 0

0101000
+49 0 *
Ve
1e-007
21 7.51 3.8
0 0

0101101
*
Ed
 1e-007 1 1 0
1  17 0 4.2 46.2
2  33 10 17 4.2 46.2
2  34 2 57 4.2 46.2
0

0101000
+54 58 -47 58 *
Ve
1e-007
21 -7.51 3.8
0 0

0101101
*
Ed
 1e-007 1 1 0
1  18 0 0 15.02
2  35 10 61 0 15.02
2  36 11 62 0 15.02
0

0101000
+45 63 -47 63 *
Ed
 1e-007 1 1 0
1  19 0 4.2 46.2
2  37 10 17 4.2 46.2
2  38 5 57 4.2 46.2
0

0101000
+45 58 -52 58 *
Wi

0101000
-46 56 +44 60 -43 56 +51 64 *
Fa
0  1e-007 10 55

0101000
+42 0 *
Wi

0101100
+64 0 *
Fa
0  1e-007 8 0

0101000
-40 21 *
Ve
1e-007
21 7.51 5.3
0 0

0101101
*
Ed
 1e-007 1 1 0
1  20 0 0 1.5
2  39 2 68 0 1.5
2  40 11 68 0 1.5
0

0101000
+47 69 -38 69 *
Ve
1e-007
25.2 7.51 5.3
0 0

0101101
*
Ed
 1e-007 1 1 0
1  21 0 0 4.2
2  41 2 72 0 4.2
2  42 12 73 0 4.2
0

0101000
+38 74 -36 74 *
Ed
 1e-007 1 1 0
1  22 0 -3.8 1.5
2  43 2 0 -3.8 1.5
2  44 4 0 -3.8 1.5
0

0101000
+85 75 -36 75 *
Wi

0101000
+69 26 +60 66 -53 45 +46 67 +37 54 +35 71 -34 0 -84 76 *
Fa
0  1e-007 2 0

0101000
-33 0 *
Ve
1e-007
25.2 5.31 5.3
0 0

0101101
*
Ed
 1e-007 1 1 0
1  23 0 0 2.2
2  45 12 73 0 2.2
2  46 4 72 0 2.2
0

0101000
+36 74 -31 74 *
Ve
1e-007
21 5.31 5.3
0 0

0101101
*
Ed
 1e-007 1 1 0
1  24 0 0 4.2
2  47 12 81 0 4.2
2  48 13 82 0 4.2
0

0101000
+29 83 -31 83 *
Ed
 1e-007 1 1 0
1  25 0 12.82 15.02
2  49 12 73 12.82 15.02
2  50 11 72 12.82 15.02
0

0101000
+29 74 -38 74 *
Wi

0101000
-35 78 -30 78 +28 80 -27 78 *
Fa
0  1e-007 12 77

0101000
+26 0 *
Ve
1e-007
21 5.31 7.6
0 0

0101101
*
Ed
 1e-007 1 1 0
1  26 0 0 2.3
2  51 13 0 0 2.3
2  52 11 84 0 2.3
0

0101000
+29 85 -24 85 *
Ve
1e-007
25.2 5.31 7.6
0 0

0101101
*
Ed
 1e-007 1 1 0
1  27 0 0 4.2
2  53 13 88 0 4.2
2  54 14 89 0 4.2
0

0101000
+24 90 -22 90 *
Ed
 1e-007 1 1 0
1  28 0 0 2.3
2  55 13 0 0 2.3
2  56 4 84 0 2.3
0

0101000
+31 85 -22 85 *
Wi

0101000
+23 0 -28 80 +21 87 -20 0 *
Fa
0  1e-007 13 0

0101000
+19 0 *
Ve
1e-007
25.2 -7.51 7.6
0 0

0101101
*
Ed
 1e-007 1 1 0
1  29 0 0 12.82
2  57 14 89 0 12.82
2  58 4 92 0 12.82
0

0101000
+22 90 -17 90 *
Ve
1e-007
21 -7.51 7.6
0 0

0101101
*
Ed
 1e-007 1 1 0
1  30 0 0 4.2
2  59 14 89 0 4.2
2  60 5 92 0 4.2
0

0101000
+17 90 -15 90 *
Ed
 1e-007 1 1 0
1  31 0 0 12.82
2  61 14 89 0 12.82
2  62 11 92 0 12.82
0

0101000
+15 90 -24 90 *
Wi

0101100
+21 0 +16 0 +14 0 +13 0 *
Fa
0  1e-007 14 0

0101000
-12 79 *
Ed
 1e-007 1 1 0
1  32 0 -5.3 2.3
2  63 4 0 -5.3 2.3
2  64 5 0 -5.3 2.3
0

0101000
+81 75 -17 75 *
Wi

0101000
+34 0 +30 71 +20 9 +16 93 -10 0 -80 76 *
Fa
0  1e-007 4 0

0101000
-9 0 *
Ed
 1e-007 1 1 0
1  33 0 -1.5 2.3
2  65 5 0 -1.5 2.3
2  66 11 0 -1.5 2.3
0

0101000
+45 75 -15 75 *
Wi

0101000
+10 0 +14 93 -7 0 +43 67 +50 45 +57 66 -72 26 -79 76 *
Fa
0  1e-007 5 0

0101000
-6 0 *
Wi

0101000
+7 0 +13 93 -23 9 +27 71 -37 54 -44 94 *
Fa
0  1e-007 11 0

0101000
-4 0 *
Sh

0101000
-74 10 -67 26 -62 10 +55 42 +48 45 +41 54 -39 65 -32 0 +25 9 +18 9 
+11 91 -8 0 -5 0 -3 0 *
So

0100000
+2 0 *

+1 1 