DBRep_DrawableShape

CASCADE Topology V1, (c) Matra-Datavision
Locations 30
1
              1               0               0               0 
              0               1               0               0 
              0               0               1               0 
1
              1               0               0               0 
              0               1               0               0 
              0               0               1               0 
1
              1               0               0               0 
              0               1               0               0 
              0               0               1               0 
2  2 1 3 -1 0
2  1 -1 3 1 2 -1 0
1
              1               0               0               0 
              0               1               0               0 
              0               0               1               0 
1
              1               0               0               0 
              0               1               0               0 
              0               0               1               0 
2  6 1 7 -1 0
2  7 1 6 -1 0
2  6 -1 0
2  1 -1 3 1 2 -1 7 1 6 -1 0
1
              1               0               0               0 
              0               1               0               0 
              0               0               1             3.8 
2  6 1 7 -1 12 1 0
2  12 -1 7 1 6 -1 0
2  1 -1 3 1 2 -1 12 -1 7 1 6 -1 0
2  7 -1 2 1 3 -1 0
2  6 1 7 -1 2 1 3 -1 0
1
              1               0               0               0 
              0              -1               0              -0 
              0               0              -1               0 
2  18 1 3 -1 0
2  7 -1 2 1 18 -1 0
2  3 1 18 -1 0
2  1 -1 3 1 18 -1 0
2  7 -1 12 1 2 1 3 -1 0
2  1 -1 0
1
              1               0               0               0 
              0               1               0               0 
              0               0               1           -0.51 
2  18 1 3 -1 25 1 0
2  25 -1 3 1 18 -1 0
2  18 -1 0
2  1 -1 25 -1 3 1 18 -1 0
2  3 -1 25 1 0
Curve2ds 30
1 0 0 0 -1 
1 15.02 0 0 -1 
1 50.399999999999999 0 0 -1 
1 0 0 0 -1 
1 0 0 1 0 
1 0 0 1 0 
1 0 -3.7999999999999998 1 0 
1 0 0 1 0 
1 0 0 0 -1 
1 50.399999999999999 0 0 -1 
1 0 0 1 0 
1 0 -15.02 0 1 
1 0 -3.7999999999999998 1 0 
1 0 -15.02 0 1 
1 15.02 0 0 -1 
1 0 -0 0 -1 
1 0 0 1 0 
1 50.399999999999999 0 0 -1 
1 0 -3.7999999999999998 1 0 
1 50.399999999999999 0 0 -1 
1 50.399999999999999 -15.02 -1 0 
1 0 -0 1 0 
2 25.199999999999999 -7.5099999999999998 1 0 0 -1 1.48
1 0 0 1 0 
1 50.399999999999999 -15.02 -1 0 
1 0 -3.7999999999999998 1 0 
1 0 0 0 -1 
1 6.2831853071795862 0 0 -1 
1 0 -0.51000000000000001 1 0 
2 -1.48 0 1 0 0 -1 1.48
Curves 15
1 -25.199999999999999 7.5099999999999998 0 0 0 1 
1 25.199999999999999 7.5099999999999998 0 0 0 1 
1 -25.199999999999999 7.5099999999999998 0 1 0 0 
1 -25.199999999999999 7.5099999999999998 0 1 0 0 
1 -25.199999999999999 -7.5099999999999998 0 0 0 1 
1 -25.199999999999999 -7.5099999999999998 0 0 1 0 
1 -25.199999999999999 -7.5099999999999998 0 0 1 0 
1 25.199999999999999 -7.5099999999999998 0 0 0 1 
1 25.199999999999999 7.5099999999999998 0 0 -1 0 
1 25.199999999999999 7.5099999999999998 0 0 -1 0 
1 25.199999999999999 -7.5099999999999998 0 -1 0 0 
2 0 0 0 0 0 1 1 0 -0 -0 1 0 1.48
1 25.199999999999999 -7.5099999999999998 0 -1 0 0 
1 1.48 0 0 0 0 -1 
2 0 0 0 0 0 1 1 0 -0 -0 1 0 1.48
Polygon3D 0
PolygonOnTriangulations 0
Surfaces 8
1 -25.199999999999999 7.5099999999999998 0 0 1 0 1 0 0 0 0 -1 
1 -25.199999999999999 -7.5099999999999998 0 -1 0 0 0 1 0 0 0 -1 
1 25.199999999999999 7.5099999999999998 0 1 0 -0 0 -1 0 0 -0 -1 
1 -25.199999999999999 7.5099999999999998 0 -0 0 1 1 0 0 0 1 -0 
1 -25.199999999999999 7.5099999999999998 0 -0 0 1 1 0 0 0 1 -0 
1 25.199999999999999 -7.5099999999999998 0 0 -1 0 -1 0 0 -0 -0 -1 
2 0 0 0 -0 -0 1 1 0 0 0 -1 -0 1.48
1 1.48 0 0 0 0 1 1 0 -0 -0 1 0 
Triangulations 0

TShapes 44
Ve
1e-007
-25.2 7.51 0
0 0

0101101
*
Ve
1e-007
-25.2 7.51 3.8
0 0

0101101
*
Ed
 1e-007 1 1 0
1  1 0 0 3.8
2  1 1 0 0 3.8
2  2 2 0 0 3.8
0

0101000
+44 5 -43 5 *
Ve
1e-007
25.2 7.51 0
0 0

0101101
*
Ve
1e-007
25.2 7.51 3.8
0 0

0101101
*
Ed
 1e-007 1 1 0
1  2 0 0 3.8
2  3 1 0 0 3.8
2  4 3 0 0 3.8
0

0101000
+41 5 -40 5 *
Ed
 1e-007 1 1 0
1  3 0 0 50.4
2  5 1 9 0 50.4
2  6 4 10 0 50.4
0

0101000
+44 11 -41 11 *
Ed
 1e-007 1 1 0
1  4 0 0 50.4
2  7 1 14 0 50.4
2  8 5 10 0 50.4
0

0101000
+43 15 -40 15 *
Wi

0101000
+42 0 -39 0 -38 8 +37 13 *
Fa
0  1e-007 1 0

0101000
+36 0 *
Ve
1e-007
-25.2 -7.51 0
0 0

0101101
*
Ve
1e-007
-25.2 -7.51 3.8
0 0

0101101
*
Ed
 1e-007 1 1 0
1  5 0 0 3.8
2  9 2 0 0 3.8
2  10 6 0 0 3.8
0

0101000
+34 5 -33 5 *
Ed
 1e-007 1 1 0
1  6 0 0 15.02
2  11 2 9 0 15.02
2  12 4 10 0 15.02
0

0101000
+34 11 -44 11 *
Ed
 1e-007 1 1 0
1  7 0 0 15.02
2  13 2 14 0 15.02
2  14 5 10 0 15.02
0

0101000
+33 15 -43 15 *
Wi

0101000
+32 0 -42 0 -31 8 +30 13 *
Fa
0  1e-007 2 0

0101000
+29 0 *
Ve
1e-007
25.2 -7.51 0
0 0

0101101
*
Ve
1e-007
25.2 -7.51 3.8
0 0

0101101
*
Ed
 1e-007 1 1 0
1  8 0 0 3.8
2  15 3 0 0 3.8
2  16 6 0 0 3.8
0

0101000
+27 5 -26 5 *
Ed
 1e-007 1 1 0
1  9 0 0 15.02
2  17 3 9 0 15.02
2  18 4 10 0 15.02
0

0101000
+41 11 -27 11 *
Ed
 1e-007 1 1 0
1  10 0 0 15.02
2  19 3 14 0 15.02
2  20 5 10 0 15.02
0

0101000
+40 15 -26 15 *
Wi

0101000
+39 0 -25 0 -24 8 +23 13 *
Fa
0  1e-007 3 0

0101000
+22 0 *
Ed
 1e-007 1 1 0
1  11 0 0 50.4
2  21 4 10 0 50.4
2  22 6 9 0 50.4
0

0101000
+27 11 -34 11 *
Wi

0101000
-38 17 -31 17 -24 17 -20 17 *
Ve
1e-007
1.48 0 0
0 0

0101101
*
Ed
 1e-007 1 1 0
1  12 0 0 6.28318530717959
2  23 4 20 0 6.28318530717959
2  24 7 21 0 6.28318530717959
0

0101100
+18 22 -18 22 *
Wi

0101000
+17 19 *
Fa
0  1e-007 4 16

0101000
+19 0 +16 0 *
Ed
 1e-007 1 1 0
1  13 0 0 50.4
2  25 5 10 0 50.4
2  26 6 14 0 50.4
0

0101000
+26 15 -33 15 *
Wi

0101100
+37 0 +23 0 +14 0 +30 0 *
Fa
0  1e-007 5 0

0101000
-13 6 *
Wi

0101000
+25 0 -32 0 -20 8 +14 13 *
Fa
0  1e-007 6 0

0101000
+11 0 *
Ve
1e-007
1.48 0 -0.51
0 0

0101101
*
Ed
 1e-007 1 1 0
1  14 0 0 0.51
3  27 28CN 7 0 0 0.51
0

0101000
+18 24 -9 24 *
Ed
 1e-007 1 1 0
1  15 0 0 6.28318530717959
2  29 7 27 0 6.28318530717959
2  30 8 28 0 6.28318530717959
0

0101100
+9 29 -9 29 *
Wi

0101000
-17 19 -8 0 +7 26 +8 0 *
Fa
0  1e-007 7 0

0101000
+6 0 *
Wi

0101100
+7 0 *
Fa
0  1e-007 8 0

0101000
-4 18 *
Sh

0101100
+35 4 +28 4 +21 4 -15 0 +12 23 +10 4 -5 0 -3 30 *
So

0100000
+2 0 *

+1 1 