DBRep_DrawableShape

CASCADE Topology V1, (c) Matra-Datavision
Locations 40
1
              1               0               0               0 
              0               1               0               0 
              0               0               1               0 
1
              1               0               0               0 
              0              -1               0               0 
             -0               0              -1               0 
2  1 -1 2 -1 0
1
              1               0               0               0 
              0              -1               0               0 
             -0               0              -1               0 
1
              1               0               0               0 
              0              -1 1.22464679914735e-016               0 
              0 -1.22464679914735e-016              -1               0 
2  4 1 5 -1 0
2  5 1 4 -1 0
2  4 -1 0
2  1 -1 2 -1 5 1 4 -1 0
1
              1               0               0               0 
              0               1               0 6.2456986756515e-017 
              0               0               1            0.51 
2  4 1 5 -1 10 1 0
2  10 -1 5 1 4 -1 0
2  1 -1 2 -1 10 -1 5 1 4 -1 0
2  5 -1 0
2  5 -1 10 1 0
1
              1               0               0               0 
              0               1               0           -5.31 
              0               0               1               0 
2  2 1 16 1 0
2  1 -1 16 -1 2 -1 0
2  1 -1 16 -1 2 -1 5 1 4 -1 0
2  1 -1 16 -1 2 -1 10 -1 5 1 4 -1 0
1
              1               0               0               0 
              0               1               0          -10.62 
              0               0               1               0 
2  2 1 21 1 0
2  1 -1 21 -1 2 -1 0
2  1 -1 21 -1 2 -1 5 1 4 -1 0
2  1 -1 21 -1 2 -1 10 -1 5 1 4 -1 0
1
              1               0               0              46 
              0               1               0               0 
              0               0               1               0 
2  2 1 26 1 0
2  1 -1 26 -1 2 -1 0
2  1 -1 26 -1 2 -1 5 1 4 -1 0
2  1 -1 26 -1 2 -1 10 -1 5 1 4 -1 0
1
              1               0               0              46 
              0               1               0           -5.31 
              0               0               1               0 
2  2 1 31 1 0
2  1 -1 31 -1 2 -1 0
2  1 -1 31 -1 2 -1 5 1 4 -1 0
2  1 -1 31 -1 2 -1 10 -1 5 1 4 -1 0
1
              1               0               0              46 
              0               1               0          -10.62 
              0               0               1               0 
2  2 1 36 1 0
2  1 -1 36 -1 2 -1 0
2  1 -1 36 -1 2 -1 5 1 4 -1 0
2  1 -1 36 -1 2 -1 10 -1 5 1 4 -1 0
Curve2ds 36
1 0 0 0 -1 
1 6.2831853071795862 0 0 -1 
1 0 0 1 0 
2 -1.4800000000000004 0 1 0 0 -1 1.4800000000000004
1 0 -0.51000000000000001 1 0 
2 -1.4800000000000004 0 1 0 0 -1 1.4800000000000004
1 0 0 0 -1 
1 6.2831853071795862 0 0 -1 
1 0 0 1 0 
2 -1.4800000000000004 0 1 0 0 -1 1.4800000000000004
1 0 -0.51000000000000001 1 0 
2 -1.4800000000000004 0 1 0 0 -1 1.4800000000000004
1 0 0 0 -1 
1 6.2831853071795862 0 0 -1 
1 0 0 1 0 
2 -1.4800000000000004 0 1 0 0 -1 1.4800000000000004
1 0 -0.51000000000000001 1 0 
2 -1.4800000000000004 0 1 0 0 -1 1.4800000000000004
1 0 0 0 -1 
1 6.2831853071795862 0 0 -1 
1 0 0 1 0 
2 -1.4800000000000004 0 1 0 0 -1 1.4800000000000004
1 0 -0.51000000000000001 1 0 
2 -1.4800000000000004 0 1 0 0 -1 1.4800000000000004
1 0 0 0 -1 
1 6.2831853071795862 0 0 -1 
1 0 0 1 0 
2 -1.4800000000000004 0 1 0 0 -1 1.4800000000000004
1 0 -0.51000000000000001 1 0 
2 -1.4800000000000004 0 1 0 0 -1 1.4800000000000004
1 0 0 0 -1 
1 6.2831853071795862 0 0 -1 
1 0 0 1 0 
2 -1.4800000000000004 0 1 0 0 -1 1.4800000000000004
1 0 -0.51000000000000001 1 0 
2 -1.4800000000000004 0 1 0 0 -1 1.4800000000000004
Curves 18
1 -21.52 -5.3099999999999996 6.5028745034724447e-016 0 1.2246467991473532e-016 1 
2 -23 -5.3099999999999996 0 0 0 1 1 0 -0 -0 1 0 1.48
2 -23 -5.3099999999999996 0 0 0 1 1 0 -0 -0 1 0 1.48
1 -21.52 -5.3099999999999996 6.5028745034724447e-016 0 1.2246467991473532e-016 1 
2 -23 -5.3099999999999996 0 0 0 1 1 0 -0 -0 1 0 1.48
2 -23 -5.3099999999999996 0 0 0 1 1 0 -0 -0 1 0 1.48
1 -21.52 -5.3099999999999996 6.5028745034724447e-016 0 1.2246467991473532e-016 1 
2 -23 -5.3099999999999996 0 0 0 1 1 0 -0 -0 1 0 1.48
2 -23 -5.3099999999999996 0 0 0 1 1 0 -0 -0 1 0 1.48
1 -21.52 -5.3099999999999996 6.5028745034724447e-016 0 1.2246467991473532e-016 1 
2 -23 -5.3099999999999996 0 0 0 1 1 0 -0 -0 1 0 1.48
2 -23 -5.3099999999999996 0 0 0 1 1 0 -0 -0 1 0 1.48
1 -21.52 -5.3099999999999996 6.5028745034724447e-016 0 1.2246467991473532e-016 1 
2 -23 -5.3099999999999996 0 0 0 1 1 0 -0 -0 1 0 1.48
2 -23 -5.3099999999999996 0 0 0 1 1 0 -0 -0 1 0 1.48
1 -21.52 -5.3099999999999996 6.5028745034724447e-016 0 1.2246467991473532e-016 1 
2 -23 -5.3099999999999996 0 0 0 1 1 0 -0 -0 1 0 1.48
2 -23 -5.3099999999999996 0 0 0 1 1 0 -0 -0 1 0 1.48
Polygon3D 0
PolygonOnTriangulations 0
Surfaces 18
2 -23 -5.3099999999999996 6.5028745034724447e-016 0 -1.2246467991473532e-016 -1 1 0 0 -0 1 -1.2246467991473532e-016 1.48
1 -21.52 5.3099999999999996 0 0 0 1 1 0 -0 -0 1 0 
1 -21.52 5.3099999999999996 0 0 0 1 1 0 -0 -0 1 0 
2 -23 -5.3099999999999996 6.5028745034724447e-016 0 -1.2246467991473532e-016 -1 1 0 0 -0 1 -1.2246467991473532e-016 1.48
1 -21.52 5.3099999999999996 0 0 0 1 1 0 -0 -0 1 0 
1 -21.52 5.3099999999999996 0 0 0 1 1 0 -0 -0 1 0 
2 -23 -5.3099999999999996 6.5028745034724447e-016 0 -1.2246467991473532e-016 -1 1 0 0 -0 1 -1.2246467991473532e-016 1.48
1 -21.52 5.3099999999999996 0 0 0 1 1 0 -0 -0 1 0 
1 -21.52 5.3099999999999996 0 0 0 1 1 0 -0 -0 1 0 
2 -23 -5.3099999999999996 6.5028745034724447e-016 0 -1.2246467991473532e-016 -1 1 0 0 -0 1 -1.2246467991473532e-016 1.48
1 -21.52 5.3099999999999996 0 0 0 1 1 0 -0 -0 1 0 
1 -21.52 5.3099999999999996 0 0 0 1 1 0 -0 -0 1 0 
2 -23 -5.3099999999999996 6.5028745034724447e-016 0 -1.2246467991473532e-016 -1 1 0 0 -0 1 -1.2246467991473532e-016 1.48
1 -21.52 5.3099999999999996 0 0 0 1 1 0 -0 -0 1 0 
1 -21.52 5.3099999999999996 0 0 0 1 1 0 -0 -0 1 0 
2 -23 -5.3099999999999996 6.5028745034724447e-016 0 -1.2246467991473532e-016 -1 1 0 0 -0 1 -1.2246467991473532e-016 1.48
1 -21.52 5.3099999999999996 0 0 0 1 1 0 -0 -0 1 0 
1 -21.52 5.3099999999999996 0 0 0 1 1 0 -0 -0 1 0 
Triangulations 0

TShapes 79
Ve
1e-007
-21.52 5.31 -6.50287450347244e-016
0 0

0101101
*
Ve
1e-007
-21.52 5.31 -0.510000000000001
0 0

0101101
*
Ed
 1e-007 1 1 0
1  1 0 0 0.51
3  1 2CN 1 0 0 0.51
0

0101000
+79 3 -78 3 *
Ed
 1e-007 1 1 0
1  2 0 0 6.28318530717959
2  3 1 7 0 6.28318530717959
2  4 2 8 0 6.28318530717959
0

0101100
+79 9 -79 9 *
Ed
 1e-007 1 1 0
1  3 0 0 6.28318530717959
2  5 1 12 0 6.28318530717959
2  6 3 8 0 6.28318530717959
0

0101100
+78 13 -78 13 *
Wi

0101000
+77 0 -77 0 -76 6 +75 11 *
Fa
0  1e-007 1 0

0101000
+74 0 *
Wi

0101100
+76 0 *
Fa
0  1e-007 2 0

0101000
-72 4 *
Wi

0101100
+75 0 *
Fa
0  1e-007 3 0

0101000
-70 4 *
Sh

0101100
-73 0 +71 14 -69 15 *
So

0100100
+68 0 *
Ve
1e-007
-21.52 0 -6.50287450347244e-016
0 0

0101101
*
Ve
1e-007
-21.52 0 -0.510000000000001
0 0

0101101
*
Ed
 1e-007 1 1 0
1  4 0 0 0.51
3  7 8CN 4 0 0 0.51
0

0101000
+66 18 -65 18 *
Ed
 1e-007 1 1 0
1  5 0 0 6.28318530717959
2  9 4 7 0 6.28318530717959
2  10 5 8 0 6.28318530717959
0

0101100
+66 19 -66 19 *
Ed
 1e-007 1 1 0
1  6 0 0 6.28318530717959
2  11 4 12 0 6.28318530717959
2  12 6 8 0 6.28318530717959
0

0101100
+65 20 -65 20 *
Wi

0101000
+64 0 -64 0 -63 6 +62 11 *
Fa
0  1e-007 4 0

0101000
+61 0 *
Wi

0101100
+63 0 *
Fa
0  1e-007 5 0

0101000
-59 4 *
Wi

0101100
+62 0 *
Fa
0  1e-007 6 0

0101000
-57 4 *
Sh

0101100
-60 0 +58 14 -56 15 *
So

0100100
+55 0 *
Ve
1e-007
-21.52 -5.31 -6.50287450347244e-016
0 0

0101101
*
Ve
1e-007
-21.52 -5.31 -0.510000000000001
0 0

0101101
*
Ed
 1e-007 1 1 0
1  7 0 0 0.51
3  13 14CN 7 0 0 0.51
0

0101000
+53 23 -52 23 *
Ed
 1e-007 1 1 0
1  8 0 0 6.28318530717959
2  15 7 7 0 6.28318530717959
2  16 8 8 0 6.28318530717959
0

0101100
+53 24 -53 24 *
Ed
 1e-007 1 1 0
1  9 0 0 6.28318530717959
2  17 7 12 0 6.28318530717959
2  18 9 8 0 6.28318530717959
0

0101100
+52 25 -52 25 *
Wi

0101000
+51 0 -51 0 -50 6 +49 11 *
Fa
0  1e-007 7 0

0101000
+48 0 *
Wi

0101100
+50 0 *
Fa
0  1e-007 8 0

0101000
-46 4 *
Wi

0101100
+49 0 *
Fa
0  1e-007 9 0

0101000
-44 4 *
Sh

0101100
-47 0 +45 14 -43 15 *
So

0100100
+42 0 *
Ve
1e-007
24.48 5.31 -6.50287450347244e-016
0 0

0101101
*
Ve
1e-007
24.48 5.31 -0.510000000000001
0 0

0101101
*
Ed
 1e-007 1 1 0
1  10 0 0 0.51
3  19 20CN 10 0 0 0.51
0

0101000
+40 28 -39 28 *
Ed
 1e-007 1 1 0
1  11 0 0 6.28318530717959
2  21 10 7 0 6.28318530717959
2  22 11 8 0 6.28318530717959
0

0101100
+40 29 -40 29 *
Ed
 1e-007 1 1 0
1  12 0 0 6.28318530717959
2  23 10 12 0 6.28318530717959
2  24 12 8 0 6.28318530717959
0

0101100
+39 30 -39 30 *
Wi

0101000
+38 0 -38 0 -37 6 +36 11 *
Fa
0  1e-007 10 0

0101000
+35 0 *
Wi

0101100
+37 0 *
Fa
0  1e-007 11 0

0101000
-33 4 *
Wi

0101100
+36 0 *
Fa
0  1e-007 12 0

0101000
-31 4 *
Sh

0101100
-34 0 +32 14 -30 15 *
So

0100100
+29 0 *
Ve
1e-007
24.48 0 -6.50287450347244e-016
0 0

0101101
*
Ve
1e-007
24.48 0 -0.510000000000001
0 0

0101101
*
Ed
 1e-007 1 1 0
1  13 0 0 0.51
3  25 26CN 13 0 0 0.51
0

0101000
+27 33 -26 33 *
Ed
 1e-007 1 1 0
1  14 0 0 6.28318530717959
2  27 13 7 0 6.28318530717959
2  28 14 8 0 6.28318530717959
0

0101100
+27 34 -27 34 *
Ed
 1e-007 1 1 0
1  15 0 0 6.28318530717959
2  29 13 12 0 6.28318530717959
2  30 15 8 0 6.28318530717959
0

0101100
+26 35 -26 35 *
Wi

0101000
+25 0 -25 0 -24 6 +23 11 *
Fa
0  1e-007 13 0

0101000
+22 0 *
Wi

0101100
+24 0 *
Fa
0  1e-007 14 0

0101000
-20 4 *
Wi

0101100
+23 0 *
Fa
0  1e-007 15 0

0101000
-18 4 *
Sh

0101100
-21 0 +19 14 -17 15 *
So

0100100
+16 0 *
Ve
1e-007
24.48 -5.31 -6.50287450347244e-016
0 0

0101101
*
Ve
1e-007
24.48 -5.31 -0.510000000000001
0 0

0101101
*
Ed
 1e-007 1 1 0
1  16 0 0 0.51
3  31 32CN 16 0 0 0.51
0

0101000
+14 38 -13 38 *
Ed
 1e-007 1 1 0
1  17 0 0 6.28318530717959
2  33 16 7 0 6.28318530717959
2  34 17 8 0 6.28318530717959
0

0101100
+14 39 -14 39 *
Ed
 1e-007 1 1 0
1  18 0 0 6.28318530717959
2  35 16 12 0 6.28318530717959
2  36 18 8 0 6.28318530717959
0

0101100
+13 40 -13 40 *
Wi

0101000
+12 0 -12 0 -11 6 +10 11 *
Fa
0  1e-007 16 0

0101000
+9 0 *
Wi

0101100
+11 0 *
Fa
0  1e-007 17 0

0101000
-7 4 *
Wi

0101100
+10 0 *
Fa
0  1e-007 18 0

0101000
-5 4 *
Sh

0101100
-8 0 +6 14 -4 15 *
So

0100100
+3 0 *
Co

1100000
+67 2 +54 17 +41 22 +28 27 +15 32 +2 37 *

+1 1 