DBRep_DrawableShape

CASCADE Topology V1, (c) Matra-Datavision
Locations 39
1
              1               0               0               0 
              0               1               0               0 
              0               0               1               0 
1
              1               0              -0               0 
             -0 2.22044604925031e-016              -1               0 
              0               1 2.22044604925031e-016               0 
2  1 -1 2 -1 0
1
              1               0              -0               0 
             -0 2.22044604925031e-016              -1               0 
              0               1 2.22044604925031e-016               0 
1
              1               0               0               0 
              0 -2.22044604925031e-016              -1               0 
              0               1 -2.22044604925031e-016               0 
1
              1               0               0              -0 
              0               1               0 -1.66755498298699e-015 
              0               0               1           -7.51 
2  4 1 5 -1 6 1 0
2  6 -1 5 1 4 -1 0
2  4 -1 0
2  1 -1 2 -1 6 -1 5 1 4 -1 0
1
              1               0               0               0 
              0               1               0 3.33510996597397e-015 
              0               0               1           15.02 
2  4 1 5 -1 6 1 11 1 0
2  11 -1 6 -1 5 1 4 -1 0
2  1 -1 2 -1 11 -1 6 -1 5 1 4 -1 0
2  4 1 5 -1 6 1 2 1 0
1
              1               0              -0               0 
             -0 2.22044604925031e-016              -1               0 
              0               1 2.22044604925031e-016               0 
2  2 1 16 -1 0
2  1 -1 16 -1 0
2  4 1 5 -1 6 1 11 1 2 1 0
2  5 -1 6 1 2 1 0
1
              1               0              -0               0 
             -0 2.22044604925031e-016              -1               0 
              0               1 2.22044604925031e-016               0 
1
              1               0               0               0 
              0 -2.22044604925031e-016              -1               0 
              0               1 -2.22044604925031e-016               0 
1
              1               0               0              -0 
              0               1               0 -1.66755498298699e-015 
              0               0               1           -7.51 
2  21 1 22 -1 23 1 16 1 0
2  5 -1 6 1 2 1 16 -1 23 -1 22 1 21 -1 0
2  21 -1 0
2  1 -1 16 -1 23 -1 22 1 21 -1 0
2  5 -1 6 1 11 1 2 1 0
1
              1               0               0               0 
              0               1               0 3.33510996597397e-015 
              0               0               1           15.02 
2  21 1 22 -1 23 1 29 1 16 1 0
2  5 -1 6 1 11 1 2 1 16 -1 29 -1 23 -1 22 1 21 -1 0
2  1 -1 16 -1 29 -1 23 -1 22 1 21 -1 0
2  23 -1 22 1 21 -1 0
2  29 -1 23 -1 22 1 21 -1 0
2  22 -1 23 1 16 1 0
2  16 1 2 -1 0
2  22 -1 23 1 29 1 16 1 0
2  21 1 22 -1 23 1 0
2  21 1 22 -1 23 1 29 1 0
Curve2ds 100
1 0 0 0 -1 
1 0 0 2.2204460492503131e-016 -1 
1 1.5707963267948966 0 0 -1 
1 3.1499999999999968 0 0 -1 
1 0 0 1 0 
2 0 -0.30000000000001847 0 1 1 -0 0.30000000000002203
1 0 -15.02 1 0 
2 0 -0.30000000000001847 0 1 1 -0 0.30000000000002203
1 0 0 1 0 
1 0 3.5527136788005009e-015 -1 0 
1 0.54999999999998117 3.6637359812628912e-016 2.2204460492503131e-016 -1 
1 0 0 0 -1 
1 2.8999025403209078e-015 -15.019999999999998 1 0 
1 0 3.5527136788005009e-015 -1 0 
1 0 0 0 -1 
1 0.40000000000000036 2.6645352591003781e-016 2.2204460492503131e-016 -1 
1 0 -8.8817841970012523e-016 1 0 
1 0.30000000000002292 -3.4500000000000188 0 1 
1 0 -15.02 1 0 
1 0.30000000000002292 -3.4500000000000188 0 1 
1 -3.0499999999999807 7.1054273576010019e-015 1 0 
1 -3.6999999999999997 39.199999999999989 1 0 
1 -2.9999999999999827 3.5527136788005009e-015 0 1 
1 3.5527136788005009e-015 0 1 0 
1 0.70000000000002327 -3.4500000000000188 -1 0 
1 0 0 1 0 
1 -2.9999999999999827 0.40000000000000213 1 0 
1 0 0 1 0 
1 0.70000000000002327 -0.30000000000001847 0 -1 
1 -3.5527136788005009e-015 0 1 0 
2 0 -0.30000000000001847 0 1 1 -0 0.70000000000002416
1 0 0 1 0 
1 -3.0499999999999807 7.1054273576010019e-015 1 0 
1 -3.6999999999999997 39.199999999999989 1 0 
1 -2.9999999999999827 3.5527136788005009e-015 0 1 
1 3.5527136788005009e-015 -15.019999999999998 1 0 
1 0.70000000000002327 -3.4500000000000188 -1 0 
1 2.8999025403209078e-015 -15.019999999999998 1 0 
1 -2.9999999999999827 0.40000000000000213 1 0 
1 -2.8999025403209078e-015 -15.019999999999998 1 0 
1 0.70000000000002327 -0.30000000000001847 0 -1 
1 -3.5527136788005009e-015 -15.019999999999998 1 0 
2 0 -0.30000000000001847 0 1 1 -0 0.70000000000002416
1 0 -15.02 1 0 
1 -3.5527136788005009e-015 0 1 0 
1 -1.2000000000000002 39.199999999999989 0 -1 
1 -3.5527136788005009e-015 -15.019999999999998 1 0 
1 -1.2000000000000002 39.199999999999989 0 -1 
1 0.5 0 0 -1 
1 0 0 -2.2204460492503131e-016 -1 
1 0 0 2.2204460492503131e-016 -1 
1 3.1499999999999968 0 0 -1 
1 0 -3.5527136788005009e-015 -1 0 
1 0 0 1 0 
1 0 35.699999999999989 0 -1 
1 0 0 1 0 
1 -3.6999999999999997 -3.5527136788005009e-015 0 1 
1 -3.5527136788005009e-015 0 1 0 
1 -0.60000000000000053 35.699999999999989 1 0 
1 0 0 1 0 
1 -3.6999999999999997 39.199999999999989 1 0 
1 0 0 1 0 
1 -0.60000000000000053 38.699999999999989 0 -1 
1 -3.5527136788005009e-015 0 1 0 
1 -1.2000000000000002 38.699999999999989 1 0 
1 0 0 1 0 
1 0 0 0 -1 
1 0.049999999999998046 -3.3306690738753395e-017 -2.2204460492503131e-016 -1 
1 0.39999999999999858 0 0 -1 
1 0 0 -2.2204460492503131e-016 -1 
1 2.9999999999999827 -2.2204460492501987e-016 -2.2204460492503131e-016 -1 
1 0 0 0 -1 
1 0 0 0 -1 
1 1.5707963267948966 0 0 -1 
1 0 -3.5527136788005009e-015 -1 0 
1 2.8999025403209078e-015 -15.019999999999998 1 0 
1 0 35.699999999999989 0 -1 
1 0 -15.019999999999998 1 0 
1 -3.6999999999999997 -3.5527136788005009e-015 0 1 
1 -3.5527136788005009e-015 -15.019999999999998 1 0 
1 -0.60000000000000053 35.699999999999989 1 0 
1 -2.8999025403209078e-015 -15.019999999999998 1 0 
1 -3.6999999999999997 39.199999999999989 1 0 
1 -2.8999025403209078e-015 -15.019999999999998 1 0 
1 -0.60000000000000053 38.699999999999989 0 -1 
1 -3.5527136788005009e-015 -15.019999999999998 1 0 
1 -1.2000000000000002 38.699999999999989 1 0 
1 -2.8999025403209078e-015 -15.019999999999998 1 0 
1 0.59999999999999964 -3.9968028886505612e-016 -2.2204460492503131e-016 -1 
1 0 0 0 -1 
1 0 0 2.2204460492503131e-016 -1 
1 35.699999999999989 0 0 -1 
1 3.6999999999999997 -1.9984014443252826e-016 2.2204460492503131e-016 -1 
1 0 0 0 -1 
1 0 0 0 -1 
1 0.60000000000000053 4.8849813083506852e-016 -2.2204460492503131e-016 -1 
1 39.199999999999989 0 0 -1 
1 0 0 -2.2204460492503131e-016 -1 
1 0 0 -2.2204460492503131e-016 -1 
1 2.9999999999999964 0 0 -1 
Curves 50
1 18.299999999999997 6.899999999999979 -7.5100000000000025 0 2.2204460492503131e-016 1 
1 17.999999999999975 7.200000000000002 -7.5100000000000033 0 2.2204460492503131e-016 1 
2 17.999999999999979 6.8999999999999817 0 0 0 1 1 0 -0 -0 1 0 0.30000000000002319
2 17.999999999999979 6.8999999999999817 0 0 0 1 1 0 -0 -0 1 0 0.30000000000002319
1 18.300000000000001 6.8999999999999817 0 0 -1 0 
1 18.300000000000001 6.3499999999999979 -7.5100000000000025 0 2.2204460492503131e-016 1 
1 18.300000000000001 6.8999999999999817 0 0 -1 0 
1 14.849999999999977 7.200000000000002 -7.5100000000000033 0 2.2204460492503131e-016 1 
1 14.849999999999978 7.2000000000000046 0 1 0 0 
1 14.849999999999978 7.2000000000000046 0 1 0 0 
1 18.300000000000004 3.8500000000000001 0 0 1 0 
1 18.300000000000001 3.8999999999999981 0 1 0 0 
1 14.849999999999978 7.600000000000005 0 0 -1 0 
1 18.699999999999999 3.8999999999999981 0 0 1 0 
1 17.999999999999979 7.600000000000005 0 -1 0 0 
2 17.999999999999979 6.8999999999999817 0 0 0 1 1 0 -0 -0 1 0 0.70000000000002316
1 18.300000000000004 3.8500000000000001 0 0 1 0 
1 18.300000000000001 3.8999999999999981 0 1 0 0 
1 14.849999999999978 7.600000000000005 0 0 -1 0 
1 18.699999999999999 3.8999999999999981 0 0 1 0 
1 17.999999999999979 7.600000000000005 0 -1 0 0 
2 17.999999999999979 6.8999999999999817 0 0 0 1 1 0 -0 -0 1 0 0.70000000000002316
1 18.300000000000004 6.3500000000000005 0 -1 0 0 
1 18.300000000000004 6.3500000000000005 0 -1 0 0 
1 17.800000000000001 6.3499999999999979 -7.5100000000000025 0 2.2204460492503131e-016 1 
1 14.849999999999977 7.6000000000000023 -7.5100000000000033 0 2.2204460492503131e-016 1 
1 -20.899999999999999 7.5500000000000007 0 0 -1 0 
1 14.800000000000004 7.5500000000000007 0 -1 0 0 
1 -20.899999999999999 3.8500000000000001 0 1 0 0 
1 14.800000000000004 6.9500000000000002 0 0 1 0 
1 18.300000000000004 3.8500000000000001 0 0 1 0 
1 17.800000000000004 6.9500000000000002 0 -1 0 0 
1 17.800000000000004 6.3500000000000005 0 0 1 0 
1 18.299999999999997 3.8999999999999959 -7.5100000000000016 0 2.2204460492503131e-016 1 
1 18.699999999999996 3.8999999999999959 -7.5100000000000016 0 2.2204460492503131e-016 1 
1 18.699999999999999 6.899999999999979 -7.5100000000000025 0 2.2204460492503131e-016 1 
1 17.999999999999975 7.6000000000000023 -7.5100000000000033 0 2.2204460492503131e-016 1 
1 -20.899999999999999 7.5500000000000007 0 0 -1 0 
1 14.800000000000004 7.5500000000000007 0 -1 0 0 
1 -20.899999999999999 3.8500000000000001 0 1 0 0 
1 14.800000000000004 6.9500000000000002 0 0 1 0 
1 18.300000000000004 3.8500000000000001 0 0 1 0 
1 17.800000000000004 6.9500000000000002 0 -1 0 0 
1 17.800000000000004 6.3500000000000005 0 0 1 0 
1 17.800000000000001 6.9499999999999975 -7.5100000000000025 0 2.2204460492503131e-016 1 
1 -20.899999999999995 7.549999999999998 -7.5100000000000033 0 2.2204460492503131e-016 1 
1 -20.899999999999995 3.8499999999999979 -7.5100000000000016 0 2.2204460492503131e-016 1 
1 14.800000000000002 7.549999999999998 -7.5100000000000033 0 2.2204460492503131e-016 1 
1 18.300000000000001 3.8499999999999979 -7.5100000000000016 0 2.2204460492503131e-016 1 
1 14.800000000000002 6.9499999999999975 -7.5100000000000025 0 2.2204460492503131e-016 1 
Polygon3D 0
PolygonOnTriangulations 0
Surfaces 20
2 17.999999999999975 6.899999999999979 -7.5100000000000025 0 -4.4408920985006262e-016 -1 1 0 0 -0 1 -4.4408920985006262e-016 0.30000000000002314
1 18.299999999999997 6.899999999999979 -7.5100000000000025 1 0 -0 0 -1 4.4408920985006262e-016 0 -4.4408920985006262e-016 -1 
1 14.849999999999977 7.200000000000002 -7.5100000000000033 0 1 -2.2204460492503131e-016 1 0 0 0 -2.2204460492503131e-016 -1 
1 18.299999999999997 1.5321077739827122e-015 6.8999999999999808 0 1 -2.2204460492503136e-016 0 2.2204460492503136e-016 1 1 -0 0 
1 18.299999999999997 1.5321077739827122e-015 6.8999999999999808 0 1 -2.2204460492503136e-016 0 2.2204460492503136e-016 1 1 -0 0 
1 18.300000000000001 6.3499999999999979 -7.5100000000000025 0 -1 2.2204460492503131e-016 -1 0 0 -0 -2.2204460492503131e-016 -1 
1 14.849999999999977 7.6000000000000023 -7.5100000000000033 1 0 -0 0 -1 4.4408920985006262e-016 0 -4.4408920985006262e-016 -1 
1 -20.899999999999995 1.6764367671839867e-015 7.5499999999999998 0 1 -2.2204460492503136e-016 0 2.2204460492503136e-016 1 1 -0 0 
1 18.299999999999997 3.8999999999999959 -7.5100000000000016 0 1 -2.2204460492503131e-016 1 0 0 0 -2.2204460492503131e-016 -1 
1 18.699999999999996 3.8999999999999959 -7.5100000000000016 -1 0 0 0 1 -4.4408920985006262e-016 -0 -4.4408920985006262e-016 -1 
1 17.999999999999975 7.6000000000000023 -7.5100000000000033 0 -1 2.2204460492503131e-016 -1 0 0 -0 -2.2204460492503131e-016 -1 
2 17.999999999999975 6.899999999999979 -7.5100000000000025 0 -4.4408920985006262e-016 -1 1 0 0 -0 1 -4.4408920985006262e-016 0.70000000000002305
1 -20.899999999999995 1.6764367671839867e-015 7.5499999999999998 0 1 -2.2204460492503136e-016 0 2.2204460492503136e-016 1 1 -0 0 
1 17.800000000000001 6.3499999999999979 -7.5100000000000025 -1 0 0 0 1 -4.4408920985006262e-016 -0 -4.4408920985006262e-016 -1 
1 -20.899999999999995 7.549999999999998 -7.5100000000000033 1 0 -0 0 -1 4.4408920985006262e-016 0 -4.4408920985006262e-016 -1 
1 14.800000000000002 7.549999999999998 -7.5100000000000033 0 -1 2.2204460492503131e-016 -1 0 0 -0 -2.2204460492503131e-016 -1 
1 -20.899999999999995 3.8499999999999979 -7.5100000000000016 0 1 -2.2204460492503131e-016 1 0 0 0 -2.2204460492503131e-016 -1 
1 14.800000000000002 6.9499999999999975 -7.5100000000000025 -1 0 0 0 1 -4.4408920985006262e-016 -0 -4.4408920985006262e-016 -1 
1 18.300000000000001 3.8499999999999979 -7.5100000000000016 -1 0 0 0 1 -4.4408920985006262e-016 -0 -4.4408920985006262e-016 -1 
1 17.800000000000001 6.9499999999999975 -7.5100000000000025 0 -1 2.2204460492503131e-016 -1 0 0 -0 -2.2204460492503131e-016 -1 
Triangulations 0

TShapes 125
Ve
1e-007
18.3 7.51 6.89999999999998
0 0

0101101
*
Ve
1e-007
18.3 -7.50999999999999 6.89999999999998
0 0

0101101
*
Ed
 1e-007 1 1 0
1  1 0 0 15.02
2  1 1 0 0 15.02
2  2 2 0 0 15.02
4 G1 1 0 2 0
0

0101000
+125 3 -124 3 *
Ve
1e-007
18 7.51 7.2
0 0

0101101
*
Ve
1e-007
18 -7.50999999999999 7.20000000000001
0 0

0101101
*
Ed
 1e-007 1 1 0
1  2 0 0 15.02
2  3 1 0 0 15.02
2  4 3 0 0 15.02
4 G1 1 0 3 0
0

0101000
+122 3 -121 3 *
Ed
 1e-007 1 1 0
1  3 0 0 1.5707963267949
2  5 1 8 0 1.5707963267949
2  6 4 9 0 1.5707963267949
0

0101000
+125 10 -122 10 *
Ed
 1e-007 1 1 0
1  4 0 0 1.5707963267949
2  7 1 13 0 1.5707963267949
2  8 5 9 0 1.5707963267949
0

0101000
+124 14 -121 14 *
Wi

0101000
+123 0 -120 0 -119 7 +118 12 *
Fa
0  1e-007 1 0

0101000
+117 0 *
Ve
1e-007
18.3 7.51 6.35
0 0

0101101
*
Ed
 1e-007 1 1 0
1  5 0 0 0.549999999999981
2  9 2 8 0 0.549999999999981
2  10 4 9 0 0.549999999999981
0

0101000
+125 10 -115 10 *
Ve
1e-007
18.3 -7.50999999999999 6.35
0 0

0101101
*
Ed
 1e-007 1 1 0
1  6 0 0 15.02
2  11 2 17 0 15.02
2  12 6 0 0 15.02
0

0101000
+115 18 -113 18 *
Ed
 1e-007 1 1 0
1  7 0 0 0.549999999999981
2  13 2 13 0 0.549999999999981
2  14 5 9 0 0.549999999999981
0

0101000
+124 14 -113 14 *
Wi

0101000
-114 15 -112 16 +111 19 +123 2 *
Fa
0  1e-007 2 2

0101000
+110 0 *
Ve
1e-007
14.85 7.51 7.2
0 0

0101101
*
Ve
1e-007
14.85 -7.50999999999999 7.20000000000001
0 0

0101101
*
Ed
 1e-007 1 1 0
1  8 0 0 15.02
2  15 3 0 0 15.02
2  16 7 0 0 15.02
0

0101000
+108 3 -107 3 *
Ed
 1e-007 1 1 0
1  9 0 0 3.15
2  17 3 8 0 3.15
2  18 4 9 0 3.15
0

0101000
+108 10 -122 10 *
Ed
 1e-007 1 1 0
1  10 0 0 3.15
2  19 3 13 0 3.15
2  20 5 9 0 3.15
0

0101000
+107 14 -121 14 *
Wi

0101000
+106 0 -120 0 -105 7 +104 12 *
Fa
0  1e-007 3 0

0101000
+103 0 *
Ve
1e-007
18.3 7.51 3.89999999999999
0 0

0101101
*
Ed
 1e-007 1 1 0
1  11 0 0.049999999999998 2.5
2  21 4 25 0.049999999999998 2.5
2  22 8 26 0.049999999999998 2.5
0

0101000
+101 27 -115 27 *
Ve
1e-007
18.7 7.51 3.89999999999999
0 0

0101101
*
Ed
 1e-007 1 1 0
1  12 0 0 0.399999999999999
2  23 4 9 0 0.399999999999999
2  24 9 8 0 0.399999999999999
0

0101000
+101 10 -99 10 *
Ve
1e-007
14.85 7.51 7.6
0 0

0101101
*
Ed
 1e-007 1 1 0
1  13 0 0 0.4
2  25 4 9 0 0.4
2  26 7 8 0 0.4
0

0101000
+97 10 -108 10 *
Ve
1.00000001776357e-007
18.7 7.51 6.89999999999998
0 0

0101101
*
Ed
 1e-007 1 1 0
1  14 0 0 2.99999999999998
2  27 4 9 0 2.99999999999998
2  28 10 8 0 2.99999999999998
0

0101000
+99 10 -95 10 *
Ve
1e-007
18 7.51 7.6
0 0

0101101
*
Ed
 1e-007 1 1 0
1  15 0 0 3.15
2  29 4 9 0 3.15
2  30 11 8 0 3.15
0

0101000
+93 10 -97 10 *
Ed
 1e-007 1 1 0
1  16 0 0 1.5707963267949
2  31 4 9 0 1.5707963267949
2  32 12 8 0 1.5707963267949
0

0101000
+95 10 -93 10 *
Wi

0101000
-114 15 +119 15 +100 24 -105 15 -98 15 -96 15 -94 15 -92 15 -91 15 *
Fa
0  1e-007 4 20

0101000
+90 0 *
Ve
1e-007
18.3 -7.51 3.9
0 0

0101101
*
Ed
 1e-007 1 1 0
1  17 0 0.049999999999998 2.5
2  33 5 31 0.049999999999998 2.5
2  34 13 26 0.049999999999998 2.5
0

0101000
+88 32 -113 32 *
Ve
1e-007
18.7 -7.51 3.9
0 0

0101101
*
Ed
 1e-007 1 1 0
1  18 0 0 0.399999999999999
2  35 5 9 0 0.399999999999999
2  36 9 13 0 0.399999999999999
0

0101000
+88 14 -86 14 *
Ve
1e-007
14.85 -7.50999999999999 7.60000000000001
0 0

0101101
*
Ed
 1e-007 1 1 0
1  19 0 0 0.4
2  37 5 9 0 0.4
2  38 7 13 0 0.4
0

0101000
+84 14 -107 14 *
Ve
1.00000001776357e-007
18.7 -7.50999999999999 6.89999999999998
0 0

0101101
*
Ed
 1e-007 1 1 0
1  20 0 0 2.99999999999998
2  39 5 9 0 2.99999999999998
2  40 10 13 0 2.99999999999998
0

0101000
+86 14 -82 14 *
Ve
1e-007
18 -7.50999999999999 7.60000000000001
0 0

0101101
*
Ed
 1e-007 1 1 0
1  21 0 0 3.15
2  41 5 9 0 3.15
2  42 11 13 0 3.15
0

0101000
+80 14 -84 14 *
Ed
 1e-007 1 1 0
1  22 0 0 1.5707963267949
2  43 5 9 0 1.5707963267949
2  44 12 13 0 1.5707963267949
0

0101000
+82 14 -80 14 *
Wi

0101000
-111 19 +118 19 +87 30 -104 19 -85 19 -83 19 -81 19 -79 19 -78 19 *
Fa
0  1e-007 5 28

0101000
+77 0 *
Ve
1e-007
17.8 7.51 6.35
0 0

0101101
*
Ed
 1e-007 1 1 0
1  23 0 0 0.5
2  45 6 33 0 0.5
2  46 8 26 0 0.5
0

0101000
+115 27 -75 27 *
Ve
1e-007
17.8 -7.50999999999999 6.35
0 0

0101101
*
Ed
 1e-007 1 1 0
1  24 0 0 0.5
2  47 6 34 0 0.5
2  48 13 26 0 0.5
0

0101000
+113 32 -73 32 *
Ed
 1e-007 1 1 0
1  25 0 0 15.02
2  49 6 0 0 15.02
2  50 14 0 0 15.02
0

0101000
+75 18 -73 18 *
Wi

0101000
+112 16 -74 24 +72 30 -71 16 *
Fa
0  1e-007 6 16

0101000
+70 0 *
Ed
 1e-007 1 1 0
1  26 0 0 15.02
2  51 7 0 0 15.02
2  52 11 0 0 15.02
0

0101000
+97 3 -84 3 *
Wi

0101000
+68 0 -106 0 -96 7 +83 12 *
Fa
0  1e-007 7 0

0101000
+67 0 *
Ve
1e-007
-20.9 7.51 7.55
0 0

0101101
*
Ve
1e-007
-20.9 7.51 3.85
0 0

0101101
*
Ed
 1e-007 1 1 0
1  27 0 0 3.7
2  53 8 26 0 3.7
2  54 15 33 0 3.7
0

0101000
+65 27 -64 27 *
Ve
1e-007
14.8 7.51 7.55
0 0

0101101
*
Ed
 1e-007 1 1 0
1  28 0 0 35.7
2  55 8 26 0 35.7
2  56 16 33 0 35.7
0

0101000
+62 27 -65 27 *
Ve
1e-007
18.3 7.51 3.85
0 0

0101101
*
Ed
 1e-007 1 1 0
1  29 0 0 39.2
2  57 8 26 0 39.2
2  58 17 33 0 39.2
0

0101000
+64 27 -60 27 *
Ve
1e-007
14.8 7.51 6.94999999999999
0 0

0101101
*
Ed
 1e-007 1 1 0
1  30 0 0 0.600000000000001
2  59 8 26 0 0.600000000000001
2  60 18 33 0 0.600000000000001
0

0101000
+58 27 -62 27 *
Ed
 1e-007 1 1 0
1  31 0 0 0.049999999999998
2  61 8 26 0 0.049999999999998
2  62 19 33 0 0.049999999999998
0

0101000
+60 27 -101 27 *
Ve
1e-007
17.8 7.51 6.94999999999999
0 0

0101101
*
Ed
 1e-007 1 1 0
1  32 0 0 3
2  63 8 26 0 3
2  64 20 33 0 3
0

0101000
+55 27 -58 27 *
Ed
 1e-007 1 1 0
1  33 0 0 0.6
2  65 8 26 0 0.6
2  66 14 33 0 0.6
0

0101000
+75 27 -55 27 *
Wi

0101000
-63 24 -61 24 -59 24 -57 24 -56 24 -54 24 -100 24 -53 24 -74 24 *
Fa
0  1e-007 8 35

0101000
+52 0 *
Ed
 1e-007 1 1 0
1  34 0 0 15.02
2  67 9 0 0 15.02
2  68 19 36 0 15.02
0

0101000
+101 3 -88 3 *
Ed
 1e-007 1 1 0
1  35 0 0 15.02
2  69 9 0 0 15.02
2  70 10 0 0 15.02
0

0101000
+99 3 -86 3 *
Wi

0101000
+50 2 -98 15 +85 19 -49 2 *
Fa
0  1e-007 9 2

0101000
+48 0 *
Ed
 1.00000001776357e-007 1 1 0
1  36 0 0 15.02
2  71 10 0 0 15.02
2  72 12 0 0 15.02
4 G1 10 0 12 0
0

0101000
+95 3 -82 3 *
Wi

0101000
+49 0 -46 0 -94 7 +81 12 *
Fa
0  1e-007 10 0

0101000
+45 0 *
Ed
 1e-007 1 1 0
1  37 0 0 15.02
2  73 11 0 0 15.02
2  74 12 0 0 15.02
4 G1 11 0 12 0
0

0101000
+93 3 -80 3 *
Wi

0101000
+43 0 -68 0 -92 7 +79 12 *
Fa
0  1e-007 11 0

0101000
+42 0 *
Wi

0101000
+46 0 -43 0 -91 7 +78 12 *
Fa
0  1e-007 12 0

0101000
+40 0 *
Ve
1e-007
-20.9 -7.50999999999999 7.55
0 0

0101101
*
Ve
1e-007
-20.9 -7.51 3.85
0 0

0101101
*
Ed
 1e-007 1 1 0
1  38 0 0 3.7
2  75 13 26 0 3.7
2  76 15 34 0 3.7
0

0101000
+38 32 -37 32 *
Ve
1e-007
14.8 -7.50999999999999 7.55
0 0

0101101
*
Ed
 1e-007 1 1 0
1  39 0 0 35.7
2  77 13 26 0 35.7
2  78 16 34 0 35.7
0

0101000
+35 32 -38 32 *
Ve
1e-007
18.3 -7.51 3.85
0 0

0101101
*
Ed
 1e-007 1 1 0
1  40 0 0 39.2
2  79 13 26 0 39.2
2  80 17 34 0 39.2
0

0101000
+37 32 -33 32 *
Ve
1e-007
14.8 -7.50999999999999 6.95
0 0

0101101
*
Ed
 1e-007 1 1 0
1  41 0 0 0.600000000000001
2  81 13 26 0 0.600000000000001
2  82 18 34 0 0.600000000000001
0

0101000
+31 32 -35 32 *
Ed
 1e-007 1 1 0
1  42 0 0 0.049999999999998
2  83 13 26 0 0.049999999999998
2  84 19 34 0 0.049999999999998
0

0101000
+33 32 -88 32 *
Ve
1e-007
17.8 -7.50999999999999 6.95
0 0

0101101
*
Ed
 1e-007 1 1 0
1  43 0 0 3
2  85 13 26 0 3
2  86 20 34 0 3
0

0101000
+28 32 -31 32 *
Ed
 1e-007 1 1 0
1  44 0 0 0.6
2  87 13 26 0 0.6
2  88 14 34 0 0.6
0

0101000
+73 32 -28 32 *
Wi

0101000
-36 30 -34 30 -32 30 -30 30 -29 30 -27 30 -87 30 -26 30 -72 30 *
Fa
0  1e-007 13 37

0101000
+25 0 *
Ed
 1e-007 1 1 0
1  45 0 0 15.02
2  89 14 0 0 15.02
2  90 20 0 0 15.02
0

0101000
+55 18 -28 18 *
Wi

0101000
+71 0 -23 0 -53 38 +26 39 *
Fa
0  1e-007 14 0

0101000
+22 0 *
Ed
 1e-007 1 1 0
1  46 0 0 15.02
2  91 15 0 0 15.02
2  92 16 0 0 15.02
0

0101000
+65 18 -38 18 *
Ed
 1e-007 1 1 0
1  47 0 0 15.02
2  93 15 0 0 15.02
2  94 17 0 0 15.02
0

0101000
+64 18 -37 18 *
Wi

0101000
+20 0 -19 0 -63 38 +36 39 *
Fa
0  1e-007 15 0

0101000
+18 0 *
Ed
 1e-007 1 1 0
1  48 0 0 15.02
2  95 16 0 0 15.02
2  96 18 0 0 15.02
0

0101000
+62 18 -35 18 *
Wi

0101000
+16 0 -20 0 -61 38 +34 39 *
Fa
0  1e-007 16 0

0101000
+15 0 *
Ed
 1e-007 1 1 0
1  49 0 0 15.02
2  97 17 0 0 15.02
2  98 19 0 0 15.02
0

0101000
+60 18 -33 18 *
Wi

0101000
+19 0 -13 0 -59 38 +32 39 *
Fa
0  1e-007 17 0

0101000
+12 0 *
Ed
 1e-007 1 1 0
1  50 0 0 15.02
2  99 18 0 0 15.02
2  100 20 0 0 15.02
0

0101000
+58 18 -31 18 *
Wi

0101000
+10 0 -16 0 -57 38 +30 39 *
Fa
0  1e-007 18 0

0101000
+9 0 *
Wi

0101000
-56 24 -50 2 +29 30 +13 16 *
Fa
0  1e-007 19 16

0101000
+7 0 *
Wi

0101000
+23 0 -10 0 -54 38 +27 39 *
Fa
0  1e-007 20 0

0101000
+5 0 *
Sh

0101100
+116 2 -109 0 -102 2 +89 0 -76 0 -69 0 -66 2 +51 0 -47 0 -44 2 
-41 2 -39 2 -24 0 -21 16 -17 16 -14 16 -11 16 -8 16 -6 0 -4 16 
*
So

0100000
+3 0 *
Co

0100000
+2 0 *

+1 1 