DBRep_DrawableShape

CASCADE Topology V1, (c) Matra-Datavision
Locations 10
1
              1               0               0               0 
              0              -1               0               0 
             -0               0              -1               0 
1
              1               0               0               0 
              0              -1 1.22464679914735e-016               0 
              0 -1.22464679914735e-016              -1               0 
2  1 1 2 -1 0
2  2 1 1 -1 0
2  1 -1 0
1
              1               0               0               0 
              0               1               0 6.2456986756515e-017 
              0               0               1            0.51 
2  1 1 2 -1 6 1 0
2  6 -1 2 1 1 -1 0
2  2 -1 0
2  2 -1 6 1 0
Curve2ds 6
1 0 0 0 -1 
1 6.2831853071795862 0 0 -1 
1 0 0 1 0 
2 -1.4800000000000004 0 1 0 0 -1 1.4800000000000004
1 0 -0.51000000000000001 1 0 
2 -1.4800000000000004 0 1 0 0 -1 1.4800000000000004
Curves 3
1 -21.52 -5.3099999999999996 6.5028745034724447e-016 0 1.2246467991473532e-016 1 
2 -23 -5.3099999999999996 0 0 0 1 1 0 -0 -0 1 0 1.48
2 -23 -5.3099999999999996 0 0 0 1 1 0 -0 -0 1 0 1.48
Polygon3D 0
PolygonOnTriangulations 0
Surfaces 3
2 -23 -5.3099999999999996 6.5028745034724447e-016 0 -1.2246467991473532e-016 -1 1 0 0 -0 1 -1.2246467991473532e-016 1.48
1 -21.52 5.3099999999999996 0 0 0 1 1 0 -0 -0 1 0 
1 -21.52 5.3099999999999996 0 0 0 1 1 0 -0 -0 1 0 
Triangulations 0

TShapes 13
Ve
1e-007
-21.52 -5.31 6.50287450347244e-016
0 0

0101101
*
Ve
1e-007
-21.52 -5.31 0.510000000000001
0 0

0101101
*
Ed
 1e-007 1 1 0
1  1 0 0 0.51
3  1 2CN 1 0 0 0.51
0

0101000
+13 0 -12 0 *
Ed
 1e-007 1 1 0
1  2 0 0 6.28318530717959
2  3 1 4 0 6.28318530717959
2  4 2 5 0 6.28318530717959
0

0101100
+13 4 -13 4 *
Ed
 1e-007 1 1 0
1  3 0 0 6.28318530717959
2  5 1 8 0 6.28318530717959
2  6 3 5 0 6.28318530717959
0

0101100
+12 8 -12 8 *
Wi

0101000
+11 0 -11 0 -10 3 +9 7 *
Fa
0  1e-007 1 0

0101000
+8 0 *
Wi

0101100
+10 0 *
Fa
0  1e-007 2 0

0101000
-6 1 *
Wi

0101100
+9 0 *
Fa
0  1e-007 3 0

0101000
-4 1 *
Sh

0101100
-7 0 +5 9 -3 10 *
So

1100100
+2 0 *

+1 0 