DBRep_DrawableShape

CASCADE Topology V1, (c) Matra-Datavision
Locations 73
1
              1               0               0               0 
              0               1               0               0 
              0               0               1               0 
1
              1               0               0               0 
              0               1               0               0 
              0               0               1               0 
1
              1               0               0               0 
              0               1               0               0 
              0               0               1               0 
1
              1               0               0               0 
              0               1               0               0 
              0               0               1               0 
1
              1               0               0               0 
              0               1               0               0 
              0               0               1               0 
1
              1               0               0               0 
              0               1               0               0 
              0               0               1               0 
2  2 1 3 -1 4 1 5 1 6 -1 0
1
              1               0               0               0 
              0               1               0               0 
              0               0               1               0 
1
              1               0               0               0 
              0               1               0               0 
              0               0               1               0 
1
              1               0               0               0 
              0               1               0               0 
              0               0               1               0 
2  8 -1 9 1 10 -1 0
1
              1               0               0               0 
              0               1               0               0 
              0               0               1               0 
2  12 1 8 -1 9 1 10 -1 0
2  12 -1 0
2  4 -1 3 1 2 -1 10 1 9 -1 8 1 12 -1 0
2  1 -1 6 1 5 -1 4 -1 3 1 2 -1 10 1 9 -1 8 1 12 -1 0
2  8 1 12 -1 0
1
              1               0               0               0 
              0              -1               0              -0 
              0               0              -1               0 
2  18 1 10 -1 0
2  8 -1 9 1 18 -1 0
2  10 1 18 -1 0
2  1 -1 6 1 5 -1 4 -1 3 1 2 -1 10 1 18 -1 0
2  5 1 6 -1 0
2  1 -1 6 1 5 -1 0
2  12 1 8 -1 9 1 10 -1 2 1 3 -1 4 1 5 1 6 -1 0
1
              1               0               0              -0 
              0               1               0               0 
              0               0               1             3.8 
1
              1               0               0               0 
              0               1               0               0 
              0               0               1             3.8 
2  26 1 3 -1 27 1 4 1 5 1 6 -1 0
2  4 -1 27 -1 3 1 26 -1 0
2  26 -1 0
2  1 -1 6 1 5 -1 4 -1 27 -1 3 1 26 -1 0
2  9 1 10 -1 2 1 3 -1 4 1 5 1 6 -1 0
2  4 -1 3 1 2 -1 10 1 9 -1 0
2  1 -1 6 1 5 -1 4 -1 3 1 2 -1 10 1 9 -1 0
2  4 1 5 1 6 -1 0
2  4 -1 0
2  1 -1 6 1 5 -1 4 -1 0
1
              1               0               0               0 
              0               1               0               0 
              0               0               1             3.8 
2  12 1 8 -1 38 1 9 1 10 -1 2 1 3 -1 4 1 5 1 6 -1 0
2  4 -1 3 1 2 -1 10 1 9 -1 38 -1 8 1 12 -1 0
2  6 1 5 -1 4 -1 3 1 2 -1 10 1 9 -1 38 -1 8 1 12 -1 0
2  1 -1 6 1 5 -1 4 -1 3 1 2 -1 10 1 9 -1 38 -1 8 1 12 -1 0
2  26 1 3 -1 27 1 4 1 0
2  12 1 8 -1 9 1 10 -1 2 1 3 -1 4 1 0
1
              1               0               0              -0 
              0               1               0               0 
              0               0               1             3.8 
2  45 1 6 -1 0
2  9 1 10 -1 2 1 3 -1 4 1 5 1 45 -1 0
2  6 1 45 -1 0
2  1 -1 6 1 45 -1 0
2  1 -1 6 1 5 -1 4 -1 3 1 2 -1 0
1
              1               0               0               0 
              0               1               0               0 
              0               0               1           -0.51 
2  18 1 10 -1 51 1 0
2  51 -1 10 1 18 -1 0
2  18 -1 0
2  1 -1 6 1 5 -1 4 -1 3 1 2 -1 51 -1 10 1 18 -1 0
2  3 -1 27 1 4 1 5 1 6 -1 0
2  27 -1 3 1 26 -1 0
2  26 1 3 -1 0
2  3 1 26 -1 0
2  8 -1 38 1 9 1 10 -1 2 1 26 -1 0
2  1 -1 6 1 5 -1 4 -1 3 1 26 -1 0
2  26 1 3 -1 27 1 0
2  1 -1 0
1
              1               0               0               0 
              0               1               0               0 
              0               0               1             1.5 
2  45 1 6 -1 64 1 0
2  64 -1 6 1 45 -1 0
2  45 -1 0
2  1 -1 64 -1 6 1 45 -1 0
2  8 -1 38 1 9 1 10 -1 2 1 3 -1 4 1 5 1 6 -1 0
2  8 -1 38 1 9 1 10 -1 2 1 3 -1 4 1 5 1 45 -1 0
2  26 1 3 -1 4 1 5 1 6 -1 0
2  10 -1 51 1 2 1 3 -1 4 1 5 1 6 -1 0
2  6 -1 64 1 0
Curve2ds 64
1 0 0 1 0 
1 0 0 0 1 
1 0 -15.02 0 1 
1 0 0 0 -1 
1 50.399999999999999 0 0 -1 
1 0 0 1 0 
1 50.399999999999999 -15.02 -1 0 
1 0 0 0 -1 
2 25.199999999999999 -7.5099999999999998 1 0 0 -1 1.48
1 0 0 1 0 
1 0 0 -1 0 
1 0 -15.02 1 0 
1 -7.5999999999999996 0 0 1 
1 0 0 1 0 
1 0 50.399999999999999 -1 0 
1 0 0 0 -1 
1 -3.7999999999999998 4.1999999999999993 -1 0 
1 0 0 0 -1 
1 -3.7999999999999998 0 0 1 
1 -46.200000000000003 0 1 0 
1 -3.7999999999999998 0 0 1 
1 0 0 1 0 
1 0 0 1 0 
1 0 -50.399999999999999 1 0 
1 7.5999999999999996 0 0 -1 
1 0 -15.02 0 1 
1 0 -3.7999999999999998 1 0 
1 0 0 1 0 
1 15.02 0 0 -1 
1 0 0 1 0 
1 3.7999999999999998 0 0 -1 
1 0 -0 1 0 
1 3.7999999999999998 0 0 -1 
1 50.399999999999999 -15.02 -1 0 
1 7.5999999999999996 -46.200000000000003 0 -1 
1 4.1999999999999993 -15.02 -1 0 
1 3.7999999999999998 -46.200000000000003 1 0 
1 15.02 0 0 -1 
1 0 0 0 -1 
1 6.2831853071795862 0 0 -1 
1 0 -0.51000000000000001 1 0 
2 -1.48 0 1 0 0 -1 1.48
1 4.1999999999999993 0 0 -1 
1 0 -3.7999999999999998 1 0 
1 0 0 1 0 
1 4.1999999999999993 0 0 -1 
1 0 0 0 -1 
1 15.02 0 0 -1 
1 0 -1.5 1 0 
1 0 0 1 0 
1 4.1999999999999993 0 0 -1 
1 0 0 0 -1 
1 46.200000000000003 -15.02 0 1 
1 0 0 1 0 
1 0 -1.5 1 0 
1 4.1999999999999993 0 0 -1 
1 15.02 0 0 -1 
1 0 -0 0 -1 
1 0 -1.5 1 0 
1 4.1999999999999993 -15.02 -1 0 
1 4.1999999999999993 0 0 -1 
1 0 0 0 -1 
1 0 -1.5 1 0 
1 0 -15.02 0 1 
Curves 32
1 -25.199999999999999 7.5099999999999998 0 1 0 0 
1 -25.199999999999999 -7.5099999999999998 0 0 1 0 
1 25.199999999999999 7.5099999999999998 0 0 -1 0 
1 25.199999999999999 -7.5099999999999998 0 -1 0 0 
2 0 0 0 0 0 1 1 0 -0 -0 1 0 1.48
1 -25.199999999999999 7.5099999999999998 0 0 0 1 
1 -25.199999999999999 7.5099999999999998 0 1 0 0 
1 25.199999999999999 7.5099999999999998 0 0 0 1 
1 -21 7.5099999999999998 3.7999999999999998 0 0 1 
1 -25.199999999999999 7.5099999999999998 0 1 0 0 
1 -25.199999999999999 7.5099999999999998 0 1 0 0 
1 -25.199999999999999 -7.5099999999999998 0 0 0 1 
1 -25.199999999999999 -7.5099999999999998 0 0 1 0 
1 25.199999999999999 7.5099999999999998 0 0 -1 0 
1 25.199999999999999 -7.5099999999999998 0 0 0 1 
1 25.199999999999999 -7.5099999999999998 0 -1 0 0 
1 25.199999999999999 -7.5099999999999998 0 -1 0 0 
1 -21 -7.5099999999999998 0 -1 0 0 
1 -21 -7.5099999999999998 3.7999999999999998 0 0 1 
1 1.48 0 0 0 0 -1 
2 0 0 0 0 0 1 1 0 -0 -0 1 0 1.48
1 -21 7.5099999999999998 0 0 -1 0 
1 -21 7.5099999999999998 0 0 -1 0 
1 21 7.5099999999999998 3.7999999999999998 0 0 1 
1 21 7.5099999999999998 0 1 0 0 
1 25.199999999999999 7.5099999999999998 3.7999999999999998 0 0 1 
1 21 -7.5099999999999998 0 0 1 0 
1 25.199999999999999 7.5099999999999998 0 0 -1 0 
1 25.199999999999999 -7.5099999999999998 3.7999999999999998 0 0 1 
1 25.199999999999999 -7.5099999999999998 0 -1 0 0 
1 21 -7.5099999999999998 3.7999999999999998 0 0 1 
1 21 -7.5099999999999998 0 0 1 0 
Polygon3D 0
PolygonOnTriangulations 0
Surfaces 15
1 -25.199999999999999 7.5099999999999998 0 -0 0 1 1 0 0 0 1 -0 
1 -25.199999999999999 7.5099999999999998 0 0 -1 0 0 -0 -1 1 0 0 
1 -25.199999999999999 -7.5099999999999998 0 1 0 0 -0 0 1 0 -1 0 
1 25.199999999999999 7.5099999999999998 0 1 0 -0 0 -1 0 0 -0 -1 
1 25.199999999999999 -7.5099999999999998 0 0 1 -0 0 0 1 1 -0 0 
2 0 0 0 -0 -0 1 1 0 0 0 -1 -0 1.48
1 -25.199999999999999 7.5099999999999998 3.7999999999999998 -0 0 1 1 0 0 0 1 -0 
1 -21 7.5099999999999998 3.7999999999999998 1 0 -0 0 -1 0 0 -0 -1 
1 21 7.5099999999999998 3.7999999999999998 0 1 0 1 0 0 0 0 -1 
1 -25.199999999999999 7.5099999999999998 0 -0 0 1 1 0 0 0 1 -0 
1 25.199999999999999 7.5099999999999998 3.7999999999999998 1 0 -0 0 -1 0 0 -0 -1 
1 25.199999999999999 -7.5099999999999998 3.7999999999999998 0 -1 0 -1 0 0 -0 -0 -1 
1 1.48 0 0 0 0 1 1 0 -0 -0 1 0 
1 21 -7.5099999999999998 3.7999999999999998 -1 0 0 0 1 0 0 0 -1 
1 21 7.5099999999999998 3.7999999999999998 -0 0 1 1 0 0 0 1 -0 
Triangulations 0

TShapes 85
Ve
1e-007
-25.2 7.51 0
0 0

0101101
*
Ve
1e-007
25.2 7.51 0
0 0

0101101
*
Ed
 1e-007 1 1 0
1  1 0 0 50.4
2  1 1 14 0 50.4
2  2 2 15 0 50.4
0

0101000
+85 16 -84 16 *
Ve
1e-007
-25.2 -7.51 0
0 0

0101101
*
Ed
 1e-007 1 1 0
1  2 0 0 15.02
2  3 1 14 0 15.02
2  4 3 15 0 15.02
0

0101000
+82 16 -85 16 *
Ve
1e-007
25.2 -7.51 0
0 0

0101101
*
Ed
 1e-007 1 1 0
1  3 0 0 15.02
2  5 1 14 0 15.02
2  6 4 17 0 15.02
0

0101000
+84 16 -80 16 *
Ed
 1e-007 1 1 0
1  4 0 0 50.4
2  7 1 14 0 50.4
2  8 5 15 0 50.4
0

0101000
+80 16 -82 16 *
Wi

0101000
-83 13 -81 13 -79 13 -78 13 *
Ve
1e-007
1.48 0 0
0 0

0101101
*
Ed
 1e-007 1 1 0
1  5 0 0 6.28318530717959
2  9 1 20 0 6.28318530717959
2  10 6 21 0 6.28318530717959
0

0101100
+76 22 -76 22 *
Wi

0101000
+75 19 *
Fa
0  1e-007 1 11

0101000
+77 0 +74 0 *
Ve
1e-007
-25.2 7.51 7.6
0 0

0101101
*
Ed
 1e-007 1 1 0
1  6 0 0 7.6
2  11 2 0 0 7.6
2  12 3 0 0 7.6
0

0101000
+85 24 -72 24 *
Ve
1e-007
-21 7.51 7.6
0 0

0101101
*
Ed
 1e-007 1 1 0
1  7 0 0 4.2
2  13 2 29 0 4.2
2  14 7 30 0 4.2
0

0101000
+72 31 -70 31 *
Ve
1e-007
25.2 7.51 3.8
0 0

0101101
*
Ed
 1e-007 1 1 0
1  8 0 0 3.8
2  15 2 33 0 3.8
2  16 4 0 0 3.8
0

0101000
+84 34 -68 34 *
Ve
1e-007
-21 7.51 3.8
0 0

0101101
*
Ed
 1e-007 1 1 0
1  9 0 0 3.8
2  17 2 36 0 3.8
2  18 8 0 0 3.8
0

0101000
+66 37 -70 37 *
Ve
1e-007
21 7.51 3.8
0 0

0101101
*
Ed
 1e-007 1 1 0
1  10 0 46.2 50.4
2  19 2 40 46.2 50.4
2  20 9 41 46.2 50.4
0

0101000
+64 42 -68 42 *
Ed
 1e-007 1 1 0
1  11 0 4.2 46.2
2  21 2 40 4.2 46.2
2  22 10 14 4.2 46.2
0

0101000
+66 42 -64 42 *
Wi

0101000
-71 23 +83 25 -69 28 +67 32 +65 35 -63 39 -62 39 *
Fa
0  1e-007 2 23

0101000
+61 0 *
Ve
1e-007
-25.2 -7.51 7.6
0 0

0101101
*
Ed
 1e-007 1 1 0
1  12 0 0 7.6
2  23 3 0 0 7.6
2  24 5 0 0 7.6
0

0101000
+82 24 -59 24 *
Ed
 1e-007 1 1 0
1  13 0 0 15.02
2  25 3 29 0 15.02
2  26 7 30 0 15.02
0

0101000
+59 31 -72 31 *
Wi

0101000
+58 0 +57 43 -71 0 -81 44 *
Fa
0  1e-007 3 0

0101000
-56 0 *
Ve
1e-007
25.2 -7.51 3.8
0 0

0101101
*
Ed
 1e-007 1 1 0
1  14 0 0 15.02
2  27 4 47 0 15.02
2  28 11 48 0 15.02
0

0101000
+68 49 -54 49 *
Ed
 1e-007 1 1 0
1  15 0 0 3.8
2  29 4 0 0 3.8
2  30 5 33 0 3.8
0

0101000
+80 34 -54 34 *
Wi

0101000
+67 32 -79 25 +53 46 -52 32 *
Fa
0  1e-007 4 32

0101000
+51 0 *
Ve
1e-007
21 -7.51 3.8
0 0

0101101
*
Ed
 1e-007 1 1 0
1  16 0 0 4.2
2  31 5 40 0 4.2
2  32 12 41 0 4.2
0

0101000
+54 42 -49 42 *
Ve
1e-007
-21 -7.51 3.8
0 0

0101101
*
Ed
 1e-007 1 1 0
1  17 0 4.2 46.2
2  33 5 40 4.2 46.2
2  34 10 14 4.2 46.2
0

0101000
+49 42 -47 42 *
Ve
1e-007
-21 -7.51 7.6
0 0

0101101
*
Ed
 1e-007 1 1 0
1  18 0 0 4.2
2  35 5 29 0 4.2
2  36 7 30 0 4.2
0

0101000
+45 31 -59 31 *
Ed
 1e-007 1 1 0
1  19 0 0 3.8
2  37 5 36 0 3.8
2  38 8 0 0 3.8
0

0101000
+47 37 -45 37 *
Wi

0101000
-52 32 +78 25 -48 39 +58 23 -46 39 -44 28 -43 35 *
Fa
0  1e-007 5 23

0101000
+42 0 *
Ve
1e-007
1.48 0 -0.51
0 0

0101101
*
Ed
 1e-007 1 1 0
1  20 0 0 0.51
3  39 40CN 6 0 0 0.51
0

0101000
+76 50 -40 50 *
Ed
 1e-007 1 1 0
1  21 0 0 6.28318530717959
2  41 6 53 0 6.28318530717959
2  42 13 54 0 6.28318530717959
0

0101100
+40 55 -40 55 *
Wi

0101000
-75 19 -39 0 +38 52 +39 0 *
Fa
0  1e-007 6 0

0101000
+37 0 *
Ed
 1e-007 1 1 0
1  22 0 0 15.02
2  43 7 30 0 15.02
2  44 8 57 0 15.02
0

0101000
+70 31 -45 31 *
Wi

0101100
+69 0 +35 0 +44 0 +57 0 *
Fa
0  1e-007 7 0

0101000
-34 26 *
Ed
 1e-007 1 1 0
1  23 0 0 15.02
2  45 8 59 0 15.02
2  46 10 60 0 15.02
0

0101000
+66 61 -47 61 *
Wi

0101000
+65 0 -32 58 +35 62 -43 0 *
Fa
0  1e-007 8 0

0101000
+31 0 *
Ve
1e-007
21 7.51 5.3
0 0

0101101
*
Ed
 1e-007 1 1 0
1  24 0 0 1.5
2  47 9 0 0 1.5
2  48 14 0 0 1.5
0

0101000
+64 63 -29 63 *
Ve
1e-007
25.2 7.51 5.3
0 0

0101101
*
Ed
 1e-007 1 1 0
1  25 0 0 4.2
2  49 9 66 0 4.2
2  50 15 67 0 4.2
0

0101000
+29 68 -27 68 *
Ed
 1e-007 1 1 0
1  26 0 0 1.5
2  51 9 0 0 1.5
2  52 11 0 0 1.5
0

0101000
+68 63 -27 63 *
Wi

0101000
+28 0 -63 39 +26 65 -25 0 *
Fa
0  1e-007 9 0

0101000
+24 0 *
Ed
 1e-007 1 1 0
1  27 0 0 15.02
2  53 10 70 0 15.02
2  54 14 48 0 15.02
0

0101000
+49 49 -64 49 *
Wi

0101000
-62 39 +22 46 -46 39 +32 71 *
Fa
0  1e-007 10 69

0101000
+21 0 *
Ve
1e-007
25.2 -7.51 5.3
0 0

0101101
*
Ed
 1e-007 1 1 0
1  28 0 0 15.02
2  55 11 66 0 15.02
2  56 15 67 0 15.02
0

0101000
+27 68 -19 68 *
Ed
 1e-007 1 1 0
1  29 0 0 1.5
2  57 11 0 0 1.5
2  58 12 0 0 1.5
0

0101000
+54 63 -19 63 *
Wi

0101000
+25 0 -53 46 +18 65 -17 0 *
Fa
0  1e-007 11 0

0101000
+16 0 *
Ve
1e-007
21 -7.51 5.3
0 0

0101101
*
Ed
 1e-007 1 1 0
1  30 0 0 4.2
2  59 12 66 0 4.2
2  60 15 67 0 4.2
0

0101000
+19 68 -14 68 *
Ed
 1e-007 1 1 0
1  31 0 0 1.5
2  61 12 0 0 1.5
2  62 14 0 0 1.5
0

0101000
+49 63 -14 63 *
Wi

0101000
+17 0 -48 39 +13 65 -12 0 *
Fa
0  1e-007 12 0

0101000
+11 0 *
Wi

0101100
+38 0 *
Fa
0  1e-007 13 0

0101000
-9 18 *
Ed
 1e-007 1 1 0
1  32 0 0 15.02
2  63 14 66 0 15.02
2  64 15 67 0 15.02
0

0101000
+14 68 -29 68 *
Wi

0101000
+12 0 -22 46 +7 65 -28 0 *
Fa
0  1e-007 14 0

0101000
+6 0 *
Wi

0101100
+26 0 +18 0 +13 0 +7 0 *
Fa
0  1e-007 15 0

0101000
-4 45 *
Sh

0101100
-73 7 -60 0 -55 23 +50 0 -41 0 -36 7 +33 56 +30 35 +23 0 +20 0 
+15 0 +10 0 -8 72 +5 0 +3 73 *
So

0100000
+2 0 *

+1 1 