DBRep_DrawableShape

CASCADE Topology V1, (c) Matra-Datavision
Locations 10
1
2.22044604925031e-016 -1.11022302462516e-016               1            37.5 
              1 1.11022302462516e-016 -2.22044604925031e-016               0 
-1.11022302462516e-016               1 1.11022302462516e-016               0 
1
2.22044604925031e-016 -1.11022302462516e-016               1            37.5 
              1 1.11022302462516e-016 -2.22044604925031e-016               0 
-1.11022302462516e-016               1 1.11022302462516e-016               0 
2  1 1 2 -1 0
2  2 1 1 -1 0
2  1 -1 0
1
              1               0               0 -7.88258347483861e-016 
              0               1               0 -3.9412917374193e-016 
              0               0               1            -7.1 
2  1 1 2 -1 6 1 0
2  6 -1 2 1 1 -1 0
2  2 -1 0
2  2 -1 6 1 0
Curve2ds 6
1 0 0 0 -1 
1 6.2831853071795862 0 0 -1 
1 0 0 1 0 
2 -8.8817841970012523e-016 2.3749999999999964 6.162975822039158e-032 -1 -1 -6.162975822039158e-032 2.375
1 0 -7.0999999999999996 1 0 
2 -8.8817841970012523e-016 2.3749999999999964 6.162975822039158e-032 -1 -1 -6.162975822039158e-032 2.375
Curves 3
1 8.4949999999999974 5.6599999999999993 0 -1.1102230246251564e-016 -5.5511151231257809e-017 -1 
2 6.1200000000000001 5.6600000000000001 0 0 0 1 1 0 -0 -0 1 0 2.375
2 6.1200000000000001 5.6600000000000001 0 0 0 1 1 0 -0 -0 1 0 2.375
Polygon3D 0
PolygonOnTriangulations 0
Surfaces 3
2 6.1199999999999983 5.6599999999999993 1.3078427230084337e-015 -1.1102230246251563e-016 -1.1102230246251562e-016 1 1 1.1102230246251562e-016 1.1102230246251564e-016 -1.1102230246251563e-016 1 1.110223024625156e-016 2.3749999999999996
1 37.5 8.4949999999999992 5.6599999999999984 -1 -0 0 -0 0 -1 0 -1 -0 
1 37.5 8.4949999999999992 5.6599999999999984 -1 -0 0 -0 0 -1 0 -1 -0 
Triangulations 0

TShapes 13
Ve
1e-007
8.495 5.66 0
0 0

0101101
*
Ve
1e-007
8.495 5.66 -7.1
0 0

0101101
*
Ed
 1e-007 1 1 0
1  1 0 0 7.1
3  1 2CN 1 0 0 7.1
0

0101000
+13 0 -12 0 *
Ed
 1e-007 1 1 0
1  2 0 0 6.28318530717959
2  3 1 4 0 6.28318530717959
2  4 2 5 0 6.28318530717959
0

0101100
+13 4 -13 4 *
Ed
 1e-007 1 1 0
1  3 0 0 6.28318530717959
2  5 1 8 0 6.28318530717959
2  6 3 5 0 6.28318530717959
0

0101100
+12 8 -12 8 *
Wi

0101000
+11 0 -11 0 -10 3 +9 7 *
Fa
0  1e-007 1 0

0101000
+8 0 *
Wi

0101100
+10 0 *
Fa
0  1e-007 2 0

0101000
-6 1 *
Wi

0101100
+9 0 *
Fa
0  1e-007 3 0

0101000
-4 1 *
Sh

0101100
-7 0 +5 9 -3 10 *
So

1100100
-2 0 *

+1 0 