DBRep_DrawableShape

CASCADE Topology V1, (c) Matra-Datavision
Locations 30
1
              1               0               0               0 
              0               1               0               0 
              0               0               1               0 
1
              1               0               0               0 
              0               1               0               0 
              0               0               1              17 
2  1 -1 2 -1 0
1
              1               0               0               0 
              0               1               0               0 
              0               0               1              17 
1
              1               0               0               0 
              0               1               0               0 
              0               0               1              17 
2  4 1 5 -1 0
2  5 1 4 -1 0
2  4 -1 0
2  1 -1 2 -1 5 1 4 -1 0
1
              1               0               0              -0 
              0               1               0              -0 
              0               0               1              -3 
2  4 1 5 -1 10 1 0
2  10 -1 5 1 4 -1 0
2  1 -1 2 -1 10 -1 5 1 4 -1 0
2  5 -1 2 1 0
2  4 1 5 -1 2 1 0
1
              1               0               0               0 
              0               1               0               0 
              0               0               1              17 
1
              1               0               0               0 
              0               1               0               0 
              0               0               1              17 
1
              1               0               0               0 
              0               1               0               0 
              0               0               1              17 
2  16 1 17 -1 18 1 0
2  5 -1 2 1 18 -1 17 1 16 -1 0
2  17 1 16 -1 0
2  1 -1 18 -1 17 1 16 -1 0
2  5 -1 10 1 2 1 0
2  1 -1 18 -1 0
1
              1               0               0              -0 
              0               1               0              -0 
              0               0               1            -0.6 
2  16 1 17 -1 25 1 18 1 0
2  25 -1 17 1 16 -1 0
2  16 -1 0
2  1 -1 18 -1 25 -1 17 1 16 -1 0
2  17 -1 25 1 18 1 0
Curve2ds 78
1 0 0 0 -1 
1 6.2831853071795862 0 0 -1 
1 0 0 1 0 
2 1.3999999999999986 0 -1 0 0 1 1.3999999999999986
1 0 -3 1 0 
2 1.3999999999999986 0 -1 0 0 1 1.3999999999999986
1 0.44999999999999929 -0.14999999999999997 1 0 
1 0 0 1 0 
1 1.25 -0.14999999999999997 0 -1 
1 -0 0 1 0 
1 1.25 -0.94999999999999996 1 0 
1 0 0 1 0 
1 1.5499999999999972 -0.94999999999999996 0 1 
1 0 0 1 0 
1 1.5499999999999972 -0.14999999999999999 1 0 
1 0 0 1 0 
1 2.3499999999999979 -0.14999999999999999 0 1 
1 0 0 1 0 
1 2.3499999999999979 0.14999999999999999 -1 0 
1 -0 0 1 0 
1 1.5499999999999972 0.14999999999999999 0 1 
1 0 0 1 0 
1 1.5499999999999972 0.95000000000000007 -1 0 
1 -0 0 1 0 
1 1.25 0.95000000000000007 0 -1 
1 -0 0 1 0 
1 1.25 0.14999999999999997 -1 0 
1 -0 0 1 0 
1 0.44999999999999929 0.14999999999999997 0 -1 
1 -0 0 1 0 
1 0 0 0 -1 
1 0.29999999999999993 0 0 -1 
1 0 -0.59999999999999964 1 0 
1 1.0999999999999979 -1.1000000000000001 -1 0 
1 0.80000000000000071 0 0 -1 
1 -0 0 0 -1 
1 0 -0.59999999999999964 1 0 
1 0.29999999999999716 -1.1000000000000001 0 -1 
1 0.80000000000000004 0 0 -1 
1 0 0 0 -1 
1 0 -0.59999999999999964 1 0 
1 0.29999999999999716 -1.8999999999999999 -1 0 
1 0.29999999999999716 0 0 -1 
1 0 0 0 -1 
1 0 -0.59999999999999964 1 0 
1 0 -1.8999999999999999 0 1 
1 0.79999999999999993 0 0 -1 
1 0 0 0 -1 
1 0 -0.59999999999999964 1 0 
1 0 -1.1000000000000001 -1 0 
1 0.80000000000000071 0 0 -1 
1 0 0 0 -1 
1 0 -0.59999999999999964 1 0 
1 -0.80000000000000071 -1.1000000000000001 0 1 
1 0.29999999999999999 0 0 -1 
1 -0 0 0 -1 
1 0 -0.59999999999999964 1 0 
1 -0.80000000000000071 -0.80000000000000004 1 0 
1 0.80000000000000071 0 0 -1 
1 0 0 0 -1 
1 0 -0.59999999999999964 1 0 
1 0 -0.80000000000000004 0 1 
1 0.80000000000000004 0 0 -1 
1 -0 0 0 -1 
1 0 -0.59999999999999964 1 0 
1 -0 0 1 0 
1 0.29999999999999716 0 0 -1 
1 -0 0 0 -1 
1 0 -0.59999999999999964 1 0 
1 0.29999999999999716 0 0 -1 
1 0.80000000000000004 0 0 -1 
1 -0 0 0 -1 
1 0 -0.59999999999999964 1 0 
1 0.29999999999999716 -0.80000000000000004 1 0 
1 0.80000000000000071 0 0 -1 
1 -0 0 0 -1 
1 0 -0.59999999999999964 1 0 
1 1.0999999999999979 -0.80000000000000004 0 -1 
Curves 39
1 21.600000000000001 0 -5.5500000000000007 0 -0 -1 
2 23 0 -5.5500000000000007 0 0 -1 -1 -0 -0 -0 1 0 1.3999999999999999
2 23 0 -5.5500000000000007 0 0 -1 -1 -0 -0 -0 1 0 1.3999999999999999
1 22.050000000000001 -0.14999999999999997 -5.5500000000000007 1 -0 -0 
1 22.850000000000001 -0.14999999999999997 -5.5500000000000007 -0 -1 -0 
1 22.850000000000001 -0.94999999999999996 -5.5500000000000007 1 -0 -0 
1 23.149999999999999 -0.94999999999999996 -5.5500000000000007 -0 1 -0 
1 23.149999999999999 -0.14999999999999999 -5.5500000000000007 1 -0 -0 
1 23.949999999999999 -0.14999999999999999 -5.5500000000000007 -0 1 -0 
1 23.949999999999999 0.14999999999999999 -5.5500000000000007 -1 -0 -0 
1 23.149999999999999 0.14999999999999999 -5.5500000000000007 -0 1 -0 
1 23.149999999999999 0.95000000000000007 -5.5500000000000007 -1 -0 -0 
1 22.850000000000001 0.95000000000000007 -5.5500000000000007 -0 -1 -0 
1 22.850000000000001 0.14999999999999997 -5.5500000000000007 -1 -0 -0 
1 22.050000000000001 0.14999999999999997 -5.5500000000000007 -0 -1 -0 
1 22.050000000000001 -0.14999999999999997 -5.5500000000000007 0 -0 -1 
1 22.050000000000001 -0.14999999999999997 -5.5499999999999989 1 -0 -0 
1 22.850000000000001 -0.14999999999999997 -5.5500000000000007 0 -0 -1 
1 22.850000000000001 -0.14999999999999997 -5.5499999999999989 -0 -1 -0 
1 22.850000000000001 -0.94999999999999996 -5.5500000000000007 0 -0 -1 
1 22.850000000000001 -0.94999999999999996 -5.5499999999999989 1 -0 -0 
1 23.149999999999999 -0.94999999999999996 -5.5500000000000007 0 -0 -1 
1 23.149999999999999 -0.94999999999999996 -5.5499999999999989 -0 1 -0 
1 23.149999999999999 -0.15000000000000002 -5.5500000000000007 0 -0 -1 
1 23.149999999999999 -0.14999999999999999 -5.5499999999999989 1 -0 -0 
1 23.949999999999999 -0.14999999999999999 -5.5500000000000007 0 -0 -1 
1 23.949999999999999 -0.14999999999999999 -5.5499999999999989 -0 1 -0 
1 23.949999999999999 0.14999999999999999 -5.5500000000000007 0 -0 -1 
1 23.949999999999999 0.14999999999999999 -5.5499999999999989 -1 -0 -0 
1 23.149999999999999 0.14999999999999999 -5.5500000000000007 0 -0 -1 
1 23.149999999999999 0.14999999999999999 -5.5499999999999989 -0 1 -0 
1 23.149999999999999 0.95000000000000007 -5.5500000000000007 0 -0 -1 
1 23.149999999999999 0.95000000000000007 -5.5499999999999989 -1 -0 -0 
1 22.850000000000001 0.95000000000000007 -5.5500000000000007 0 -0 -1 
1 22.850000000000001 0.95000000000000007 -5.5499999999999989 -0 -1 -0 
1 22.850000000000001 0.14999999999999999 -5.5500000000000007 0 -0 -1 
1 22.850000000000001 0.14999999999999997 -5.5499999999999989 -1 -0 -0 
1 22.050000000000001 0.14999999999999997 -5.5500000000000007 0 -0 -1 
1 22.050000000000001 0.14999999999999997 -5.5499999999999989 -0 -1 -0 
Polygon3D 0
PolygonOnTriangulations 0
Surfaces 16
2 23 0 -5.5500000000000007 -0 -0 1 -1 0 0 0 1 0 1.3999999999999999
1 21.600000000000001 0 11.449999999999999 -0 0 -1 1 0 -0 -0 1 0 
1 21.600000000000001 0 11.449999999999999 -0 0 -1 1 0 -0 -0 1 0 
1 22.050000000000001 -0.14999999999999997 -5.5500000000000007 -0 1 -0 1 0 -0 -0 0 1 
1 22.850000000000001 -0.14999999999999997 -5.5500000000000007 1 -0 -0 0 -1 0 0 0 1 
1 22.850000000000001 -0.94999999999999996 -5.5500000000000007 -0 1 -0 1 0 -0 -0 0 1 
1 23.149999999999999 -0.94999999999999996 -5.5500000000000007 -1 -0 -0 0 1 -0 -0 0 1 
1 23.149999999999999 -0.14999999999999999 -5.5500000000000007 -0 1 -0 1 0 -0 -0 0 1 
1 23.949999999999999 -0.14999999999999999 -5.5500000000000007 -1 -0 -0 0 1 -0 -0 0 1 
1 23.949999999999999 0.14999999999999999 -5.5500000000000007 -0 -1 -0 -1 0 0 -0 -0 1 
1 23.149999999999999 0.14999999999999999 -5.5500000000000007 -1 -0 -0 0 1 -0 -0 0 1 
1 23.149999999999999 0.95000000000000007 -5.5500000000000007 -0 -1 -0 -1 0 0 -0 -0 1 
1 22.850000000000001 0.95000000000000007 -5.5500000000000007 1 -0 -0 0 -1 0 0 0 1 
1 22.850000000000001 0.14999999999999997 -5.5500000000000007 -0 -1 -0 -1 0 0 -0 -0 1 
1 22.050000000000001 0.14999999999999997 -5.5500000000000007 1 -0 -0 0 -1 0 0 0 1 
1 23.149999999999999 0.95000000000000007 11.449999999999999 -0 -0 1 -1 0 0 0 1 0 
Triangulations 0

TShapes 101
Ve
1e-007
21.6 0 11.45
0 0

0101101
*
Ve
1e-007
21.6 0 8.45
0 0

0101101
*
Ed
 1e-007 1 1 0
1  1 0 0 3
3  1 2CN 1 0 0 3
0

0101000
+101 3 -100 3 *
Ed
 1e-007 1 1 0
1  2 0 0 6.28318530717959
2  3 1 7 0 6.28318530717959
2  4 2 8 0 6.28318530717959
0

0101100
+101 9 -101 9 *
Ed
 1e-007 1 1 0
1  3 0 0 6.28318530717959
2  5 1 12 0 6.28318530717959
2  6 3 8 0 6.28318530717959
0

0101100
+100 13 -100 13 *
Wi

0101000
+99 0 -99 0 -98 6 +97 11 *
Fa
0  1e-007 1 0

0101000
+96 0 *
Wi

0101000
-98 15 *
Ve
1e-007
22.05 -0.15 11.45
0 0

0101101
*
Ve
1e-007
22.85 -0.15 11.45
0 0

0101101
*
Ed
 1e-007 1 1 0
1  4 0 0 0.800000000000001
2  7 2 20 0 0.800000000000001
2  8 4 21 0 0.800000000000001
0

0101000
+93 22 -92 22 *
Ve
1e-007
22.85 -0.95 11.45
0 0

0101101
*
Ed
 1e-007 1 1 0
1  5 0 0 0.8
2  9 2 20 0 0.8
2  10 5 21 0 0.8
0

0101000
+92 22 -90 22 *
Ve
1e-007
23.15 -0.95 11.45
0 0

0101101
*
Ed
 1e-007 1 1 0
1  6 0 0 0.299999999999997
2  11 2 20 0 0.299999999999997
2  12 6 21 0 0.299999999999997
0

0101000
+90 22 -88 22 *
Ve
1.00000000013878e-007
23.15 -0.15 11.45
0 0

0101101
*
Ed
 1e-007 1 1 0
1  7 0 0 0.8
2  13 2 20 0 0.8
2  14 7 21 0 0.8
0

0101000
+88 22 -86 22 *
Ve
1e-007
23.95 -0.15 11.45
0 0

0101101
*
Ed
 1e-007 1 1 0
1  8 0 0 0.800000000000001
2  15 2 20 0 0.800000000000001
2  16 8 21 0 0.800000000000001
0

0101000
+86 22 -84 22 *
Ve
1e-007
23.95 0.15 11.45
0 0

0101101
*
Ed
 1e-007 1 1 0
1  9 0 0 0.3
2  17 2 20 0 0.3
2  18 9 21 0 0.3
0

0101000
+84 22 -82 22 *
Ve
1e-007
23.15 0.15 11.45
0 0

0101101
*
Ed
 1e-007 1 1 0
1  10 0 0 0.800000000000001
2  19 2 20 0 0.800000000000001
2  20 10 21 0 0.800000000000001
0

0101000
+82 22 -80 22 *
Ve
1e-007
23.15 0.95 11.45
0 0

0101101
*
Ed
 1e-007 1 1 0
1  11 0 0 0.8
2  21 2 20 0 0.8
2  22 11 21 0 0.8
0

0101000
+80 22 -78 22 *
Ve
1e-007
22.85 0.95 11.45
0 0

0101101
*
Ed
 1e-007 1 1 0
1  12 0 0 0.299999999999997
2  23 2 20 0 0.299999999999997
2  24 12 21 0 0.299999999999997
0

0101000
+78 22 -76 22 *
Ve
1.00000000027756e-007
22.85 0.15 11.45
0 0

0101101
*
Ed
 1e-007 1 1 0
1  13 0 0 0.8
2  25 2 20 0 0.8
2  26 13 21 0 0.8
0

0101000
+76 22 -74 22 *
Ve
1e-007
22.05 0.15 11.45
0 0

0101101
*
Ed
 1e-007 1 1 0
1  14 0 0 0.800000000000001
2  27 2 20 0 0.800000000000001
2  28 14 21 0 0.800000000000001
0

0101000
+74 22 -72 22 *
Ed
 1e-007 1 1 0
1  15 0 0 0.3
2  29 2 20 0 0.3
2  30 15 21 0 0.3
0

0101000
+72 22 -93 22 *
Wi

0101000
-91 19 -89 19 -87 19 -85 19 -83 19 -81 19 -79 19 -77 19 -75 19 -73 19 
-71 19 -70 19 *
Fa
0  1e-007 2 14

0101000
+94 0 +69 0 *
Wi

0101100
+97 0 *
Fa
0  1e-007 3 0

0101000
-67 4 *
Ve
1e-007
22.05 -0.15 10.85
0 0

0101101
*
Ed
 1e-007 1 1 0
1  16 0 0 0.6
2  31 4 0 0 0.6
2  32 15 0 0 0.6
0

0101000
+93 24 -65 24 *
Ve
1e-007
22.85 -0.15 10.85
0 0

0101101
*
Ed
 1e-007 1 1 0
1  17 0 0 0.800000000000001
2  33 4 27 0 0.800000000000001
2  34 16 28 0 0.800000000000001
0

0101000
+65 29 -63 29 *
Ed
 1e-007 1 1 0
1  18 0 0 0.6
2  35 4 0 0 0.6
2  36 5 0 0 0.6
0

0101000
+92 24 -63 24 *
Wi

0101000
+64 18 -91 19 +62 26 -61 18 *
Fa
0  1e-007 4 18

0101000
+60 0 *
Ve
1e-007
22.85 -0.95 10.85
0 0

0101101
*
Ed
 1e-007 1 1 0
1  19 0 0 0.8
2  37 5 27 0 0.8
2  38 16 28 0 0.8
0

0101000
+63 29 -58 29 *
Ed
 1e-007 1 1 0
1  20 0 0 0.6
2  39 5 0 0 0.6
2  40 6 0 0 0.6
0

0101000
+90 24 -58 24 *
Wi

0101000
+61 18 -89 19 +57 26 -56 18 *
Fa
0  1e-007 5 18

0101000
+55 0 *
Ve
1e-007
23.15 -0.95 10.85
0 0

0101101
*
Ed
 1e-007 1 1 0
1  21 0 0 0.299999999999997
2  41 6 27 0 0.299999999999997
2  42 16 28 0 0.299999999999997
0

0101000
+58 29 -53 29 *
Ed
 1e-007 1 1 0
1  22 0 0 0.6
2  43 6 0 0 0.6
2  44 7 0 0 0.6
0

0101000
+88 24 -53 24 *
Wi

0101000
+56 18 -87 19 +52 26 -51 18 *
Fa
0  1e-007 6 18

0101000
+50 0 *
Ve
1.00000000013878e-007
23.15 -0.15 10.85
0 0

0101101
*
Ed
 1e-007 1 1 0
1  23 0 0 0.8
2  45 7 27 0 0.8
2  46 16 28 0 0.8
0

0101000
+53 29 -48 29 *
Ed
 1.00000000013878e-007 1 1 0
1  24 0 0 0.6
2  47 7 0 0 0.6
2  48 8 0 0 0.6
0

0101000
+86 24 -48 24 *
Wi

0101000
+51 18 -85 19 +47 26 -46 18 *
Fa
0  1e-007 7 18

0101000
+45 0 *
Ve
1e-007
23.95 -0.15 10.85
0 0

0101101
*
Ed
 1e-007 1 1 0
1  25 0 0 0.800000000000001
2  49 8 27 0 0.800000000000001
2  50 16 28 0 0.800000000000001
0

0101000
+48 29 -43 29 *
Ed
 1e-007 1 1 0
1  26 0 0 0.6
2  51 8 0 0 0.6
2  52 9 0 0 0.6
0

0101000
+84 24 -43 24 *
Wi

0101000
+46 18 -83 19 +42 26 -41 18 *
Fa
0  1e-007 8 18

0101000
+40 0 *
Ve
1e-007
23.95 0.15 10.85
0 0

0101101
*
Ed
 1e-007 1 1 0
1  27 0 0 0.3
2  53 9 27 0 0.3
2  54 16 28 0 0.3
0

0101000
+43 29 -38 29 *
Ed
 1e-007 1 1 0
1  28 0 0 0.6
2  55 9 0 0 0.6
2  56 10 0 0 0.6
0

0101000
+82 24 -38 24 *
Wi

0101000
+41 18 -81 19 +37 26 -36 18 *
Fa
0  1e-007 9 18

0101000
+35 0 *
Ve
1e-007
23.15 0.15 10.85
0 0

0101101
*
Ed
 1e-007 1 1 0
1  29 0 0 0.800000000000001
2  57 10 27 0 0.800000000000001
2  58 16 28 0 0.800000000000001
0

0101000
+38 29 -33 29 *
Ed
 1e-007 1 1 0
1  30 0 0 0.6
2  59 10 0 0 0.6
2  60 11 0 0 0.6
0

0101000
+80 24 -33 24 *
Wi

0101000
+36 18 -79 19 +32 26 -31 18 *
Fa
0  1e-007 10 18

0101000
+30 0 *
Ve
1e-007
23.15 0.95 10.85
0 0

0101101
*
Ed
 1e-007 1 1 0
1  31 0 0 0.8
2  61 11 27 0 0.8
2  62 16 28 0 0.8
0

0101000
+33 29 -28 29 *
Ed
 1e-007 1 1 0
1  32 0 0 0.6
2  63 11 0 0 0.6
2  64 12 0 0 0.6
0

0101000
+78 24 -28 24 *
Wi

0101000
+31 18 -77 19 +27 26 -26 18 *
Fa
0  1e-007 11 18

0101000
+25 0 *
Ve
1e-007
22.85 0.95 10.85
0 0

0101101
*
Ed
 1e-007 1 1 0
1  33 0 0 0.299999999999997
2  65 12 27 0 0.299999999999997
2  66 16 28 0 0.299999999999997
0

0101000
+28 29 -23 29 *
Ed
 1e-007 1 1 0
1  34 0 0 0.6
2  67 12 0 0 0.6
2  68 13 0 0 0.6
0

0101000
+76 24 -23 24 *
Wi

0101000
+26 18 -75 19 +22 26 -21 18 *
Fa
0  1e-007 12 18

0101000
+20 0 *
Ve
1.00000000027756e-007
22.85 0.15 10.85
0 0

0101101
*
Ed
 1e-007 1 1 0
1  35 0 0 0.8
2  69 13 27 0 0.8
2  70 16 28 0 0.8
0

0101000
+23 29 -18 29 *
Ed
 1.00000000027756e-007 1 1 0
1  36 0 0 0.6
2  71 13 0 0 0.6
2  72 14 0 0 0.6
0

0101000
+74 24 -18 24 *
Wi

0101000
+21 18 -73 19 +17 26 -16 18 *
Fa
0  1e-007 13 18

0101000
+15 0 *
Ve
1e-007
22.05 0.15 10.85
0 0

0101101
*
Ed
 1e-007 1 1 0
1  37 0 0 0.800000000000001
2  73 14 27 0 0.800000000000001
2  74 16 28 0 0.800000000000001
0

0101000
+18 29 -13 29 *
Ed
 1e-007 1 1 0
1  38 0 0 0.6
2  75 14 0 0 0.6
2  76 15 0 0 0.6
0

0101000
+72 24 -13 24 *
Wi

0101000
+16 18 -71 19 +12 26 -11 18 *
Fa
0  1e-007 14 18

0101000
+10 0 *
Ed
 1e-007 1 1 0
1  39 0 0 0.3
2  77 15 27 0 0.3
2  78 16 28 0 0.3
0

0101000
+13 29 -65 29 *
Wi

0101000
+11 18 -70 19 +8 26 -64 18 *
Fa
0  1e-007 15 18

0101000
+7 0 *
Wi

0101100
+22 0 +17 0 +12 0 +8 0 +62 0 +57 0 +52 0 +47 0 +42 0 +37 0 
+32 0 +27 0 *
Fa
0  1e-007 16 0

0101000
-5 16 *
Sh

0101100
-95 2 +68 0 -66 23 -59 0 -54 0 -49 0 -44 0 -39 0 -34 0 -29 0 
-24 0 -19 0 -14 0 -9 0 -6 0 -4 30 *
So

0100000
+3 0 *
Co

0100000
+2 0 *

+1 1 