DBRep_DrawableShape

CASCADE Topology V1, (c) Matra-Datavision
Locations 14
1
              1               0               0               0 
              0               1               0               0 
              0               0               1              17 
2  1 -1 0
1
              1               0               0               0 
              0               1               0               0 
              0               0               1              17 
1
              1               0               0               0 
              0               1               0               0 
              0               0               1              17 
2  3 1 4 -1 0
2  4 1 3 -1 0
2  3 -1 0
2  1 -1 4 1 3 -1 0
1
              1               0               0              -0 
              0               1               0              -0 
              0               0               1              -3 
2  3 1 4 -1 9 1 0
2  9 -1 4 1 3 -1 0
2  1 -1 9 -1 4 1 3 -1 0
2  4 -1 0
2  4 -1 9 1 0
Curve2ds 6
1 0 0 0 -1 
1 6.2831853071795862 0 0 -1 
1 0 0 1 0 
2 1.3999999999999986 0 -1 0 0 1 1.3999999999999986
1 0 -3 1 0 
2 1.3999999999999986 0 -1 0 0 1 1.3999999999999986
Curves 3
1 -21.600000000000001 0 0 -0 -0 -1 
2 -23 0 0 0 0 1 1 0 -0 -0 1 0 1.3999999999999999
2 -23 0 0 0 0 1 1 0 -0 -0 1 0 1.3999999999999999
Polygon3D 0
PolygonOnTriangulations 0
Surfaces 3
2 -23 0 0 0 0 1 1 0 -0 -0 1 0 1.3999999999999999
1 -21.600000000000001 0 17 -0 0 -1 -1 0 0 0 1 0 
1 -21.600000000000001 0 17 -0 0 -1 -1 0 0 0 1 0 
Triangulations 0

TShapes 13
Ve
1e-007
-21.6 0 17
0 0

0101101
*
Ve
1e-007
-21.6 0 14
0 0

0101101
*
Ed
 1e-007 1 1 0
1  1 0 0 3
3  1 2CN 1 0 0 3
0

0101000
+13 2 -12 2 *
Ed
 1e-007 1 1 0
1  2 0 0 6.28318530717959
2  3 1 6 0 6.28318530717959
2  4 2 7 0 6.28318530717959
0

0101100
+13 8 -13 8 *
Ed
 1e-007 1 1 0
1  3 0 0 6.28318530717959
2  5 1 11 0 6.28318530717959
2  6 3 7 0 6.28318530717959
0

0101100
+12 12 -12 12 *
Wi

0101000
+11 0 -11 0 -10 5 +9 10 *
Fa
0  1e-007 1 0

0101000
+8 0 *
Wi

0101100
+10 0 *
Fa
0  1e-007 2 0

0101000
-6 3 *
Wi

0101100
+9 0 *
Fa
0  1e-007 3 0

0101000
-4 3 *
Sh

0101100
-7 0 +5 13 -3 14 *
So

1100100
-2 0 *

+1 1 