DBRep_DrawableShape

CASCADE Topology V1, (c) Matra-Datavision
Locations 25
1
              1               0               0               0 
              0               1               0               0 
              0               0               1               0 
1
2.22044604925031e-016 -1.11022302462516e-016               1            37.5 
              1 1.11022302462516e-016 -2.22044604925031e-016               0 
-1.11022302462516e-016               1 1.11022302462516e-016               0 
1
              1               0               0               0 
              0               1               0               0 
              0               0               1               0 
1
              1               0               0               0 
              0               1               0               0 
              0               0               1               0 
1
              1               0               0               0 
              0               1               0               0 
              0               0               1               0 
2  2 1 3 1 4 1 5 1 0
2  5 -1 4 -1 3 -1 2 -1 0
2  1 -1 5 -1 4 -1 3 -1 2 -1 0
2  1 -1 0
2  2 1 3 1 4 1 0
2  1 -1 5 -1 0
1
2.22044604925031e-016 -1.11022302462516e-016               1            37.5 
              1 1.11022302462516e-016 -2.22044604925031e-016               0 
-1.11022302462516e-016               1 1.11022302462516e-016               0 
1
              1               0               0 -7.88258347483861e-016 
              0               1               0 -3.9412917374193e-016 
              0               0               1            -7.1 
2  12 -1 13 1 2 1 3 1 4 1 5 1 0
2  12 -1 2 1 3 1 4 1 0
2  3 1 4 1 5 1 0
2  12 -1 13 1 2 1 0
2  5 -1 4 -1 3 -1 0
1
              1               0               0               0 
              0               1               0               0 
              0               0               1               0 
2  1 -1 5 -1 4 -1 3 -1 0
2  4 1 5 1 0
2  12 -1 2 1 3 1 0
2  4 -1 0
2  1 -1 5 -1 4 -1 3 -1 19 -1 0
2  19 1 3 1 4 1 5 1 0
Curve2ds 28
1 0 0 0 -1 
1 6.2831853071795862 0 0 -1 
1 0 -5.8000000000000007 1 0 
1 0 0 1 0 
1 3.739698609263684e-016 -1.2999999999999972 1 0 
1 0 0 1 0 
8 0 1.5707963267948966
1 6.2831853071795862 0 0 1 
8 0 1.5707963267948966
1 0 0 0 1 
1 0 1.5707963267948966 1 0 
2 -1.7763568394002505e-015 2.3749999999999956 8.2621248344197685e-016 -1 -1 -8.2621248344197685e-016 1.0749999999999991
8 0 1.5707963267948966
1 6.2831853071795862 0 0 1 
8 0 1.5707963267948966
1 -3.739698609263684e-016 0 0 1 
1 0 1.5707963267948966 1 0 
2 0 2.3749999999999956 -8.2621248344197616e-016 -1 -1 8.2621248344197616e-016 1.0749999999999991
2 -3.5527136788005009e-015 2.3749999999999929 -1.0947644252537636e-047 1 1 1.0947644252537636e-047 0.81000000000000005
1 0 9.6700000000000017 1 0 
8 3.1415926535897931 9.4247779607693793
1 9.4247779607693793 0 -1 -0 
1 4.7123889803846897 0 0 1 
1 6.2831853071795862 0 0 1 
8 0 16.77
1 0 0 0 1 
1 0 3.1415926535897931 1 0 
8 3.1415926535897931 4.7123889803846897
1 0 9.4247779607693793 1 0 
8 0 6.2831853071795862
1 3.1415926535897931 9.4247779607693793 -0 -1 
1 0 9 1 0 
1 6.2831853071795862 0 0 1 
8 0 9
1 0 0 0 1 
1 0 0 1 0 
2 0 -0.80999999999999872 0 1 1 -0 0.80999999999999872
Curves 14
1 8.4949999999999974 5.6599999999999993 0 -1.1102230246251564e-016 -5.5511151231257809e-017 -1 
2 31.700000000000003 6.1200000000000001 5.6599999999999984 1 -1.1102230246251563e-016 -1.1102230246251562e-016 1.1102230246251558e-016 1 -4.3473996332690347e-016 1.1102230246251565e-016 4.3473996332690347e-016 1 2.3749999999999991
2 36.200000000000003 6.1200000000000001 5.6599999999999975 1 -1.1102230246251563e-016 -1.1102230246251562e-016 1.1102230246251568e-016 1 4.3473996332690377e-016 1.1102230246251557e-016 -4.3473996332690377e-016 1 2.3749999999999991
2 31.700000000000003 7.1949999999999994 5.6599999999999975 1.1102230246251565e-016 4.3473996332690347e-016 1 1.1102230246251558e-016 1 -4.3473996332690347e-016 -1 1.1102230246251563e-016 1.110223024625156e-016 1.3
2 30.400000000000002 6.1200000000000001 5.6599999999999984 1 -1.1102230246251563e-016 -1.1102230246251562e-016 1.1102230246251558e-016 1 -4.3473996332690347e-016 1.1102230246251565e-016 4.3473996332690347e-016 1 1.0749999999999991
2 36.200000000000003 7.1949999999999994 5.6599999999999975 -1.110223024625156e-016 6.0770102400535381e-017 -1 1.1102230246251564e-016 1 6.0770102400535369e-017 1 -1.1102230246251563e-016 -1.1102230246251562e-016 1.3
2 37.5 6.1200000000000001 5.6599999999999975 1 -1.1102230246251563e-016 -1.1102230246251562e-016 1.1102230246251568e-016 1 4.3473996332690377e-016 1.1102230246251557e-016 -4.3473996332690377e-016 1 1.0749999999999991
2 30.400000000000002 6.1200000000000028 5.6600000000000001 1 0 0 0 -1 0 0 0 -1 0.81000000000000005
2 20.73 6.120000000000001 5.6600000000000001 -1 -1.8369701987210297e-016 0 -1.8369701987210297e-016 1 0 -0 0 -1 0.81000000000000005
1 20.73 5.3100000000000023 5.6600000000000001 1 0 0 
2 20.73 4.5 5.6600000000000001 0 -0 -1 1 0 0 0 -1 0 0.81000000000000094
2 19.109999999999999 4.5 5.6600000000000001 0 1 0 1 0 0 0 0 -1 0.81000000000000005
1 19.919999999999998 -4.5 5.6600000000000001 0 1 0 
2 19.109999999999999 -4.5 5.6600000000000001 0 1 0 1 0 0 0 0 -1 0.81000000000000005
Polygon3D 0
PolygonOnTriangulations 0
Surfaces 9
2 6.1199999999999983 5.6599999999999993 1.3078427230084337e-015 -1.1102230246251563e-016 -1.1102230246251562e-016 1 1 1.1102230246251562e-016 1.1102230246251564e-016 -1.1102230246251563e-016 1 1.110223024625156e-016 2.3749999999999996
5 31.700000000000003 6.1200000000000001 5.6599999999999984 -1 1.1102230246251563e-016 1.1102230246251562e-016 1.1102230246251558e-016 1 -4.3473996332690347e-016 1.1102230246251565e-016 4.3473996332690347e-016 1 1.0749999999999991 1.3
5 36.200000000000003 6.1200000000000001 5.6599999999999975 1 -1.1102230246251563e-016 -1.1102230246251562e-016 1.1102230246251568e-016 1 4.3473996332690377e-016 1.1102230246251557e-016 -4.3473996332690377e-016 1 1.0749999999999991 1.3
1 37.5 8.4949999999999992 5.6599999999999984 -1 -0 0 -0 0 -1 0 -1 -0 
1 37.5 8.4949999999999992 5.6599999999999984 -1 -0 0 -0 0 -1 0 -1 -0 
10 0 6.2831853071795862 0 16.77
2 20.73 6.1200000000000028 5.6600000000000001 1 0 0 0 -1 0 0 0 -1 0.81000000000000005
10 3.1415926535897931 4.7123889803846897 3.1415926535897931 9.4247779607693793
5 20.73 4.5 5.6600000000000001 0 -0 -1 1 0 0 0 -1 0 1.620000000000001 0.81000000000000005
10 0 6.2831853071795862 0 9
2 19.109999999999999 -4.5 5.6600000000000001 0 1 0 1 0 0 0 0 -1 0.81000000000000005
1 19.919999999999998 -4.5 5.6600000000000001 -0 -1 0 0 -0 -1 1 0 0 
Triangulations 0

TShapes 44
Ve
1e-007
31.7 8.495 5.66
0 0

0101101
*
Ve
1e-007
36.2 8.495 5.66
0 0

0101101
*
Ed
 1e-007 1 1 0
1  1 0 1.3 5.8
3  1 2CN 1 0 1.3 5.8
0

0101000
-44 8 +43 8 *
Ed
 1e-007 1 1 0
1  2 0 0 6.28318530717959
2  3 1 6 0 6.28318530717959
2  4 2 0 0 6.28318530717959
4 G1 1 6 2 0
0

0101100
+44 9 -44 9 *
Ed
 1e-007 1 1 0
1  3 0 -3.73969860926368e-016 6.28318530717959
2  5 1 10 -3.73969860926368e-016 6.28318530717959
2  6 3 0 -3.73969860926368e-016 6.28318530717959
4 G1 1 10 3 0
0

0101100
+43 11 -43 11 *
Wi

0101100
+42 6 +41 0 -40 5 -42 6 *
Fa
0  1e-007 1 0

0101000
+39 7 *
Ve
1e-007
30.4 7.195 5.66
0 0

0101101
*
Ed
 1e-007 1 1 0
1  4 0 0 1.5707963267949
3  7 8CN 2 0 0 1.5707963267949
0

0101000
+44 9 -37 9 *
Ed
 1e-007 1 1 0
1  5 0 0 6.28318530717959
2  9 2 0 0 6.28318530717959
2  10 4 14 0 6.28318530717959
4 G1 2 0 4 14
0

0101100
+37 9 -37 9 *
Wi

0101100
-36 0 +41 0 -35 0 +36 0 *
Fa
0  1e-007 2 0

0101000
+34 0 *
Ve
1e-007
37.5 7.195 5.66
0 0

0101101
*
Ed
 1e-007 1 1 0
1  6 0 0 1.5707963267949
3  11 12CN 3 0 0 1.5707963267949
0

0101000
+43 11 -32 11 *
Ed
 1e-007 1 1 0
1  7 0 -3.73969860926368e-016 6.28318530717959
2  13 3 0 -3.73969860926368e-016 6.28318530717959
2  14 5 15 -3.73969860926368e-016 6.28318530717959
4 G1 3 0 5 15
0

0101100
+32 11 -32 11 *
Wi

0101100
-31 0 +40 0 -30 0 +31 0 *
Fa
0  1e-007 3 0

0101000
+29 0 *
Wi

0101100
-35 0 *
Ve
2.00001e-007
30.4 5.31 5.66
0 0

0101101
*
Ed
 1e-007 1 1 0
1  8 0 0 6.28318530717959
2  15 4 17 0 6.28318530717959
2  16 6 19 0 6.28318530717959
0

0101100
+26 20 -26 20 *
Wi

0101100
+25 0 *
Fa
0  1e-007 4 17

0101000
+27 18 +24 0 *
Wi

0101100
-30 0 *
Fa
0  1e-007 5 22

0101000
+22 23 *
Ve
1e-006
20.73 5.31 5.66
0 0

0101101
*
Ed
 1e-007 1 1 0
1  9 0 3.14159265358979 9.42477796076938
2  17 6 0 3.14159265358979 9.42477796076938
2  18 7 0 3.14159265358979 9.42477796076938
4 G1 6 0 7 0
0

0101100
+20 24 -20 24 *
Ed
 1e-007 1 1 0
1  10 0 0 9.67
3  19 20G1 6 0 0 9.67
0

0101000
+20 24 -26 24 *
Wi

0101000
-19 19 -18 19 -25 0 +18 19 *
Fa
0  1e-007 6 19

0101000
+17 0 *
Ve
1.00000001991237e-007
19.92 4.5 5.66
0 0

0101101
*
Ed
 1e-007 1 1 0
1  11 0 3.14159265358979 4.71238898038469
3  21 22G1 7 0 3.14159265358979 4.71238898038469
0

0101000
+15 24 -20 24 *
Ed
 1e-007 1 1 0
1  12 0 0 6.28318530717959
2  23 7 0 0 6.28318530717959
2  24 8 0 0 6.28318530717959
4 G1 7 0 8 0
0

0101100
+15 24 -15 24 *
Wi

0101100
+14 0 +13 0 -14 0 +19 0 *
Fa
0  1e-007 7 0

0101000
+12 0 *
Ve
1.00000001991237e-007
19.92 -4.5 5.66
0 0

0101101
*
Ed
 1e-007 1 1 0
1  13 0 0 9
3  25 26G1 8 0 0 9
0

0101000
+10 24 -15 24 *
Ed
 1e-007 1 1 0
1  14 0 0 6.28318530717959
2  27 8 0 0 6.28318530717959
2  28 9 0 0 6.28318530717959
0

0101100
-10 24 +10 24 *
Wi

0101100
+9 0 +8 0 -9 0 -13 0 *
Fa
0  1e-007 8 0

0101000
+7 0 *
Wi

0101100
-8 0 *
Fa
0  1e-007 9 0

0101000
+5 0 *
Sh

0101100
+38 6 -33 0 +28 5 +23 16 -21 21 +16 16 +11 25 +6 25 +4 25 *
So

0100000
+3 0 *
Co

1100000
+2 0 *

+1 1 