DBRep_DrawableShape

CASCADE Topology V1, (c) Matra-Datavision
Locations 15
1
              1               0              -0               0 
             -0 2.22044604925031e-016              -1               0 
              0               1 2.22044604925031e-016               0 
2  1 -1 0
1
              1               0              -0               0 
             -0 2.22044604925031e-016              -1               0 
              0               1 2.22044604925031e-016               0 
1
              1               0               0               0 
              0 -2.22044604925031e-016              -1               0 
              0               1 -2.22044604925031e-016               0 
1
              1               0               0              -0 
              0               1               0 -1.66755498298699e-015 
              0               0               1           -7.51 
2  3 1 4 -1 5 1 0
2  5 -1 4 1 3 -1 0
2  3 -1 0
2  1 -1 5 -1 4 1 3 -1 0
1
              1               0               0               0 
              0               1               0 3.33510996597397e-015 
              0               0               1           15.02 
2  3 1 4 -1 5 1 10 1 0
2  10 -1 5 -1 4 1 3 -1 0
2  1 -1 10 -1 5 -1 4 1 3 -1 0
2  4 -1 5 1 0
2  4 -1 5 1 10 1 0
Curve2ds 48
1 0 0 2.2204460492503131e-016 -1 
1 35.699999999999989 0 0 -1 
1 3.6999999999999997 -1.9984014443252826e-016 2.2204460492503131e-016 -1 
1 0 0 0 -1 
1 0 0 1 0 
1 0 -3.5527136788005009e-015 -1 0 
1 2.8999025403209078e-015 -15.019999999999998 1 0 
1 0 -3.5527136788005009e-015 -1 0 
1 39.199999999999989 0 0 -1 
1 0 0 -2.2204460492503131e-016 -1 
1 -3.5527136788005009e-015 0 1 0 
1 -3.6999999999999997 -3.5527136788005009e-015 0 1 
1 -3.5527136788005009e-015 -15.019999999999998 1 0 
1 -3.6999999999999997 -3.5527136788005009e-015 0 1 
1 2.4999999999999996 1.1102230246251605e-016 -2.2204460492503131e-016 -1 
1 0 0 0 -1 
1 0 0 1 0 
1 -3.6999999999999997 39.199999999999989 1 0 
1 -2.8999025403209078e-015 -15.019999999999998 1 0 
1 -3.6999999999999997 39.199999999999989 1 0 
1 0.5 0 0 -1 
1 0 0 -2.2204460492503131e-016 -1 
1 -3.5527136788005009e-015 0 1 0 
1 -1.2000000000000002 39.199999999999989 0 -1 
1 -3.5527136788005009e-015 -15.019999999999998 1 0 
1 -1.2000000000000002 39.199999999999989 0 -1 
1 0.59999999999999964 -3.9968028886505612e-016 -2.2204460492503131e-016 -1 
1 0 0 0 -1 
1 0 0 1 0 
1 -1.2000000000000002 38.699999999999989 1 0 
1 -2.8999025403209078e-015 -15.019999999999998 1 0 
1 -1.2000000000000002 38.699999999999989 1 0 
1 2.9999999999999964 0 0 -1 
1 0 0 -2.2204460492503131e-016 -1 
1 -3.5527136788005009e-015 0 1 0 
1 -0.60000000000000053 38.699999999999989 0 -1 
1 -3.5527136788005009e-015 -15.019999999999998 1 0 
1 -0.60000000000000053 38.699999999999989 0 -1 
1 0.60000000000000053 4.8849813083506852e-016 -2.2204460492503131e-016 -1 
1 0 0 0 -1 
1 0 0 1 0 
1 -0.60000000000000053 35.699999999999989 1 0 
1 -2.8999025403209078e-015 -15.019999999999998 1 0 
1 -0.60000000000000053 35.699999999999989 1 0 
1 0 0 1 0 
1 0 35.699999999999989 0 -1 
1 0 -15.019999999999998 1 0 
1 0 35.699999999999989 0 -1 
Curves 24
1 -20.899999999999995 7.549999999999998 -7.5100000000000033 0 2.2204460492503131e-016 1 
1 -20.899999999999995 3.8499999999999979 -7.5100000000000016 0 2.2204460492503131e-016 1 
1 -20.899999999999999 7.5500000000000007 0 0 -1 0 
1 -20.899999999999999 7.5500000000000007 0 0 -1 0 
1 18.300000000000001 3.8499999999999979 -7.5100000000000016 0 2.2204460492503131e-016 1 
1 -20.899999999999999 3.8500000000000001 0 1 0 0 
1 -20.899999999999999 3.8500000000000001 0 1 0 0 
1 18.300000000000001 6.3499999999999979 -7.5100000000000025 0 2.2204460492503131e-016 1 
1 18.300000000000004 3.8500000000000001 0 0 1 0 
1 18.300000000000004 3.8500000000000001 0 0 1 0 
1 17.800000000000001 6.3499999999999979 -7.5100000000000025 0 2.2204460492503131e-016 1 
1 18.300000000000004 6.3500000000000005 0 -1 0 0 
1 18.300000000000004 6.3500000000000005 0 -1 0 0 
1 17.800000000000001 6.9499999999999975 -7.5100000000000025 0 2.2204460492503131e-016 1 
1 17.800000000000004 6.3500000000000005 0 0 1 0 
1 17.800000000000004 6.3500000000000005 0 0 1 0 
1 14.800000000000002 6.9499999999999975 -7.5100000000000025 0 2.2204460492503131e-016 1 
1 17.800000000000004 6.9500000000000002 0 -1 0 0 
1 17.800000000000004 6.9500000000000002 0 -1 0 0 
1 14.800000000000002 7.549999999999998 -7.5100000000000033 0 2.2204460492503131e-016 1 
1 14.800000000000004 6.9500000000000002 0 0 1 0 
1 14.800000000000004 6.9500000000000002 0 0 1 0 
1 14.800000000000004 7.5500000000000007 0 -1 0 0 
1 14.800000000000004 7.5500000000000007 0 -1 0 0 
Polygon3D 0
PolygonOnTriangulations 0
Surfaces 10
1 -20.899999999999995 7.549999999999998 -7.5100000000000033 1 0 -0 0 -1 4.4408920985006262e-016 0 -4.4408920985006262e-016 -1 
1 14.800000000000002 7.549999999999998 -7.5100000000000033 0 -1 2.2204460492503131e-016 -1 0 0 -0 -2.2204460492503131e-016 -1 
1 -20.899999999999995 3.8499999999999979 -7.5100000000000016 0 1 -2.2204460492503131e-016 1 0 0 0 -2.2204460492503131e-016 -1 
1 -20.899999999999995 1.6764367671839867e-015 7.5499999999999998 0 1 -2.2204460492503136e-016 0 2.2204460492503136e-016 1 1 -0 0 
1 -20.899999999999995 1.6764367671839867e-015 7.5499999999999998 0 1 -2.2204460492503136e-016 0 2.2204460492503136e-016 1 1 -0 0 
1 18.300000000000001 3.8499999999999979 -7.5100000000000016 -1 0 0 0 1 -4.4408920985006262e-016 -0 -4.4408920985006262e-016 -1 
1 18.300000000000001 6.3499999999999979 -7.5100000000000025 0 -1 2.2204460492503131e-016 -1 0 0 -0 -2.2204460492503131e-016 -1 
1 17.800000000000001 6.3499999999999979 -7.5100000000000025 -1 0 0 0 1 -4.4408920985006262e-016 -0 -4.4408920985006262e-016 -1 
1 17.800000000000001 6.9499999999999975 -7.5100000000000025 0 -1 2.2204460492503131e-016 -1 0 0 -0 -2.2204460492503131e-016 -1 
1 14.800000000000002 6.9499999999999975 -7.5100000000000025 -1 0 0 0 1 -4.4408920985006262e-016 -0 -4.4408920985006262e-016 -1 
Triangulations 0

TShapes 62
Ve
1e-007
-20.9 7.51 7.55
0 0

0101101
*
Ve
1e-007
-20.9 -7.50999999999999 7.55
0 0

0101101
*
Ed
 1e-007 1 1 0
1  1 0 0 15.02
2  1 1 0 0 15.02
2  2 2 0 0 15.02
0

0101000
+62 2 -61 2 *
Ve
1e-007
-20.9 7.51 3.85
0 0

0101101
*
Ve
1e-007
-20.9 -7.51 3.85
0 0

0101101
*
Ed
 1e-007 1 1 0
1  2 0 0 15.02
2  3 1 0 0 15.02
2  4 3 0 0 15.02
0

0101000
+59 2 -58 2 *
Ed
 1e-007 1 1 0
1  3 0 0 3.7
2  5 1 7 0 3.7
2  6 4 8 0 3.7
0

0101000
+62 9 -59 9 *
Ed
 1e-007 1 1 0
1  4 0 0 3.7
2  7 1 12 0 3.7
2  8 5 8 0 3.7
0

0101000
+61 13 -58 13 *
Wi

0101000
+60 0 -57 0 -56 6 +55 11 *
Fa
0  1e-007 1 0

0101000
+54 0 *
Ve
1e-007
18.3 7.51 3.85
0 0

0101101
*
Ve
1e-007
18.3 -7.51 3.85
0 0

0101101
*
Ed
 1e-007 1 1 0
1  5 0 0 15.02
2  9 3 0 0 15.02
2  10 6 0 0 15.02
0

0101000
+52 2 -51 2 *
Ed
 1e-007 1 1 0
1  6 0 0 39.2
2  11 3 7 0 39.2
2  12 4 8 0 39.2
0

0101000
+59 9 -52 9 *
Ed
 1e-007 1 1 0
1  7 0 0 39.2
2  13 3 12 0 39.2
2  14 5 8 0 39.2
0

0101000
+58 13 -51 13 *
Wi

0101000
+57 0 -50 0 -49 6 +48 11 *
Fa
0  1e-007 3 0

0101000
+47 0 *
Ve
1e-007
18.3 7.51 6.35
0 0

0101101
*
Ve
1e-007
18.3 -7.50999999999999 6.35
0 0

0101101
*
Ed
 1e-007 1 1 0
1  8 0 0 15.02
2  15 6 0 0 15.02
2  16 7 0 0 15.02
0

0101000
+45 2 -44 2 *
Ed
 1e-007 1 1 0
1  9 0 0 2.5
2  17 6 7 0 2.5
2  18 4 8 0 2.5
0

0101000
+52 9 -45 9 *
Ed
 1e-007 1 1 0
1  10 0 0 2.5
2  19 6 12 0 2.5
2  20 5 8 0 2.5
0

0101000
+51 13 -44 13 *
Wi

0101000
+50 0 -43 0 -42 6 +41 11 *
Fa
0  1e-007 6 0

0101000
+40 0 *
Ve
1e-007
17.8 7.51 6.35
0 0

0101101
*
Ve
1e-007
17.8 -7.50999999999999 6.35
0 0

0101101
*
Ed
 1e-007 1 1 0
1  11 0 0 15.02
2  21 7 0 0 15.02
2  22 8 0 0 15.02
0

0101000
+38 2 -37 2 *
Ed
 1e-007 1 1 0
1  12 0 0 0.5
2  23 7 7 0 0.5
2  24 4 8 0 0.5
0

0101000
+45 9 -38 9 *
Ed
 1e-007 1 1 0
1  13 0 0 0.5
2  25 7 12 0 0.5
2  26 5 8 0 0.5
0

0101000
+44 13 -37 13 *
Wi

0101000
+43 0 -36 0 -35 6 +34 11 *
Fa
0  1e-007 7 0

0101000
+33 0 *
Ve
1e-007
17.8 7.51 6.94999999999999
0 0

0101101
*
Ve
1e-007
17.8 -7.50999999999999 6.95
0 0

0101101
*
Ed
 1e-007 1 1 0
1  14 0 0 15.02
2  27 8 0 0 15.02
2  28 9 0 0 15.02
0

0101000
+31 2 -30 2 *
Ed
 1e-007 1 1 0
1  15 0 0 0.6
2  29 8 7 0 0.6
2  30 4 8 0 0.6
0

0101000
+38 9 -31 9 *
Ed
 1e-007 1 1 0
1  16 0 0 0.6
2  31 8 12 0 0.6
2  32 5 8 0 0.6
0

0101000
+37 13 -30 13 *
Wi

0101000
+36 0 -29 0 -28 6 +27 11 *
Fa
0  1e-007 8 0

0101000
+26 0 *
Ve
1e-007
14.8 7.51 6.94999999999999
0 0

0101101
*
Ve
1e-007
14.8 -7.50999999999999 6.95
0 0

0101101
*
Ed
 1e-007 1 1 0
1  17 0 0 15.02
2  33 9 0 0 15.02
2  34 10 0 0 15.02
0

0101000
+24 2 -23 2 *
Ed
 1e-007 1 1 0
1  18 0 0 3
2  35 9 7 0 3
2  36 4 8 0 3
0

0101000
+31 9 -24 9 *
Ed
 1e-007 1 1 0
1  19 0 0 3
2  37 9 12 0 3
2  38 5 8 0 3
0

0101000
+30 13 -23 13 *
Wi

0101000
+29 0 -22 0 -21 6 +20 11 *
Fa
0  1e-007 9 0

0101000
+19 0 *
Ve
1e-007
14.8 7.51 7.55
0 0

0101101
*
Ve
1e-007
14.8 -7.50999999999999 7.55
0 0

0101101
*
Ed
 1e-007 1 1 0
1  20 0 0 15.02
2  39 10 0 0 15.02
2  40 2 0 0 15.02
0

0101000
+17 2 -16 2 *
Ed
 1e-007 1 1 0
1  21 0 0 0.600000000000001
2  41 10 7 0 0.600000000000001
2  42 4 8 0 0.600000000000001
0

0101000
+24 9 -17 9 *
Ed
 1e-007 1 1 0
1  22 0 0 0.600000000000001
2  43 10 12 0 0.600000000000001
2  44 5 8 0 0.600000000000001
0

0101000
+23 13 -16 13 *
Wi

0101000
+22 0 -15 0 -14 6 +13 11 *
Fa
0  1e-007 10 0

0101000
+12 0 *
Ed
 1e-007 1 1 0
1  23 0 0 35.7
2  45 2 7 0 35.7
2  46 4 8 0 35.7
0

0101000
+17 9 -62 9 *
Ed
 1e-007 1 1 0
1  24 0 0 35.7
2  47 2 12 0 35.7
2  48 5 8 0 35.7
0

0101000
+16 13 -61 13 *
Wi

0101000
+15 0 -60 0 -10 6 +9 11 *
Fa
0  1e-007 2 0

0101000
+8 0 *
Wi

0101100
+56 0 +49 0 +42 0 +35 0 +28 0 +21 0 +14 0 +10 0 *
Fa
0  1e-007 4 0

0101000
-6 3 *
Wi

0101100
+55 0 +48 0 +41 0 +34 0 +27 0 +20 0 +13 0 +9 0 *
Fa
0  1e-007 5 0

0101000
-4 3 *
Sh

0101100
-53 0 -46 0 -39 0 -32 0 -25 0 -18 0 -11 0 -7 0 +5 14 -3 15 
*
So

1100100
+2 0 *

+1 1 