DBRep_DrawableShape

CASCADE Topology V1, (c) Matra-Datavision
Locations 21
1
              1               0               0               0 
              0               1               0               0 
              0               0               1               0 
1
              1               0               0               0 
              0               1               0               0 
              0               0               1               0 
2  1 -1 2 -1 0
1
2.22044604925031e-016 -1.11022302462516e-016               1            37.5 
              1 1.11022302462516e-016 -2.22044604925031e-016               0 
-1.11022302462516e-016               1 1.11022302462516e-016               0 
1
              1               0               0 -7.88258347483861e-016 
              0               1               0 -3.9412917374193e-016 
              0               0               1            -7.1 
1
2.22044604925031e-016 -1.11022302462516e-016               1            37.5 
              1 1.11022302462516e-016 -2.22044604925031e-016               0 
-1.11022302462516e-016               1 1.11022302462516e-016               0 
2  4 -1 5 1 6 1 0
2  1 -1 0
1
2.22044604925031e-016 -1.11022302462516e-016               1            37.5 
              1 1.11022302462516e-016 -2.22044604925031e-016               0 
-1.11022302462516e-016               1 1.11022302462516e-016               0 
2  9 1 4 -1 5 1 6 1 0
2  9 -1 0
2  5 -1 4 1 9 -1 0
2  1 -1 6 -1 5 -1 4 1 9 -1 0
2  1 -1 6 -1 0
2  9 1 4 -1 0
2  4 1 9 -1 0
2  1 -1 6 -1 4 1 9 -1 0
2  9 1 4 -1 5 1 0
2  4 -1 6 1 0
2  9 1 4 -1 6 1 0
2  4 -1 6 1 2 -1 0
Curve2ds 22
1 6.2831853071795862 0 0 1 
8 0 9
1 0 0 0 1 
1 0 0 1 0 
2 0 -0.80999999999999872 0 1 1 -0 0.80999999999999872
1 0 9 1 0 
8 0 6.2831853071795862
1 3.1415926535897931 9.4247779607693793 -0 -1 
1 0 3.1415926535897931 1 0 
8 3.1415926535897931 4.7123889803846897
1 0 9.4247779607693793 1 0 
1 4.7123889803846897 0 0 1 
8 3.1415926535897931 9.4247779607693793
1 9.4247779607693793 0 -1 -0 
1 6.2831853071795862 0 0 1 
8 0 16.77
1 0 0 0 1 
1 0 9.6700000000000017 1 0 
2 -3.5527136788005009e-015 2.3749999999999929 -1.0947644252537636e-047 1 1 1.0947644252537636e-047 0.81000000000000005
2 -8.8817841970012523e-016 2.3749999999999964 6.162975822039158e-032 -1 -1 -6.162975822039158e-032 2.375
1 0 -7.0999999999999996 1 0 
1 0 0 0 -1 
1 6.2831853071795862 0 0 -1 
1 0 0 1 0 
2 -8.8817841970012523e-016 2.3749999999999964 6.162975822039158e-032 -1 -1 -6.162975822039158e-032 2.375
2 -2.6645352591003757e-015 2.3749999999999929 -8.2107331894032262e-048 1 1 8.2107331894032262e-048 0.8100000000000005
2 -2.6645352591003757e-015 2.3749999999999929 -8.2107331894032262e-048 1 1 8.2107331894032262e-048 0.8100000000000005
Curves 11
1 19.919999999999998 -4.5 5.6600000000000001 0 1 0 
2 19.109999999999999 -4.5 5.6600000000000001 0 1 0 1 0 0 0 0 -1 0.81000000000000005
2 19.109999999999999 4.5 5.6600000000000001 0 1 0 1 0 0 0 0 -1 0.81000000000000005
2 20.73 4.5 5.6600000000000001 0 -0 -1 1 0 0 0 -1 0 0.81000000000000094
2 20.73 6.120000000000001 5.6600000000000001 -1 -1.8369701987210297e-016 0 -1.8369701987210297e-016 1 0 -0 0 -1 0.81000000000000005
1 20.73 5.3100000000000023 5.6600000000000001 1 0 0 
2 30.400000000000002 6.1200000000000028 5.6600000000000001 1 0 0 0 -1 0 0 0 -1 0.81000000000000005
2 6.1200000000000001 5.6600000000000001 0 0 0 1 1 0 -0 -0 1 0 2.375
1 8.4949999999999974 5.6599999999999993 0 -1.1102230246251564e-016 -5.5511151231257809e-017 -1 
2 6.1200000000000001 5.6600000000000001 0 0 0 1 1 0 -0 -0 1 0 2.375
2 37.5 6.1200000000000028 5.6600000000000001 1 0 0 0 -1 0 0 0 -1 0.81000000000000005
Polygon3D 0
PolygonOnTriangulations 0
Surfaces 8
10 0 6.2831853071795862 0 9
2 19.109999999999999 -4.5 5.6600000000000001 0 1 0 1 0 0 0 0 -1 0.81000000000000005
1 19.919999999999998 -4.5 5.6600000000000001 -0 -1 0 0 -0 -1 1 0 0 
10 3.1415926535897931 4.7123889803846897 3.1415926535897931 9.4247779607693793
5 20.73 4.5 5.6600000000000001 0 -0 -1 1 0 0 0 -1 0 1.620000000000001 0.81000000000000005
10 0 6.2831853071795862 0 16.77
2 20.73 6.1200000000000028 5.6600000000000001 1 0 0 0 -1 0 0 0 -1 0.81000000000000005
1 37.5 8.4949999999999992 5.6599999999999984 -1 -0 0 -0 0 -1 0 -1 -0 
2 6.1199999999999983 5.6599999999999993 1.3078427230084337e-015 -1.1102230246251563e-016 -1.1102230246251562e-016 1 1 1.1102230246251562e-016 1.1102230246251564e-016 -1.1102230246251563e-016 1 1.110223024625156e-016 2.3749999999999996
1 37.5 8.4949999999999992 5.6599999999999984 -1 -0 0 -0 0 -1 0 -1 -0 
1 37.5 8.4949999999999992 5.6599999999999984 -1 -0 0 -0 0 -1 0 -1 -0 
Triangulations 0

TShapes 39
Ve
1.00000001991237e-007
19.92 -4.5 5.66
0 0

0101101
*
Ve
1.00000001991237e-007
19.92 4.5 5.66
0 0

0101101
*
Ed
 1e-007 1 1 0
1  1 0 0 9
3  1 2G1 1 0 0 9
0

0101000
+39 3 -38 3 *
Ed
 1e-007 1 1 0
1  2 0 0 6.28318530717959
2  3 1 0 0 6.28318530717959
2  4 2 0 0 6.28318530717959
0

0101100
-39 3 +39 3 *
Ed
 1e-007 1 1 0
1  3 0 0 6.28318530717959
2  5 1 0 0 6.28318530717959
2  6 3 0 0 6.28318530717959
4 G1 1 0 3 0
0

0101100
+38 3 -38 3 *
Wi

0101100
+37 0 +36 0 -37 0 -35 0 *
Fa
0  1e-007 1 0

0101000
+34 0 *
Wi

0101100
-36 0 *
Fa
0  1e-007 2 0

0101000
+32 0 *
Ve
1e-006
20.73 5.31 5.66
0 0

0101101
*
Ed
 1e-007 1 1 0
1  4 0 3.14159265358979 4.71238898038469
3  7 8G1 3 0 3.14159265358979 4.71238898038469
0

0101000
+38 3 -30 3 *
Ed
 1e-007 1 1 0
1  5 0 3.14159265358979 9.42477796076938
2  9 3 0 3.14159265358979 9.42477796076938
2  10 4 0 3.14159265358979 9.42477796076938
4 G1 3 0 4 0
0

0101100
+30 3 -30 3 *
Wi

0101100
+29 0 +35 0 -29 0 +28 0 *
Fa
0  1e-007 3 0

0101000
+27 0 *
Ve
2.00001e-007
30.4 5.31 5.66
0 0

0101101
*
Ed
 1e-007 1 1 0
1  6 0 0 9.67
3  11 12G1 4 0 0 9.67
0

0101000
+30 3 -25 3 *
Ed
 1e-007 1 1 0
1  7 0 0 6.28318530717959
2  13 4 2 0 6.28318530717959
2  14 5 7 0 6.28318530717959
0

0101100
+25 8 -25 8 *
Wi

0101000
-28 2 -24 2 -23 0 +24 2 *
Fa
0  1e-007 4 2

0101000
+22 0 *
Ve
1e-007
30.4 8.495 5.66
0 0

0101101
*
Ed
 1e-007 1 1 0
1  8 0 0 6.28318530717959
2  15 5 11 0 6.28318530717959
2  16 6 12 0 6.28318530717959
0

0101100
+20 13 -20 13 *
Wi

0101000
-19 10 *
Wi

0101100
+23 0 *
Fa
0  1e-007 5 7

0101000
+18 0 +17 0 *
Ve
1e-007
37.5 8.495 5.66
0 0

0101101
*
Ed
 1e-007 1 1 0
1  9 0 0 7.1
3  17 18CN 6 0 0 7.1
0

0101000
+15 14 -20 14 *
Ed
 1e-007 1 1 0
1  10 0 0 6.28318530717959
2  19 6 16 0 6.28318530717959
2  20 7 11 0 6.28318530717959
0

0101100
+15 17 -15 17 *
Wi

0101000
+14 0 -14 0 -13 15 +19 18 *
Fa
0  1e-007 6 0

0101000
+12 0 *
Wi

0101000
-13 20 *
Ve
1.00000003388719e-007
37.5 5.31 5.66
0 0

0101101
*
Ed
 1e-007 1 1 0
1  11 0 0 6.28318530717959
2  21 7 21 0 6.28318530717959
2  22 8 21 0 6.28318530717959
0

0101100
-9 3 +9 3 *
Wi

0101000
+8 2 *
Fa
0  1e-007 7 19

0101000
+10 0 +7 0 *
Wi

0101000
-8 2 *
Fa
0  1e-007 8 19

0101000
+5 0 *
Sh

0101100
+33 2 +31 2 +26 2 +21 0 +16 0 +11 6 -6 0 -4 0 *
So

0100000
+3 0 *
Co

1100000
+2 0 *

+1 1 