DBRep_DrawableShape

CASCADE Topology V1, (c) Matra-Datavision
Locations 150
1
              1               0               0               0 
              0               1               0               0 
              0               0               1               0 
1
              1               0               0               0 
              0              -1               0               0 
             -0               0              -1               0 
2  1 -1 2 -1 0
1
              1               0               0               0 
              0              -1               0               0 
             -0               0              -1               0 
1
              1               0               0               0 
              0              -1 1.22464679914735e-016               0 
              0 -1.22464679914735e-016              -1               0 
2  4 1 5 -1 0
2  5 1 4 -1 0
2  4 -1 0
2  1 -1 2 -1 5 1 4 -1 0
1
              1               0               0               0 
              0               1               0 3.67394039744206e-016 
              0               0               1               3 
2  4 1 5 -1 10 1 0
2  10 -1 5 1 4 -1 0
2  1 -1 2 -1 10 -1 5 1 4 -1 0
2  5 -1 0
2  5 -1 10 1 0
1
              1               0               0               0 
              0               1               0            7.62 
              0               0               1               0 
2  2 1 16 1 0
2  1 -1 16 -1 2 -1 0
2  1 -1 16 -1 2 -1 5 1 4 -1 0
2  1 -1 16 -1 2 -1 10 -1 5 1 4 -1 0
1
              1               0               0           -2.54 
              0               1               0               0 
              0               0               1               0 
2  2 1 21 1 0
2  1 -1 21 -1 2 -1 0
2  1 -1 21 -1 2 -1 5 1 4 -1 0
2  1 -1 21 -1 2 -1 10 -1 5 1 4 -1 0
1
              1               0               0           -2.54 
              0               1               0            7.62 
              0               0               1               0 
2  2 1 26 1 0
2  1 -1 26 -1 2 -1 0
2  1 -1 26 -1 2 -1 5 1 4 -1 0
2  1 -1 26 -1 2 -1 10 -1 5 1 4 -1 0
1
              1               0               0           -5.08 
              0               1               0               0 
              0               0               1               0 
2  2 1 31 1 0
2  1 -1 31 -1 2 -1 0
2  1 -1 31 -1 2 -1 5 1 4 -1 0
2  1 -1 31 -1 2 -1 10 -1 5 1 4 -1 0
1
              1               0               0           -5.08 
              0               1               0            7.62 
              0               0               1               0 
2  2 1 36 1 0
2  1 -1 36 -1 2 -1 0
2  1 -1 36 -1 2 -1 5 1 4 -1 0
2  1 -1 36 -1 2 -1 10 -1 5 1 4 -1 0
1
              1               0               0           -7.62 
              0               1               0               0 
              0               0               1               0 
2  2 1 41 1 0
2  1 -1 41 -1 2 -1 0
2  1 -1 41 -1 2 -1 5 1 4 -1 0
2  1 -1 41 -1 2 -1 10 -1 5 1 4 -1 0
1
              1               0               0           -7.62 
              0               1               0            7.62 
              0               0               1               0 
2  2 1 46 1 0
2  1 -1 46 -1 2 -1 0
2  1 -1 46 -1 2 -1 5 1 4 -1 0
2  1 -1 46 -1 2 -1 10 -1 5 1 4 -1 0
1
              1               0               0          -10.16 
              0               1               0               0 
              0               0               1               0 
2  2 1 51 1 0
2  1 -1 51 -1 2 -1 0
2  1 -1 51 -1 2 -1 5 1 4 -1 0
2  1 -1 51 -1 2 -1 10 -1 5 1 4 -1 0
1
              1               0               0          -10.16 
              0               1               0            7.62 
              0               0               1               0 
2  2 1 56 1 0
2  1 -1 56 -1 2 -1 0
2  1 -1 56 -1 2 -1 5 1 4 -1 0
2  1 -1 56 -1 2 -1 10 -1 5 1 4 -1 0
1
              1               0               0           -12.7 
              0               1               0               0 
              0               0               1               0 
2  2 1 61 1 0
2  1 -1 61 -1 2 -1 0
2  1 -1 61 -1 2 -1 5 1 4 -1 0
2  1 -1 61 -1 2 -1 10 -1 5 1 4 -1 0
1
              1               0               0           -12.7 
              0               1               0            7.62 
              0               0               1               0 
2  2 1 66 1 0
2  1 -1 66 -1 2 -1 0
2  1 -1 66 -1 2 -1 5 1 4 -1 0
2  1 -1 66 -1 2 -1 10 -1 5 1 4 -1 0
1
              1               0               0          -15.24 
              0               1               0               0 
              0               0               1               0 
2  2 1 71 1 0
2  1 -1 71 -1 2 -1 0
2  1 -1 71 -1 2 -1 5 1 4 -1 0
2  1 -1 71 -1 2 -1 10 -1 5 1 4 -1 0
1
              1               0               0          -15.24 
              0               1               0            7.62 
              0               0               1               0 
2  2 1 76 1 0
2  1 -1 76 -1 2 -1 0
2  1 -1 76 -1 2 -1 5 1 4 -1 0
2  1 -1 76 -1 2 -1 10 -1 5 1 4 -1 0
1
              1               0               0          -17.78 
              0               1               0               0 
              0               0               1               0 
2  2 1 81 1 0
2  1 -1 81 -1 2 -1 0
2  1 -1 81 -1 2 -1 5 1 4 -1 0
2  1 -1 81 -1 2 -1 10 -1 5 1 4 -1 0
1
              1               0               0          -17.78 
              0               1               0            7.62 
              0               0               1               0 
2  2 1 86 1 0
2  1 -1 86 -1 2 -1 0
2  1 -1 86 -1 2 -1 5 1 4 -1 0
2  1 -1 86 -1 2 -1 10 -1 5 1 4 -1 0
1
              1               0               0          -20.32 
              0               1               0               0 
              0               0               1               0 
2  2 1 91 1 0
2  1 -1 91 -1 2 -1 0
2  1 -1 91 -1 2 -1 5 1 4 -1 0
2  1 -1 91 -1 2 -1 10 -1 5 1 4 -1 0
1
              1               0               0          -20.32 
              0               1               0            7.62 
              0               0               1               0 
2  2 1 96 1 0
2  1 -1 96 -1 2 -1 0
2  1 -1 96 -1 2 -1 5 1 4 -1 0
2  1 -1 96 -1 2 -1 10 -1 5 1 4 -1 0
1
              1               0               0          -22.86 
              0               1               0               0 
              0               0               1               0 
2  2 1 101 1 0
2  1 -1 101 -1 2 -1 0
2  1 -1 101 -1 2 -1 5 1 4 -1 0
2  1 -1 101 -1 2 -1 10 -1 5 1 4 -1 0
1
              1               0               0          -22.86 
              0               1               0            7.62 
              0               0               1               0 
2  2 1 106 1 0
2  1 -1 106 -1 2 -1 0
2  1 -1 106 -1 2 -1 5 1 4 -1 0
2  1 -1 106 -1 2 -1 10 -1 5 1 4 -1 0
1
              1               0               0           -25.4 
              0               1               0               0 
              0               0               1               0 
2  2 1 111 1 0
2  1 -1 111 -1 2 -1 0
2  1 -1 111 -1 2 -1 5 1 4 -1 0
2  1 -1 111 -1 2 -1 10 -1 5 1 4 -1 0
1
              1               0               0           -25.4 
              0               1               0            7.62 
              0               0               1               0 
2  2 1 116 1 0
2  1 -1 116 -1 2 -1 0
2  1 -1 116 -1 2 -1 5 1 4 -1 0
2  1 -1 116 -1 2 -1 10 -1 5 1 4 -1 0
1
              1               0               0          -27.94 
              0               1               0               0 
              0               0               1               0 
2  2 1 121 1 0
2  1 -1 121 -1 2 -1 0
2  1 -1 121 -1 2 -1 5 1 4 -1 0
2  1 -1 121 -1 2 -1 10 -1 5 1 4 -1 0
1
              1               0               0          -27.94 
              0               1               0            7.62 
              0               0               1               0 
2  2 1 126 1 0
2  1 -1 126 -1 2 -1 0
2  1 -1 126 -1 2 -1 5 1 4 -1 0
2  1 -1 126 -1 2 -1 10 -1 5 1 4 -1 0
1
              1               0               0          -30.48 
              0               1               0               0 
              0               0               1               0 
2  2 1 131 1 0
2  1 -1 131 -1 2 -1 0
2  1 -1 131 -1 2 -1 5 1 4 -1 0
2  1 -1 131 -1 2 -1 10 -1 5 1 4 -1 0
1
              1               0               0          -30.48 
              0               1               0            7.62 
              0               0               1               0 
2  2 1 136 1 0
2  1 -1 136 -1 2 -1 0
2  1 -1 136 -1 2 -1 5 1 4 -1 0
2  1 -1 136 -1 2 -1 10 -1 5 1 4 -1 0
1
              1               0               0          -33.02 
              0               1               0               0 
              0               0               1               0 
2  2 1 141 1 0
2  1 -1 141 -1 2 -1 0
2  1 -1 141 -1 2 -1 5 1 4 -1 0
2  1 -1 141 -1 2 -1 10 -1 5 1 4 -1 0
1
              1               0               0          -33.02 
              0               1               0            7.62 
              0               0               1               0 
2  2 1 146 1 0
2  1 -1 146 -1 2 -1 0
2  1 -1 146 -1 2 -1 5 1 4 -1 0
2  1 -1 146 -1 2 -1 10 -1 5 1 4 -1 0
Curve2ds 168
1 0 0 0 -1 
1 6.2831853071795862 0 0 -1 
1 0 0 1 0 
2 -0.42500000000000071 0 1 0 0 -1 0.42500000000000071
1 0 -3 1 0 
2 -0.42500000000000071 0 1 0 0 -1 0.42500000000000071
1 0 0 0 -1 
1 6.2831853071795862 0 0 -1 
1 0 0 1 0 
2 -0.42500000000000071 0 1 0 0 -1 0.42500000000000071
1 0 -3 1 0 
2 -0.42500000000000071 0 1 0 0 -1 0.42500000000000071
1 0 0 0 -1 
1 6.2831853071795862 0 0 -1 
1 0 0 1 0 
2 -0.42500000000000071 0 1 0 0 -1 0.42500000000000071
1 0 -3 1 0 
2 -0.42500000000000071 0 1 0 0 -1 0.42500000000000071
1 0 0 0 -1 
1 6.2831853071795862 0 0 -1 
1 0 0 1 0 
2 -0.42500000000000071 0 1 0 0 -1 0.42500000000000071
1 0 -3 1 0 
2 -0.42500000000000071 0 1 0 0 -1 0.42500000000000071
1 0 0 0 -1 
1 6.2831853071795862 0 0 -1 
1 0 0 1 0 
2 -0.42500000000000071 0 1 0 0 -1 0.42500000000000071
1 0 -3 1 0 
2 -0.42500000000000071 0 1 0 0 -1 0.42500000000000071
1 0 0 0 -1 
1 6.2831853071795862 0 0 -1 
1 0 0 1 0 
2 -0.42500000000000071 0 1 0 0 -1 0.42500000000000071
1 0 -3 1 0 
2 -0.42500000000000071 0 1 0 0 -1 0.42500000000000071
1 0 0 0 -1 
1 6.2831853071795862 0 0 -1 
1 0 0 1 0 
2 -0.42500000000000071 0 1 0 0 -1 0.42500000000000071
1 0 -3 1 0 
2 -0.42500000000000071 0 1 0 0 -1 0.42500000000000071
1 0 0 0 -1 
1 6.2831853071795862 0 0 -1 
1 0 0 1 0 
2 -0.42500000000000071 0 1 0 0 -1 0.42500000000000071
1 0 -3 1 0 
2 -0.42500000000000071 0 1 0 0 -1 0.42500000000000071
1 0 0 0 -1 
1 6.2831853071795862 0 0 -1 
1 0 0 1 0 
2 -0.42500000000000071 0 1 0 0 -1 0.42500000000000071
1 0 -3 1 0 
2 -0.42500000000000071 0 1 0 0 -1 0.42500000000000071
1 0 0 0 -1 
1 6.2831853071795862 0 0 -1 
1 0 0 1 0 
2 -0.42500000000000071 0 1 0 0 -1 0.42500000000000071
1 0 -3 1 0 
2 -0.42500000000000071 0 1 0 0 -1 0.42500000000000071
1 0 0 0 -1 
1 6.2831853071795862 0 0 -1 
1 0 0 1 0 
2 -0.42500000000000071 0 1 0 0 -1 0.42500000000000071
1 0 -3 1 0 
2 -0.42500000000000071 0 1 0 0 -1 0.42500000000000071
1 0 0 0 -1 
1 6.2831853071795862 0 0 -1 
1 0 0 1 0 
2 -0.42500000000000071 0 1 0 0 -1 0.42500000000000071
1 0 -3 1 0 
2 -0.42500000000000071 0 1 0 0 -1 0.42500000000000071
1 0 0 0 -1 
1 6.2831853071795862 0 0 -1 
1 0 0 1 0 
2 -0.42500000000000071 0 1 0 0 -1 0.42500000000000071
1 0 -3 1 0 
2 -0.42500000000000071 0 1 0 0 -1 0.42500000000000071
1 0 0 0 -1 
1 6.2831853071795862 0 0 -1 
1 0 0 1 0 
2 -0.42500000000000071 0 1 0 0 -1 0.42500000000000071
1 0 -3 1 0 
2 -0.42500000000000071 0 1 0 0 -1 0.42500000000000071
1 0 0 0 -1 
1 6.2831853071795862 0 0 -1 
1 0 0 1 0 
2 -0.42500000000000071 0 1 0 0 -1 0.42500000000000071
1 0 -3 1 0 
2 -0.42500000000000071 0 1 0 0 -1 0.42500000000000071
1 0 0 0 -1 
1 6.2831853071795862 0 0 -1 
1 0 0 1 0 
2 -0.42500000000000071 0 1 0 0 -1 0.42500000000000071
1 0 -3 1 0 
2 -0.42500000000000071 0 1 0 0 -1 0.42500000000000071
1 0 0 0 -1 
1 6.2831853071795862 0 0 -1 
1 0 0 1 0 
2 -0.42500000000000071 0 1 0 0 -1 0.42500000000000071
1 0 -3 1 0 
2 -0.42500000000000071 0 1 0 0 -1 0.42500000000000071
1 0 0 0 -1 
1 6.2831853071795862 0 0 -1 
1 0 0 1 0 
2 -0.42500000000000071 0 1 0 0 -1 0.42500000000000071
1 0 -3 1 0 
2 -0.42500000000000071 0 1 0 0 -1 0.42500000000000071
1 0 0 0 -1 
1 6.2831853071795862 0 0 -1 
1 0 0 1 0 
2 -0.42500000000000071 0 1 0 0 -1 0.42500000000000071
1 0 -3 1 0 
2 -0.42500000000000071 0 1 0 0 -1 0.42500000000000071
1 0 0 0 -1 
1 6.2831853071795862 0 0 -1 
1 0 0 1 0 
2 -0.42500000000000071 0 1 0 0 -1 0.42500000000000071
1 0 -3 1 0 
2 -0.42500000000000071 0 1 0 0 -1 0.42500000000000071
1 0 0 0 -1 
1 6.2831853071795862 0 0 -1 
1 0 0 1 0 
2 -0.42500000000000071 0 1 0 0 -1 0.42500000000000071
1 0 -3 1 0 
2 -0.42500000000000071 0 1 0 0 -1 0.42500000000000071
1 0 0 0 -1 
1 6.2831853071795862 0 0 -1 
1 0 0 1 0 
2 -0.42500000000000071 0 1 0 0 -1 0.42500000000000071
1 0 -3 1 0 
2 -0.42500000000000071 0 1 0 0 -1 0.42500000000000071
1 0 0 0 -1 
1 6.2831853071795862 0 0 -1 
1 0 0 1 0 
2 -0.42500000000000071 0 1 0 0 -1 0.42500000000000071
1 0 -3 1 0 
2 -0.42500000000000071 0 1 0 0 -1 0.42500000000000071
1 0 0 0 -1 
1 6.2831853071795862 0 0 -1 
1 0 0 1 0 
2 -0.42500000000000071 0 1 0 0 -1 0.42500000000000071
1 0 -3 1 0 
2 -0.42500000000000071 0 1 0 0 -1 0.42500000000000071
1 0 0 0 -1 
1 6.2831853071795862 0 0 -1 
1 0 0 1 0 
2 -0.42500000000000071 0 1 0 0 -1 0.42500000000000071
1 0 -3 1 0 
2 -0.42500000000000071 0 1 0 0 -1 0.42500000000000071
1 0 0 0 -1 
1 6.2831853071795862 0 0 -1 
1 0 0 1 0 
2 -0.42500000000000071 0 1 0 0 -1 0.42500000000000071
1 0 -3 1 0 
2 -0.42500000000000071 0 1 0 0 -1 0.42500000000000071
1 0 0 0 -1 
1 6.2831853071795862 0 0 -1 
1 0 0 1 0 
2 -0.42500000000000071 0 1 0 0 -1 0.42500000000000071
1 0 -3 1 0 
2 -0.42500000000000071 0 1 0 0 -1 0.42500000000000071
1 0 0 0 -1 
1 6.2831853071795862 0 0 -1 
1 0 0 1 0 
2 -0.42500000000000071 0 1 0 0 -1 0.42500000000000071
1 0 -3 1 0 
2 -0.42500000000000071 0 1 0 0 -1 0.42500000000000071
Curves 84
1 15.165000000000001 3.8100000000000001 -4.6659043047514155e-016 0 1.2246467991473532e-016 1 
2 14.74 3.8100000000000001 0 0 0 1 1 0 -0 -0 1 0 0.42500000000000004
2 14.74 3.8100000000000001 0 0 0 1 1 0 -0 -0 1 0 0.42500000000000004
1 15.165000000000001 3.8100000000000001 -4.6659043047514155e-016 0 1.2246467991473532e-016 1 
2 14.74 3.8100000000000001 0 0 0 1 1 0 -0 -0 1 0 0.42500000000000004
2 14.74 3.8100000000000001 0 0 0 1 1 0 -0 -0 1 0 0.42500000000000004
1 15.165000000000001 3.8100000000000001 -4.6659043047514155e-016 0 1.2246467991473532e-016 1 
2 14.74 3.8100000000000001 0 0 0 1 1 0 -0 -0 1 0 0.42500000000000004
2 14.74 3.8100000000000001 0 0 0 1 1 0 -0 -0 1 0 0.42500000000000004
1 15.165000000000001 3.8100000000000001 -4.6659043047514155e-016 0 1.2246467991473532e-016 1 
2 14.74 3.8100000000000001 0 0 0 1 1 0 -0 -0 1 0 0.42500000000000004
2 14.74 3.8100000000000001 0 0 0 1 1 0 -0 -0 1 0 0.42500000000000004
1 15.165000000000001 3.8100000000000001 -4.6659043047514155e-016 0 1.2246467991473532e-016 1 
2 14.74 3.8100000000000001 0 0 0 1 1 0 -0 -0 1 0 0.42500000000000004
2 14.74 3.8100000000000001 0 0 0 1 1 0 -0 -0 1 0 0.42500000000000004
1 15.165000000000001 3.8100000000000001 -4.6659043047514155e-016 0 1.2246467991473532e-016 1 
2 14.74 3.8100000000000001 0 0 0 1 1 0 -0 -0 1 0 0.42500000000000004
2 14.74 3.8100000000000001 0 0 0 1 1 0 -0 -0 1 0 0.42500000000000004
1 15.165000000000001 3.8100000000000001 -4.6659043047514155e-016 0 1.2246467991473532e-016 1 
2 14.74 3.8100000000000001 0 0 0 1 1 0 -0 -0 1 0 0.42500000000000004
2 14.74 3.8100000000000001 0 0 0 1 1 0 -0 -0 1 0 0.42500000000000004
1 15.165000000000001 3.8100000000000001 -4.6659043047514155e-016 0 1.2246467991473532e-016 1 
2 14.74 3.8100000000000001 0 0 0 1 1 0 -0 -0 1 0 0.42500000000000004
2 14.74 3.8100000000000001 0 0 0 1 1 0 -0 -0 1 0 0.42500000000000004
1 15.165000000000001 3.8100000000000001 -4.6659043047514155e-016 0 1.2246467991473532e-016 1 
2 14.74 3.8100000000000001 0 0 0 1 1 0 -0 -0 1 0 0.42500000000000004
2 14.74 3.8100000000000001 0 0 0 1 1 0 -0 -0 1 0 0.42500000000000004
1 15.165000000000001 3.8100000000000001 -4.6659043047514155e-016 0 1.2246467991473532e-016 1 
2 14.74 3.8100000000000001 0 0 0 1 1 0 -0 -0 1 0 0.42500000000000004
2 14.74 3.8100000000000001 0 0 0 1 1 0 -0 -0 1 0 0.42500000000000004
1 15.165000000000001 3.8100000000000001 -4.6659043047514155e-016 0 1.2246467991473532e-016 1 
2 14.74 3.8100000000000001 0 0 0 1 1 0 -0 -0 1 0 0.42500000000000004
2 14.74 3.8100000000000001 0 0 0 1 1 0 -0 -0 1 0 0.42500000000000004
1 15.165000000000001 3.8100000000000001 -4.6659043047514155e-016 0 1.2246467991473532e-016 1 
2 14.74 3.8100000000000001 0 0 0 1 1 0 -0 -0 1 0 0.42500000000000004
2 14.74 3.8100000000000001 0 0 0 1 1 0 -0 -0 1 0 0.42500000000000004
1 15.165000000000001 3.8100000000000001 -4.6659043047514155e-016 0 1.2246467991473532e-016 1 
2 14.74 3.8100000000000001 0 0 0 1 1 0 -0 -0 1 0 0.42500000000000004
2 14.74 3.8100000000000001 0 0 0 1 1 0 -0 -0 1 0 0.42500000000000004
1 15.165000000000001 3.8100000000000001 -4.6659043047514155e-016 0 1.2246467991473532e-016 1 
2 14.74 3.8100000000000001 0 0 0 1 1 0 -0 -0 1 0 0.42500000000000004
2 14.74 3.8100000000000001 0 0 0 1 1 0 -0 -0 1 0 0.42500000000000004
1 15.165000000000001 3.8100000000000001 -4.6659043047514155e-016 0 1.2246467991473532e-016 1 
2 14.74 3.8100000000000001 0 0 0 1 1 0 -0 -0 1 0 0.42500000000000004
2 14.74 3.8100000000000001 0 0 0 1 1 0 -0 -0 1 0 0.42500000000000004
1 15.165000000000001 3.8100000000000001 -4.6659043047514155e-016 0 1.2246467991473532e-016 1 
2 14.74 3.8100000000000001 0 0 0 1 1 0 -0 -0 1 0 0.42500000000000004
2 14.74 3.8100000000000001 0 0 0 1 1 0 -0 -0 1 0 0.42500000000000004
1 15.165000000000001 3.8100000000000001 -4.6659043047514155e-016 0 1.2246467991473532e-016 1 
2 14.74 3.8100000000000001 0 0 0 1 1 0 -0 -0 1 0 0.42500000000000004
2 14.74 3.8100000000000001 0 0 0 1 1 0 -0 -0 1 0 0.42500000000000004
1 15.165000000000001 3.8100000000000001 -4.6659043047514155e-016 0 1.2246467991473532e-016 1 
2 14.74 3.8100000000000001 0 0 0 1 1 0 -0 -0 1 0 0.42500000000000004
2 14.74 3.8100000000000001 0 0 0 1 1 0 -0 -0 1 0 0.42500000000000004
1 15.165000000000001 3.8100000000000001 -4.6659043047514155e-016 0 1.2246467991473532e-016 1 
2 14.74 3.8100000000000001 0 0 0 1 1 0 -0 -0 1 0 0.42500000000000004
2 14.74 3.8100000000000001 0 0 0 1 1 0 -0 -0 1 0 0.42500000000000004
1 15.165000000000001 3.8100000000000001 -4.6659043047514155e-016 0 1.2246467991473532e-016 1 
2 14.74 3.8100000000000001 0 0 0 1 1 0 -0 -0 1 0 0.42500000000000004
2 14.74 3.8100000000000001 0 0 0 1 1 0 -0 -0 1 0 0.42500000000000004
1 15.165000000000001 3.8100000000000001 -4.6659043047514155e-016 0 1.2246467991473532e-016 1 
2 14.74 3.8100000000000001 0 0 0 1 1 0 -0 -0 1 0 0.42500000000000004
2 14.74 3.8100000000000001 0 0 0 1 1 0 -0 -0 1 0 0.42500000000000004
1 15.165000000000001 3.8100000000000001 -4.6659043047514155e-016 0 1.2246467991473532e-016 1 
2 14.74 3.8100000000000001 0 0 0 1 1 0 -0 -0 1 0 0.42500000000000004
2 14.74 3.8100000000000001 0 0 0 1 1 0 -0 -0 1 0 0.42500000000000004
1 15.165000000000001 3.8100000000000001 -4.6659043047514155e-016 0 1.2246467991473532e-016 1 
2 14.74 3.8100000000000001 0 0 0 1 1 0 -0 -0 1 0 0.42500000000000004
2 14.74 3.8100000000000001 0 0 0 1 1 0 -0 -0 1 0 0.42500000000000004
1 15.165000000000001 3.8100000000000001 -4.6659043047514155e-016 0 1.2246467991473532e-016 1 
2 14.74 3.8100000000000001 0 0 0 1 1 0 -0 -0 1 0 0.42500000000000004
2 14.74 3.8100000000000001 0 0 0 1 1 0 -0 -0 1 0 0.42500000000000004
1 15.165000000000001 3.8100000000000001 -4.6659043047514155e-016 0 1.2246467991473532e-016 1 
2 14.74 3.8100000000000001 0 0 0 1 1 0 -0 -0 1 0 0.42500000000000004
2 14.74 3.8100000000000001 0 0 0 1 1 0 -0 -0 1 0 0.42500000000000004
1 15.165000000000001 3.8100000000000001 -4.6659043047514155e-016 0 1.2246467991473532e-016 1 
2 14.74 3.8100000000000001 0 0 0 1 1 0 -0 -0 1 0 0.42500000000000004
2 14.74 3.8100000000000001 0 0 0 1 1 0 -0 -0 1 0 0.42500000000000004
1 15.165000000000001 3.8100000000000001 -4.6659043047514155e-016 0 1.2246467991473532e-016 1 
2 14.74 3.8100000000000001 0 0 0 1 1 0 -0 -0 1 0 0.42500000000000004
2 14.74 3.8100000000000001 0 0 0 1 1 0 -0 -0 1 0 0.42500000000000004
1 15.165000000000001 3.8100000000000001 -4.6659043047514155e-016 0 1.2246467991473532e-016 1 
2 14.74 3.8100000000000001 0 0 0 1 1 0 -0 -0 1 0 0.42500000000000004
2 14.74 3.8100000000000001 0 0 0 1 1 0 -0 -0 1 0 0.42500000000000004
Polygon3D 0
PolygonOnTriangulations 0
Surfaces 84
2 14.74 3.8100000000000001 -4.6659043047514155e-016 0 -1.2246467991473532e-016 -1 1 0 0 -0 1 -1.2246467991473532e-016 0.42500000000000004
1 15.165000000000001 -3.8100000000000001 0 0 0 1 1 0 -0 -0 1 0 
1 15.165000000000001 -3.8100000000000001 0 0 0 1 1 0 -0 -0 1 0 
2 14.74 3.8100000000000001 -4.6659043047514155e-016 0 -1.2246467991473532e-016 -1 1 0 0 -0 1 -1.2246467991473532e-016 0.42500000000000004
1 15.165000000000001 -3.8100000000000001 0 0 0 1 1 0 -0 -0 1 0 
1 15.165000000000001 -3.8100000000000001 0 0 0 1 1 0 -0 -0 1 0 
2 14.74 3.8100000000000001 -4.6659043047514155e-016 0 -1.2246467991473532e-016 -1 1 0 0 -0 1 -1.2246467991473532e-016 0.42500000000000004
1 15.165000000000001 -3.8100000000000001 0 0 0 1 1 0 -0 -0 1 0 
1 15.165000000000001 -3.8100000000000001 0 0 0 1 1 0 -0 -0 1 0 
2 14.74 3.8100000000000001 -4.6659043047514155e-016 0 -1.2246467991473532e-016 -1 1 0 0 -0 1 -1.2246467991473532e-016 0.42500000000000004
1 15.165000000000001 -3.8100000000000001 0 0 0 1 1 0 -0 -0 1 0 
1 15.165000000000001 -3.8100000000000001 0 0 0 1 1 0 -0 -0 1 0 
2 14.74 3.8100000000000001 -4.6659043047514155e-016 0 -1.2246467991473532e-016 -1 1 0 0 -0 1 -1.2246467991473532e-016 0.42500000000000004
1 15.165000000000001 -3.8100000000000001 0 0 0 1 1 0 -0 -0 1 0 
1 15.165000000000001 -3.8100000000000001 0 0 0 1 1 0 -0 -0 1 0 
2 14.74 3.8100000000000001 -4.6659043047514155e-016 0 -1.2246467991473532e-016 -1 1 0 0 -0 1 -1.2246467991473532e-016 0.42500000000000004
1 15.165000000000001 -3.8100000000000001 0 0 0 1 1 0 -0 -0 1 0 
1 15.165000000000001 -3.8100000000000001 0 0 0 1 1 0 -0 -0 1 0 
2 14.74 3.8100000000000001 -4.6659043047514155e-016 0 -1.2246467991473532e-016 -1 1 0 0 -0 1 -1.2246467991473532e-016 0.42500000000000004
1 15.165000000000001 -3.8100000000000001 0 0 0 1 1 0 -0 -0 1 0 
1 15.165000000000001 -3.8100000000000001 0 0 0 1 1 0 -0 -0 1 0 
2 14.74 3.8100000000000001 -4.6659043047514155e-016 0 -1.2246467991473532e-016 -1 1 0 0 -0 1 -1.2246467991473532e-016 0.42500000000000004
1 15.165000000000001 -3.8100000000000001 0 0 0 1 1 0 -0 -0 1 0 
1 15.165000000000001 -3.8100000000000001 0 0 0 1 1 0 -0 -0 1 0 
2 14.74 3.8100000000000001 -4.6659043047514155e-016 0 -1.2246467991473532e-016 -1 1 0 0 -0 1 -1.2246467991473532e-016 0.42500000000000004
1 15.165000000000001 -3.8100000000000001 0 0 0 1 1 0 -0 -0 1 0 
1 15.165000000000001 -3.8100000000000001 0 0 0 1 1 0 -0 -0 1 0 
2 14.74 3.8100000000000001 -4.6659043047514155e-016 0 -1.2246467991473532e-016 -1 1 0 0 -0 1 -1.2246467991473532e-016 0.42500000000000004
1 15.165000000000001 -3.8100000000000001 0 0 0 1 1 0 -0 -0 1 0 
1 15.165000000000001 -3.8100000000000001 0 0 0 1 1 0 -0 -0 1 0 
2 14.74 3.8100000000000001 -4.6659043047514155e-016 0 -1.2246467991473532e-016 -1 1 0 0 -0 1 -1.2246467991473532e-016 0.42500000000000004
1 15.165000000000001 -3.8100000000000001 0 0 0 1 1 0 -0 -0 1 0 
1 15.165000000000001 -3.8100000000000001 0 0 0 1 1 0 -0 -0 1 0 
2 14.74 3.8100000000000001 -4.6659043047514155e-016 0 -1.2246467991473532e-016 -1 1 0 0 -0 1 -1.2246467991473532e-016 0.42500000000000004
1 15.165000000000001 -3.8100000000000001 0 0 0 1 1 0 -0 -0 1 0 
1 15.165000000000001 -3.8100000000000001 0 0 0 1 1 0 -0 -0 1 0 
2 14.74 3.8100000000000001 -4.6659043047514155e-016 0 -1.2246467991473532e-016 -1 1 0 0 -0 1 -1.2246467991473532e-016 0.42500000000000004
1 15.165000000000001 -3.8100000000000001 0 0 0 1 1 0 -0 -0 1 0 
1 15.165000000000001 -3.8100000000000001 0 0 0 1 1 0 -0 -0 1 0 
2 14.74 3.8100000000000001 -4.6659043047514155e-016 0 -1.2246467991473532e-016 -1 1 0 0 -0 1 -1.2246467991473532e-016 0.42500000000000004
1 15.165000000000001 -3.8100000000000001 0 0 0 1 1 0 -0 -0 1 0 
1 15.165000000000001 -3.8100000000000001 0 0 0 1 1 0 -0 -0 1 0 
2 14.74 3.8100000000000001 -4.6659043047514155e-016 0 -1.2246467991473532e-016 -1 1 0 0 -0 1 -1.2246467991473532e-016 0.42500000000000004
1 15.165000000000001 -3.8100000000000001 0 0 0 1 1 0 -0 -0 1 0 
1 15.165000000000001 -3.8100000000000001 0 0 0 1 1 0 -0 -0 1 0 
2 14.74 3.8100000000000001 -4.6659043047514155e-016 0 -1.2246467991473532e-016 -1 1 0 0 -0 1 -1.2246467991473532e-016 0.42500000000000004
1 15.165000000000001 -3.8100000000000001 0 0 0 1 1 0 -0 -0 1 0 
1 15.165000000000001 -3.8100000000000001 0 0 0 1 1 0 -0 -0 1 0 
2 14.74 3.8100000000000001 -4.6659043047514155e-016 0 -1.2246467991473532e-016 -1 1 0 0 -0 1 -1.2246467991473532e-016 0.42500000000000004
1 15.165000000000001 -3.8100000000000001 0 0 0 1 1 0 -0 -0 1 0 
1 15.165000000000001 -3.8100000000000001 0 0 0 1 1 0 -0 -0 1 0 
2 14.74 3.8100000000000001 -4.6659043047514155e-016 0 -1.2246467991473532e-016 -1 1 0 0 -0 1 -1.2246467991473532e-016 0.42500000000000004
1 15.165000000000001 -3.8100000000000001 0 0 0 1 1 0 -0 -0 1 0 
1 15.165000000000001 -3.8100000000000001 0 0 0 1 1 0 -0 -0 1 0 
2 14.74 3.8100000000000001 -4.6659043047514155e-016 0 -1.2246467991473532e-016 -1 1 0 0 -0 1 -1.2246467991473532e-016 0.42500000000000004
1 15.165000000000001 -3.8100000000000001 0 0 0 1 1 0 -0 -0 1 0 
1 15.165000000000001 -3.8100000000000001 0 0 0 1 1 0 -0 -0 1 0 
2 14.74 3.8100000000000001 -4.6659043047514155e-016 0 -1.2246467991473532e-016 -1 1 0 0 -0 1 -1.2246467991473532e-016 0.42500000000000004
1 15.165000000000001 -3.8100000000000001 0 0 0 1 1 0 -0 -0 1 0 
1 15.165000000000001 -3.8100000000000001 0 0 0 1 1 0 -0 -0 1 0 
2 14.74 3.8100000000000001 -4.6659043047514155e-016 0 -1.2246467991473532e-016 -1 1 0 0 -0 1 -1.2246467991473532e-016 0.42500000000000004
1 15.165000000000001 -3.8100000000000001 0 0 0 1 1 0 -0 -0 1 0 
1 15.165000000000001 -3.8100000000000001 0 0 0 1 1 0 -0 -0 1 0 
2 14.74 3.8100000000000001 -4.6659043047514155e-016 0 -1.2246467991473532e-016 -1 1 0 0 -0 1 -1.2246467991473532e-016 0.42500000000000004
1 15.165000000000001 -3.8100000000000001 0 0 0 1 1 0 -0 -0 1 0 
1 15.165000000000001 -3.8100000000000001 0 0 0 1 1 0 -0 -0 1 0 
2 14.74 3.8100000000000001 -4.6659043047514155e-016 0 -1.2246467991473532e-016 -1 1 0 0 -0 1 -1.2246467991473532e-016 0.42500000000000004
1 15.165000000000001 -3.8100000000000001 0 0 0 1 1 0 -0 -0 1 0 
1 15.165000000000001 -3.8100000000000001 0 0 0 1 1 0 -0 -0 1 0 
2 14.74 3.8100000000000001 -4.6659043047514155e-016 0 -1.2246467991473532e-016 -1 1 0 0 -0 1 -1.2246467991473532e-016 0.42500000000000004
1 15.165000000000001 -3.8100000000000001 0 0 0 1 1 0 -0 -0 1 0 
1 15.165000000000001 -3.8100000000000001 0 0 0 1 1 0 -0 -0 1 0 
2 14.74 3.8100000000000001 -4.6659043047514155e-016 0 -1.2246467991473532e-016 -1 1 0 0 -0 1 -1.2246467991473532e-016 0.42500000000000004
1 15.165000000000001 -3.8100000000000001 0 0 0 1 1 0 -0 -0 1 0 
1 15.165000000000001 -3.8100000000000001 0 0 0 1 1 0 -0 -0 1 0 
2 14.74 3.8100000000000001 -4.6659043047514155e-016 0 -1.2246467991473532e-016 -1 1 0 0 -0 1 -1.2246467991473532e-016 0.42500000000000004
1 15.165000000000001 -3.8100000000000001 0 0 0 1 1 0 -0 -0 1 0 
1 15.165000000000001 -3.8100000000000001 0 0 0 1 1 0 -0 -0 1 0 
2 14.74 3.8100000000000001 -4.6659043047514155e-016 0 -1.2246467991473532e-016 -1 1 0 0 -0 1 -1.2246467991473532e-016 0.42500000000000004
1 15.165000000000001 -3.8100000000000001 0 0 0 1 1 0 -0 -0 1 0 
1 15.165000000000001 -3.8100000000000001 0 0 0 1 1 0 -0 -0 1 0 
2 14.74 3.8100000000000001 -4.6659043047514155e-016 0 -1.2246467991473532e-016 -1 1 0 0 -0 1 -1.2246467991473532e-016 0.42500000000000004
1 15.165000000000001 -3.8100000000000001 0 0 0 1 1 0 -0 -0 1 0 
1 15.165000000000001 -3.8100000000000001 0 0 0 1 1 0 -0 -0 1 0 
Triangulations 0

TShapes 365
Ve
1e-007
15.165 -3.81 4.66590430475142e-016
0 0

0101101
*
Ve
1e-007
15.165 -3.81 -3
0 0

0101101
*
Ed
 1e-007 1 1 0
1  1 0 0 3
3  1 2CN 1 0 0 3
0

0101000
+365 3 -364 3 *
Ed
 1e-007 1 1 0
1  2 0 0 6.28318530717959
2  3 1 7 0 6.28318530717959
2  4 2 8 0 6.28318530717959
0

0101100
+365 9 -365 9 *
Ed
 1e-007 1 1 0
1  3 0 0 6.28318530717959
2  5 1 12 0 6.28318530717959
2  6 3 8 0 6.28318530717959
0

0101100
+364 13 -364 13 *
Wi

0101000
+363 0 -363 0 -362 6 +361 11 *
Fa
0  1e-007 1 0

0101000
+360 0 *
Wi

0101100
+362 0 *
Fa
0  1e-007 2 0

0101000
-358 4 *
Wi

0101100
+361 0 *
Fa
0  1e-007 3 0

0101000
-356 4 *
Sh

0101100
-359 0 +357 14 -355 15 *
So

0100100
+354 0 *
Ve
1e-007
15.165 3.81 4.66590430475142e-016
0 0

0101101
*
Ve
1e-007
15.165 3.81 -3
0 0

0101101
*
Ed
 1e-007 1 1 0
1  4 0 0 3
3  7 8CN 4 0 0 3
0

0101000
+352 18 -351 18 *
Ed
 1e-007 1 1 0
1  5 0 0 6.28318530717959
2  9 4 7 0 6.28318530717959
2  10 5 8 0 6.28318530717959
0

0101100
+352 19 -352 19 *
Ed
 1e-007 1 1 0
1  6 0 0 6.28318530717959
2  11 4 12 0 6.28318530717959
2  12 6 8 0 6.28318530717959
0

0101100
+351 20 -351 20 *
Wi

0101000
+350 0 -350 0 -349 6 +348 11 *
Fa
0  1e-007 4 0

0101000
+347 0 *
Wi

0101100
+349 0 *
Fa
0  1e-007 5 0

0101000
-345 4 *
Wi

0101100
+348 0 *
Fa
0  1e-007 6 0

0101000
-343 4 *
Sh

0101100
-346 0 +344 14 -342 15 *
So

0100100
+341 0 *
Ve
1e-007
12.625 -3.81 4.66590430475142e-016
0 0

0101101
*
Ve
1e-007
12.625 -3.81 -3
0 0

0101101
*
Ed
 1e-007 1 1 0
1  7 0 0 3
3  13 14CN 7 0 0 3
0

0101000
+339 23 -338 23 *
Ed
 1e-007 1 1 0
1  8 0 0 6.28318530717959
2  15 7 7 0 6.28318530717959
2  16 8 8 0 6.28318530717959
0

0101100
+339 24 -339 24 *
Ed
 1e-007 1 1 0
1  9 0 0 6.28318530717959
2  17 7 12 0 6.28318530717959
2  18 9 8 0 6.28318530717959
0

0101100
+338 25 -338 25 *
Wi

0101000
+337 0 -337 0 -336 6 +335 11 *
Fa
0  1e-007 7 0

0101000
+334 0 *
Wi

0101100
+336 0 *
Fa
0  1e-007 8 0

0101000
-332 4 *
Wi

0101100
+335 0 *
Fa
0  1e-007 9 0

0101000
-330 4 *
Sh

0101100
-333 0 +331 14 -329 15 *
So

0100100
+328 0 *
Ve
1e-007
12.625 3.81 4.66590430475142e-016
0 0

0101101
*
Ve
1e-007
12.625 3.81 -3
0 0

0101101
*
Ed
 1e-007 1 1 0
1  10 0 0 3
3  19 20CN 10 0 0 3
0

0101000
+326 28 -325 28 *
Ed
 1e-007 1 1 0
1  11 0 0 6.28318530717959
2  21 10 7 0 6.28318530717959
2  22 11 8 0 6.28318530717959
0

0101100
+326 29 -326 29 *
Ed
 1e-007 1 1 0
1  12 0 0 6.28318530717959
2  23 10 12 0 6.28318530717959
2  24 12 8 0 6.28318530717959
0

0101100
+325 30 -325 30 *
Wi

0101000
+324 0 -324 0 -323 6 +322 11 *
Fa
0  1e-007 10 0

0101000
+321 0 *
Wi

0101100
+323 0 *
Fa
0  1e-007 11 0

0101000
-319 4 *
Wi

0101100
+322 0 *
Fa
0  1e-007 12 0

0101000
-317 4 *
Sh

0101100
-320 0 +318 14 -316 15 *
So

0100100
+315 0 *
Ve
1e-007
10.085 -3.81 4.66590430475142e-016
0 0

0101101
*
Ve
1e-007
10.085 -3.81 -3
0 0

0101101
*
Ed
 1e-007 1 1 0
1  13 0 0 3
3  25 26CN 13 0 0 3
0

0101000
+313 33 -312 33 *
Ed
 1e-007 1 1 0
1  14 0 0 6.28318530717959
2  27 13 7 0 6.28318530717959
2  28 14 8 0 6.28318530717959
0

0101100
+313 34 -313 34 *
Ed
 1e-007 1 1 0
1  15 0 0 6.28318530717959
2  29 13 12 0 6.28318530717959
2  30 15 8 0 6.28318530717959
0

0101100
+312 35 -312 35 *
Wi

0101000
+311 0 -311 0 -310 6 +309 11 *
Fa
0  1e-007 13 0

0101000
+308 0 *
Wi

0101100
+310 0 *
Fa
0  1e-007 14 0

0101000
-306 4 *
Wi

0101100
+309 0 *
Fa
0  1e-007 15 0

0101000
-304 4 *
Sh

0101100
-307 0 +305 14 -303 15 *
So

0100100
+302 0 *
Ve
1e-007
10.085 3.81 4.66590430475142e-016
0 0

0101101
*
Ve
1e-007
10.085 3.81 -3
0 0

0101101
*
Ed
 1e-007 1 1 0
1  16 0 0 3
3  31 32CN 16 0 0 3
0

0101000
+300 38 -299 38 *
Ed
 1e-007 1 1 0
1  17 0 0 6.28318530717959
2  33 16 7 0 6.28318530717959
2  34 17 8 0 6.28318530717959
0

0101100
+300 39 -300 39 *
Ed
 1e-007 1 1 0
1  18 0 0 6.28318530717959
2  35 16 12 0 6.28318530717959
2  36 18 8 0 6.28318530717959
0

0101100
+299 40 -299 40 *
Wi

0101000
+298 0 -298 0 -297 6 +296 11 *
Fa
0  1e-007 16 0

0101000
+295 0 *
Wi

0101100
+297 0 *
Fa
0  1e-007 17 0

0101000
-293 4 *
Wi

0101100
+296 0 *
Fa
0  1e-007 18 0

0101000
-291 4 *
Sh

0101100
-294 0 +292 14 -290 15 *
So

0100100
+289 0 *
Ve
1e-007
7.545 -3.81 4.66590430475142e-016
0 0

0101101
*
Ve
1e-007
7.545 -3.81 -3
0 0

0101101
*
Ed
 1e-007 1 1 0
1  19 0 0 3
3  37 38CN 19 0 0 3
0

0101000
+287 43 -286 43 *
Ed
 1e-007 1 1 0
1  20 0 0 6.28318530717959
2  39 19 7 0 6.28318530717959
2  40 20 8 0 6.28318530717959
0

0101100
+287 44 -287 44 *
Ed
 1e-007 1 1 0
1  21 0 0 6.28318530717959
2  41 19 12 0 6.28318530717959
2  42 21 8 0 6.28318530717959
0

0101100
+286 45 -286 45 *
Wi

0101000
+285 0 -285 0 -284 6 +283 11 *
Fa
0  1e-007 19 0

0101000
+282 0 *
Wi

0101100
+284 0 *
Fa
0  1e-007 20 0

0101000
-280 4 *
Wi

0101100
+283 0 *
Fa
0  1e-007 21 0

0101000
-278 4 *
Sh

0101100
-281 0 +279 14 -277 15 *
So

0100100
+276 0 *
Ve
1e-007
7.545 3.81 4.66590430475142e-016
0 0

0101101
*
Ve
1e-007
7.545 3.81 -3
0 0

0101101
*
Ed
 1e-007 1 1 0
1  22 0 0 3
3  43 44CN 22 0 0 3
0

0101000
+274 48 -273 48 *
Ed
 1e-007 1 1 0
1  23 0 0 6.28318530717959
2  45 22 7 0 6.28318530717959
2  46 23 8 0 6.28318530717959
0

0101100
+274 49 -274 49 *
Ed
 1e-007 1 1 0
1  24 0 0 6.28318530717959
2  47 22 12 0 6.28318530717959
2  48 24 8 0 6.28318530717959
0

0101100
+273 50 -273 50 *
Wi

0101000
+272 0 -272 0 -271 6 +270 11 *
Fa
0  1e-007 22 0

0101000
+269 0 *
Wi

0101100
+271 0 *
Fa
0  1e-007 23 0

0101000
-267 4 *
Wi

0101100
+270 0 *
Fa
0  1e-007 24 0

0101000
-265 4 *
Sh

0101100
-268 0 +266 14 -264 15 *
So

0100100
+263 0 *
Ve
1e-007
5.005 -3.81 4.66590430475142e-016
0 0

0101101
*
Ve
1e-007
5.005 -3.81 -3
0 0

0101101
*
Ed
 1e-007 1 1 0
1  25 0 0 3
3  49 50CN 25 0 0 3
0

0101000
+261 53 -260 53 *
Ed
 1e-007 1 1 0
1  26 0 0 6.28318530717959
2  51 25 7 0 6.28318530717959
2  52 26 8 0 6.28318530717959
0

0101100
+261 54 -261 54 *
Ed
 1e-007 1 1 0
1  27 0 0 6.28318530717959
2  53 25 12 0 6.28318530717959
2  54 27 8 0 6.28318530717959
0

0101100
+260 55 -260 55 *
Wi

0101000
+259 0 -259 0 -258 6 +257 11 *
Fa
0  1e-007 25 0

0101000
+256 0 *
Wi

0101100
+258 0 *
Fa
0  1e-007 26 0

0101000
-254 4 *
Wi

0101100
+257 0 *
Fa
0  1e-007 27 0

0101000
-252 4 *
Sh

0101100
-255 0 +253 14 -251 15 *
So

0100100
+250 0 *
Ve
1e-007
5.005 3.81 4.66590430475142e-016
0 0

0101101
*
Ve
1e-007
5.005 3.81 -3
0 0

0101101
*
Ed
 1e-007 1 1 0
1  28 0 0 3
3  55 56CN 28 0 0 3
0

0101000
+248 58 -247 58 *
Ed
 1e-007 1 1 0
1  29 0 0 6.28318530717959
2  57 28 7 0 6.28318530717959
2  58 29 8 0 6.28318530717959
0

0101100
+248 59 -248 59 *
Ed
 1e-007 1 1 0
1  30 0 0 6.28318530717959
2  59 28 12 0 6.28318530717959
2  60 30 8 0 6.28318530717959
0

0101100
+247 60 -247 60 *
Wi

0101000
+246 0 -246 0 -245 6 +244 11 *
Fa
0  1e-007 28 0

0101000
+243 0 *
Wi

0101100
+245 0 *
Fa
0  1e-007 29 0

0101000
-241 4 *
Wi

0101100
+244 0 *
Fa
0  1e-007 30 0

0101000
-239 4 *
Sh

0101100
-242 0 +240 14 -238 15 *
So

0100100
+237 0 *
Ve
1e-007
2.465 -3.81 4.66590430475142e-016
0 0

0101101
*
Ve
1e-007
2.465 -3.81 -3
0 0

0101101
*
Ed
 1e-007 1 1 0
1  31 0 0 3
3  61 62CN 31 0 0 3
0

0101000
+235 63 -234 63 *
Ed
 1e-007 1 1 0
1  32 0 0 6.28318530717959
2  63 31 7 0 6.28318530717959
2  64 32 8 0 6.28318530717959
0

0101100
+235 64 -235 64 *
Ed
 1e-007 1 1 0
1  33 0 0 6.28318530717959
2  65 31 12 0 6.28318530717959
2  66 33 8 0 6.28318530717959
0

0101100
+234 65 -234 65 *
Wi

0101000
+233 0 -233 0 -232 6 +231 11 *
Fa
0  1e-007 31 0

0101000
+230 0 *
Wi

0101100
+232 0 *
Fa
0  1e-007 32 0

0101000
-228 4 *
Wi

0101100
+231 0 *
Fa
0  1e-007 33 0

0101000
-226 4 *
Sh

0101100
-229 0 +227 14 -225 15 *
So

0100100
+224 0 *
Ve
1e-007
2.465 3.81 4.66590430475142e-016
0 0

0101101
*
Ve
1e-007
2.465 3.81 -3
0 0

0101101
*
Ed
 1e-007 1 1 0
1  34 0 0 3
3  67 68CN 34 0 0 3
0

0101000
+222 68 -221 68 *
Ed
 1e-007 1 1 0
1  35 0 0 6.28318530717959
2  69 34 7 0 6.28318530717959
2  70 35 8 0 6.28318530717959
0

0101100
+222 69 -222 69 *
Ed
 1e-007 1 1 0
1  36 0 0 6.28318530717959
2  71 34 12 0 6.28318530717959
2  72 36 8 0 6.28318530717959
0

0101100
+221 70 -221 70 *
Wi

0101000
+220 0 -220 0 -219 6 +218 11 *
Fa
0  1e-007 34 0

0101000
+217 0 *
Wi

0101100
+219 0 *
Fa
0  1e-007 35 0

0101000
-215 4 *
Wi

0101100
+218 0 *
Fa
0  1e-007 36 0

0101000
-213 4 *
Sh

0101100
-216 0 +214 14 -212 15 *
So

0100100
+211 0 *
Ve
1e-007
-0.0749999999999993 -3.81 4.66590430475142e-016
0 0

0101101
*
Ve
1e-007
-0.0749999999999993 -3.81 -3
0 0

0101101
*
Ed
 1e-007 1 1 0
1  37 0 0 3
3  73 74CN 37 0 0 3
0

0101000
+209 73 -208 73 *
Ed
 1e-007 1 1 0
1  38 0 0 6.28318530717959
2  75 37 7 0 6.28318530717959
2  76 38 8 0 6.28318530717959
0

0101100
+209 74 -209 74 *
Ed
 1e-007 1 1 0
1  39 0 0 6.28318530717959
2  77 37 12 0 6.28318530717959
2  78 39 8 0 6.28318530717959
0

0101100
+208 75 -208 75 *
Wi

0101000
+207 0 -207 0 -206 6 +205 11 *
Fa
0  1e-007 37 0

0101000
+204 0 *
Wi

0101100
+206 0 *
Fa
0  1e-007 38 0

0101000
-202 4 *
Wi

0101100
+205 0 *
Fa
0  1e-007 39 0

0101000
-200 4 *
Sh

0101100
-203 0 +201 14 -199 15 *
So

0100100
+198 0 *
Ve
1e-007
-0.0749999999999993 3.81 4.66590430475142e-016
0 0

0101101
*
Ve
1e-007
-0.0749999999999993 3.81 -3
0 0

0101101
*
Ed
 1e-007 1 1 0
1  40 0 0 3
3  79 80CN 40 0 0 3
0

0101000
+196 78 -195 78 *
Ed
 1e-007 1 1 0
1  41 0 0 6.28318530717959
2  81 40 7 0 6.28318530717959
2  82 41 8 0 6.28318530717959
0

0101100
+196 79 -196 79 *
Ed
 1e-007 1 1 0
1  42 0 0 6.28318530717959
2  83 40 12 0 6.28318530717959
2  84 42 8 0 6.28318530717959
0

0101100
+195 80 -195 80 *
Wi

0101000
+194 0 -194 0 -193 6 +192 11 *
Fa
0  1e-007 40 0

0101000
+191 0 *
Wi

0101100
+193 0 *
Fa
0  1e-007 41 0

0101000
-189 4 *
Wi

0101100
+192 0 *
Fa
0  1e-007 42 0

0101000
-187 4 *
Sh

0101100
-190 0 +188 14 -186 15 *
So

0100100
+185 0 *
Ve
1e-007
-2.615 -3.81 4.66590430475142e-016
0 0

0101101
*
Ve
1e-007
-2.615 -3.81 -3
0 0

0101101
*
Ed
 1e-007 1 1 0
1  43 0 0 3
3  85 86CN 43 0 0 3
0

0101000
+183 83 -182 83 *
Ed
 1e-007 1 1 0
1  44 0 0 6.28318530717959
2  87 43 7 0 6.28318530717959
2  88 44 8 0 6.28318530717959
0

0101100
+183 84 -183 84 *
Ed
 1e-007 1 1 0
1  45 0 0 6.28318530717959
2  89 43 12 0 6.28318530717959
2  90 45 8 0 6.28318530717959
0

0101100
+182 85 -182 85 *
Wi

0101000
+181 0 -181 0 -180 6 +179 11 *
Fa
0  1e-007 43 0

0101000
+178 0 *
Wi

0101100
+180 0 *
Fa
0  1e-007 44 0

0101000
-176 4 *
Wi

0101100
+179 0 *
Fa
0  1e-007 45 0

0101000
-174 4 *
Sh

0101100
-177 0 +175 14 -173 15 *
So

0100100
+172 0 *
Ve
1e-007
-2.615 3.81 4.66590430475142e-016
0 0

0101101
*
Ve
1e-007
-2.615 3.81 -3
0 0

0101101
*
Ed
 1e-007 1 1 0
1  46 0 0 3
3  91 92CN 46 0 0 3
0

0101000
+170 88 -169 88 *
Ed
 1e-007 1 1 0
1  47 0 0 6.28318530717959
2  93 46 7 0 6.28318530717959
2  94 47 8 0 6.28318530717959
0

0101100
+170 89 -170 89 *
Ed
 1e-007 1 1 0
1  48 0 0 6.28318530717959
2  95 46 12 0 6.28318530717959
2  96 48 8 0 6.28318530717959
0

0101100
+169 90 -169 90 *
Wi

0101000
+168 0 -168 0 -167 6 +166 11 *
Fa
0  1e-007 46 0

0101000
+165 0 *
Wi

0101100
+167 0 *
Fa
0  1e-007 47 0

0101000
-163 4 *
Wi

0101100
+166 0 *
Fa
0  1e-007 48 0

0101000
-161 4 *
Sh

0101100
-164 0 +162 14 -160 15 *
So

0100100
+159 0 *
Ve
1e-007
-5.155 -3.81 4.66590430475142e-016
0 0

0101101
*
Ve
1e-007
-5.155 -3.81 -3
0 0

0101101
*
Ed
 1e-007 1 1 0
1  49 0 0 3
3  97 98CN 49 0 0 3
0

0101000
+157 93 -156 93 *
Ed
 1e-007 1 1 0
1  50 0 0 6.28318530717959
2  99 49 7 0 6.28318530717959
2  100 50 8 0 6.28318530717959
0

0101100
+157 94 -157 94 *
Ed
 1e-007 1 1 0
1  51 0 0 6.28318530717959
2  101 49 12 0 6.28318530717959
2  102 51 8 0 6.28318530717959
0

0101100
+156 95 -156 95 *
Wi

0101000
+155 0 -155 0 -154 6 +153 11 *
Fa
0  1e-007 49 0

0101000
+152 0 *
Wi

0101100
+154 0 *
Fa
0  1e-007 50 0

0101000
-150 4 *
Wi

0101100
+153 0 *
Fa
0  1e-007 51 0

0101000
-148 4 *
Sh

0101100
-151 0 +149 14 -147 15 *
So

0100100
+146 0 *
Ve
1e-007
-5.155 3.81 4.66590430475142e-016
0 0

0101101
*
Ve
1e-007
-5.155 3.81 -3
0 0

0101101
*
Ed
 1e-007 1 1 0
1  52 0 0 3
3  103 104CN 52 0 0 3
0

0101000
+144 98 -143 98 *
Ed
 1e-007 1 1 0
1  53 0 0 6.28318530717959
2  105 52 7 0 6.28318530717959
2  106 53 8 0 6.28318530717959
0

0101100
+144 99 -144 99 *
Ed
 1e-007 1 1 0
1  54 0 0 6.28318530717959
2  107 52 12 0 6.28318530717959
2  108 54 8 0 6.28318530717959
0

0101100
+143 100 -143 100 *
Wi

0101000
+142 0 -142 0 -141 6 +140 11 *
Fa
0  1e-007 52 0

0101000
+139 0 *
Wi

0101100
+141 0 *
Fa
0  1e-007 53 0

0101000
-137 4 *
Wi

0101100
+140 0 *
Fa
0  1e-007 54 0

0101000
-135 4 *
Sh

0101100
-138 0 +136 14 -134 15 *
So

0100100
+133 0 *
Ve
1e-007
-7.695 -3.81 4.66590430475142e-016
0 0

0101101
*
Ve
1e-007
-7.695 -3.81 -3
0 0

0101101
*
Ed
 1e-007 1 1 0
1  55 0 0 3
3  109 110CN 55 0 0 3
0

0101000
+131 103 -130 103 *
Ed
 1e-007 1 1 0
1  56 0 0 6.28318530717959
2  111 55 7 0 6.28318530717959
2  112 56 8 0 6.28318530717959
0

0101100
+131 104 -131 104 *
Ed
 1e-007 1 1 0
1  57 0 0 6.28318530717959
2  113 55 12 0 6.28318530717959
2  114 57 8 0 6.28318530717959
0

0101100
+130 105 -130 105 *
Wi

0101000
+129 0 -129 0 -128 6 +127 11 *
Fa
0  1e-007 55 0

0101000
+126 0 *
Wi

0101100
+128 0 *
Fa
0  1e-007 56 0

0101000
-124 4 *
Wi

0101100
+127 0 *
Fa
0  1e-007 57 0

0101000
-122 4 *
Sh

0101100
-125 0 +123 14 -121 15 *
So

0100100
+120 0 *
Ve
1e-007
-7.695 3.81 4.66590430475142e-016
0 0

0101101
*
Ve
1e-007
-7.695 3.81 -3
0 0

0101101
*
Ed
 1e-007 1 1 0
1  58 0 0 3
3  115 116CN 58 0 0 3
0

0101000
+118 108 -117 108 *
Ed
 1e-007 1 1 0
1  59 0 0 6.28318530717959
2  117 58 7 0 6.28318530717959
2  118 59 8 0 6.28318530717959
0

0101100
+118 109 -118 109 *
Ed
 1e-007 1 1 0
1  60 0 0 6.28318530717959
2  119 58 12 0 6.28318530717959
2  120 60 8 0 6.28318530717959
0

0101100
+117 110 -117 110 *
Wi

0101000
+116 0 -116 0 -115 6 +114 11 *
Fa
0  1e-007 58 0

0101000
+113 0 *
Wi

0101100
+115 0 *
Fa
0  1e-007 59 0

0101000
-111 4 *
Wi

0101100
+114 0 *
Fa
0  1e-007 60 0

0101000
-109 4 *
Sh

0101100
-112 0 +110 14 -108 15 *
So

0100100
+107 0 *
Ve
1e-007
-10.235 -3.81 4.66590430475142e-016
0 0

0101101
*
Ve
1e-007
-10.235 -3.81 -3
0 0

0101101
*
Ed
 1e-007 1 1 0
1  61 0 0 3
3  121 122CN 61 0 0 3
0

0101000
+105 113 -104 113 *
Ed
 1e-007 1 1 0
1  62 0 0 6.28318530717959
2  123 61 7 0 6.28318530717959
2  124 62 8 0 6.28318530717959
0

0101100
+105 114 -105 114 *
Ed
 1e-007 1 1 0
1  63 0 0 6.28318530717959
2  125 61 12 0 6.28318530717959
2  126 63 8 0 6.28318530717959
0

0101100
+104 115 -104 115 *
Wi

0101000
+103 0 -103 0 -102 6 +101 11 *
Fa
0  1e-007 61 0

0101000
+100 0 *
Wi

0101100
+102 0 *
Fa
0  1e-007 62 0

0101000
-98 4 *
Wi

0101100
+101 0 *
Fa
0  1e-007 63 0

0101000
-96 4 *
Sh

0101100
-99 0 +97 14 -95 15 *
So

0100100
+94 0 *
Ve
1e-007
-10.235 3.81 4.66590430475142e-016
0 0

0101101
*
Ve
1e-007
-10.235 3.81 -3
0 0

0101101
*
Ed
 1e-007 1 1 0
1  64 0 0 3
3  127 128CN 64 0 0 3
0

0101000
+92 118 -91 118 *
Ed
 1e-007 1 1 0
1  65 0 0 6.28318530717959
2  129 64 7 0 6.28318530717959
2  130 65 8 0 6.28318530717959
0

0101100
+92 119 -92 119 *
Ed
 1e-007 1 1 0
1  66 0 0 6.28318530717959
2  131 64 12 0 6.28318530717959
2  132 66 8 0 6.28318530717959
0

0101100
+91 120 -91 120 *
Wi

0101000
+90 0 -90 0 -89 6 +88 11 *
Fa
0  1e-007 64 0

0101000
+87 0 *
Wi

0101100
+89 0 *
Fa
0  1e-007 65 0

0101000
-85 4 *
Wi

0101100
+88 0 *
Fa
0  1e-007 66 0

0101000
-83 4 *
Sh

0101100
-86 0 +84 14 -82 15 *
So

0100100
+81 0 *
Ve
1e-007
-12.775 -3.81 4.66590430475142e-016
0 0

0101101
*
Ve
1e-007
-12.775 -3.81 -3
0 0

0101101
*
Ed
 1e-007 1 1 0
1  67 0 0 3
3  133 134CN 67 0 0 3
0

0101000
+79 123 -78 123 *
Ed
 1e-007 1 1 0
1  68 0 0 6.28318530717959
2  135 67 7 0 6.28318530717959
2  136 68 8 0 6.28318530717959
0

0101100
+79 124 -79 124 *
Ed
 1e-007 1 1 0
1  69 0 0 6.28318530717959
2  137 67 12 0 6.28318530717959
2  138 69 8 0 6.28318530717959
0

0101100
+78 125 -78 125 *
Wi

0101000
+77 0 -77 0 -76 6 +75 11 *
Fa
0  1e-007 67 0

0101000
+74 0 *
Wi

0101100
+76 0 *
Fa
0  1e-007 68 0

0101000
-72 4 *
Wi

0101100
+75 0 *
Fa
0  1e-007 69 0

0101000
-70 4 *
Sh

0101100
-73 0 +71 14 -69 15 *
So

0100100
+68 0 *
Ve
1e-007
-12.775 3.81 4.66590430475142e-016
0 0

0101101
*
Ve
1e-007
-12.775 3.81 -3
0 0

0101101
*
Ed
 1e-007 1 1 0
1  70 0 0 3
3  139 140CN 70 0 0 3
0

0101000
+66 128 -65 128 *
Ed
 1e-007 1 1 0
1  71 0 0 6.28318530717959
2  141 70 7 0 6.28318530717959
2  142 71 8 0 6.28318530717959
0

0101100
+66 129 -66 129 *
Ed
 1e-007 1 1 0
1  72 0 0 6.28318530717959
2  143 70 12 0 6.28318530717959
2  144 72 8 0 6.28318530717959
0

0101100
+65 130 -65 130 *
Wi

0101000
+64 0 -64 0 -63 6 +62 11 *
Fa
0  1e-007 70 0

0101000
+61 0 *
Wi

0101100
+63 0 *
Fa
0  1e-007 71 0

0101000
-59 4 *
Wi

0101100
+62 0 *
Fa
0  1e-007 72 0

0101000
-57 4 *
Sh

0101100
-60 0 +58 14 -56 15 *
So

0100100
+55 0 *
Ve
1e-007
-15.315 -3.81 4.66590430475142e-016
0 0

0101101
*
Ve
1e-007
-15.315 -3.81 -3
0 0

0101101
*
Ed
 1e-007 1 1 0
1  73 0 0 3
3  145 146CN 73 0 0 3
0

0101000
+53 133 -52 133 *
Ed
 1e-007 1 1 0
1  74 0 0 6.28318530717959
2  147 73 7 0 6.28318530717959
2  148 74 8 0 6.28318530717959
0

0101100
+53 134 -53 134 *
Ed
 1e-007 1 1 0
1  75 0 0 6.28318530717959
2  149 73 12 0 6.28318530717959
2  150 75 8 0 6.28318530717959
0

0101100
+52 135 -52 135 *
Wi

0101000
+51 0 -51 0 -50 6 +49 11 *
Fa
0  1e-007 73 0

0101000
+48 0 *
Wi

0101100
+50 0 *
Fa
0  1e-007 74 0

0101000
-46 4 *
Wi

0101100
+49 0 *
Fa
0  1e-007 75 0

0101000
-44 4 *
Sh

0101100
-47 0 +45 14 -43 15 *
So

0100100
+42 0 *
Ve
1e-007
-15.315 3.81 4.66590430475142e-016
0 0

0101101
*
Ve
1e-007
-15.315 3.81 -3
0 0

0101101
*
Ed
 1e-007 1 1 0
1  76 0 0 3
3  151 152CN 76 0 0 3
0

0101000
+40 138 -39 138 *
Ed
 1e-007 1 1 0
1  77 0 0 6.28318530717959
2  153 76 7 0 6.28318530717959
2  154 77 8 0 6.28318530717959
0

0101100
+40 139 -40 139 *
Ed
 1e-007 1 1 0
1  78 0 0 6.28318530717959
2  155 76 12 0 6.28318530717959
2  156 78 8 0 6.28318530717959
0

0101100
+39 140 -39 140 *
Wi

0101000
+38 0 -38 0 -37 6 +36 11 *
Fa
0  1e-007 76 0

0101000
+35 0 *
Wi

0101100
+37 0 *
Fa
0  1e-007 77 0

0101000
-33 4 *
Wi

0101100
+36 0 *
Fa
0  1e-007 78 0

0101000
-31 4 *
Sh

0101100
-34 0 +32 14 -30 15 *
So

0100100
+29 0 *
Ve
1e-007
-17.855 -3.81 4.66590430475142e-016
0 0

0101101
*
Ve
1e-007
-17.855 -3.81 -3
0 0

0101101
*
Ed
 1e-007 1 1 0
1  79 0 0 3
3  157 158CN 79 0 0 3
0

0101000
+27 143 -26 143 *
Ed
 1e-007 1 1 0
1  80 0 0 6.28318530717959
2  159 79 7 0 6.28318530717959
2  160 80 8 0 6.28318530717959
0

0101100
+27 144 -27 144 *
Ed
 1e-007 1 1 0
1  81 0 0 6.28318530717959
2  161 79 12 0 6.28318530717959
2  162 81 8 0 6.28318530717959
0

0101100
+26 145 -26 145 *
Wi

0101000
+25 0 -25 0 -24 6 +23 11 *
Fa
0  1e-007 79 0

0101000
+22 0 *
Wi

0101100
+24 0 *
Fa
0  1e-007 80 0

0101000
-20 4 *
Wi

0101100
+23 0 *
Fa
0  1e-007 81 0

0101000
-18 4 *
Sh

0101100
-21 0 +19 14 -17 15 *
So

0100100
+16 0 *
Ve
1e-007
-17.855 3.81 4.66590430475142e-016
0 0

0101101
*
Ve
1e-007
-17.855 3.81 -3
0 0

0101101
*
Ed
 1e-007 1 1 0
1  82 0 0 3
3  163 164CN 82 0 0 3
0

0101000
+14 148 -13 148 *
Ed
 1e-007 1 1 0
1  83 0 0 6.28318530717959
2  165 82 7 0 6.28318530717959
2  166 83 8 0 6.28318530717959
0

0101100
+14 149 -14 149 *
Ed
 1e-007 1 1 0
1  84 0 0 6.28318530717959
2  167 82 12 0 6.28318530717959
2  168 84 8 0 6.28318530717959
0

0101100
+13 150 -13 150 *
Wi

0101000
+12 0 -12 0 -11 6 +10 11 *
Fa
0  1e-007 82 0

0101000
+9 0 *
Wi

0101100
+11 0 *
Fa
0  1e-007 83 0

0101000
-7 4 *
Wi

0101100
+10 0 *
Fa
0  1e-007 84 0

0101000
-5 4 *
Sh

0101100
-8 0 +6 14 -4 15 *
So

0100100
+3 0 *
Co

1100000
+353 2 +340 17 +327 22 +314 27 +301 32 +288 37 +275 42 +262 47 +249 52 +236 57 
+223 62 +210 67 +197 72 +184 77 +171 82 +158 87 +145 92 +132 97 +119 102 +106 107 
+93 112 +80 117 +67 122 +54 127 +41 132 +28 137 +15 142 +2 147 *

+1 1 