DBRep_DrawableShape

CASCADE Topology V1, (c) Matra-Datavision
Locations 10
1
              1               0               0               0 
              0               1               0               0 
              0               0               1             7.6 
1
              1               0               0               0 
              0               1               0               0 
              0               0               1             7.6 
2  1 1 2 -1 0
2  2 1 1 -1 0
2  1 -1 0
1
              1               0               0               0 
              0               1               0               0 
              0               0               1             3.8 
2  1 1 2 -1 6 1 0
2  6 -1 2 1 1 -1 0
2  2 -1 0
2  2 -1 6 1 0
Curve2ds 36
1 0 0 0 -1 
1 43.899999999999991 0 0 -1 
1 15.02 0 0 -1 
1 0 0 0 -1 
1 0 0 1 0 
1 0 0 0 -1 
1 0 -3.7999999999999998 1 0 
1 0 0 0 -1 
1 50.399999999999991 0 0 -1 
1 0 0 0 -1 
1 0 0 1 0 
1 0 -15.02 -1 0 
1 0 -3.7999999999999998 1 0 
1 0 -15.02 -1 0 
1 12.82 0 0 -1 
1 0 -0 0 -1 
1 0 0 1 0 
1 -50.399999999999991 -15.02 0 1 
1 0 -3.7999999999999998 1 0 
1 -50.399999999999991 -15.02 0 1 
1 6.5 0 0 -1 
1 0 0 0 -1 
1 0 -0 1 0 
1 -50.399999999999991 -2.1999999999999993 1 0 
1 0 -3.7999999999999998 1 0 
1 -50.399999999999991 -2.1999999999999993 1 0 
1 2.1999999999999993 0 0 -1 
1 0 -0 0 -1 
1 0 0 1 0 
1 -43.899999999999991 -2.1999999999999993 0 1 
1 0 -3.7999999999999998 1 0 
1 -43.899999999999991 -2.1999999999999993 0 1 
1 0 -0 1 0 
1 -43.899999999999991 0 1 0 
1 0 -3.7999999999999998 1 0 
1 -43.899999999999991 0 1 0 
Curves 18
1 -25.199999999999996 7.5099999999999998 0 0 0 1 
1 -25.199999999999996 -7.5099999999999998 0 0 0 1 
1 -25.199999999999996 7.5099999999999998 0 0 -1 0 
1 -25.199999999999996 7.5099999999999998 0 0 -1 0 
1 25.199999999999996 -7.5099999999999998 0 0 0 1 
1 -25.199999999999996 -7.5099999999999998 0 1 0 0 
1 -25.199999999999996 -7.5099999999999998 0 1 0 0 
1 25.199999999999996 5.3100000000000005 0 0 0 1 
1 25.199999999999996 -7.5099999999999998 0 0 1 0 
1 25.199999999999996 -7.5099999999999998 0 0 1 0 
1 18.699999999999996 5.3100000000000005 0 0 0 1 
1 25.199999999999996 5.3100000000000005 0 -1 0 0 
1 25.199999999999996 5.3100000000000005 0 -1 0 0 
1 18.699999999999996 7.5099999999999998 0 0 0 1 
1 18.699999999999996 5.3100000000000005 0 0 1 0 
1 18.699999999999996 5.3100000000000005 0 0 1 0 
1 18.699999999999996 7.5099999999999998 0 -1 0 0 
1 18.699999999999996 7.5099999999999998 0 -1 0 0 
Polygon3D 0
PolygonOnTriangulations 0
Surfaces 8
1 -25.199999999999996 7.5099999999999998 0 1 0 -0 0 -1 0 0 -0 -1 
1 18.699999999999996 7.5099999999999998 0 0 -1 0 -1 0 0 -0 -0 -1 
1 -25.199999999999996 -7.5099999999999998 0 0 1 0 1 0 0 0 0 -1 
1 -25.199999999999996 7.5099999999999998 7.5999999999999996 0 0 -1 -1 0 -0 0 1 0 
1 -25.199999999999996 7.5099999999999998 7.5999999999999996 0 0 -1 -1 0 -0 0 1 0 
1 25.199999999999996 -7.5099999999999998 0 -1 0 0 0 1 0 0 0 -1 
1 25.199999999999996 5.3100000000000005 0 0 -1 0 -1 0 0 -0 -0 -1 
1 18.699999999999996 5.3100000000000005 0 -1 0 0 0 1 0 0 0 -1 
Triangulations 0

TShapes 48
Ve
1e-007
-25.2 7.51 0
0 0

0101101
*
Ve
1e-007
-25.2 7.51 3.8
0 0

0101101
*
Ed
 1e-007 1 1 0
1  1 0 0 3.8
2  1 1 0 0 3.8
2  2 2 0 0 3.8
0

0101000
+48 0 -47 0 *
Ve
1e-007
-25.2 -7.51 0
0 0

0101101
*
Ve
1e-007
-25.2 -7.51 3.8
0 0

0101101
*
Ed
 1e-007 1 1 0
1  2 0 0 3.8
2  3 1 0 0 3.8
2  4 3 0 0 3.8
0

0101000
+45 0 -44 0 *
Ed
 1e-007 1 1 0
1  3 0 0 15.02
2  5 1 4 0 15.02
2  6 4 5 0 15.02
0

0101000
+48 4 -45 4 *
Ed
 1e-007 1 1 0
1  4 0 0 15.02
2  7 1 8 0 15.02
2  8 5 5 0 15.02
0

0101000
+47 8 -44 8 *
Wi

0101000
+46 0 -43 0 -42 3 +41 7 *
Fa
0  1e-007 1 0

0101000
+40 0 *
Ve
1e-007
25.2 -7.51 0
0 0

0101101
*
Ve
1e-007
25.2 -7.51 3.8
0 0

0101101
*
Ed
 1e-007 1 1 0
1  5 0 0 3.8
2  9 3 0 0 3.8
2  10 6 0 0 3.8
0

0101000
+38 0 -37 0 *
Ed
 1e-007 1 1 0
1  6 0 0 50.4
2  11 3 4 0 50.4
2  12 4 5 0 50.4
0

0101000
+45 4 -38 4 *
Ed
 1e-007 1 1 0
1  7 0 0 50.4
2  13 3 8 0 50.4
2  14 5 5 0 50.4
0

0101000
+44 8 -37 8 *
Wi

0101000
+43 0 -36 0 -35 3 +34 7 *
Fa
0  1e-007 3 0

0101000
+33 0 *
Ve
1e-007
25.2 5.31 0
0 0

0101101
*
Ve
1e-007
25.2 5.31 3.8
0 0

0101101
*
Ed
 1e-007 1 1 0
1  8 0 0 3.8
2  15 6 0 0 3.8
2  16 7 0 0 3.8
0

0101000
+31 0 -30 0 *
Ed
 1e-007 1 1 0
1  9 0 0 12.82
2  17 6 4 0 12.82
2  18 4 5 0 12.82
0

0101000
+38 4 -31 4 *
Ed
 1e-007 1 1 0
1  10 0 0 12.82
2  19 6 8 0 12.82
2  20 5 5 0 12.82
0

0101000
+37 8 -30 8 *
Wi

0101000
+36 0 -29 0 -28 3 +27 7 *
Fa
0  1e-007 6 0

0101000
+26 0 *
Ve
1e-007
18.7 5.31 0
0 0

0101101
*
Ve
1e-007
18.7 5.31 3.8
0 0

0101101
*
Ed
 1e-007 1 1 0
1  11 0 0 3.8
2  21 7 0 0 3.8
2  22 8 0 0 3.8
0

0101000
+24 0 -23 0 *
Ed
 1e-007 1 1 0
1  12 0 0 6.5
2  23 7 4 0 6.5
2  24 4 5 0 6.5
0

0101000
+31 4 -24 4 *
Ed
 1e-007 1 1 0
1  13 0 0 6.5
2  25 7 8 0 6.5
2  26 5 5 0 6.5
0

0101000
+30 8 -23 8 *
Wi

0101000
+29 0 -22 0 -21 3 +20 7 *
Fa
0  1e-007 7 0

0101000
+19 0 *
Ve
1e-007
18.7 7.51 0
0 0

0101101
*
Ve
1e-007
18.7 7.51 3.8
0 0

0101101
*
Ed
 1e-007 1 1 0
1  14 0 0 3.8
2  27 8 0 0 3.8
2  28 2 0 0 3.8
0

0101000
+17 0 -16 0 *
Ed
 1e-007 1 1 0
1  15 0 0 2.2
2  29 8 4 0 2.2
2  30 4 5 0 2.2
0

0101000
+24 4 -17 4 *
Ed
 1e-007 1 1 0
1  16 0 0 2.2
2  31 8 8 0 2.2
2  32 5 5 0 2.2
0

0101000
+23 8 -16 8 *
Wi

0101000
+22 0 -15 0 -14 3 +13 7 *
Fa
0  1e-007 8 0

0101000
+12 0 *
Ed
 1e-007 1 1 0
1  17 0 0 43.9
2  33 2 4 0 43.9
2  34 4 5 0 43.9
0

0101000
+17 4 -48 4 *
Ed
 1e-007 1 1 0
1  18 0 0 43.9
2  35 2 8 0 43.9
2  36 5 5 0 43.9
0

0101000
+16 8 -47 8 *
Wi

0101000
+15 0 -46 0 -10 3 +9 7 *
Fa
0  1e-007 2 0

0101000
+8 0 *
Wi

0101100
+42 0 +35 0 +28 0 +21 0 +14 0 +10 0 *
Fa
0  1e-007 4 0

0101000
-6 1 *
Wi

0101100
+41 0 +34 0 +27 0 +20 0 +13 0 +9 0 *
Fa
0  1e-007 5 0

0101000
-4 1 *
Sh

0101100
-39 0 -32 0 -25 0 -18 0 -11 0 -7 0 +5 9 -3 10 *
So

1100100
+2 0 *

+1 0 