DBRep_DrawableShape

CASCADE Topology V1, (c) Matra-Datavision
Locations 11
1
              1               0              -0               0 
             -0 2.22044604925031e-016              -1               0 
              0               1 2.22044604925031e-016               0 
1
              1               0               0               0 
              0 -2.22044604925031e-016              -1               0 
              0               1 -2.22044604925031e-016               0 
1
              1               0               0              -0 
              0               1               0 -1.66755498298699e-015 
              0               0               1           -7.51 
2  1 1 2 -1 3 1 0
2  3 -1 2 1 1 -1 0
2  1 -1 0
1
              1               0               0               0 
              0               1               0 3.33510996597397e-015 
              0               0               1           15.02 
2  1 1 2 -1 3 1 7 1 0
2  7 -1 3 -1 2 1 1 -1 0
2  2 -1 3 1 0
2  2 -1 3 1 7 1 0
Curve2ds 48
1 0 0 2.2204460492503131e-016 -1 
1 0 0 0 -1 
1 2.9999999999999827 2.2204460492501987e-016 2.2204460492503131e-016 -1 
1 0 0 0 -1 
1 0 0 1 0 
1 0 3.5527136788005009e-015 -1 0 
1 2.8999025403209078e-015 -15.019999999999998 1 0 
1 0 3.5527136788005009e-015 -1 0 
1 0.39999999999999858 0 0 -1 
1 0 0 -2.2204460492503131e-016 -1 
1 3.5527136788005009e-015 0 1 0 
1 -2.9999999999999827 3.5527136788005009e-015 0 1 
1 3.5527136788005009e-015 -15.019999999999998 1 0 
1 -2.9999999999999827 3.5527136788005009e-015 0 1 
1 2.9999999999999827 -2.2204460492501987e-016 -2.2204460492503131e-016 -1 
1 0 0 0 -1 
1 0 0 1 0 
1 -2.9999999999999827 0.40000000000000213 1 0 
1 -2.8999025403209078e-015 -15.019999999999998 1 0 
1 -2.9999999999999827 0.40000000000000213 1 0 
1 1.5707963267948966 0 0 -1 
1 0 0 0 -1 
1 0 0 1 0 
2 0 -0.30000000000001847 0 1 1 -0 0.70000000000002416
1 0 -15.02 1 0 
2 0 -0.30000000000001847 0 1 1 -0 0.70000000000002416
1 3.1499999999999968 0 0 -1 
1 0 0 2.2204460492503131e-016 -1 
1 -3.5527136788005009e-015 0 1 0 
1 0.70000000000002327 -0.30000000000001847 0 -1 
1 -3.5527136788005009e-015 -15.019999999999998 1 0 
1 0.70000000000002327 -0.30000000000001847 0 -1 
1 0.40000000000000036 2.6645352591003781e-016 2.2204460492503131e-016 -1 
1 0 0 0 -1 
1 0 0 1 0 
1 0.70000000000002327 -3.4500000000000188 -1 0 
1 2.8999025403209078e-015 -15.019999999999998 1 0 
1 0.70000000000002327 -3.4500000000000188 -1 0 
1 3.1499999999999968 0 0 -1 
1 1.5707963267948966 0 0 -1 
1 0 -8.8817841970012523e-016 1 0 
1 0.30000000000002292 -3.4500000000000188 0 1 
1 0 -15.02 1 0 
1 0.30000000000002292 -3.4500000000000188 0 1 
1 0 0 1 0 
2 0 -0.30000000000001847 0 1 1 -0 0.30000000000002203
1 0 -15.02 1 0 
2 0 -0.30000000000001847 0 1 1 -0 0.30000000000002203
Curves 24
1 18.299999999999997 6.899999999999979 -7.5100000000000025 0 2.2204460492503131e-016 1 
1 18.299999999999997 3.8999999999999959 -7.5100000000000016 0 2.2204460492503131e-016 1 
1 18.300000000000001 6.8999999999999817 0 0 -1 0 
1 18.300000000000001 6.8999999999999817 0 0 -1 0 
1 18.699999999999996 3.8999999999999959 -7.5100000000000016 0 2.2204460492503131e-016 1 
1 18.300000000000001 3.8999999999999981 0 1 0 0 
1 18.300000000000001 3.8999999999999981 0 1 0 0 
1 18.699999999999999 6.899999999999979 -7.5100000000000025 0 2.2204460492503131e-016 1 
1 18.699999999999999 3.8999999999999981 0 0 1 0 
1 18.699999999999999 3.8999999999999981 0 0 1 0 
1 17.999999999999975 7.6000000000000023 -7.5100000000000033 0 2.2204460492503131e-016 1 
2 17.999999999999979 6.8999999999999817 0 0 0 1 1 0 -0 -0 1 0 0.70000000000002316
2 17.999999999999979 6.8999999999999817 0 0 0 1 1 0 -0 -0 1 0 0.70000000000002316
1 14.849999999999977 7.6000000000000023 -7.5100000000000033 0 2.2204460492503131e-016 1 
1 17.999999999999979 7.600000000000005 0 -1 0 0 
1 17.999999999999979 7.600000000000005 0 -1 0 0 
1 14.849999999999977 7.200000000000002 -7.5100000000000033 0 2.2204460492503131e-016 1 
1 14.849999999999978 7.600000000000005 0 0 -1 0 
1 14.849999999999978 7.600000000000005 0 0 -1 0 
1 17.999999999999975 7.200000000000002 -7.5100000000000033 0 2.2204460492503131e-016 1 
1 14.849999999999978 7.2000000000000046 0 1 0 0 
1 14.849999999999978 7.2000000000000046 0 1 0 0 
2 17.999999999999979 6.8999999999999817 0 0 0 1 1 0 -0 -0 1 0 0.30000000000002319
2 17.999999999999979 6.8999999999999817 0 0 0 1 1 0 -0 -0 1 0 0.30000000000002319
Polygon3D 0
PolygonOnTriangulations 0
Surfaces 10
1 18.299999999999997 6.899999999999979 -7.5100000000000025 1 0 -0 0 -1 4.4408920985006262e-016 0 -4.4408920985006262e-016 -1 
2 17.999999999999975 6.899999999999979 -7.5100000000000025 0 -4.4408920985006262e-016 -1 1 0 0 -0 1 -4.4408920985006262e-016 0.30000000000002314
1 18.299999999999997 3.8999999999999959 -7.5100000000000016 0 1 -2.2204460492503131e-016 1 0 0 0 -2.2204460492503131e-016 -1 
1 18.299999999999997 1.5321077739827122e-015 6.8999999999999808 0 1 -2.2204460492503136e-016 0 2.2204460492503136e-016 1 1 -0 0 
1 18.299999999999997 1.5321077739827122e-015 6.8999999999999808 0 1 -2.2204460492503136e-016 0 2.2204460492503136e-016 1 1 -0 0 
1 18.699999999999996 3.8999999999999959 -7.5100000000000016 -1 0 0 0 1 -4.4408920985006262e-016 -0 -4.4408920985006262e-016 -1 
2 17.999999999999975 6.899999999999979 -7.5100000000000025 0 -4.4408920985006262e-016 -1 1 0 0 -0 1 -4.4408920985006262e-016 0.70000000000002305
1 17.999999999999975 7.6000000000000023 -7.5100000000000033 0 -1 2.2204460492503131e-016 -1 0 0 -0 -2.2204460492503131e-016 -1 
1 14.849999999999977 7.6000000000000023 -7.5100000000000033 1 0 -0 0 -1 4.4408920985006262e-016 0 -4.4408920985006262e-016 -1 
1 14.849999999999977 7.200000000000002 -7.5100000000000033 0 1 -2.2204460492503131e-016 1 0 0 0 -2.2204460492503131e-016 -1 
Triangulations 0

TShapes 62
Ve
1e-007
18.3 6.89999999999998 -7.51
0 0

0101101
*
Ve
1e-007
18.3 6.89999999999998 7.51
0 0

0101101
*
Ed
 1e-007 1 1 0
1  1 0 0 15.02
2  1 1 0 0 15.02
2  2 2 0 0 15.02
4 G1 1 0 2 0
0

0101000
+62 0 -61 0 *
Ve
1e-007
18.3 3.9 -7.51
0 0

0101101
*
Ve
1e-007
18.3 3.9 7.51
0 0

0101101
*
Ed
 1e-007 1 1 0
1  2 0 0 15.02
2  3 1 0 0 15.02
2  4 3 0 0 15.02
0

0101000
+59 0 -58 0 *
Ed
 1e-007 1 1 0
1  3 0 0 2.99999999999998
2  5 1 5 0 2.99999999999998
2  6 4 6 0 2.99999999999998
0

0101000
+62 5 -59 5 *
Ed
 1e-007 1 1 0
1  4 0 0 2.99999999999998
2  7 1 9 0 2.99999999999998
2  8 5 6 0 2.99999999999998
0

0101000
+61 9 -58 9 *
Wi

0101000
+60 0 -57 0 -56 4 +55 8 *
Fa
0  1e-007 1 0

0101000
+54 0 *
Ve
1e-007
18.7 3.9 -7.51
0 0

0101101
*
Ve
1e-007
18.7 3.9 7.51
0 0

0101101
*
Ed
 1e-007 1 1 0
1  5 0 0 15.02
2  9 3 0 0 15.02
2  10 6 0 0 15.02
0

0101000
+52 0 -51 0 *
Ed
 1e-007 1 1 0
1  6 0 0 0.399999999999999
2  11 3 5 0 0.399999999999999
2  12 4 6 0 0.399999999999999
0

0101000
+59 5 -52 5 *
Ed
 1e-007 1 1 0
1  7 0 0 0.399999999999999
2  13 3 9 0 0.399999999999999
2  14 5 6 0 0.399999999999999
0

0101000
+58 9 -51 9 *
Wi

0101000
+57 0 -50 0 -49 4 +48 8 *
Fa
0  1e-007 3 0

0101000
+47 0 *
Ve
1.00000001776357e-007
18.7 6.89999999999998 -7.51
0 0

0101101
*
Ve
1.00000001776357e-007
18.7 6.89999999999998 7.51
0 0

0101101
*
Ed
 1.00000001776357e-007 1 1 0
1  8 0 0 15.02
2  15 6 0 0 15.02
2  16 7 0 0 15.02
4 G1 6 0 7 0
0

0101000
+45 0 -44 0 *
Ed
 1e-007 1 1 0
1  9 0 0 2.99999999999998
2  17 6 5 0 2.99999999999998
2  18 4 6 0 2.99999999999998
0

0101000
+52 5 -45 5 *
Ed
 1e-007 1 1 0
1  10 0 0 2.99999999999998
2  19 6 9 0 2.99999999999998
2  20 5 6 0 2.99999999999998
0

0101000
+51 9 -44 9 *
Wi

0101000
+50 0 -43 0 -42 4 +41 8 *
Fa
0  1e-007 6 0

0101000
+40 0 *
Ve
1e-007
18 7.6 -7.51
0 0

0101101
*
Ve
1e-007
18 7.60000000000001 7.51
0 0

0101101
*
Ed
 1e-007 1 1 0
1  11 0 0 15.02
2  21 7 0 0 15.02
2  22 8 0 0 15.02
4 G1 7 0 8 0
0

0101000
+38 0 -37 0 *
Ed
 1e-007 1 1 0
1  12 0 0 1.5707963267949
2  23 7 5 0 1.5707963267949
2  24 4 6 0 1.5707963267949
0

0101000
+45 5 -38 5 *
Ed
 1e-007 1 1 0
1  13 0 0 1.5707963267949
2  25 7 9 0 1.5707963267949
2  26 5 6 0 1.5707963267949
0

0101000
+44 9 -37 9 *
Wi

0101000
+43 0 -36 0 -35 4 +34 8 *
Fa
0  1e-007 7 0

0101000
+33 0 *
Ve
1e-007
14.85 7.6 -7.51
0 0

0101101
*
Ve
1e-007
14.85 7.60000000000001 7.51
0 0

0101101
*
Ed
 1e-007 1 1 0
1  14 0 0 15.02
2  27 8 0 0 15.02
2  28 9 0 0 15.02
0

0101000
+31 0 -30 0 *
Ed
 1e-007 1 1 0
1  15 0 0 3.15
2  29 8 5 0 3.15
2  30 4 6 0 3.15
0

0101000
+38 5 -31 5 *
Ed
 1e-007 1 1 0
1  16 0 0 3.15
2  31 8 9 0 3.15
2  32 5 6 0 3.15
0

0101000
+37 9 -30 9 *
Wi

0101000
+36 0 -29 0 -28 4 +27 8 *
Fa
0  1e-007 8 0

0101000
+26 0 *
Ve
1e-007
14.85 7.2 -7.51
0 0

0101101
*
Ve
1e-007
14.85 7.20000000000001 7.51
0 0

0101101
*
Ed
 1e-007 1 1 0
1  17 0 0 15.02
2  33 9 0 0 15.02
2  34 10 0 0 15.02
0

0101000
+24 0 -23 0 *
Ed
 1e-007 1 1 0
1  18 0 0 0.4
2  35 9 5 0 0.4
2  36 4 6 0 0.4
0

0101000
+31 5 -24 5 *
Ed
 1e-007 1 1 0
1  19 0 0 0.4
2  37 9 9 0 0.4
2  38 5 6 0 0.4
0

0101000
+30 9 -23 9 *
Wi

0101000
+29 0 -22 0 -21 4 +20 8 *
Fa
0  1e-007 9 0

0101000
+19 0 *
Ve
1e-007
18 7.2 -7.51
0 0

0101101
*
Ve
1e-007
18 7.20000000000001 7.51
0 0

0101101
*
Ed
 1e-007 1 1 0
1  20 0 0 15.02
2  39 10 0 0 15.02
2  40 2 0 0 15.02
4 G1 10 0 2 0
0

0101000
+17 0 -16 0 *
Ed
 1e-007 1 1 0
1  21 0 0 3.15
2  41 10 5 0 3.15
2  42 4 6 0 3.15
0

0101000
+24 5 -17 5 *
Ed
 1e-007 1 1 0
1  22 0 0 3.15
2  43 10 9 0 3.15
2  44 5 6 0 3.15
0

0101000
+23 9 -16 9 *
Wi

0101000
+22 0 -15 0 -14 4 +13 8 *
Fa
0  1e-007 10 0

0101000
+12 0 *
Ed
 1e-007 1 1 0
1  23 0 0 1.5707963267949
2  45 2 5 0 1.5707963267949
2  46 4 6 0 1.5707963267949
0

0101000
+62 5 -17 5 *
Ed
 1e-007 1 1 0
1  24 0 0 1.5707963267949
2  47 2 9 0 1.5707963267949
2  48 5 6 0 1.5707963267949
0

0101000
+61 9 -16 9 *
Wi

0101000
+60 0 -15 0 -10 4 +9 8 *
Fa
0  1e-007 2 0

0101000
+8 0 *
Wi

0101100
+56 0 +49 0 +42 0 +35 0 +28 0 +21 0 +14 0 -10 0 *
Fa
0  1e-007 4 0

0101000
-6 1 *
Wi

0101100
+55 0 +48 0 +41 0 +34 0 +27 0 +20 0 +13 0 -9 0 *
Fa
0  1e-007 5 0

0101000
-4 1 *
Sh

0101100
-53 0 -46 0 -39 0 -32 0 -25 0 -18 0 -11 0 +7 0 +5 10 -3 11 
*
So

1100100
+2 0 *

+1 0 