DBRep_DrawableShape

CASCADE Topology V1, (c) Matra-Datavision
Locations 134
1
              1               0               0               0 
              0               1               0               0 
              0               0               1               0 
1
              1               0               0               0 
              0               1               0               0 
              0               0               1               0 
1
              1               0              -0               0 
             -0 2.22044604925031e-016              -1               0 
              0               1 2.22044604925031e-016               0 
2  1 -1 2 -1 3 -1 0
1
              1               0              -0               0 
             -0 2.22044604925031e-016              -1               0 
              0               1 2.22044604925031e-016               0 
1
              1               0               0               0 
              0 -2.22044604925031e-016              -1               0 
              0               1 -2.22044604925031e-016               0 
1
              1               0               0              -0 
              0               1               0 -1.66755498298699e-015 
              0               0               1           -7.51 
2  5 1 6 -1 7 1 0
2  7 -1 6 1 5 -1 0
2  5 -1 0
2  1 -1 2 -1 3 -1 7 -1 6 1 5 -1 0
1
              1               0               0               0 
              0               1               0 3.33510996597397e-015 
              0               0               1           15.02 
2  5 1 6 -1 7 1 12 1 0
2  12 -1 7 -1 6 1 5 -1 0
2  1 -1 2 -1 3 -1 12 -1 7 -1 6 1 5 -1 0
2  5 1 6 -1 7 1 3 1 0
1
              1               0              -0               0 
             -0 2.22044604925031e-016              -1               0 
              0               1 2.22044604925031e-016               0 
2  3 1 17 -1 0
2  1 -1 2 -1 17 -1 0
2  5 1 6 -1 7 1 12 1 3 1 0
2  6 -1 7 1 3 1 0
1
              1               0              -0               0 
             -0 2.22044604925031e-016              -1               0 
              0               1 2.22044604925031e-016               0 
1
              1               0               0               0 
              0 -2.22044604925031e-016              -1               0 
              0               1 -2.22044604925031e-016               0 
1
              1               0               0              -0 
              0               1               0 -1.66755498298699e-015 
              0               0               1           -7.51 
2  22 1 23 -1 24 1 17 1 0
2  6 -1 7 1 3 1 17 -1 24 -1 23 1 22 -1 0
2  22 -1 0
2  1 -1 2 -1 17 -1 24 -1 23 1 22 -1 0
2  6 -1 7 1 12 1 3 1 0
1
              1               0               0               0 
              0               1               0 3.33510996597397e-015 
              0               0               1           15.02 
2  22 1 23 -1 24 1 30 1 17 1 0
2  6 -1 7 1 12 1 3 1 17 -1 30 -1 24 -1 23 1 22 -1 0
2  1 -1 2 -1 17 -1 30 -1 24 -1 23 1 22 -1 0
2  24 -1 23 1 22 -1 0
2  30 -1 24 -1 23 1 22 -1 0
2  23 -1 24 1 17 1 0
2  17 1 3 -1 0
2  23 -1 24 1 30 1 17 1 0
2  22 1 23 -1 24 1 0
2  22 1 23 -1 24 1 30 1 0
1
              1               0               0               0 
              0               1               0               0 
              0               0               1               0 
1
              1               0               0               0 
              0               1               0               0 
              0               0               1               0 
1
              1               0               0               0 
              0               1               0               0 
              0               0               1               0 
1
              1               0               0               0 
              0               1               0               0 
              0               0               1               0 
1
              1               0               0               0 
              0               1               0               0 
              0               0               1               0 
1
              1               0               0               0 
              0               1               0               0 
              0               0               1               0 
1
              1               0               0               0 
              0               1               0               0 
              0               0               1               0 
1
              1               0               0               0 
              0               1               0               0 
              0               0               1               0 
1
              1               0               0               0 
              0               1               0               0 
              0               0               1               0 
2  42 1 43 -1 44 1 45 1 46 -1 47 1 48 -1 49 1 0
1
              1               0               0               0 
              0               1               0               0 
              0               0               1               0 
1
              1               0               0               0 
              0               1               0               0 
              0               0               1               0 
1
              1               0               0               0 
              0               1               0               0 
              0               0               1               0 
2  51 -1 52 1 53 -1 0
1
              1               0               0               0 
              0               1               0               0 
              0               0               1               0 
2  55 1 51 -1 52 1 53 -1 0
2  55 -1 0
2  49 -1 48 1 47 -1 46 1 45 -1 44 -1 43 1 42 -1 53 1 52 -1 51 1 55 -1 0
2  1 -1 41 -1 49 -1 48 1 47 -1 46 1 45 -1 44 -1 43 1 42 -1 53 1 52 -1 51 1 55 -1 0
2  44 -1 43 1 42 -1 53 1 52 -1 51 1 55 -1 0
1
              1               0               0               0 
              0              -1               0              -0 
              0               0              -1               0 
2  61 1 53 -1 0
2  51 -1 52 1 61 -1 0
2  53 1 61 -1 0
2  1 -1 41 -1 49 -1 48 1 47 -1 46 1 45 -1 44 -1 43 1 42 -1 53 1 61 -1 0
2  45 1 46 -1 47 1 48 -1 49 1 0
2  49 -1 48 1 47 -1 46 1 45 -1 0
2  1 -1 41 -1 49 -1 48 1 47 -1 46 1 45 -1 0
1
              1               0               0              -0 
              0               1               0               0 
              0               0               1             3.8 
1
              1               0               0               0 
              0               1               0               0 
              0               0               1             3.8 
2  69 1 43 -1 70 1 44 1 0
2  44 -1 70 -1 43 1 69 -1 0
2  69 -1 0
2  1 -1 41 -1 49 -1 48 1 47 -1 46 1 45 -1 44 -1 70 -1 43 1 69 -1 0
2  55 1 51 -1 52 1 53 -1 42 1 43 -1 44 1 0
2  1 -1 41 -1 49 -1 48 1 47 -1 46 1 45 -1 44 -1 43 1 42 -1 0
1
              1               0               0               0 
              0               1               0               0 
              0               0               1           -0.51 
2  61 1 53 -1 77 1 0
2  77 -1 53 1 61 -1 0
2  61 -1 0
2  1 -1 41 -1 49 -1 48 1 47 -1 46 1 45 -1 44 -1 43 1 42 -1 77 -1 53 1 61 -1 0
2  43 -1 70 1 44 1 45 1 46 -1 47 1 48 -1 49 1 0
2  49 -1 48 1 47 -1 46 1 45 -1 44 -1 70 -1 43 1 69 -1 0
2  70 -1 43 1 69 -1 0
2  44 1 45 1 46 -1 47 1 48 -1 49 1 0
2  49 -1 48 1 47 -1 46 1 45 -1 44 -1 0
2  1 -1 41 -1 49 -1 48 1 47 -1 46 1 45 -1 44 -1 0
2  69 1 43 -1 0
2  43 1 69 -1 0
1
              1               0               0               0 
              0               1               0               0 
              0               0               1             3.8 
2  51 -1 90 1 52 1 53 -1 42 1 69 -1 0
2  1 -1 41 -1 49 -1 48 1 47 -1 46 1 45 -1 44 -1 43 1 69 -1 0
2  69 1 43 -1 70 1 0
2  47 1 48 -1 49 1 0
2  51 -1 90 1 52 1 53 -1 42 1 43 -1 44 1 45 1 46 -1 0
2  55 1 51 -1 90 1 52 1 53 -1 42 1 43 -1 44 1 45 1 46 -1 0
2  49 -1 48 1 47 -1 46 1 45 -1 44 -1 43 1 42 -1 53 1 52 -1 90 -1 51 1 55 -1 0
2  1 -1 41 -1 49 -1 48 1 47 -1 46 1 45 -1 44 -1 43 1 42 -1 53 1 52 -1 90 -1 51 1 55 -1 0
1
              1               0               0              -0 
              0               1               0               0 
              0               0               1             3.8 
2  99 1 46 -1 0
2  51 -1 90 1 52 1 53 -1 42 1 43 -1 44 1 45 1 99 -1 0
2  49 -1 48 1 47 -1 46 1 99 -1 0
2  1 -1 41 -1 49 -1 48 1 47 -1 46 1 99 -1 0
2  69 1 43 -1 44 1 45 1 46 -1 0
2  53 -1 77 1 42 1 43 -1 44 1 45 1 46 -1 47 1 48 -1 49 1 0
2  69 1 43 -1 70 1 44 1 45 1 46 -1 47 1 48 -1 49 1 0
2  55 1 51 -1 90 1 52 1 53 -1 42 1 43 -1 44 1 45 1 46 -1 47 1 48 -1 49 1 0
2  49 -1 48 1 47 -1 0
2  1 -1 41 -1 49 -1 48 1 47 -1 0
1
              1               0               0               0 
              0               1               0               0 
              0               0               1             1.5 
2  99 1 46 -1 110 1 47 1 48 -1 49 1 0
2  49 -1 48 1 47 -1 110 -1 46 1 99 -1 0
2  99 -1 0
2  1 -1 41 -1 49 -1 48 1 47 -1 110 -1 46 1 99 -1 0
2  1 -1 41 -1 0
2  55 1 51 -1 52 1 53 -1 42 1 43 -1 44 1 45 1 46 -1 47 1 48 -1 49 1 0
2  46 -1 110 1 47 1 48 -1 0
2  99 1 46 -1 110 1 47 1 48 -1 0
1
              1               0               0              -0 
              0               1               0               0 
              0               0               1             5.3 
2  119 1 48 -1 0
2  46 -1 110 1 47 1 119 -1 0
2  48 1 119 -1 0
2  1 -1 41 -1 49 -1 48 1 119 -1 0
2  49 -1 0
2  1 -1 41 -1 49 -1 0
1
              1               0               0               0 
              0               1               0               0 
              0               0               1             2.3 
2  119 1 48 -1 126 1 0
2  126 -1 48 1 119 -1 0
2  119 -1 0
2  1 -1 41 -1 49 -1 126 -1 48 1 119 -1 0
2  48 -1 126 1 49 1 0
2  49 -1 126 -1 48 1 119 -1 0
2  119 1 48 -1 126 1 49 1 0
2  99 1 46 -1 47 1 48 -1 49 1 0
Curve2ds 166
1 0 0 0 -1 
1 0 0 2.2204460492503131e-016 -1 
1 1.5707963267948966 0 0 -1 
1 3.1499999999999968 0 0 -1 
1 0 0 1 0 
2 0 -0.30000000000001847 0 1 1 -0 0.30000000000002203
1 0 -15.02 1 0 
2 0 -0.30000000000001847 0 1 1 -0 0.30000000000002203
1 0 0 1 0 
1 0 3.5527136788005009e-015 -1 0 
1 0.54999999999998117 3.6637359812628912e-016 2.2204460492503131e-016 -1 
1 0 0 0 -1 
1 2.8999025403209078e-015 -15.019999999999998 1 0 
1 0 3.5527136788005009e-015 -1 0 
1 0 0 0 -1 
1 0.40000000000000036 2.6645352591003781e-016 2.2204460492503131e-016 -1 
1 0 -8.8817841970012523e-016 1 0 
1 0.30000000000002292 -3.4500000000000188 0 1 
1 0 -15.02 1 0 
1 0.30000000000002292 -3.4500000000000188 0 1 
1 -3.0499999999999807 7.1054273576010019e-015 1 0 
1 -3.6999999999999997 39.199999999999989 1 0 
1 -2.9999999999999827 3.5527136788005009e-015 0 1 
1 3.5527136788005009e-015 0 1 0 
1 0.70000000000002327 -3.4500000000000188 -1 0 
1 0 0 1 0 
1 -2.9999999999999827 0.40000000000000213 1 0 
1 0 0 1 0 
1 0.70000000000002327 -0.30000000000001847 0 -1 
1 -3.5527136788005009e-015 0 1 0 
2 0 -0.30000000000001847 0 1 1 -0 0.70000000000002416
1 0 0 1 0 
1 -3.0499999999999807 7.1054273576010019e-015 1 0 
1 -3.6999999999999997 39.199999999999989 1 0 
1 -2.9999999999999827 3.5527136788005009e-015 0 1 
1 3.5527136788005009e-015 -15.019999999999998 1 0 
1 0.70000000000002327 -3.4500000000000188 -1 0 
1 2.8999025403209078e-015 -15.019999999999998 1 0 
1 -2.9999999999999827 0.40000000000000213 1 0 
1 -2.8999025403209078e-015 -15.019999999999998 1 0 
1 0.70000000000002327 -0.30000000000001847 0 -1 
1 -3.5527136788005009e-015 -15.019999999999998 1 0 
2 0 -0.30000000000001847 0 1 1 -0 0.70000000000002416
1 0 -15.02 1 0 
1 -3.5527136788005009e-015 0 1 0 
1 -1.2000000000000002 39.199999999999989 0 -1 
1 -3.5527136788005009e-015 -15.019999999999998 1 0 
1 -1.2000000000000002 39.199999999999989 0 -1 
1 0.5 0 0 -1 
1 0 0 -2.2204460492503131e-016 -1 
1 0 0 2.2204460492503131e-016 -1 
1 3.1499999999999968 0 0 -1 
1 0 -3.5527136788005009e-015 -1 0 
1 0 0 1 0 
1 0 35.699999999999989 0 -1 
1 0 0 1 0 
1 -3.6999999999999997 -3.5527136788005009e-015 0 1 
1 -3.5527136788005009e-015 0 1 0 
1 -0.60000000000000053 35.699999999999989 1 0 
1 0 0 1 0 
1 -3.6999999999999997 39.199999999999989 1 0 
1 0 0 1 0 
1 -0.60000000000000053 38.699999999999989 0 -1 
1 -3.5527136788005009e-015 0 1 0 
1 -1.2000000000000002 38.699999999999989 1 0 
1 0 0 1 0 
1 0 0 0 -1 
1 0.049999999999998046 -3.3306690738753395e-017 -2.2204460492503131e-016 -1 
1 0.39999999999999858 0 0 -1 
1 0 0 -2.2204460492503131e-016 -1 
1 2.9999999999999827 -2.2204460492501987e-016 -2.2204460492503131e-016 -1 
1 0 0 0 -1 
1 0 0 0 -1 
1 1.5707963267948966 0 0 -1 
1 0 -3.5527136788005009e-015 -1 0 
1 2.8999025403209078e-015 -15.019999999999998 1 0 
1 0 35.699999999999989 0 -1 
1 0 -15.019999999999998 1 0 
1 -3.6999999999999997 -3.5527136788005009e-015 0 1 
1 -3.5527136788005009e-015 -15.019999999999998 1 0 
1 -0.60000000000000053 35.699999999999989 1 0 
1 -2.8999025403209078e-015 -15.019999999999998 1 0 
1 -3.6999999999999997 39.199999999999989 1 0 
1 -2.8999025403209078e-015 -15.019999999999998 1 0 
1 -0.60000000000000053 38.699999999999989 0 -1 
1 -3.5527136788005009e-015 -15.019999999999998 1 0 
1 -1.2000000000000002 38.699999999999989 1 0 
1 -2.8999025403209078e-015 -15.019999999999998 1 0 
1 0.59999999999999964 -3.9968028886505612e-016 -2.2204460492503131e-016 -1 
1 0 0 0 -1 
1 0 0 2.2204460492503131e-016 -1 
1 35.699999999999989 0 0 -1 
1 3.6999999999999997 -1.9984014443252826e-016 2.2204460492503131e-016 -1 
1 0 0 0 -1 
1 0 0 0 -1 
1 0.60000000000000053 4.8849813083506852e-016 -2.2204460492503131e-016 -1 
1 39.199999999999989 0 0 -1 
1 0 0 -2.2204460492503131e-016 -1 
1 0 0 -2.2204460492503131e-016 -1 
1 2.9999999999999964 0 0 -1 
1 0 0 1 0 
1 0 0 0 1 
1 0 -15.02 0 1 
1 0 0 0 -1 
1 50.399999999999999 0 0 -1 
1 0 -0 0 1 
1 50.399999999999999 -15.02 -1 0 
1 0 0 0 -1 
2 25.199999999999999 -7.5099999999999998 1 0 0 -1 1.48
1 0 0 1 0 
1 0 0 1 0 
1 0 -50.399999999999999 1 0 
1 7.5999999999999996 0 0 -1 
1 0 -15.02 0 1 
1 0 -15.02 1 0 
1 0 0 -1 0 
1 0 0 0 -1 
1 6.2831853071795862 0 0 -1 
1 0 -0.51000000000000001 1 0 
2 -1.48 0 1 0 0 -1 1.48
1 0 0 1 0 
1 -7.5999999999999996 0 0 1 
1 4.1999999999999993 0 0 -1 
1 0 -3.7999999999999998 1 0 
1 4.1999999999999993 -15.02 -1 0 
1 7.5999999999999996 -46.200000000000003 0 -1 
1 0 0 0 -1 
1 -3.7999999999999998 4.1999999999999993 -1 0 
1 0 0 1 0 
1 4.1999999999999993 0 0 -1 
1 15.02 0 0 -1 
1 3.7999999999999998 -46.200000000000003 1 0 
1 0 0 1 0 
1 -3.7999999999999998 0 0 1 
1 46.200000000000003 -15.02 0 1 
1 0 0 0 -1 
1 50.399999999999999 -15.02 -1 0 
1 3.7999999999999998 0 0 -1 
1 -3.7999999999999998 46.200000000000003 -1 0 
1 0 -15.02 1 0 
1 -5.2999999999999998 46.200000000000003 0 1 
1 0 0 1 0 
1 -3.7999999999999998 50.399999999999999 -1 0 
1 -3.7999999999999998 -0 -1 -0 
1 4.1999999999999993 0 0 -1 
1 -5.2999999999999998 -0 0 1 
1 0 -2.1999999999999993 1 0 
1 0 0 1 0 
1 0 -15.02 0 1 
1 1.5 0 0 -1 
1 0 0 0 -1 
1 1.5 -12.82 1 0 
1 0 -2.2999999999999998 1 0 
1 0 0 1 0 
1 4.1999999999999993 0 0 -1 
1 -5.2999999999999998 2.1999999999999993 -1 -0 
1 4.1999999999999993 0 0 -1 
1 -7.5999999999999996 2.1999999999999993 0 1 
1 4.1999999999999993 -12.82 -1 0 
1 7.5999999999999996 0 0 -1 
1 0 -12.82 0 1 
1 3.7999999999999998 0 0 -1 
1 -5.2999999999999998 15.02 -1 -0 
1 5.2999999999999998 0 1 0 
1 5.2999999999999998 -4.1999999999999993 1 0 
1 1.5 0 1 0 
Curves 83
1 18.299999999999997 6.899999999999979 -7.5100000000000025 0 2.2204460492503131e-016 1 
1 17.999999999999975 7.200000000000002 -7.5100000000000033 0 2.2204460492503131e-016 1 
2 17.999999999999979 6.8999999999999817 0 0 0 1 1 0 -0 -0 1 0 0.30000000000002319
2 17.999999999999979 6.8999999999999817 0 0 0 1 1 0 -0 -0 1 0 0.30000000000002319
1 18.300000000000001 6.8999999999999817 0 0 -1 0 
1 18.300000000000001 6.3499999999999979 -7.5100000000000025 0 2.2204460492503131e-016 1 
1 18.300000000000001 6.8999999999999817 0 0 -1 0 
1 14.849999999999977 7.200000000000002 -7.5100000000000033 0 2.2204460492503131e-016 1 
1 14.849999999999978 7.2000000000000046 0 1 0 0 
1 14.849999999999978 7.2000000000000046 0 1 0 0 
1 18.300000000000004 3.8500000000000001 0 0 1 0 
1 18.300000000000001 3.8999999999999981 0 1 0 0 
1 14.849999999999978 7.600000000000005 0 0 -1 0 
1 18.699999999999999 3.8999999999999981 0 0 1 0 
1 17.999999999999979 7.600000000000005 0 -1 0 0 
2 17.999999999999979 6.8999999999999817 0 0 0 1 1 0 -0 -0 1 0 0.70000000000002316
1 18.300000000000004 3.8500000000000001 0 0 1 0 
1 18.300000000000001 3.8999999999999981 0 1 0 0 
1 14.849999999999978 7.600000000000005 0 0 -1 0 
1 18.699999999999999 3.8999999999999981 0 0 1 0 
1 17.999999999999979 7.600000000000005 0 -1 0 0 
2 17.999999999999979 6.8999999999999817 0 0 0 1 1 0 -0 -0 1 0 0.70000000000002316
1 18.300000000000004 6.3500000000000005 0 -1 0 0 
1 18.300000000000004 6.3500000000000005 0 -1 0 0 
1 17.800000000000001 6.3499999999999979 -7.5100000000000025 0 2.2204460492503131e-016 1 
1 14.849999999999977 7.6000000000000023 -7.5100000000000033 0 2.2204460492503131e-016 1 
1 -20.899999999999999 7.5500000000000007 0 0 -1 0 
1 14.800000000000004 7.5500000000000007 0 -1 0 0 
1 -20.899999999999999 3.8500000000000001 0 1 0 0 
1 14.800000000000004 6.9500000000000002 0 0 1 0 
1 18.300000000000004 3.8500000000000001 0 0 1 0 
1 17.800000000000004 6.9500000000000002 0 -1 0 0 
1 17.800000000000004 6.3500000000000005 0 0 1 0 
1 18.299999999999997 3.8999999999999959 -7.5100000000000016 0 2.2204460492503131e-016 1 
1 18.699999999999996 3.8999999999999959 -7.5100000000000016 0 2.2204460492503131e-016 1 
1 18.699999999999999 6.899999999999979 -7.5100000000000025 0 2.2204460492503131e-016 1 
1 17.999999999999975 7.6000000000000023 -7.5100000000000033 0 2.2204460492503131e-016 1 
1 -20.899999999999999 7.5500000000000007 0 0 -1 0 
1 14.800000000000004 7.5500000000000007 0 -1 0 0 
1 -20.899999999999999 3.8500000000000001 0 1 0 0 
1 14.800000000000004 6.9500000000000002 0 0 1 0 
1 18.300000000000004 3.8500000000000001 0 0 1 0 
1 17.800000000000004 6.9500000000000002 0 -1 0 0 
1 17.800000000000004 6.3500000000000005 0 0 1 0 
1 17.800000000000001 6.9499999999999975 -7.5100000000000025 0 2.2204460492503131e-016 1 
1 -20.899999999999995 7.549999999999998 -7.5100000000000033 0 2.2204460492503131e-016 1 
1 -20.899999999999995 3.8499999999999979 -7.5100000000000016 0 2.2204460492503131e-016 1 
1 14.800000000000002 7.549999999999998 -7.5100000000000033 0 2.2204460492503131e-016 1 
1 18.300000000000001 3.8499999999999979 -7.5100000000000016 0 2.2204460492503131e-016 1 
1 14.800000000000002 6.9499999999999975 -7.5100000000000025 0 2.2204460492503131e-016 1 
1 -25.199999999999999 7.5099999999999998 0 1 0 0 
1 -25.199999999999999 -7.5099999999999998 0 0 1 0 
1 25.199999999999999 7.5099999999999998 0 0 -1 0 
1 25.199999999999999 -7.5099999999999998 0 -1 0 0 
2 0 0 0 0 0 1 1 0 -0 -0 1 0 1.48
1 -25.199999999999999 -7.5099999999999998 0 0 0 1 
1 -25.199999999999999 -7.5099999999999998 0 0 1 0 
1 -25.199999999999999 7.5099999999999998 0 0 0 1 
1 1.48 0 0 0 0 -1 
2 0 0 0 0 0 1 1 0 -0 -0 1 0 1.48
1 -25.199999999999999 7.5099999999999998 0 1 0 0 
1 -21 7.5099999999999998 0 0 -1 0 
1 -21 -7.5099999999999998 0 -1 0 0 
1 -21 7.5099999999999998 3.7999999999999998 0 0 1 
1 -21 7.5099999999999998 0 0 -1 0 
1 -21 -7.5099999999999998 3.7999999999999998 0 0 1 
1 -25.199999999999999 7.5099999999999998 0 1 0 0 
1 21 -7.5099999999999998 0 0 1 0 
1 25.199999999999999 -7.5099999999999998 0 -1 0 0 
1 21 7.5099999999999998 3.7999999999999998 0 0 1 
1 21 7.5099999999999998 0 1 0 0 
1 25.199999999999999 7.5099999999999998 3.7999999999999998 0 0 1 
1 25.199999999999999 7.5099999999999998 0 0 -1 0 
1 21 5.3100000000000005 0 1 0 0 
1 21 -7.5099999999999998 0 0 1 0 
1 21 5.3100000000000005 5.2999999999999998 0 0 1 
1 21 5.3100000000000005 0 1 0 0 
1 25.199999999999999 5.3100000000000005 5.2999999999999998 0 0 1 
1 25.199999999999999 5.3100000000000005 0 0 -1 0 
1 25.199999999999999 -7.5099999999999998 0 -1 0 0 
1 21 -7.5099999999999998 0 0 1 0 
1 25.199999999999999 -7.5099999999999998 5.2999999999999998 0 0 1 
1 21 -7.5099999999999998 5.2999999999999998 0 0 1 
Polygon3D 0
PolygonOnTriangulations 0
Surfaces 34
2 17.999999999999975 6.899999999999979 -7.5100000000000025 0 -4.4408920985006262e-016 -1 1 0 0 -0 1 -4.4408920985006262e-016 0.30000000000002314
1 18.299999999999997 6.899999999999979 -7.5100000000000025 1 0 -0 0 -1 4.4408920985006262e-016 0 -4.4408920985006262e-016 -1 
1 14.849999999999977 7.200000000000002 -7.5100000000000033 0 1 -2.2204460492503131e-016 1 0 0 0 -2.2204460492503131e-016 -1 
1 18.299999999999997 1.5321077739827122e-015 6.8999999999999808 0 1 -2.2204460492503136e-016 0 2.2204460492503136e-016 1 1 -0 0 
1 18.299999999999997 1.5321077739827122e-015 6.8999999999999808 0 1 -2.2204460492503136e-016 0 2.2204460492503136e-016 1 1 -0 0 
1 18.300000000000001 6.3499999999999979 -7.5100000000000025 0 -1 2.2204460492503131e-016 -1 0 0 -0 -2.2204460492503131e-016 -1 
1 14.849999999999977 7.6000000000000023 -7.5100000000000033 1 0 -0 0 -1 4.4408920985006262e-016 0 -4.4408920985006262e-016 -1 
1 -20.899999999999995 1.6764367671839867e-015 7.5499999999999998 0 1 -2.2204460492503136e-016 0 2.2204460492503136e-016 1 1 -0 0 
1 18.299999999999997 3.8999999999999959 -7.5100000000000016 0 1 -2.2204460492503131e-016 1 0 0 0 -2.2204460492503131e-016 -1 
1 18.699999999999996 3.8999999999999959 -7.5100000000000016 -1 0 0 0 1 -4.4408920985006262e-016 -0 -4.4408920985006262e-016 -1 
1 17.999999999999975 7.6000000000000023 -7.5100000000000033 0 -1 2.2204460492503131e-016 -1 0 0 -0 -2.2204460492503131e-016 -1 
2 17.999999999999975 6.899999999999979 -7.5100000000000025 0 -4.4408920985006262e-016 -1 1 0 0 -0 1 -4.4408920985006262e-016 0.70000000000002305
1 -20.899999999999995 1.6764367671839867e-015 7.5499999999999998 0 1 -2.2204460492503136e-016 0 2.2204460492503136e-016 1 1 -0 0 
1 17.800000000000001 6.3499999999999979 -7.5100000000000025 -1 0 0 0 1 -4.4408920985006262e-016 -0 -4.4408920985006262e-016 -1 
1 -20.899999999999995 7.549999999999998 -7.5100000000000033 1 0 -0 0 -1 4.4408920985006262e-016 0 -4.4408920985006262e-016 -1 
1 14.800000000000002 7.549999999999998 -7.5100000000000033 0 -1 2.2204460492503131e-016 -1 0 0 -0 -2.2204460492503131e-016 -1 
1 -20.899999999999995 3.8499999999999979 -7.5100000000000016 0 1 -2.2204460492503131e-016 1 0 0 0 -2.2204460492503131e-016 -1 
1 14.800000000000002 6.9499999999999975 -7.5100000000000025 -1 0 0 0 1 -4.4408920985006262e-016 -0 -4.4408920985006262e-016 -1 
1 18.300000000000001 3.8499999999999979 -7.5100000000000016 -1 0 0 0 1 -4.4408920985006262e-016 -0 -4.4408920985006262e-016 -1 
1 17.800000000000001 6.9499999999999975 -7.5100000000000025 0 -1 2.2204460492503131e-016 -1 0 0 -0 -2.2204460492503131e-016 -1 
1 -25.199999999999999 7.5099999999999998 0 -0 0 1 1 0 0 0 1 -0 
1 -25.199999999999999 7.5099999999999998 0 0 -1 0 0 -0 -1 1 0 0 
1 -25.199999999999999 -7.5099999999999998 0 1 0 0 -0 0 1 0 -1 0 
1 25.199999999999999 7.5099999999999998 0 -1 0 0 0 0 -1 -0 -1 -0 
1 25.199999999999999 -7.5099999999999998 0 0 1 -0 0 0 1 1 -0 0 
2 0 0 0 -0 -0 1 1 0 0 0 -1 -0 1.48
1 -25.199999999999999 7.5099999999999998 3.7999999999999998 -0 0 1 1 0 0 0 1 -0 
1 1.48 0 0 0 0 1 1 0 -0 -0 1 0 
1 -21 7.5099999999999998 3.7999999999999998 1 0 -0 0 -1 0 0 -0 -1 
1 -25.199999999999999 7.5099999999999998 0 -0 0 1 1 0 0 0 1 -0 
1 21 -7.5099999999999998 3.7999999999999998 1 0 0 -0 0 1 0 -1 0 
1 21 7.5099999999999998 3.7999999999999998 -0 0 1 1 0 0 0 1 -0 
1 21 5.3100000000000005 5.2999999999999998 0 1 0 1 0 0 0 0 -1 
1 21 5.3100000000000005 5.2999999999999998 -0 0 1 1 0 0 0 1 -0 
Triangulations 0

TShapes 211
Ve
1e-007
18.3 7.51 6.89999999999998
0 0

0101101
*
Ve
1e-007
18.3 -7.50999999999999 6.89999999999998
0 0

0101101
*
Ed
 1e-007 1 1 0
1  1 0 0 15.02
2  1 1 0 0 15.02
2  2 2 0 0 15.02
4 G1 1 0 2 0
0

0101000
+211 4 -210 4 *
Ve
1e-007
18 7.51 7.2
0 0

0101101
*
Ve
1e-007
18 -7.50999999999999 7.20000000000001
0 0

0101101
*
Ed
 1e-007 1 1 0
1  2 0 0 15.02
2  3 1 0 0 15.02
2  4 3 0 0 15.02
4 G1 1 0 3 0
0

0101000
+208 4 -207 4 *
Ed
 1e-007 1 1 0
1  3 0 0 1.5707963267949
2  5 1 9 0 1.5707963267949
2  6 4 10 0 1.5707963267949
0

0101000
+211 11 -208 11 *
Ed
 1e-007 1 1 0
1  4 0 0 1.5707963267949
2  7 1 14 0 1.5707963267949
2  8 5 10 0 1.5707963267949
0

0101000
+210 15 -207 15 *
Wi

0101000
+209 0 -206 0 -205 8 +204 13 *
Fa
0  1e-007 1 0

0101000
+203 0 *
Ve
1e-007
18.3 7.51 6.35
0 0

0101101
*
Ed
 1e-007 1 1 0
1  5 0 0 0.549999999999981
2  9 2 9 0 0.549999999999981
2  10 4 10 0 0.549999999999981
0

0101000
+211 11 -201 11 *
Ve
1e-007
18.3 -7.50999999999999 6.35
0 0

0101101
*
Ed
 1e-007 1 1 0
1  6 0 0 15.02
2  11 2 18 0 15.02
2  12 6 0 0 15.02
0

0101000
+201 19 -199 19 *
Ed
 1e-007 1 1 0
1  7 0 0 0.549999999999981
2  13 2 14 0 0.549999999999981
2  14 5 10 0 0.549999999999981
0

0101000
+210 15 -199 15 *
Wi

0101000
-200 16 -198 17 +197 20 +209 3 *
Fa
0  1e-007 2 3

0101000
+196 0 *
Ve
1e-007
14.85 7.51 7.2
0 0

0101101
*
Ve
1e-007
14.85 -7.50999999999999 7.20000000000001
0 0

0101101
*
Ed
 1e-007 1 1 0
1  8 0 0 15.02
2  15 3 0 0 15.02
2  16 7 0 0 15.02
0

0101000
+194 4 -193 4 *
Ed
 1e-007 1 1 0
1  9 0 0 3.15
2  17 3 9 0 3.15
2  18 4 10 0 3.15
0

0101000
+194 11 -208 11 *
Ed
 1e-007 1 1 0
1  10 0 0 3.15
2  19 3 14 0 3.15
2  20 5 10 0 3.15
0

0101000
+193 15 -207 15 *
Wi

0101000
+192 0 -206 0 -191 8 +190 13 *
Fa
0  1e-007 3 0

0101000
+189 0 *
Ve
1e-007
18.3 7.51 3.89999999999999
0 0

0101101
*
Ed
 1e-007 1 1 0
1  11 0 0.049999999999998 2.5
2  21 4 26 0.049999999999998 2.5
2  22 8 27 0.049999999999998 2.5
0

0101000
+187 28 -201 28 *
Ve
1e-007
18.7 7.51 3.89999999999999
0 0

0101101
*
Ed
 1e-007 1 1 0
1  12 0 0 0.399999999999999
2  23 4 10 0 0.399999999999999
2  24 9 9 0 0.399999999999999
0

0101000
+187 11 -185 11 *
Ve
1e-007
14.85 7.51 7.6
0 0

0101101
*
Ed
 1e-007 1 1 0
1  13 0 0 0.4
2  25 4 10 0 0.4
2  26 7 9 0 0.4
0

0101000
+183 11 -194 11 *
Ve
1.00000001776357e-007
18.7 7.51 6.89999999999998
0 0

0101101
*
Ed
 1e-007 1 1 0
1  14 0 0 2.99999999999998
2  27 4 10 0 2.99999999999998
2  28 10 9 0 2.99999999999998
0

0101000
+185 11 -181 11 *
Ve
1e-007
18 7.51 7.6
0 0

0101101
*
Ed
 1e-007 1 1 0
1  15 0 0 3.15
2  29 4 10 0 3.15
2  30 11 9 0 3.15
0

0101000
+179 11 -183 11 *
Ed
 1e-007 1 1 0
1  16 0 0 1.5707963267949
2  31 4 10 0 1.5707963267949
2  32 12 9 0 1.5707963267949
0

0101000
+181 11 -179 11 *
Wi

0101000
-200 16 +205 16 +186 25 -191 16 -184 16 -182 16 -180 16 -178 16 -177 16 *
Fa
0  1e-007 4 21

0101000
+176 0 *
Ve
1e-007
18.3 -7.51 3.9
0 0

0101101
*
Ed
 1e-007 1 1 0
1  17 0 0.049999999999998 2.5
2  33 5 32 0.049999999999998 2.5
2  34 13 27 0.049999999999998 2.5
0

0101000
+174 33 -199 33 *
Ve
1e-007
18.7 -7.51 3.9
0 0

0101101
*
Ed
 1e-007 1 1 0
1  18 0 0 0.399999999999999
2  35 5 10 0 0.399999999999999
2  36 9 14 0 0.399999999999999
0

0101000
+174 15 -172 15 *
Ve
1e-007
14.85 -7.50999999999999 7.60000000000001
0 0

0101101
*
Ed
 1e-007 1 1 0
1  19 0 0 0.4
2  37 5 10 0 0.4
2  38 7 14 0 0.4
0

0101000
+170 15 -193 15 *
Ve
1.00000001776357e-007
18.7 -7.50999999999999 6.89999999999998
0 0

0101101
*
Ed
 1e-007 1 1 0
1  20 0 0 2.99999999999998
2  39 5 10 0 2.99999999999998
2  40 10 14 0 2.99999999999998
0

0101000
+172 15 -168 15 *
Ve
1e-007
18 -7.50999999999999 7.60000000000001
0 0

0101101
*
Ed
 1e-007 1 1 0
1  21 0 0 3.15
2  41 5 10 0 3.15
2  42 11 14 0 3.15
0

0101000
+166 15 -170 15 *
Ed
 1e-007 1 1 0
1  22 0 0 1.5707963267949
2  43 5 10 0 1.5707963267949
2  44 12 14 0 1.5707963267949
0

0101000
+168 15 -166 15 *
Wi

0101000
-197 20 +204 20 +173 31 -190 20 -171 20 -169 20 -167 20 -165 20 -164 20 *
Fa
0  1e-007 5 29

0101000
+163 0 *
Ve
1e-007
17.8 7.51 6.35
0 0

0101101
*
Ed
 1e-007 1 1 0
1  23 0 0 0.5
2  45 6 34 0 0.5
2  46 8 27 0 0.5
0

0101000
+201 28 -161 28 *
Ve
1e-007
17.8 -7.50999999999999 6.35
0 0

0101101
*
Ed
 1e-007 1 1 0
1  24 0 0 0.5
2  47 6 35 0 0.5
2  48 13 27 0 0.5
0

0101000
+199 33 -159 33 *
Ed
 1e-007 1 1 0
1  25 0 0 15.02
2  49 6 0 0 15.02
2  50 14 0 0 15.02
0

0101000
+161 19 -159 19 *
Wi

0101000
+198 17 -160 25 +158 31 -157 17 *
Fa
0  1e-007 6 17

0101000
+156 0 *
Ed
 1e-007 1 1 0
1  26 0 0 15.02
2  51 7 0 0 15.02
2  52 11 0 0 15.02
0

0101000
+183 4 -170 4 *
Wi

0101000
+154 0 -192 0 -182 8 +169 13 *
Fa
0  1e-007 7 0

0101000
+153 0 *
Ve
1e-007
-20.9 7.51 7.55
0 0

0101101
*
Ve
1e-007
-20.9 7.51 3.85
0 0

0101101
*
Ed
 1e-007 1 1 0
1  27 0 0 3.7
2  53 8 27 0 3.7
2  54 15 34 0 3.7
0

0101000
+151 28 -150 28 *
Ve
1e-007
14.8 7.51 7.55
0 0

0101101
*
Ed
 1e-007 1 1 0
1  28 0 0 35.7
2  55 8 27 0 35.7
2  56 16 34 0 35.7
0

0101000
+148 28 -151 28 *
Ve
1e-007
18.3 7.51 3.85
0 0

0101101
*
Ed
 1e-007 1 1 0
1  29 0 0 39.2
2  57 8 27 0 39.2
2  58 17 34 0 39.2
0

0101000
+150 28 -146 28 *
Ve
1e-007
14.8 7.51 6.94999999999999
0 0

0101101
*
Ed
 1e-007 1 1 0
1  30 0 0 0.600000000000001
2  59 8 27 0 0.600000000000001
2  60 18 34 0 0.600000000000001
0

0101000
+144 28 -148 28 *
Ed
 1e-007 1 1 0
1  31 0 0 0.049999999999998
2  61 8 27 0 0.049999999999998
2  62 19 34 0 0.049999999999998
0

0101000
+146 28 -187 28 *
Ve
1e-007
17.8 7.51 6.94999999999999
0 0

0101101
*
Ed
 1e-007 1 1 0
1  32 0 0 3
2  63 8 27 0 3
2  64 20 34 0 3
0

0101000
+141 28 -144 28 *
Ed
 1e-007 1 1 0
1  33 0 0 0.6
2  65 8 27 0 0.6
2  66 14 34 0 0.6
0

0101000
+161 28 -141 28 *
Wi

0101000
-149 25 -147 25 -145 25 -143 25 -142 25 -140 25 -186 25 -139 25 -160 25 *
Fa
0  1e-007 8 36

0101000
+138 0 *
Ed
 1e-007 1 1 0
1  34 0 0 15.02
2  67 9 0 0 15.02
2  68 19 37 0 15.02
0

0101000
+187 4 -174 4 *
Ed
 1e-007 1 1 0
1  35 0 0 15.02
2  69 9 0 0 15.02
2  70 10 0 0 15.02
0

0101000
+185 4 -172 4 *
Wi

0101000
+136 3 -184 16 +171 20 -135 3 *
Fa
0  1e-007 9 3

0101000
+134 0 *
Ed
 1.00000001776357e-007 1 1 0
1  36 0 0 15.02
2  71 10 0 0 15.02
2  72 12 0 0 15.02
4 G1 10 0 12 0
0

0101000
+181 4 -168 4 *
Wi

0101000
+135 0 -132 0 -180 8 +167 13 *
Fa
0  1e-007 10 0

0101000
+131 0 *
Ed
 1e-007 1 1 0
1  37 0 0 15.02
2  73 11 0 0 15.02
2  74 12 0 0 15.02
4 G1 11 0 12 0
0

0101000
+179 4 -166 4 *
Wi

0101000
+129 0 -154 0 -178 8 +165 13 *
Fa
0  1e-007 11 0

0101000
+128 0 *
Wi

0101000
+132 0 -129 0 -177 8 +164 13 *
Fa
0  1e-007 12 0

0101000
+126 0 *
Ve
1e-007
-20.9 -7.50999999999999 7.55
0 0

0101101
*
Ve
1e-007
-20.9 -7.51 3.85
0 0

0101101
*
Ed
 1e-007 1 1 0
1  38 0 0 3.7
2  75 13 27 0 3.7
2  76 15 35 0 3.7
0

0101000
+124 33 -123 33 *
Ve
1e-007
14.8 -7.50999999999999 7.55
0 0

0101101
*
Ed
 1e-007 1 1 0
1  39 0 0 35.7
2  77 13 27 0 35.7
2  78 16 35 0 35.7
0

0101000
+121 33 -124 33 *
Ve
1e-007
18.3 -7.51 3.85
0 0

0101101
*
Ed
 1e-007 1 1 0
1  40 0 0 39.2
2  79 13 27 0 39.2
2  80 17 35 0 39.2
0

0101000
+123 33 -119 33 *
Ve
1e-007
14.8 -7.50999999999999 6.95
0 0

0101101
*
Ed
 1e-007 1 1 0
1  41 0 0 0.600000000000001
2  81 13 27 0 0.600000000000001
2  82 18 35 0 0.600000000000001
0

0101000
+117 33 -121 33 *
Ed
 1e-007 1 1 0
1  42 0 0 0.049999999999998
2  83 13 27 0 0.049999999999998
2  84 19 35 0 0.049999999999998
0

0101000
+119 33 -174 33 *
Ve
1e-007
17.8 -7.50999999999999 6.95
0 0

0101101
*
Ed
 1e-007 1 1 0
1  43 0 0 3
2  85 13 27 0 3
2  86 20 35 0 3
0

0101000
+114 33 -117 33 *
Ed
 1e-007 1 1 0
1  44 0 0 0.6
2  87 13 27 0 0.6
2  88 14 35 0 0.6
0

0101000
+159 33 -114 33 *
Wi

0101000
-122 31 -120 31 -118 31 -116 31 -115 31 -113 31 -173 31 -112 31 -158 31 *
Fa
0  1e-007 13 38

0101000
+111 0 *
Ed
 1e-007 1 1 0
1  45 0 0 15.02
2  89 14 0 0 15.02
2  90 20 0 0 15.02
0

0101000
+141 19 -114 19 *
Wi

0101000
+157 0 -109 0 -139 39 +112 40 *
Fa
0  1e-007 14 0

0101000
+108 0 *
Ed
 1e-007 1 1 0
1  46 0 0 15.02
2  91 15 0 0 15.02
2  92 16 0 0 15.02
0

0101000
+151 19 -124 19 *
Ed
 1e-007 1 1 0
1  47 0 0 15.02
2  93 15 0 0 15.02
2  94 17 0 0 15.02
0

0101000
+150 19 -123 19 *
Wi

0101000
+106 0 -105 0 -149 39 +122 40 *
Fa
0  1e-007 15 0

0101000
+104 0 *
Ed
 1e-007 1 1 0
1  48 0 0 15.02
2  95 16 0 0 15.02
2  96 18 0 0 15.02
0

0101000
+148 19 -121 19 *
Wi

0101000
+102 0 -106 0 -147 39 +120 40 *
Fa
0  1e-007 16 0

0101000
+101 0 *
Ed
 1e-007 1 1 0
1  49 0 0 15.02
2  97 17 0 0 15.02
2  98 19 0 0 15.02
0

0101000
+146 19 -119 19 *
Wi

0101000
+105 0 -99 0 -145 39 +118 40 *
Fa
0  1e-007 17 0

0101000
+98 0 *
Ed
 1e-007 1 1 0
1  50 0 0 15.02
2  99 18 0 0 15.02
2  100 20 0 0 15.02
0

0101000
+144 19 -117 19 *
Wi

0101000
+96 0 -102 0 -143 39 +116 40 *
Fa
0  1e-007 18 0

0101000
+95 0 *
Wi

0101000
-142 25 -136 3 +115 31 +99 17 *
Fa
0  1e-007 19 17

0101000
+93 0 *
Wi

0101000
+109 0 -96 0 -140 39 +113 40 *
Fa
0  1e-007 20 0

0101000
+91 0 *
Sh

0101100
+202 3 -195 0 -188 3 +175 0 -162 0 -155 0 -152 3 +137 0 -133 0 -130 3 
-127 3 -125 3 -110 0 -107 17 -103 17 -100 17 -97 17 -94 17 -92 0 -90 17 
*
So

0100000
+89 0 *
Ve
1e-007
-25.2 7.51 0
0 0

0101101
*
Ve
1e-007
25.2 7.51 0
0 0

0101101
*
Ed
 1e-007 1 1 0
1  51 0 0 50.4
2  101 21 57 0 50.4
2  102 22 58 0 50.4
0

0101000
+87 59 -86 59 *
Ve
1e-007
-25.2 -7.51 0
0 0

0101101
*
Ed
 1e-007 1 1 0
1  52 0 0 15.02
2  103 21 57 0 15.02
2  104 23 60 0 15.02
0

0101000
+84 59 -87 59 *
Ve
1e-007
25.2 -7.51 0
0 0

0101101
*
Ed
 1e-007 1 1 0
1  53 0 0 15.02
2  105 21 57 0 15.02
2  106 24 58 0 15.02
0

0101000
+86 59 -82 59 *
Ed
 1e-007 1 1 0
1  54 0 0 50.4
2  107 21 57 0 50.4
2  108 25 58 0 50.4
0

0101000
+82 59 -84 59 *
Wi

0101000
-85 56 -83 56 -81 56 -80 56 *
Ve
1e-007
1.48 0 0
0 0

0101101
*
Ed
 1e-007 1 1 0
1  55 0 0 6.28318530717959
2  109 21 63 0 6.28318530717959
2  110 26 64 0 6.28318530717959
0

0101100
+78 65 -78 65 *
Wi

0101000
+77 62 *
Fa
0  1e-007 21 54

0101000
+79 0 +76 0 *
Ve
1e-007
-25.2 -7.51 7.6
0 0

0101101
*
Ed
 1e-007 1 1 0
1  56 0 0 7.6
2  111 23 0 0 7.6
2  112 25 67 0 7.6
0

0101000
+84 68 -74 68 *
Ve
1e-007
-25.2 7.51 7.6
0 0

0101101
*
Ed
 1e-007 1 1 0
1  57 0 0 15.02
2  113 23 72 0 15.02
2  114 27 73 0 15.02
0

0101000
+74 74 -72 74 *
Ed
 1e-007 1 1 0
1  58 0 0 7.6
2  115 23 0 0 7.6
2  116 22 67 0 7.6
0

0101000
+87 68 -72 68 *
Wi

0101000
+73 0 +71 71 -70 0 -83 75 *
Fa
0  1e-007 23 0

0101000
-69 0 *
Ve
1e-007
1.48 0 -0.51
0 0

0101101
*
Ed
 1e-007 1 1 0
1  59 0 0 0.51
3  117 118CN 26 0 0 0.51
0

0101000
+78 76 -67 76 *
Ed
 1e-007 1 1 0
1  60 0 0 6.28318530717959
2  119 26 79 0 6.28318530717959
2  120 28 80 0 6.28318530717959
0

0101100
+67 81 -67 81 *
Wi

0101000
-77 62 -66 0 +65 78 +66 0 *
Fa
0  1e-007 26 0

0101000
+64 0 *
Ve
1e-007
-21 7.51 7.6
0 0

0101101
*
Ed
 1e-007 1 1 0
1  61 0 0 4.2
2  121 27 73 0 4.2
2  122 22 83 0 4.2
0

0101000
+72 74 -62 74 *
Ve
1e-007
-21 -7.51 7.6
0 0

0101101
*
Ed
 1e-007 1 1 0
1  62 0 0 15.02
2  123 27 73 0 15.02
2  124 29 84 0 15.02
0

0101000
+62 74 -60 74 *
Ed
 1e-007 1 1 0
1  63 0 0 4.2
2  125 27 73 0 4.2
2  126 25 83 0 4.2
0

0101000
+60 74 -74 74 *
Wi

0101100
+61 0 +59 0 +58 0 +71 0 *
Fa
0  1e-007 27 0

0101000
-57 69 *
Ve
1e-007
-21 7.51 3.8
0 0

0101101
*
Ed
 1e-007 1 1 0
1  64 0 0 3.8
2  127 29 0 0 3.8
2  128 22 86 0 3.8
0

0101000
+55 87 -62 87 *
Ve
1e-007
-21 -7.51 3.8
0 0

0101101
*
Ed
 1e-007 1 1 0
1  65 0 0 15.02
2  129 29 89 0 15.02
2  130 30 91 0 15.02
0

0101000
+55 92 -53 92 *
Ed
 1e-007 1 1 0
1  66 0 0 3.8
2  131 29 0 0 3.8
2  132 25 86 0 3.8
0

0101000
+53 87 -60 87 *
Wi

0101000
+54 0 -52 88 +59 93 -51 0 *
Fa
0  1e-007 29 0

0101000
+50 0 *
Ve
1e-007
21 7.51 3.8
0 0

0101101
*
Ed
 1e-007 1 1 0
1  67 0 4.2 46.2
2  133 30 57 4.2 46.2
2  134 22 97 4.2 46.2
0

0101000
+55 98 -48 98 *
Ve
1e-007
21 -7.51 3.8
0 0

0101101
*
Ed
 1e-007 1 1 0
1  68 0 0 15.02
2  135 30 101 0 15.02
2  136 31 102 0 15.02
0

0101000
+46 103 -48 103 *
Ed
 1e-007 1 1 0
1  69 0 4.2 46.2
2  137 30 57 4.2 46.2
2  138 25 97 4.2 46.2
0

0101000
+46 98 -53 98 *
Wi

0101000
-47 96 +45 100 -44 96 +52 104 *
Fa
0  1e-007 30 95

0101000
+43 0 *
Wi

0101100
+65 0 *
Fa
0  1e-007 28 0

0101000
-41 61 *
Ve
1e-007
21 7.51 5.3
0 0

0101101
*
Ed
 1e-007 1 1 0
1  70 0 0 1.5
2  139 22 108 0 1.5
2  140 31 108 0 1.5
0

0101000
+48 109 -39 109 *
Ve
1e-007
25.2 7.51 5.3
0 0

0101101
*
Ed
 1e-007 1 1 0
1  71 0 0 4.2
2  141 22 112 0 4.2
2  142 32 113 0 4.2
0

0101000
+39 114 -37 114 *
Ed
 1e-007 1 1 0
1  72 0 -3.8 1.5
2  143 22 0 -3.8 1.5
2  144 24 0 -3.8 1.5
0

0101000
+86 115 -37 115 *
Wi

0101000
+70 66 +61 106 -54 85 +47 107 +38 94 +36 111 -35 0 -85 116 *
Fa
0  1e-007 22 0

0101000
-34 0 *
Ve
1e-007
25.2 5.31 5.3
0 0

0101101
*
Ed
 1e-007 1 1 0
1  73 0 0 2.2
2  145 32 113 0 2.2
2  146 24 112 0 2.2
0

0101000
+37 114 -32 114 *
Ve
1e-007
21 5.31 5.3
0 0

0101101
*
Ed
 1e-007 1 1 0
1  74 0 0 4.2
2  147 32 121 0 4.2
2  148 33 122 0 4.2
0

0101000
+30 123 -32 123 *
Ed
 1e-007 1 1 0
1  75 0 12.82 15.02
2  149 32 113 12.82 15.02
2  150 31 112 12.82 15.02
0

0101000
+30 114 -39 114 *
Wi

0101000
-36 118 -31 118 +29 120 -28 118 *
Fa
0  1e-007 32 117

0101000
+27 0 *
Ve
1e-007
21 5.31 7.6
0 0

0101101
*
Ed
 1e-007 1 1 0
1  76 0 0 2.3
2  151 33 0 0 2.3
2  152 31 124 0 2.3
0

0101000
+30 125 -25 125 *
Ve
1e-007
25.2 5.31 7.6
0 0

0101101
*
Ed
 1e-007 1 1 0
1  77 0 0 4.2
2  153 33 128 0 4.2
2  154 34 129 0 4.2
0

0101000
+25 130 -23 130 *
Ed
 1e-007 1 1 0
1  78 0 0 2.3
2  155 33 0 0 2.3
2  156 24 124 0 2.3
0

0101000
+32 125 -23 125 *
Wi

0101000
+24 0 -29 120 +22 127 -21 0 *
Fa
0  1e-007 33 0

0101000
+20 0 *
Ve
1e-007
25.2 -7.51 7.6
0 0

0101101
*
Ed
 1e-007 1 1 0
1  79 0 0 12.82
2  157 34 129 0 12.82
2  158 24 132 0 12.82
0

0101000
+23 130 -18 130 *
Ve
1e-007
21 -7.51 7.6
0 0

0101101
*
Ed
 1e-007 1 1 0
1  80 0 0 4.2
2  159 34 129 0 4.2
2  160 25 132 0 4.2
0

0101000
+18 130 -16 130 *
Ed
 1e-007 1 1 0
1  81 0 0 12.82
2  161 34 129 0 12.82
2  162 31 132 0 12.82
0

0101000
+16 130 -25 130 *
Wi

0101100
+22 0 +17 0 +15 0 +14 0 *
Fa
0  1e-007 34 0

0101000
-13 119 *
Ed
 1e-007 1 1 0
1  82 0 -5.3 2.3
2  163 24 0 -5.3 2.3
2  164 25 0 -5.3 2.3
0

0101000
+82 115 -18 115 *
Wi

0101000
+35 0 +31 111 +21 49 +17 133 -11 0 -81 116 *
Fa
0  1e-007 24 0

0101000
-10 0 *
Ed
 1e-007 1 1 0
1  83 0 -1.5 2.3
2  165 25 0 -1.5 2.3
2  166 31 0 -1.5 2.3
0

0101000
+46 115 -16 115 *
Wi

0101000
+11 0 +15 133 -8 0 +44 107 +51 85 +58 106 -73 66 -80 116 *
Fa
0  1e-007 25 0

0101000
-7 0 *
Wi

0101000
+8 0 +14 133 -24 49 +28 111 -38 94 -45 134 *
Fa
0  1e-007 31 0

0101000
-5 0 *
Sh

0101000
-75 50 -68 66 -63 50 +56 82 +49 85 +42 94 -40 105 -33 0 +26 49 +19 49 
+12 131 -9 0 -6 0 -4 0 *
So

0100000
+3 0 *
Co

1100000
+88 2 +2 41 *

+1 1 