DBRep_DrawableShape

CASCADE Topology V1, (c) Matra-Datavision
Locations 19
1
              1               0               0               0 
              0               1               0               0 
              0               0               1               0 
1
              1               0               0               0 
              0               1               0               0 
              0               0               1            11.4 
2  1 -1 2 -1 0
1
              1               0               0               0 
              0               1               0               0 
              0               0               1            11.4 
1
              1               0               0               0 
              0               1               0               0 
              0               0               1            11.4 
2  4 1 5 -1 0
2  5 1 4 -1 0
2  4 -1 0
2  1 -1 2 -1 5 1 4 -1 0
1
              1               0               0              -0 
              0               1               0              -0 
              0               0               1            -1.8 
2  4 1 5 -1 10 1 0
2  10 -1 5 1 4 -1 0
2  1 -1 2 -1 10 -1 5 1 4 -1 0
2  5 -1 0
2  5 -1 10 1 0
1
              1               0               0               0 
              0               1               0               0 
              0               0               1               0 
2  1 -1 16 -1 0
2  1 -1 16 -1 5 1 4 -1 0
2  1 -1 16 -1 10 -1 5 1 4 -1 0
Curve2ds 48
1 0 0 0 -1 
1 3.6200000000000001 0 0 -1 
1 36.569999999999993 0 0 -1 
1 0 0 0 -1 
1 0 0 1 0 
1 0 0 -1 0 
1 0 -1.8000000000000007 1 0 
1 0 0 -1 0 
1 3.6200000000000001 0 0 -1 
1 0 0 0 -1 
1 0 0 1 0 
1 -36.569999999999993 0 0 1 
1 0 -1.8000000000000007 1 0 
1 -36.569999999999993 0 0 1 
1 36.569999999999993 0 0 -1 
1 0 0 0 -1 
1 0 0 1 0 
1 -36.569999999999993 3.6200000000000001 1 0 
1 0 -1.8000000000000007 1 0 
1 -36.569999999999993 3.6200000000000001 1 0 
1 0 0 1 0 
1 0 3.6200000000000001 0 -1 
1 0 -1.8000000000000007 1 0 
1 0 3.6200000000000001 0 -1 
1 0 0 0 -1 
1 3.6200000000000001 0 0 -1 
1 36.569999999999993 0 0 -1 
1 -0 0 0 -1 
1 0 0 1 0 
1 -0 -0 -1 -0 
1 0 -1.8000000000000007 1 0 
1 -0 -0 -1 -0 
1 3.6200000000000001 0 0 -1 
1 -0 0 0 -1 
1 -0 0 1 0 
1 -36.569999999999993 -0 0 1 
1 0 -1.8000000000000007 1 0 
1 -36.569999999999993 -0 0 1 
1 36.569999999999993 0 0 -1 
1 0 0 0 -1 
1 -0 0 1 0 
1 -36.569999999999993 3.6200000000000001 1 0 
1 0 -1.8000000000000007 1 0 
1 -36.569999999999993 3.6200000000000001 1 0 
1 0 0 1 0 
1 0 3.6200000000000001 -0 -1 
1 0 -1.8000000000000007 1 0 
1 0 3.6200000000000001 -0 -1 
Curves 24
1 -20.055000000000003 2 0 -0 -0 -1 
1 16.51499999999999 2 0 -0 -0 -1 
1 -20.055000000000003 2 0 1 0 0 
1 -20.055000000000003 2 0 1 0 0 
1 16.51499999999999 5.6200000000000001 0 -0 -0 -1 
1 16.51499999999999 2 0 0 1 0 
1 16.51499999999999 2 0 0 1 0 
1 -20.055000000000003 5.6200000000000001 0 -0 -0 -1 
1 16.51499999999999 5.6200000000000001 0 -1 0 0 
1 16.51499999999999 5.6200000000000001 0 -1 0 0 
1 -20.055000000000003 5.6200000000000001 0 0 -1 0 
1 -20.055000000000003 5.6200000000000001 0 0 -1 0 
1 -20.055000000000003 -2 11.4 -0 0 -1 
1 16.51499999999999 -2 11.4 -0 0 -1 
1 -20.055000000000003 -2 11.4 1 -0 -0 
1 -20.055000000000003 -2 11.4 1 -0 -0 
1 16.51499999999999 -5.6200000000000001 11.4 -0 0 -1 
1 16.51499999999999 -2 11.4 -0 -1 -0 
1 16.51499999999999 -2 11.4 -0 -1 -0 
1 -20.055000000000003 -5.6200000000000001 11.4 -0 0 -1 
1 16.51499999999999 -5.6200000000000001 11.4 -1 -0 -0 
1 16.51499999999999 -5.6200000000000001 11.4 -1 -0 -0 
1 -20.055000000000003 -5.6200000000000001 11.4 -0 1 -0 
1 -20.055000000000003 -5.6200000000000001 11.4 -0 1 -0 
Polygon3D 0
PolygonOnTriangulations 0
Surfaces 12
1 -20.055000000000003 2 0 0 -1 0 1 0 0 -0 0 1 
1 -20.055000000000003 5.6200000000000001 0 -1 0 0 0 -1 0 0 0 1 
1 16.51499999999999 2 0 1 0 0 -0 1 0 0 -0 1 
1 -20.055000000000003 2 11.4 0 0 -1 -1 0 -0 0 1 0 
1 -20.055000000000003 2 11.4 0 0 -1 -1 0 -0 0 1 0 
1 16.51499999999999 5.6200000000000001 0 0 1 -0 -1 0 0 0 0 1 
1 -20.055000000000003 -2 11.4 -0 1 -0 1 0 -0 -0 0 1 
1 -20.055000000000003 -5.6200000000000001 11.4 -1 -0 -0 0 1 -0 -0 0 1 
1 16.51499999999999 -2 11.4 1 -0 -0 0 -1 0 0 0 1 
1 -20.055000000000003 -2 22.800000000000001 -0 -0 -1 -1 0 0 -0 -1 0 
1 -20.055000000000003 -2 22.800000000000001 -0 -0 -1 -1 0 0 -0 -1 0 
1 16.51499999999999 -5.6200000000000001 11.4 -0 -1 -0 -1 0 0 -0 -0 1 
Triangulations 0

TShapes 69
Ve
1e-007
-20.055 2 11.4
0 0

0101101
*
Ve
1e-007
-20.055 2 9.6
0 0

0101101
*
Ed
 1e-007 1 1 0
1  1 0 0 1.8
2  1 1 0 0 1.8
2  2 2 0 0 1.8
0

0101000
+69 3 -68 3 *
Ve
1e-007
16.515 2 11.4
0 0

0101101
*
Ve
1e-007
16.515 2 9.6
0 0

0101101
*
Ed
 1e-007 1 1 0
1  2 0 0 1.8
2  3 1 0 0 1.8
2  4 3 0 0 1.8
0

0101000
+66 3 -65 3 *
Ed
 1e-007 1 1 0
1  3 0 0 36.57
2  5 1 7 0 36.57
2  6 4 8 0 36.57
0

0101000
+69 9 -66 9 *
Ed
 1e-007 1 1 0
1  4 0 0 36.57
2  7 1 12 0 36.57
2  8 5 8 0 36.57
0

0101000
+68 13 -65 13 *
Wi

0101000
+67 0 -64 0 -63 6 +62 11 *
Fa
0  1e-007 1 0

0101000
+61 0 *
Ve
1e-007
16.515 5.62 11.4
0 0

0101101
*
Ve
1e-007
16.515 5.62 9.6
0 0

0101101
*
Ed
 1e-007 1 1 0
1  5 0 0 1.8
2  9 3 0 0 1.8
2  10 6 0 0 1.8
0

0101000
+59 3 -58 3 *
Ed
 1e-007 1 1 0
1  6 0 0 3.62
2  11 3 7 0 3.62
2  12 4 8 0 3.62
0

0101000
+66 9 -59 9 *
Ed
 1e-007 1 1 0
1  7 0 0 3.62
2  13 3 12 0 3.62
2  14 5 8 0 3.62
0

0101000
+65 13 -58 13 *
Wi

0101000
+64 0 -57 0 -56 6 +55 11 *
Fa
0  1e-007 3 0

0101000
+54 0 *
Ve
1e-007
-20.055 5.62 11.4
0 0

0101101
*
Ve
1e-007
-20.055 5.62 9.6
0 0

0101101
*
Ed
 1e-007 1 1 0
1  8 0 0 1.8
2  15 6 0 0 1.8
2  16 2 0 0 1.8
0

0101000
+52 3 -51 3 *
Ed
 1e-007 1 1 0
1  9 0 0 36.57
2  17 6 7 0 36.57
2  18 4 8 0 36.57
0

0101000
+59 9 -52 9 *
Ed
 1e-007 1 1 0
1  10 0 0 36.57
2  19 6 12 0 36.57
2  20 5 8 0 36.57
0

0101000
+58 13 -51 13 *
Wi

0101000
+57 0 -50 0 -49 6 +48 11 *
Fa
0  1e-007 6 0

0101000
+47 0 *
Ed
 1e-007 1 1 0
1  11 0 0 3.62
2  21 2 7 0 3.62
2  22 4 8 0 3.62
0

0101000
+52 9 -69 9 *
Ed
 1e-007 1 1 0
1  12 0 0 3.62
2  23 2 12 0 3.62
2  24 5 8 0 3.62
0

0101000
+51 13 -68 13 *
Wi

0101000
+50 0 -67 0 -45 6 +44 11 *
Fa
0  1e-007 2 0

0101000
+43 0 *
Wi

0101100
+63 0 +56 0 +49 0 +45 0 *
Fa
0  1e-007 4 0

0101000
-41 4 *
Wi

0101100
+62 0 +55 0 +48 0 +44 0 *
Fa
0  1e-007 5 0

0101000
-39 4 *
Sh

0101100
-60 0 -53 0 -46 0 -42 0 +40 14 -38 15 *
So

0100100
-37 0 *
Ve
1e-007
-20.055 -2 11.4
0 0

0101101
*
Ve
1e-007
-20.055 -2 9.6
0 0

0101101
*
Ed
 1e-007 1 1 0
1  13 0 0 1.8
2  25 7 0 0 1.8
2  26 8 0 0 1.8
0

0101000
+35 17 -34 17 *
Ve
1e-007
16.515 -2 11.4
0 0

0101101
*
Ve
1e-007
16.515 -2 9.6
0 0

0101101
*
Ed
 1e-007 1 1 0
1  14 0 0 1.8
2  27 7 0 0 1.8
2  28 9 0 0 1.8
0

0101000
+32 17 -31 17 *
Ed
 1e-007 1 1 0
1  15 0 0 36.57
2  29 7 7 0 36.57
2  30 10 8 0 36.57
0

0101000
+35 18 -32 18 *
Ed
 1e-007 1 1 0
1  16 0 0 36.57
2  31 7 12 0 36.57
2  32 11 8 0 36.57
0

0101000
+34 19 -31 19 *
Wi

0101000
+33 0 -30 0 -29 6 +28 11 *
Fa
0  1e-007 7 0

0101000
+27 0 *
Ve
1e-007
16.515 -5.62 11.4
0 0

0101101
*
Ve
1e-007
16.515 -5.62 9.6
0 0

0101101
*
Ed
 1e-007 1 1 0
1  17 0 0 1.8
2  33 9 0 0 1.8
2  34 12 0 0 1.8
0

0101000
+25 17 -24 17 *
Ed
 1e-007 1 1 0
1  18 0 0 3.62
2  35 9 7 0 3.62
2  36 10 8 0 3.62
0

0101000
+32 18 -25 18 *
Ed
 1e-007 1 1 0
1  19 0 0 3.62
2  37 9 12 0 3.62
2  38 11 8 0 3.62
0

0101000
+31 19 -24 19 *
Wi

0101000
+30 0 -23 0 -22 6 +21 11 *
Fa
0  1e-007 9 0

0101000
+20 0 *
Ve
1e-007
-20.055 -5.62 11.4
0 0

0101101
*
Ve
1e-007
-20.055 -5.62 9.6
0 0

0101101
*
Ed
 1e-007 1 1 0
1  20 0 0 1.8
2  39 12 0 0 1.8
2  40 8 0 0 1.8
0

0101000
+18 17 -17 17 *
Ed
 1e-007 1 1 0
1  21 0 0 36.57
2  41 12 7 0 36.57
2  42 10 8 0 36.57
0

0101000
+25 18 -18 18 *
Ed
 1e-007 1 1 0
1  22 0 0 36.57
2  43 12 12 0 36.57
2  44 11 8 0 36.57
0

0101000
+24 19 -17 19 *
Wi

0101000
+23 0 -16 0 -15 6 +14 11 *
Fa
0  1e-007 12 0

0101000
+13 0 *
Ed
 1e-007 1 1 0
1  23 0 0 3.62
2  45 8 7 0 3.62
2  46 10 8 0 3.62
0

0101000
+18 18 -35 18 *
Ed
 1e-007 1 1 0
1  24 0 0 3.62
2  47 8 12 0 3.62
2  48 11 8 0 3.62
0

0101000
+17 19 -34 19 *
Wi

0101000
+16 0 -33 0 -11 6 +10 11 *
Fa
0  1e-007 8 0

0101000
+9 0 *
Wi

0101100
+29 0 +22 0 +15 0 +11 0 *
Fa
0  1e-007 10 0

0101000
-7 4 *
Wi

0101100
+28 0 +21 0 +14 0 +10 0 *
Fa
0  1e-007 11 0

0101000
-5 4 *
Sh

0101100
+26 0 +19 0 +12 0 +8 0 -6 14 +4 15 *
So

0100100
-3 0 *
Co

1100000
+36 2 +2 16 *

+1 1 