DBRep_DrawableShape

CASCADE Topology V1, (c) Matra-Datavision
Locations 15
1
              1               0              -0               0 
             -0 2.22044604925031e-016              -1               0 
              0               1 2.22044604925031e-016               0 
2  1 -1 0
1
              1               0              -0               0 
             -0 2.22044604925031e-016              -1               0 
              0               1 2.22044604925031e-016               0 
1
              1               0               0               0 
              0 -2.22044604925031e-016              -1               0 
              0               1 -2.22044604925031e-016               0 
1
              1               0               0              -0 
              0               1               0 -1.66755498298699e-015 
              0               0               1           -7.51 
2  3 1 4 -1 5 1 0
2  5 -1 4 1 3 -1 0
2  3 -1 0
2  1 -1 5 -1 4 1 3 -1 0
1
              1               0               0               0 
              0               1               0 3.33510996597397e-015 
              0               0               1           15.02 
2  3 1 4 -1 5 1 10 1 0
2  10 -1 5 -1 4 1 3 -1 0
2  1 -1 10 -1 5 -1 4 1 3 -1 0
2  4 -1 5 1 0
2  4 -1 5 1 10 1 0
Curve2ds 48
1 0 0 2.2204460492503131e-016 -1 
1 0 0 0 -1 
1 2.9999999999999827 2.2204460492501987e-016 2.2204460492503131e-016 -1 
1 0 0 0 -1 
1 0 0 1 0 
1 0 3.5527136788005009e-015 -1 0 
1 2.8999025403209078e-015 -15.019999999999998 1 0 
1 0 3.5527136788005009e-015 -1 0 
1 0.39999999999999858 0 0 -1 
1 0 0 -2.2204460492503131e-016 -1 
1 3.5527136788005009e-015 0 1 0 
1 -2.9999999999999827 3.5527136788005009e-015 0 1 
1 3.5527136788005009e-015 -15.019999999999998 1 0 
1 -2.9999999999999827 3.5527136788005009e-015 0 1 
1 2.9999999999999827 -2.2204460492501987e-016 -2.2204460492503131e-016 -1 
1 0 0 0 -1 
1 0 0 1 0 
1 -2.9999999999999827 0.40000000000000213 1 0 
1 -2.8999025403209078e-015 -15.019999999999998 1 0 
1 -2.9999999999999827 0.40000000000000213 1 0 
1 1.5707963267948966 0 0 -1 
1 0 0 0 -1 
1 0 0 1 0 
2 0 -0.30000000000001847 0 1 1 -0 0.70000000000002416
1 0 -15.02 1 0 
2 0 -0.30000000000001847 0 1 1 -0 0.70000000000002416
1 3.1499999999999968 0 0 -1 
1 0 0 2.2204460492503131e-016 -1 
1 -3.5527136788005009e-015 0 1 0 
1 0.70000000000002327 -0.30000000000001847 0 -1 
1 -3.5527136788005009e-015 -15.019999999999998 1 0 
1 0.70000000000002327 -0.30000000000001847 0 -1 
1 0.40000000000000036 2.6645352591003781e-016 2.2204460492503131e-016 -1 
1 0 0 0 -1 
1 0 0 1 0 
1 0.70000000000002327 -3.4500000000000188 -1 0 
1 2.8999025403209078e-015 -15.019999999999998 1 0 
1 0.70000000000002327 -3.4500000000000188 -1 0 
1 3.1499999999999968 0 0 -1 
1 1.5707963267948966 0 0 -1 
1 0 -8.8817841970012523e-016 1 0 
1 0.30000000000002292 -3.4500000000000188 0 1 
1 0 -15.02 1 0 
1 0.30000000000002292 -3.4500000000000188 0 1 
1 0 0 1 0 
2 0 -0.30000000000001847 0 1 1 -0 0.30000000000002203
1 0 -15.02 1 0 
2 0 -0.30000000000001847 0 1 1 -0 0.30000000000002203
Curves 24
1 18.299999999999997 6.899999999999979 -7.5100000000000025 0 2.2204460492503131e-016 1 
1 18.299999999999997 3.8999999999999959 -7.5100000000000016 0 2.2204460492503131e-016 1 
1 18.300000000000001 6.8999999999999817 0 0 -1 0 
1 18.300000000000001 6.8999999999999817 0 0 -1 0 
1 18.699999999999996 3.8999999999999959 -7.5100000000000016 0 2.2204460492503131e-016 1 
1 18.300000000000001 3.8999999999999981 0 1 0 0 
1 18.300000000000001 3.8999999999999981 0 1 0 0 
1 18.699999999999999 6.899999999999979 -7.5100000000000025 0 2.2204460492503131e-016 1 
1 18.699999999999999 3.8999999999999981 0 0 1 0 
1 18.699999999999999 3.8999999999999981 0 0 1 0 
1 17.999999999999975 7.6000000000000023 -7.5100000000000033 0 2.2204460492503131e-016 1 
2 17.999999999999979 6.8999999999999817 0 0 0 1 1 0 -0 -0 1 0 0.70000000000002316
2 17.999999999999979 6.8999999999999817 0 0 0 1 1 0 -0 -0 1 0 0.70000000000002316
1 14.849999999999977 7.6000000000000023 -7.5100000000000033 0 2.2204460492503131e-016 1 
1 17.999999999999979 7.600000000000005 0 -1 0 0 
1 17.999999999999979 7.600000000000005 0 -1 0 0 
1 14.849999999999977 7.200000000000002 -7.5100000000000033 0 2.2204460492503131e-016 1 
1 14.849999999999978 7.600000000000005 0 0 -1 0 
1 14.849999999999978 7.600000000000005 0 0 -1 0 
1 17.999999999999975 7.200000000000002 -7.5100000000000033 0 2.2204460492503131e-016 1 
1 14.849999999999978 7.2000000000000046 0 1 0 0 
1 14.849999999999978 7.2000000000000046 0 1 0 0 
2 17.999999999999979 6.8999999999999817 0 0 0 1 1 0 -0 -0 1 0 0.30000000000002319
2 17.999999999999979 6.8999999999999817 0 0 0 1 1 0 -0 -0 1 0 0.30000000000002319
Polygon3D 0
PolygonOnTriangulations 0
Surfaces 10
1 18.299999999999997 6.899999999999979 -7.5100000000000025 1 0 -0 0 -1 4.4408920985006262e-016 0 -4.4408920985006262e-016 -1 
2 17.999999999999975 6.899999999999979 -7.5100000000000025 0 -4.4408920985006262e-016 -1 1 0 0 -0 1 -4.4408920985006262e-016 0.30000000000002314
1 18.299999999999997 3.8999999999999959 -7.5100000000000016 0 1 -2.2204460492503131e-016 1 0 0 0 -2.2204460492503131e-016 -1 
1 18.299999999999997 1.5321077739827122e-015 6.8999999999999808 0 1 -2.2204460492503136e-016 0 2.2204460492503136e-016 1 1 -0 0 
1 18.299999999999997 1.5321077739827122e-015 6.8999999999999808 0 1 -2.2204460492503136e-016 0 2.2204460492503136e-016 1 1 -0 0 
1 18.699999999999996 3.8999999999999959 -7.5100000000000016 -1 0 0 0 1 -4.4408920985006262e-016 -0 -4.4408920985006262e-016 -1 
2 17.999999999999975 6.899999999999979 -7.5100000000000025 0 -4.4408920985006262e-016 -1 1 0 0 -0 1 -4.4408920985006262e-016 0.70000000000002305
1 17.999999999999975 7.6000000000000023 -7.5100000000000033 0 -1 2.2204460492503131e-016 -1 0 0 -0 -2.2204460492503131e-016 -1 
1 14.849999999999977 7.6000000000000023 -7.5100000000000033 1 0 -0 0 -1 4.4408920985006262e-016 0 -4.4408920985006262e-016 -1 
1 14.849999999999977 7.200000000000002 -7.5100000000000033 0 1 -2.2204460492503131e-016 1 0 0 0 -2.2204460492503131e-016 -1 
Triangulations 0

TShapes 62
Ve
1e-007
18.3 7.51 6.89999999999998
0 0

0101101
*
Ve
1e-007
18.3 -7.50999999999999 6.89999999999998
0 0

0101101
*
Ed
 1e-007 1 1 0
1  1 0 0 15.02
2  1 1 0 0 15.02
2  2 2 0 0 15.02
4 G1 1 0 2 0
0

0101000
+62 2 -61 2 *
Ve
1e-007
18.3 7.51 3.89999999999999
0 0

0101101
*
Ve
1e-007
18.3 -7.51 3.9
0 0

0101101
*
Ed
 1e-007 1 1 0
1  2 0 0 15.02
2  3 1 0 0 15.02
2  4 3 0 0 15.02
0

0101000
+59 2 -58 2 *
Ed
 1e-007 1 1 0
1  3 0 0 2.99999999999998
2  5 1 7 0 2.99999999999998
2  6 4 8 0 2.99999999999998
0

0101000
+62 9 -59 9 *
Ed
 1e-007 1 1 0
1  4 0 0 2.99999999999998
2  7 1 12 0 2.99999999999998
2  8 5 8 0 2.99999999999998
0

0101000
+61 13 -58 13 *
Wi

0101000
+60 0 -57 0 -56 6 +55 11 *
Fa
0  1e-007 1 0

0101000
+54 0 *
Ve
1e-007
18.7 7.51 3.89999999999999
0 0

0101101
*
Ve
1e-007
18.7 -7.51 3.9
0 0

0101101
*
Ed
 1e-007 1 1 0
1  5 0 0 15.02
2  9 3 0 0 15.02
2  10 6 0 0 15.02
0

0101000
+52 2 -51 2 *
Ed
 1e-007 1 1 0
1  6 0 0 0.399999999999999
2  11 3 7 0 0.399999999999999
2  12 4 8 0 0.399999999999999
0

0101000
+59 9 -52 9 *
Ed
 1e-007 1 1 0
1  7 0 0 0.399999999999999
2  13 3 12 0 0.399999999999999
2  14 5 8 0 0.399999999999999
0

0101000
+58 13 -51 13 *
Wi

0101000
+57 0 -50 0 -49 6 +48 11 *
Fa
0  1e-007 3 0

0101000
+47 0 *
Ve
1.00000001776357e-007
18.7 7.51 6.89999999999998
0 0

0101101
*
Ve
1.00000001776357e-007
18.7 -7.50999999999999 6.89999999999998
0 0

0101101
*
Ed
 1.00000001776357e-007 1 1 0
1  8 0 0 15.02
2  15 6 0 0 15.02
2  16 7 0 0 15.02
4 G1 6 0 7 0
0

0101000
+45 2 -44 2 *
Ed
 1e-007 1 1 0
1  9 0 0 2.99999999999998
2  17 6 7 0 2.99999999999998
2  18 4 8 0 2.99999999999998
0

0101000
+52 9 -45 9 *
Ed
 1e-007 1 1 0
1  10 0 0 2.99999999999998
2  19 6 12 0 2.99999999999998
2  20 5 8 0 2.99999999999998
0

0101000
+51 13 -44 13 *
Wi

0101000
+50 0 -43 0 -42 6 +41 11 *
Fa
0  1e-007 6 0

0101000
+40 0 *
Ve
1e-007
18 7.51 7.6
0 0

0101101
*
Ve
1e-007
18 -7.50999999999999 7.60000000000001
0 0

0101101
*
Ed
 1e-007 1 1 0
1  11 0 0 15.02
2  21 7 0 0 15.02
2  22 8 0 0 15.02
4 G1 7 0 8 0
0

0101000
+38 2 -37 2 *
Ed
 1e-007 1 1 0
1  12 0 0 1.5707963267949
2  23 7 7 0 1.5707963267949
2  24 4 8 0 1.5707963267949
0

0101000
+45 9 -38 9 *
Ed
 1e-007 1 1 0
1  13 0 0 1.5707963267949
2  25 7 12 0 1.5707963267949
2  26 5 8 0 1.5707963267949
0

0101000
+44 13 -37 13 *
Wi

0101000
+43 0 -36 0 -35 6 +34 11 *
Fa
0  1e-007 7 0

0101000
+33 0 *
Ve
1e-007
14.85 7.51 7.6
0 0

0101101
*
Ve
1e-007
14.85 -7.50999999999999 7.60000000000001
0 0

0101101
*
Ed
 1e-007 1 1 0
1  14 0 0 15.02
2  27 8 0 0 15.02
2  28 9 0 0 15.02
0

0101000
+31 2 -30 2 *
Ed
 1e-007 1 1 0
1  15 0 0 3.15
2  29 8 7 0 3.15
2  30 4 8 0 3.15
0

0101000
+38 9 -31 9 *
Ed
 1e-007 1 1 0
1  16 0 0 3.15
2  31 8 12 0 3.15
2  32 5 8 0 3.15
0

0101000
+37 13 -30 13 *
Wi

0101000
+36 0 -29 0 -28 6 +27 11 *
Fa
0  1e-007 8 0

0101000
+26 0 *
Ve
1e-007
14.85 7.51 7.2
0 0

0101101
*
Ve
1e-007
14.85 -7.50999999999999 7.20000000000001
0 0

0101101
*
Ed
 1e-007 1 1 0
1  17 0 0 15.02
2  33 9 0 0 15.02
2  34 10 0 0 15.02
0

0101000
+24 2 -23 2 *
Ed
 1e-007 1 1 0
1  18 0 0 0.4
2  35 9 7 0 0.4
2  36 4 8 0 0.4
0

0101000
+31 9 -24 9 *
Ed
 1e-007 1 1 0
1  19 0 0 0.4
2  37 9 12 0 0.4
2  38 5 8 0 0.4
0

0101000
+30 13 -23 13 *
Wi

0101000
+29 0 -22 0 -21 6 +20 11 *
Fa
0  1e-007 9 0

0101000
+19 0 *
Ve
1e-007
18 7.51 7.2
0 0

0101101
*
Ve
1e-007
18 -7.50999999999999 7.20000000000001
0 0

0101101
*
Ed
 1e-007 1 1 0
1  20 0 0 15.02
2  39 10 0 0 15.02
2  40 2 0 0 15.02
4 G1 10 0 2 0
0

0101000
+17 2 -16 2 *
Ed
 1e-007 1 1 0
1  21 0 0 3.15
2  41 10 7 0 3.15
2  42 4 8 0 3.15
0

0101000
+24 9 -17 9 *
Ed
 1e-007 1 1 0
1  22 0 0 3.15
2  43 10 12 0 3.15
2  44 5 8 0 3.15
0

0101000
+23 13 -16 13 *
Wi

0101000
+22 0 -15 0 -14 6 +13 11 *
Fa
0  1e-007 10 0

0101000
+12 0 *
Ed
 1e-007 1 1 0
1  23 0 0 1.5707963267949
2  45 2 7 0 1.5707963267949
2  46 4 8 0 1.5707963267949
0

0101000
+62 9 -17 9 *
Ed
 1e-007 1 1 0
1  24 0 0 1.5707963267949
2  47 2 12 0 1.5707963267949
2  48 5 8 0 1.5707963267949
0

0101000
+61 13 -16 13 *
Wi

0101000
+60 0 -15 0 -10 6 +9 11 *
Fa
0  1e-007 2 0

0101000
+8 0 *
Wi

0101100
+56 0 +49 0 +42 0 +35 0 +28 0 +21 0 +14 0 -10 0 *
Fa
0  1e-007 4 0

0101000
-6 3 *
Wi

0101100
+55 0 +48 0 +41 0 +34 0 +27 0 +20 0 +13 0 -9 0 *
Fa
0  1e-007 5 0

0101000
-4 3 *
Sh

0101100
-53 0 -46 0 -39 0 -32 0 -25 0 -18 0 -11 0 +7 0 +5 14 -3 15 
*
So

1100100
+2 0 *

+1 1 