DBRep_DrawableShape

CASCADE Topology V1, (c) Matra-Datavision
Locations 150
1
              1               0               0               0 
              0               1               0               0 
              0               0               1               0 
1
              1               0               0               0 
              0               1               0               0 
              0               0               1               0 
1
              1               0               0               0 
              0               1               0               0 
              0               0               1               0 
1
              1               0               0               0 
              0               1               0               0 
              0               0               1               0 
2  2 1 3 1 4 1 0
2  4 -1 3 -1 2 -1 0
1
              1               0               0              -0 
              0               1               0               0 
              0               0               1             5.3 
1
              1               0               0               0 
              0               1               0               0 
              0               0               1               0 
1
              1               0               0               0 
              0               1               0               0 
              0               0               1             2.3 
1
              1               0               0               0 
              0               1               0               0 
              0               0               1               0 
2  7 1 8 -1 9 1 10 1 2 1 3 1 4 1 0
2  10 -1 9 -1 8 1 7 -1 0
2  7 -1 0
2  1 -1 4 -1 3 -1 2 -1 10 -1 9 -1 8 1 7 -1 0
2  1 -1 0
2  2 1 3 1 0
2  1 -1 4 -1 0
1
              1               0               0               0 
              0               1               0               0 
              0               0               1               0 
1
              1               0               0               0 
              0               1               0               0 
              0               0               1               0 
1
              1               0               0               0 
              0               1               0               0 
              0               0               1               0 
1
              1               0               0               0 
              0               1               0               0 
              0               0               1               0 
1
              1               0               0               0 
              0               1               0               0 
              0               0               1               0 
1
              1               0               0               0 
              0               1               0               0 
              0               0               1               0 
1
              1               0               0               0 
              0               1               0               0 
              0               0               1               0 
1
              1               0               0               0 
              0               1               0               0 
              0               0               1               0 
1
              1               0               0               0 
              0               1               0               0 
              0               0               1               0 
1
              1               0               0               0 
              0               1               0               0 
              0               0               1               0 
2  18 1 19 -1 20 1 21 -1 22 1 23 -1 24 1 25 1 26 -1 27 1 8 -1 10 1 2 1 3 1 4 1 0
2  10 -1 8 1 27 -1 26 1 25 -1 24 -1 23 1 22 -1 21 1 20 -1 19 1 18 -1 0
2  18 -1 0
2  1 -1 4 -1 3 -1 2 -1 10 -1 8 1 27 -1 26 1 25 -1 24 -1 23 1 22 -1 21 1 20 -1 19 1 18 -1 0
1
              1               0               0               0 
              0               1               0               0 
              0               0               1             1.5 
2  26 -1 32 1 27 1 8 -1 10 1 2 1 3 1 0
2  1 -1 4 -1 3 -1 2 -1 0
1
              1               0               0              -0 
              0               1               0               0 
              0               0               1             3.8 
2  35 1 26 -1 32 1 27 1 8 -1 10 1 2 1 3 1 4 1 0
2  10 -1 8 1 27 -1 32 -1 26 1 35 -1 0
2  35 -1 0
2  1 -1 4 -1 3 -1 2 -1 10 -1 8 1 27 -1 32 -1 26 1 35 -1 0
2  8 -1 9 1 10 1 2 1 3 1 4 1 0
2  4 -1 3 -1 2 -1 10 -1 9 -1 8 1 0
2  8 -1 9 1 10 1 2 1 3 1 0
2  9 -1 8 1 7 -1 0
2  19 -1 20 1 21 -1 22 1 23 -1 24 1 25 1 26 -1 27 1 8 -1 10 1 2 1 3 1 4 1 0
2  10 1 2 1 3 1 0
2  22 1 23 -1 24 1 25 1 26 -1 27 1 8 -1 10 1 2 1 3 1 4 1 0
2  19 -1 20 1 21 -1 0
2  4 -1 3 -1 2 -1 10 -1 8 1 27 -1 26 1 25 -1 24 -1 23 1 22 -1 0
2  24 -1 23 1 22 -1 21 1 20 -1 19 1 18 -1 0
1
              1               0               0               0 
              0              -1               0              -0 
              0               0              -1               0 
2  50 1 21 -1 0
2  19 -1 20 1 50 -1 0
2  21 1 50 -1 0
2  1 -1 4 -1 3 -1 2 -1 10 -1 8 1 27 -1 26 1 25 -1 24 -1 23 1 22 -1 21 1 50 -1 0
2  10 1 2 1 3 1 4 1 0
2  26 -1 32 1 27 1 8 -1 0
2  3 -1 2 -1 10 -1 0
2  7 1 8 -1 10 1 2 1 3 1 0
2  26 -1 32 1 27 1 7 -1 0
2  8 1 7 -1 0
2  1 -1 4 -1 3 -1 2 -1 10 -1 8 1 7 -1 0
2  35 1 26 -1 32 1 27 1 8 -1 10 1 2 1 3 1 0
1
              1               0               0              -0 
              0               1               0               0 
              0               0               1             3.8 
1
              1               0               0               0 
              0               1               0               0 
              0               0               1             3.8 
2  63 1 23 -1 64 1 24 1 25 1 26 -1 27 1 8 -1 10 1 2 1 3 1 4 1 0
2  10 -1 8 1 27 -1 26 1 25 -1 24 -1 64 -1 23 1 63 -1 0
2  63 -1 0
2  1 -1 4 -1 3 -1 2 -1 10 -1 8 1 27 -1 26 1 25 -1 24 -1 64 -1 23 1 63 -1 0
2  24 1 25 1 26 -1 27 1 8 -1 10 1 2 1 3 1 4 1 0
2  10 -1 8 1 27 -1 26 1 25 -1 24 -1 0
2  1 -1 4 -1 3 -1 2 -1 10 -1 8 1 27 -1 26 1 25 -1 24 -1 0
1
              1               0               0               0 
              0               1               0               0 
              0               0               1             3.8 
2  18 1 19 -1 72 1 20 1 21 -1 22 1 23 -1 24 1 25 1 26 -1 27 1 8 -1 10 1 2 1 3 1 4 1 0
2  10 -1 8 1 27 -1 26 1 25 -1 24 -1 23 1 22 -1 21 1 20 -1 72 -1 19 1 18 -1 0
2  1 -1 4 -1 3 -1 2 -1 10 -1 8 1 27 -1 26 1 25 -1 24 -1 23 1 22 -1 21 1 20 -1 72 -1 19 1 18 -1 0
2  27 1 8 -1 10 1 2 1 3 1 4 1 0
2  10 -1 8 1 27 -1 0
2  1 -1 4 -1 3 -1 2 -1 10 -1 8 1 27 -1 0
2  10 -1 0
2  1 -1 4 -1 3 -1 2 -1 10 -1 0
2  7 1 8 -1 9 1 10 1 2 1 3 1 0
2  7 1 8 -1 9 1 10 1 0
2  35 1 26 -1 32 1 27 1 8 -1 10 1 0
2  27 1 8 -1 10 1 0
2  35 1 26 -1 27 1 8 -1 10 1 0
2  10 -1 8 1 27 -1 26 1 35 -1 0
2  19 -1 72 1 20 1 21 -1 22 1 23 -1 24 1 25 1 35 -1 0
2  1 -1 4 -1 3 -1 2 -1 10 -1 8 1 27 -1 26 1 35 -1 0
2  25 1 26 -1 27 1 8 -1 10 1 2 1 3 1 4 1 0
2  23 -1 64 1 24 1 25 1 26 -1 27 1 8 -1 10 1 2 1 3 1 4 1 0
2  4 -1 3 -1 2 -1 10 -1 8 1 27 -1 26 1 25 -1 0
2  24 -1 64 -1 23 1 63 -1 0
2  1 -1 4 -1 3 -1 2 -1 10 -1 8 1 27 -1 26 1 25 -1 24 -1 23 1 22 -1 0
1
              1               0               0               0 
              0               1               0               0 
              0               0               1           -0.51 
2  50 1 21 -1 94 1 0
2  94 -1 21 1 50 -1 0
2  50 -1 0
2  1 -1 4 -1 3 -1 2 -1 10 -1 8 1 27 -1 26 1 25 -1 24 -1 23 1 22 -1 94 -1 21 1 50 -1 0
2  4 -1 3 -1 2 -1 10 -1 8 1 27 -1 26 1 25 -1 24 -1 64 -1 23 1 0
2  64 -1 23 1 63 -1 0
2  63 1 23 -1 0
2  23 1 63 -1 0
2  19 -1 72 1 20 1 21 -1 22 1 63 -1 0
2  1 -1 4 -1 3 -1 2 -1 10 -1 8 1 27 -1 26 1 25 -1 24 -1 23 1 63 -1 0
2  63 1 23 -1 64 1 0
2  19 -1 72 1 20 1 21 -1 22 1 23 -1 24 1 25 1 26 -1 0
2  18 1 19 -1 72 1 20 1 21 -1 22 1 23 -1 24 1 25 1 26 -1 0
2  35 1 26 -1 0
2  63 1 23 -1 24 1 25 1 26 -1 0
2  21 -1 94 1 22 1 23 -1 24 1 25 1 26 -1 27 1 8 -1 10 1 2 1 3 1 4 1 0
1
              1               0               0               0 
              0               1               0               0 
              0               0               1               0 
2  111 1 3 1 4 1 0
1
              1               0              -0               0 
             -0 2.22044604925031e-016              -1               0 
              0               1 2.22044604925031e-016               0 
2  1 -1 4 -1 3 -1 111 -1 113 -1 0
1
              1               0              -0               0 
             -0 2.22044604925031e-016              -1               0 
              0               1 2.22044604925031e-016               0 
1
              1               0               0               0 
              0 -2.22044604925031e-016              -1               0 
              0               1 -2.22044604925031e-016               0 
1
              1               0               0              -0 
              0               1               0 -1.66755498298699e-015 
              0               0               1           -7.51 
2  115 1 116 -1 117 1 0
2  117 -1 116 1 115 -1 0
2  115 -1 0
2  1 -1 4 -1 3 -1 111 -1 113 -1 117 -1 116 1 115 -1 0
1
              1               0               0               0 
              0               1               0 3.33510996597397e-015 
              0               0               1           15.02 
2  115 1 116 -1 117 1 122 1 0
2  122 -1 117 -1 116 1 115 -1 0
2  1 -1 4 -1 3 -1 111 -1 113 -1 122 -1 117 -1 116 1 115 -1 0
2  115 1 116 -1 117 1 113 1 0
1
              1               0              -0               0 
             -0 2.22044604925031e-016              -1               0 
              0               1 2.22044604925031e-016               0 
2  113 1 127 -1 0
2  1 -1 4 -1 3 -1 111 -1 127 -1 0
2  115 1 116 -1 117 1 122 1 113 1 0
2  116 -1 117 1 113 1 0
1
              1               0              -0               0 
             -0 2.22044604925031e-016              -1               0 
              0               1 2.22044604925031e-016               0 
1
              1               0               0               0 
              0 -2.22044604925031e-016              -1               0 
              0               1 -2.22044604925031e-016               0 
1
              1               0               0              -0 
              0               1               0 -1.66755498298699e-015 
              0               0               1           -7.51 
2  132 1 133 -1 134 1 127 1 0
2  116 -1 117 1 113 1 127 -1 134 -1 133 1 132 -1 0
2  132 -1 0
2  1 -1 4 -1 3 -1 111 -1 127 -1 134 -1 133 1 132 -1 0
2  116 -1 117 1 122 1 113 1 0
1
              1               0               0               0 
              0               1               0 3.33510996597397e-015 
              0               0               1           15.02 
2  132 1 133 -1 134 1 140 1 127 1 0
2  116 -1 117 1 122 1 113 1 127 -1 140 -1 134 -1 133 1 132 -1 0
2  1 -1 4 -1 3 -1 111 -1 127 -1 140 -1 134 -1 133 1 132 -1 0
2  134 -1 133 1 132 -1 0
2  140 -1 134 -1 133 1 132 -1 0
2  133 -1 134 1 127 1 0
2  127 1 113 -1 0
2  133 -1 134 1 140 1 127 1 0
2  132 1 133 -1 134 1 0
2  132 1 133 -1 134 1 140 1 0
Curve2ds 192
1 -7.5999999999999996 2.1999999999999993 0 1 
1 4.1999999999999993 0 0 -1 
1 0 14.119999999999999 -1 -0 
1 0 0 0 1 
1 -5.2999999999999998 3.0999999999999996 -1 -0 
1 1.5707963267948966 0 0 1 
1 0 -0 0 1 
1 50.399999999999999 0 0 -1 
1 -5.2999999999999998 -0 -0 1 
1 4.1999999999999993 0 0 -1 
1 -3.7999999999999998 -0 -1 -0 
1 -3.7999999999999998 50.399999999999999 -1 0 
1 -5.2999999999999998 -0 0 1 
1 4.1999999999999993 0 0 -1 
2 3.3000000000000007 -11.92 0 -1 -1 -0 0.90000000000000002
1 -4.7123889803846897 7.5999999999999996 1 0 
2 3.3000000000000007 -0.90000000000000036 0 -1 -1 -0 0.90000000000000002
1 -3.1415926535897931 2.2999999999999998 1 0 
1 4.1999999999999993 -12.82 -1 0 
1 7.5999999999999996 0 0 -1 
1 0 0 1 0 
1 0 -2.2999999999999998 1 0 
1 0 -12.82 0 1 
1 3.7999999999999998 0 0 -1 
1 -4.7123889803846897 0 1 0 
2 49.5 -14.119999999999999 0 -1 -1 -0 0.90000000000000002
1 1.5707963267948966 0 0 1 
1 0 -0.89999999999999858 1 0 
1 -3.1415926535897931 0 1 0 
2 3.3000000000000007 -3.0999999999999996 0 -1 -1 -0 0.90000000000000002
1 0 0 0 1 
1 3.3000000000000007 0 0 -1 
1 0 0 1 0 
1 0 0 0 1 
2 0.89999999999999858 -0.90000000000000036 0 -1 1 0 0.90000000000000002
1 -3.1415926535897931 0 1 0 
1 0 -15.02 0 1 
1 0 0 0 -1 
2 0.89999999999999858 -14.119999999999999 0 -1 -1 -0 0.90000000000000002
1 0 0 1 0 
1 50.399999999999999 -15.02 -1 0 
1 0 0 0 -1 
2 25.199999999999999 -7.5099999999999998 1 0 0 -1 1.48
1 0 0 1 0 
1 0 -2.1999999999999993 1 0 
1 0 0 1 0 
1 0 -15.02 0 1 
1 1.5 0 0 -1 
1 0 0 1 0 
1 -5.2999999999999998 46.200000000000003 0 1 
1 -7.5999999999999996 0 0 1 
1 0 0 1 0 
1 0 0.89999999999999858 -1 0 
1 0 0 0 1 
1 -3.7999999999999998 4.1999999999999993 -1 0 
1 0 0 0 -1 
1 -3.7999999999999998 0 0 1 
1 0 0 1 0 
1 -3.7999999999999998 46.200000000000003 -1 0 
1 0 -15.02 1 0 
1 5.2999999999999998 -4.1999999999999993 1 0 
1 1.5 0 1 0 
1 3.7999999999999998 0 0 -1 
1 50.399999999999999 -15.02 -1 0 
1 0 -49.5 1 0 
1 0 0 0 1 
1 3.7999999999999998 -46.200000000000003 1 0 
1 15.02 0 0 -1 
1 7.5999999999999996 -46.200000000000003 0 -1 
1 4.1999999999999993 -15.02 -1 0 
1 0 0 0 -1 
1 1.5 -12.82 1 0 
1 0 0 0 -1 
1 46.200000000000003 -15.02 0 1 
1 1.5707963267948966 0 0 1 
1 0 -14.119999999999999 1 0 
1 -3.1415926535897931 7.5999999999999996 1 0 
2 0.89999999999999858 -0.90000000000000036 0 -1 1 0 0.90000000000000002
1 7.5999999999999996 0 0 -1 
1 0 -15.02 0 1 
1 0 -0.90000000000000036 1 0 
1 1.5707963267948966 0 0 1 
1 0 7.5999999999999996 1 0 
2 0.89999999999999858 -14.119999999999999 0 -1 -1 -0 0.90000000000000002
1 0 0 0 -1 
1 6.2831853071795862 0 0 -1 
1 0 -0.51000000000000001 1 0 
2 -1.48 0 1 0 0 -1 1.48
1 4.1999999999999993 0 0 -1 
1 0 -3.7999999999999998 1 0 
1 0 0 1 0 
1 4.1999999999999993 0 0 -1 
1 0 0 0 -1 
1 0 0 2.2204460492503131e-016 -1 
1 1.5707963267948966 0 0 -1 
1 3.1499999999999968 0 0 -1 
1 0 0 1 0 
2 0 -0.30000000000001847 0 1 1 -0 0.30000000000002203
1 0 -15.02 1 0 
2 0 -0.30000000000001847 0 1 1 -0 0.30000000000002203
1 0 0 1 0 
1 0 3.5527136788005009e-015 -1 0 
1 0.54999999999998117 3.6637359812628912e-016 2.2204460492503131e-016 -1 
1 0 0 0 -1 
1 2.8999025403209078e-015 -15.019999999999998 1 0 
1 0 3.5527136788005009e-015 -1 0 
1 0 0 0 -1 
1 0.40000000000000036 2.6645352591003781e-016 2.2204460492503131e-016 -1 
1 0 -8.8817841970012523e-016 1 0 
1 0.30000000000002292 -3.4500000000000188 0 1 
1 0 -15.02 1 0 
1 0.30000000000002292 -3.4500000000000188 0 1 
1 -3.0499999999999807 7.1054273576010019e-015 1 0 
1 -3.6999999999999997 39.199999999999989 1 0 
1 -2.9999999999999827 3.5527136788005009e-015 0 1 
1 3.5527136788005009e-015 0 1 0 
1 0.70000000000002327 -3.4500000000000188 -1 0 
1 0 0 1 0 
1 -2.9999999999999827 0.40000000000000213 1 0 
1 0 0 1 0 
1 0.70000000000002327 -0.30000000000001847 0 -1 
1 -3.5527136788005009e-015 0 1 0 
2 0 -0.30000000000001847 0 1 1 -0 0.70000000000002416
1 0 0 1 0 
1 -3.0499999999999807 7.1054273576010019e-015 1 0 
1 -3.6999999999999997 39.199999999999989 1 0 
1 -2.9999999999999827 3.5527136788005009e-015 0 1 
1 3.5527136788005009e-015 -15.019999999999998 1 0 
1 0.70000000000002327 -3.4500000000000188 -1 0 
1 2.8999025403209078e-015 -15.019999999999998 1 0 
1 -2.9999999999999827 0.40000000000000213 1 0 
1 -2.8999025403209078e-015 -15.019999999999998 1 0 
1 0.70000000000002327 -0.30000000000001847 0 -1 
1 -3.5527136788005009e-015 -15.019999999999998 1 0 
2 0 -0.30000000000001847 0 1 1 -0 0.70000000000002416
1 0 -15.02 1 0 
1 -3.5527136788005009e-015 0 1 0 
1 -1.2000000000000002 39.199999999999989 0 -1 
1 -3.5527136788005009e-015 -15.019999999999998 1 0 
1 -1.2000000000000002 39.199999999999989 0 -1 
1 0.5 0 0 -1 
1 0 0 -2.2204460492503131e-016 -1 
1 0 0 2.2204460492503131e-016 -1 
1 3.1499999999999968 0 0 -1 
1 0 -3.5527136788005009e-015 -1 0 
1 0 0 1 0 
1 0 35.699999999999989 0 -1 
1 0 0 1 0 
1 -3.6999999999999997 -3.5527136788005009e-015 0 1 
1 -3.5527136788005009e-015 0 1 0 
1 -0.60000000000000053 35.699999999999989 1 0 
1 0 0 1 0 
1 -3.6999999999999997 39.199999999999989 1 0 
1 0 0 1 0 
1 -0.60000000000000053 38.699999999999989 0 -1 
1 -3.5527136788005009e-015 0 1 0 
1 -1.2000000000000002 38.699999999999989 1 0 
1 0 0 1 0 
1 0 0 0 -1 
1 0.049999999999998046 -3.3306690738753395e-017 -2.2204460492503131e-016 -1 
1 0.39999999999999858 0 0 -1 
1 0 0 -2.2204460492503131e-016 -1 
1 2.9999999999999827 -2.2204460492501987e-016 -2.2204460492503131e-016 -1 
1 0 0 0 -1 
1 0 0 0 -1 
1 1.5707963267948966 0 0 -1 
1 0 -3.5527136788005009e-015 -1 0 
1 2.8999025403209078e-015 -15.019999999999998 1 0 
1 0 35.699999999999989 0 -1 
1 0 -15.019999999999998 1 0 
1 -3.6999999999999997 -3.5527136788005009e-015 0 1 
1 -3.5527136788005009e-015 -15.019999999999998 1 0 
1 -0.60000000000000053 35.699999999999989 1 0 
1 -2.8999025403209078e-015 -15.019999999999998 1 0 
1 -3.6999999999999997 39.199999999999989 1 0 
1 -2.8999025403209078e-015 -15.019999999999998 1 0 
1 -0.60000000000000053 38.699999999999989 0 -1 
1 -3.5527136788005009e-015 -15.019999999999998 1 0 
1 -1.2000000000000002 38.699999999999989 1 0 
1 -2.8999025403209078e-015 -15.019999999999998 1 0 
1 0.59999999999999964 -3.9968028886505612e-016 -2.2204460492503131e-016 -1 
1 0 0 0 -1 
1 0 0 2.2204460492503131e-016 -1 
1 35.699999999999989 0 0 -1 
1 3.6999999999999997 -1.9984014443252826e-016 2.2204460492503131e-016 -1 
1 0 0 0 -1 
1 0 0 0 -1 
1 0.60000000000000053 4.8849813083506852e-016 -2.2204460492503131e-016 -1 
1 39.199999999999989 0 0 -1 
1 0 0 -2.2204460492503131e-016 -1 
1 0 0 -2.2204460492503131e-016 -1 
1 2.9999999999999964 0 0 -1 
Curves 96
1 25.199999999999999 5.3100000000000005 0 0 -1 0 
1 25.199999999999999 -6.6099999999999994 0 0 0 1 
1 25.199999999999999 4.4100000000000001 5.2999999999999998 0 0 1 
1 25.199999999999999 7.5099999999999998 0 0 -1 0 
8 2.2000000000000002 3.0999999999999996
1 25.199999999999999 7.5099999999999998 5.2999999999999998 -0 -1 0 
1 25.199999999999999 7.5099999999999998 3.7999999999999998 0 0 1 
1 25.199999999999999 7.5099999999999998 0 0 -1 0 
8 4.7123889803846897 6.2831853071795862
2 24.300000000000001 -6.6099999999999994 7.5999999999999996 -0 -0 -1 0 -1 0 -1 0 0 0.90000000000000002
8 3.1415926535897931 4.7123889803846897
2 24.300000000000001 4.4100000000000001 7.5999999999999996 -0 -0 -1 0 -1 0 -1 0 0 0.90000000000000002
1 25.199999999999999 -7.5099999999999998 0 -1 0 0 
1 21 5.3100000000000005 0 1 0 0 
1 21 -7.5099999999999998 0 0 1 0 
8 4.7123889803846897 6.2831853071795862
2 24.300000000000001 -6.6099999999999994 0 -0 -0 -1 0 -1 0 -1 0 0 0.90000000000000002
1 24.300000000000001 -7.5099999999999998 0 0 0 1 
8 3.1415926535897931 4.7123889803846897
2 24.300000000000001 4.4100000000000001 5.2999999999999998 -0 -0 -1 0 -1 0 -1 0 0 0.90000000000000002
1 24.300000000000001 5.3100000000000005 5.2999999999999998 0 0 1 
1 -25.199999999999999 7.5099999999999998 0 1 0 0 
8 3.1415926535897931 4.7123889803846897
2 -24.300000000000001 6.6099999999999994 0 0 0 1 0 -1 0 1 0 -0 0.90000000000000002
1 -25.199999999999999 -7.5099999999999998 0 0 1 0 
8 0 1.5707963267948966
2 -24.300000000000001 -6.6099999999999994 0 -0 -0 -1 0 -1 0 -1 0 0 0.90000000000000002
1 25.199999999999999 -7.5099999999999998 0 -1 0 0 
2 0 0 0 0 0 1 1 0 -0 -0 1 0 1.48
1 21 5.3100000000000005 0 1 0 0 
1 21 -7.5099999999999998 0 0 1 0 
1 21 7.5099999999999998 0 1 0 0 
1 -25.199999999999999 7.5099999999999998 0 1 0 0 
1 -24.300000000000001 7.5099999999999998 0 0 0 1 
1 -21 7.5099999999999998 3.7999999999999998 0 0 1 
1 -25.199999999999999 7.5099999999999998 0 1 0 0 
1 21 7.5099999999999998 3.7999999999999998 0 0 1 
1 21 -7.5099999999999998 5.2999999999999998 0 0 1 
1 25.199999999999999 -7.5099999999999998 0 -1 0 0 
1 -24.300000000000001 -7.5099999999999998 0 0 0 1 
1 -21 -7.5099999999999998 3.7999999999999998 0 0 1 
1 -21 -7.5099999999999998 0 -1 0 0 
1 21 5.3100000000000005 5.2999999999999998 0 0 1 
1 21 -7.5099999999999998 0 0 1 0 
1 -25.199999999999999 6.6099999999999994 0 0 0 1 
8 3.1415926535897931 4.7123889803846897
2 -24.300000000000001 6.6099999999999994 7.5999999999999996 0 0 1 0 -1 0 1 0 -0 0.90000000000000002
1 -25.199999999999999 -7.5099999999999998 0 0 1 0 
1 -25.199999999999999 -6.6099999999999994 0 0 0 1 
8 0 1.5707963267948966
2 -24.300000000000001 -6.6099999999999994 7.5999999999999996 -0 -0 -1 0 -1 0 -1 0 0 0.90000000000000002
1 1.48 0 0 0 0 -1 
2 0 0 0 0 0 1 1 0 -0 -0 1 0 1.48
1 -21 7.5099999999999998 0 0 -1 0 
1 -21 7.5099999999999998 0 0 -1 0 
1 18.299999999999997 6.899999999999979 -7.5100000000000025 0 2.2204460492503131e-016 1 
1 17.999999999999975 7.200000000000002 -7.5100000000000033 0 2.2204460492503131e-016 1 
2 17.999999999999979 6.8999999999999817 0 0 0 1 1 0 -0 -0 1 0 0.30000000000002319
2 17.999999999999979 6.8999999999999817 0 0 0 1 1 0 -0 -0 1 0 0.30000000000002319
1 18.300000000000001 6.8999999999999817 0 0 -1 0 
1 18.300000000000001 6.3499999999999979 -7.5100000000000025 0 2.2204460492503131e-016 1 
1 18.300000000000001 6.8999999999999817 0 0 -1 0 
1 14.849999999999977 7.200000000000002 -7.5100000000000033 0 2.2204460492503131e-016 1 
1 14.849999999999978 7.2000000000000046 0 1 0 0 
1 14.849999999999978 7.2000000000000046 0 1 0 0 
1 18.300000000000004 3.8500000000000001 0 0 1 0 
1 18.300000000000001 3.8999999999999981 0 1 0 0 
1 14.849999999999978 7.600000000000005 0 0 -1 0 
1 18.699999999999999 3.8999999999999981 0 0 1 0 
1 17.999999999999979 7.600000000000005 0 -1 0 0 
2 17.999999999999979 6.8999999999999817 0 0 0 1 1 0 -0 -0 1 0 0.70000000000002316
1 18.300000000000004 3.8500000000000001 0 0 1 0 
1 18.300000000000001 3.8999999999999981 0 1 0 0 
1 14.849999999999978 7.600000000000005 0 0 -1 0 
1 18.699999999999999 3.8999999999999981 0 0 1 0 
1 17.999999999999979 7.600000000000005 0 -1 0 0 
2 17.999999999999979 6.8999999999999817 0 0 0 1 1 0 -0 -0 1 0 0.70000000000002316
1 18.300000000000004 6.3500000000000005 0 -1 0 0 
1 18.300000000000004 6.3500000000000005 0 -1 0 0 
1 17.800000000000001 6.3499999999999979 -7.5100000000000025 0 2.2204460492503131e-016 1 
1 14.849999999999977 7.6000000000000023 -7.5100000000000033 0 2.2204460492503131e-016 1 
1 -20.899999999999999 7.5500000000000007 0 0 -1 0 
1 14.800000000000004 7.5500000000000007 0 -1 0 0 
1 -20.899999999999999 3.8500000000000001 0 1 0 0 
1 14.800000000000004 6.9500000000000002 0 0 1 0 
1 18.300000000000004 3.8500000000000001 0 0 1 0 
1 17.800000000000004 6.9500000000000002 0 -1 0 0 
1 17.800000000000004 6.3500000000000005 0 0 1 0 
1 18.299999999999997 3.8999999999999959 -7.5100000000000016 0 2.2204460492503131e-016 1 
1 18.699999999999996 3.8999999999999959 -7.5100000000000016 0 2.2204460492503131e-016 1 
1 18.699999999999999 6.899999999999979 -7.5100000000000025 0 2.2204460492503131e-016 1 
1 17.999999999999975 7.6000000000000023 -7.5100000000000033 0 2.2204460492503131e-016 1 
1 -20.899999999999999 7.5500000000000007 0 0 -1 0 
1 14.800000000000004 7.5500000000000007 0 -1 0 0 
1 -20.899999999999999 3.8500000000000001 0 1 0 0 
1 14.800000000000004 6.9500000000000002 0 0 1 0 
1 18.300000000000004 3.8500000000000001 0 0 1 0 
1 17.800000000000004 6.9500000000000002 0 -1 0 0 
1 17.800000000000004 6.3500000000000005 0 0 1 0 
1 17.800000000000001 6.9499999999999975 -7.5100000000000025 0 2.2204460492503131e-016 1 
1 -20.899999999999995 7.549999999999998 -7.5100000000000033 0 2.2204460492503131e-016 1 
1 -20.899999999999995 3.8499999999999979 -7.5100000000000016 0 2.2204460492503131e-016 1 
1 14.800000000000002 7.549999999999998 -7.5100000000000033 0 2.2204460492503131e-016 1 
1 18.300000000000001 3.8499999999999979 -7.5100000000000016 0 2.2204460492503131e-016 1 
1 14.800000000000002 6.9499999999999975 -7.5100000000000025 0 2.2204460492503131e-016 1 
Polygon3D 0
PolygonOnTriangulations 0
Surfaces 38
1 25.199999999999999 7.5099999999999998 0 -1 0 0 0 0 -1 -0 -1 -0 
1 21 5.3100000000000005 5.2999999999999998 -0 0 1 1 0 0 0 1 -0 
2 24.300000000000001 -6.6099999999999994 0 0 0 1 1 0 -0 0 -1 -0 0.90000000000000002
2 24.300000000000001 4.4100000000000001 5.2999999999999998 0 0 1 -0 1 0 1 0 -0 0.90000000000000002
1 -25.199999999999999 7.5099999999999998 0 -0 0 1 1 0 0 0 1 -0 
1 21 7.5099999999999998 3.7999999999999998 -0 0 1 1 0 0 0 1 -0 
1 -25.199999999999999 7.5099999999999998 0 0 -1 0 0 -0 -1 1 0 0 
1 25.199999999999999 -7.5099999999999998 0 0 1 -0 0 0 1 1 -0 0 
1 21 5.3100000000000005 5.2999999999999998 0 1 0 1 0 0 0 0 -1 
1 21 -7.5099999999999998 3.7999999999999998 1 0 0 -0 0 1 0 -1 0 
2 -24.300000000000001 6.6099999999999994 0 0 0 1 -0 1 0 -1 -0 0 0.90000000000000002
1 -25.199999999999999 -7.5099999999999998 0 1 0 0 -0 0 1 0 -1 0 
2 -24.300000000000001 -6.6099999999999994 0 0 0 1 0 -1 0 -1 -0 0 0.90000000000000002
2 0 0 0 -0 -0 1 1 0 0 0 -1 -0 1.48
1 -25.199999999999999 7.5099999999999998 3.7999999999999998 -0 0 1 1 0 0 0 1 -0 
1 -21 7.5099999999999998 3.7999999999999998 1 0 -0 0 -1 0 0 -0 -1 
1 -25.199999999999999 7.5099999999999998 0 -0 0 1 1 0 0 0 1 -0 
1 1.48 0 0 0 0 1 1 0 -0 -0 1 0 
2 17.999999999999975 6.899999999999979 -7.5100000000000025 0 -4.4408920985006262e-016 -1 1 0 0 -0 1 -4.4408920985006262e-016 0.30000000000002314
1 18.299999999999997 6.899999999999979 -7.5100000000000025 1 0 -0 0 -1 4.4408920985006262e-016 0 -4.4408920985006262e-016 -1 
1 14.849999999999977 7.200000000000002 -7.5100000000000033 0 1 -2.2204460492503131e-016 1 0 0 0 -2.2204460492503131e-016 -1 
1 18.299999999999997 1.5321077739827122e-015 6.8999999999999808 0 1 -2.2204460492503136e-016 0 2.2204460492503136e-016 1 1 -0 0 
1 18.299999999999997 1.5321077739827122e-015 6.8999999999999808 0 1 -2.2204460492503136e-016 0 2.2204460492503136e-016 1 1 -0 0 
1 18.300000000000001 6.3499999999999979 -7.5100000000000025 0 -1 2.2204460492503131e-016 -1 0 0 -0 -2.2204460492503131e-016 -1 
1 14.849999999999977 7.6000000000000023 -7.5100000000000033 1 0 -0 0 -1 4.4408920985006262e-016 0 -4.4408920985006262e-016 -1 
1 -20.899999999999995 1.6764367671839867e-015 7.5499999999999998 0 1 -2.2204460492503136e-016 0 2.2204460492503136e-016 1 1 -0 0 
1 18.299999999999997 3.8999999999999959 -7.5100000000000016 0 1 -2.2204460492503131e-016 1 0 0 0 -2.2204460492503131e-016 -1 
1 18.699999999999996 3.8999999999999959 -7.5100000000000016 -1 0 0 0 1 -4.4408920985006262e-016 -0 -4.4408920985006262e-016 -1 
1 17.999999999999975 7.6000000000000023 -7.5100000000000033 0 -1 2.2204460492503131e-016 -1 0 0 -0 -2.2204460492503131e-016 -1 
2 17.999999999999975 6.899999999999979 -7.5100000000000025 0 -4.4408920985006262e-016 -1 1 0 0 -0 1 -4.4408920985006262e-016 0.70000000000002305
1 -20.899999999999995 1.6764367671839867e-015 7.5499999999999998 0 1 -2.2204460492503136e-016 0 2.2204460492503136e-016 1 1 -0 0 
1 17.800000000000001 6.3499999999999979 -7.5100000000000025 -1 0 0 0 1 -4.4408920985006262e-016 -0 -4.4408920985006262e-016 -1 
1 -20.899999999999995 7.549999999999998 -7.5100000000000033 1 0 -0 0 -1 4.4408920985006262e-016 0 -4.4408920985006262e-016 -1 
1 14.800000000000002 7.549999999999998 -7.5100000000000033 0 -1 2.2204460492503131e-016 -1 0 0 -0 -2.2204460492503131e-016 -1 
1 -20.899999999999995 3.8499999999999979 -7.5100000000000016 0 1 -2.2204460492503131e-016 1 0 0 0 -2.2204460492503131e-016 -1 
1 14.800000000000002 6.9499999999999975 -7.5100000000000025 -1 0 0 0 1 -4.4408920985006262e-016 -0 -4.4408920985006262e-016 -1 
1 18.300000000000001 3.8499999999999979 -7.5100000000000016 -1 0 0 0 1 -4.4408920985006262e-016 -0 -4.4408920985006262e-016 -1 
1 17.800000000000001 6.9499999999999975 -7.5100000000000025 0 -1 2.2204460492503131e-016 -1 0 0 -0 -2.2204460492503131e-016 -1 
Triangulations 0

TShapes 241
Ve
1e-007
25.2 -6.61 7.6
0 0

0101101
*
Ve
1e-007
25.2 4.41 7.6
0 0

0101101
*
Ed
 1e-007 1 1 0
1  1 0 0.9 11.92
2  1 1 12 0.9 11.92
2  2 2 13 0.9 11.92
0

0101000
-241 14 +240 14 *
Ve
1e-007
25.2 -6.61 0
0 0

0101101
*
Ed
 1e-007 1 1 0
1  2 0 -0 7.6
2  3 1 5 -0 7.6
2  4 3 0 -0 7.6
4 G1 1 5 3 0
0

0101000
+238 15 -241 15 *
Ve
0.0001
25.2 4.41 5.3
0 0

0101101
*
Ed
 1e-007 1 1 0
1  3 0 -0 2.3
2  5 1 16 -0 2.3
2  6 4 0 -0 2.3
4 G1 1 16 4 0
0

0101000
+236 17 -240 17 *
Ve
1e-007
25.2 7.51 0
0 0

0101101
*
Ed
 1e-007 1 1 0
1  4 0 0 14.12
2  7 1 29 0 14.12
2  8 5 30 0 14.12
0

0101000
-238 31 +234 31 *
Ve
0.0001
25.2 5.31 5.3
0 0

0101101
*
Ed
 0.0001 1 1 0
1  5 0 2.2 3.1
2  9 1 16 2.2 3.1
2  10 6 33 2.2 3.1
0

0101000
+232 17 -236 17 *
Ve
1e-007
25.2 7.51 5.3
0 0

0101101
*
Ed
 1e-007 1 1 0
1  6 0 -3.8 1.5
2  11 1 0 -3.8 1.5
2  12 7 0 -3.8 1.5
0

0101000
+234 34 -230 34 *
Ed
 1e-007 1 1 0
1  7 0 0 2.2
2  13 1 37 0 2.2
2  14 6 38 0 2.2
0

0101000
+230 39 -232 39 *
Wi

0101100
-239 11 +237 0 -235 4 +233 28 -231 4 -229 5 -228 36 *
Fa
0  1e-007 1 0

0101000
+227 6 *
Ve
1e-007
24.3 -7.51 7.6
0 0

0101101
*
Ed
 1e-007 1 1 0
1  8 0 4.71238898038469 6.28318530717959
2  15 2 40 4.71238898038469 6.28318530717959
2  16 3 0 4.71238898038469 6.28318530717959
0

0101000
+241 15 -225 15 *
Ve
1e-007
24.3 5.31 7.6
0 0

0101101
*
Ed
 1e-007 1 1 0
1  9 0 3.14159265358979 4.71238898038469
2  17 2 42 3.14159265358979 4.71238898038469
2  18 4 0 3.14159265358979 4.71238898038469
0

0101000
+223 17 -240 17 *
Ve
1e-007
21 -7.51 7.6
0 0

0101101
*
Ed
 1e-007 1 1 0
1  10 0 0.899999999999999 4.2
2  19 2 13 0.899999999999999 4.2
2  20 8 12 0.899999999999999 4.2
0

0101000
+225 14 -221 14 *
Ve
1e-007
21 5.31 7.6
0 0

0101101
*
Ed
 1e-007 1 1 0
1  11 0 0 3.3
2  21 2 13 0 3.3
2  22 9 43 0 3.3
0

0101000
-223 14 +219 14 *
Ed
 1e-007 1 1 0
1  12 0 0 12.82
2  23 2 13 0 12.82
2  24 10 12 0 12.82
0

0101000
+221 14 -219 14 *
Wi

0101100
-239 11 -224 0 -222 4 -220 11 -218 11 -217 11 *
Fa
0  1e-007 2 0

0101000
+216 41 *
Ve
1e-007
24.3 -7.51 0
0 0

0101101
*
Ed
 1e-007 1 1 0
1  13 0 4.71238898038469 6.28318530717959
2  25 3 0 4.71238898038469 6.28318530717959
2  26 5 44 4.71238898038469 6.28318530717959
0

0101000
+238 15 -214 15 *
Ed
 1e-007 1 1 0
1  14 0 0 7.6
2  27 3 0 0 7.6
2  28 8 5 0 7.6
4 G1 3 0 8 5
0

0101000
+214 15 -225 15 *
Wi

0101100
+213 0 -237 0 +212 0 -224 0 *
Fa
0  1e-007 3 0

0101000
+211 0 *
Ve
1e-007
24.3 5.31 5.3
0 0

0101101
*
Ed
 1e-007 1 1 0
1  15 0 3.14159265358979 4.71238898038469
2  29 4 0 3.14159265358979 4.71238898038469
2  30 6 33 3.14159265358979 4.71238898038469
0

0101000
+209 17 -236 17 *
Ed
 1e-007 1 1 0
1  16 0 -0 2.3
2  31 4 0 -0 2.3
2  32 9 45 -0 2.3
4 G1 4 0 9 45
0

0101000
+209 17 -223 17 *
Wi

0101100
+208 0 -207 0 +235 0 -222 0 *
Fa
0  1e-007 4 0

0101000
+206 0 *
Ve
1e-007
-24.3 7.51 0
0 0

0101101
*
Ed
 1e-007 1 1 0
1  17 0 0.899999999999999 50.4
2  33 5 30 0.899999999999999 50.4
2  34 7 29 0.899999999999999 50.4
0

0101000
+204 31 -234 31 *
Ve
1e-007
-25.2 6.61 0
0 0

0101101
*
Ed
 1e-007 1 1 0
1  18 0 3.14159265358979 4.71238898038469
2  35 5 44 3.14159265358979 4.71238898038469
2  36 11 0 3.14159265358979 4.71238898038469
0

0101000
+204 15 -202 15 *
Ve
1e-007
-25.2 -6.61 0
0 0

0101101
*
Ed
 1e-007 1 1 0
1  19 0 0.9 14.12
2  37 5 30 0.9 14.12
2  38 12 49 0.9 14.12
0

0101000
+200 31 -202 31 *
Ve
1e-007
-24.3 -7.51 0
0 0

0101101
*
Ed
 1e-007 1 1 0
1  20 0 0 1.5707963267949
2  39 5 44 0 1.5707963267949
2  40 13 0 0 1.5707963267949
0

0101000
+198 15 -200 15 *
Ed
 1e-007 1 1 0
1  21 0 0.899999999999999 49.5
2  41 5 30 0.899999999999999 49.5
2  42 8 29 0.899999999999999 49.5
0

0101000
+214 31 -198 31 *
Wi

0101100
-203 28 +201 0 -233 28 -199 28 -213 0 -197 0 -196 28 *
Ve
1e-007
1.48 0 0
0 0

0101101
*
Ed
 1e-007 1 1 0
1  22 0 0 6.28318530717959
2  43 5 52 0 6.28318530717959
2  44 14 53 0 6.28318530717959
0

0101100
+194 54 -194 54 *
Wi

0101100
+193 51 *
Fa
0  1e-007 5 47

0101000
+195 48 +192 0 *
Ve
1e-007
21 5.31 5.3
0 0

0101101
*
Ed
 1e-007 1 1 0
1  23 0 0 3.3
2  45 6 59 0 3.3
2  46 9 60 0 3.3
0

0101000
-209 61 +190 61 *
Ve
1e-007
21 7.51 5.3
0 0

0101101
*
Ed
 1e-007 1 1 0
1  24 0 12.82 15.02
2  47 6 38 12.82 15.02
2  48 10 37 12.82 15.02
0

0101000
+190 39 -188 39 *
Ed
 1e-007 1 1 0
1  25 0 0 4.2
2  49 6 38 0 4.2
2  50 7 37 0 4.2
0

0101000
+188 39 -230 39 *
Wi

0101100
+189 58 +208 0 -187 62 -231 0 -186 62 -228 62 *
Fa
0  1e-007 6 56

0101000
+185 57 *
Ve
1e-007
-24.3 7.51 7.6
0 0

0101101
*
Ve
1e-007
-21 7.51 7.6
0 0

0101101
*
Ed
 1e-007 1 1 0
1  26 0 0.899999999999999 4.2
2  51 7 66 0.899999999999999 4.2
2  52 15 67 0.899999999999999 4.2
0

0101000
+183 68 -182 68 *
Ed
 1e-007 1 1 0
1  27 0 -0 7.6
2  53 7 5 -0 7.6
2  54 11 0 -0 7.6
4 G1 7 5 11 0
0

0101000
+204 15 -183 15 *
Ve
1e-007
-21 7.51 3.8
0 0

0101101
*
Ed
 1e-007 1 1 0
1  28 0 0 3.8
2  55 7 70 0 3.8
2  56 16 0 0 3.8
0

0101000
+179 71 -182 71 *
Ve
1e-007
21 7.51 3.8
0 0

0101101
*
Ed
 1e-007 1 1 0
1  29 0 4.2 46.2
2  57 7 74 4.2 46.2
2  58 17 30 4.2 46.2
0

0101000
+179 75 -177 75 *
Ed
 1e-007 1 1 0
1  30 0 0 1.5
2  59 7 77 0 1.5
2  60 10 77 0 1.5
0

0101000
+177 78 -188 78 *
Wi

0101100
-181 65 -180 0 +178 69 +203 28 -176 73 +229 5 -175 76 -186 36 *
Fa
0  1e-007 7 0

0101000
+174 6 *
Ve
1e-007
21 -7.51 3.8
0 0

0101101
*
Ed
 1e-007 1 1 0
1  31 0 -1.5 2.3
2  61 8 0 -1.5 2.3
2  62 10 0 -1.5 2.3
0

0101000
+172 34 -221 34 *
Ve
1e-007
-21 -7.51 3.8
0 0

0101101
*
Ed
 1e-007 1 1 0
1  32 0 4.2 46.2
2  63 8 74 4.2 46.2
2  64 17 30 4.2 46.2
0

0101000
+172 75 -170 75 *
Ve
1e-007
-24.3 -7.51 7.6
0 0

0101101
*
Ed
 1e-007 1 1 0
1  33 0 0 7.6
2  65 8 5 0 7.6
2  66 13 0 0 7.6
4 G1 8 5 13 0
0

0101000
+198 15 -168 15 *
Ve
1e-007
-21 -7.51 7.6
0 0

0101101
*
Ed
 1e-007 1 1 0
1  34 0 0 3.8
2  67 8 70 0 3.8
2  68 16 0 0 3.8
0

0101000
+170 71 -166 71 *
Ed
 1e-007 1 1 0
1  35 0 0 3.3
2  69 8 66 0 3.3
2  70 15 67 0 3.3
0

0101000
-168 68 +166 68 *
Wi

0101100
-220 11 -212 0 +171 5 +196 28 -169 73 +167 0 -165 69 -164 65 *
Fa
0  1e-007 8 0

0101000
+163 6 *
Ed
 1e-007 1 1 0
1  36 0 0 2.3
2  71 9 0 0 2.3
2  72 10 79 0 2.3
0

0101000
+190 80 -219 80 *
Wi

0101100
-189 58 -207 0 +161 45 +218 81 *
Fa
0  1e-007 9 0

0101000
+160 57 *
Ed
 1e-007 1 1 0
1  37 0 0 15.02
2  73 10 86 0 15.02
2  74 17 87 0 15.02
0

0101000
+172 88 -177 88 *
Wi

0101000
+171 0 +217 82 -161 10 +187 83 -175 84 -158 85 *
Fa
0  1e-007 10 0

0101000
-157 0 *
Ve
1e-007
-25.2 6.61 7.6
0 0

0101101
*
Ed
 1e-007 1 1 0
1  38 0 0 7.6
2  75 11 0 0 7.6
2  76 12 89 0 7.6
4 G1 11 0 12 89
0

0101000
+202 15 -155 15 *
Ed
 1e-007 1 1 0
1  39 0 3.14159265358979 4.71238898038469
2  77 11 0 3.14159265358979 4.71238898038469
2  78 15 90 3.14159265358979 4.71238898038469
0

0101000
+183 15 -155 15 *
Wi

0101100
+201 0 -180 0 +154 0 -153 0 *
Fa
0  1e-007 11 0

0101000
+152 0 *
Ve
1e-007
-25.2 -6.61 7.6
0 0

0101101
*
Ed
 1e-007 1 1 0
1  40 0 0.9 14.12
2  79 12 92 0.9 14.12
2  80 15 67 0.9 14.12
0

0101000
+150 68 -155 68 *
Ed
 1e-007 1 1 0
1  41 0 0 7.6
2  81 12 89 0 7.6
2  82 13 0 0 7.6
4 G1 12 89 13 0
0

0101000
+200 15 -150 15 *
Wi

0101100
-149 65 -148 0 +154 0 +199 28 *
Fa
0  1e-007 12 0

0101000
+147 91 *
Ed
 1e-007 1 1 0
1  42 0 0 1.5707963267949
2  83 13 0 0 1.5707963267949
2  84 15 90 0 1.5707963267949
0

0101000
+168 15 -150 15 *
Wi

0101100
+197 0 -167 0 +148 0 -145 0 *
Fa
0  1e-007 13 0

0101000
+144 0 *
Ve
1e-007
1.48 0 -0.51
0 0

0101101
*
Ed
 1e-007 1 1 0
1  43 0 0 0.51
3  85 86CN 14 0 0 0.51
0

0101000
+194 93 -142 93 *
Ed
 1e-007 1 1 0
1  44 0 0 6.28318530717959
2  87 14 96 0 6.28318530717959
2  88 18 97 0 6.28318530717959
0

0101100
+142 98 -142 98 *
Wi

0101000
-193 51 -141 0 +140 95 +141 0 *
Fa
0  1e-007 14 0

0101000
+139 0 *
Ed
 1e-007 1 1 0
1  45 0 0 15.02
2  89 15 67 0 15.02
2  90 16 100 0 15.02
0

0101000
+182 68 -166 68 *
Wi

0101100
-181 65 +153 0 -137 65 -149 65 -164 65 -145 0 *
Fa
0  1e-007 15 0

0101000
+136 99 *
Ed
 1e-007 1 1 0
1  46 0 0 15.02
2  91 16 102 0 15.02
2  92 17 103 0 15.02
0

0101000
+179 104 -170 104 *
Wi

0101000
+178 0 -134 101 +137 105 -165 0 *
Fa
0  1e-007 16 0

0101000
+133 0 *
Wi

0101000
-176 107 +158 108 -169 107 +134 109 *
Fa
0  1e-007 17 106

0101000
+131 0 *
Wi

0101100
+140 0 *
Fa
0  1e-007 18 0

0101000
-129 50 *
Sh

0101100
-226 5 +215 40 -210 0 -205 4 -191 46 +184 55 -173 5 -162 5 +159 55 -156 5 
+151 0 -146 89 -143 0 -138 46 +135 90 +132 69 +130 76 -128 110 *
So

0100000
+127 0 *
Ve
1e-007
18.3 7.51 6.89999999999998
0 0

0101101
*
Ve
1e-007
18.3 -7.50999999999999 6.89999999999998
0 0

0101101
*
Ed
 1e-007 1 1 0
1  47 0 0 15.02
2  93 19 0 0 15.02
2  94 20 0 0 15.02
4 G1 19 0 20 0
0

0101000
+125 114 -124 114 *
Ve
1e-007
18 7.51 7.2
0 0

0101101
*
Ve
1e-007
18 -7.50999999999999 7.20000000000001
0 0

0101101
*
Ed
 1e-007 1 1 0
1  48 0 0 15.02
2  95 19 0 0 15.02
2  96 21 0 0 15.02
4 G1 19 0 21 0
0

0101000
+122 114 -121 114 *
Ed
 1e-007 1 1 0
1  49 0 0 1.5707963267949
2  97 19 119 0 1.5707963267949
2  98 22 120 0 1.5707963267949
0

0101000
+125 121 -122 121 *
Ed
 1e-007 1 1 0
1  50 0 0 1.5707963267949
2  99 19 124 0 1.5707963267949
2  100 23 120 0 1.5707963267949
0

0101000
+124 125 -121 125 *
Wi

0101000
+123 0 -120 0 -119 118 +118 123 *
Fa
0  1e-007 19 0

0101000
+117 0 *
Ve
1e-007
18.3 7.51 6.35
0 0

0101101
*
Ed
 1e-007 1 1 0
1  51 0 0 0.549999999999981
2  101 20 119 0 0.549999999999981
2  102 22 120 0 0.549999999999981
0

0101000
+125 121 -115 121 *
Ve
1e-007
18.3 -7.50999999999999 6.35
0 0

0101101
*
Ed
 1e-007 1 1 0
1  52 0 0 15.02
2  103 20 128 0 15.02
2  104 24 0 0 15.02
0

0101000
+115 129 -113 129 *
Ed
 1e-007 1 1 0
1  53 0 0 0.549999999999981
2  105 20 124 0 0.549999999999981
2  106 23 120 0 0.549999999999981
0

0101000
+124 125 -113 125 *
Wi

0101000
-114 126 -112 127 +111 130 +123 113 *
Fa
0  1e-007 20 113

0101000
+110 0 *
Ve
1e-007
14.85 7.51 7.2
0 0

0101101
*
Ve
1e-007
14.85 -7.50999999999999 7.20000000000001
0 0

0101101
*
Ed
 1e-007 1 1 0
1  54 0 0 15.02
2  107 21 0 0 15.02
2  108 25 0 0 15.02
0

0101000
+108 114 -107 114 *
Ed
 1e-007 1 1 0
1  55 0 0 3.15
2  109 21 119 0 3.15
2  110 22 120 0 3.15
0

0101000
+108 121 -122 121 *
Ed
 1e-007 1 1 0
1  56 0 0 3.15
2  111 21 124 0 3.15
2  112 23 120 0 3.15
0

0101000
+107 125 -121 125 *
Wi

0101000
+106 0 -120 0 -105 118 +104 123 *
Fa
0  1e-007 21 0

0101000
+103 0 *
Ve
1e-007
18.3 7.51 3.89999999999999
0 0

0101101
*
Ed
 1e-007 1 1 0
1  57 0 0.049999999999998 2.5
2  113 22 136 0.049999999999998 2.5
2  114 26 137 0.049999999999998 2.5
0

0101000
+101 138 -115 138 *
Ve
1e-007
18.7 7.51 3.89999999999999
0 0

0101101
*
Ed
 1e-007 1 1 0
1  58 0 0 0.399999999999999
2  115 22 120 0 0.399999999999999
2  116 27 119 0 0.399999999999999
0

0101000
+101 121 -99 121 *
Ve
1e-007
14.85 7.51 7.6
0 0

0101101
*
Ed
 1e-007 1 1 0
1  59 0 0 0.4
2  117 22 120 0 0.4
2  118 25 119 0 0.4
0

0101000
+97 121 -108 121 *
Ve
1.00000001776357e-007
18.7 7.51 6.89999999999998
0 0

0101101
*
Ed
 1e-007 1 1 0
1  60 0 0 2.99999999999998
2  119 22 120 0 2.99999999999998
2  120 28 119 0 2.99999999999998
0

0101000
+99 121 -95 121 *
Ve
1e-007
18 7.51 7.6
0 0

0101101
*
Ed
 1e-007 1 1 0
1  61 0 0 3.15
2  121 22 120 0 3.15
2  122 29 119 0 3.15
0

0101000
+93 121 -97 121 *
Ed
 1e-007 1 1 0
1  62 0 0 1.5707963267949
2  123 22 120 0 1.5707963267949
2  124 30 119 0 1.5707963267949
0

0101000
+95 121 -93 121 *
Wi

0101000
-114 126 +119 126 +100 135 -105 126 -98 126 -96 126 -94 126 -92 126 -91 126 *
Fa
0  1e-007 22 131

0101000
+90 0 *
Ve
1e-007
18.3 -7.51 3.9
0 0

0101101
*
Ed
 1e-007 1 1 0
1  63 0 0.049999999999998 2.5
2  125 23 142 0.049999999999998 2.5
2  126 31 137 0.049999999999998 2.5
0

0101000
+88 143 -113 143 *
Ve
1e-007
18.7 -7.51 3.9
0 0

0101101
*
Ed
 1e-007 1 1 0
1  64 0 0 0.399999999999999
2  127 23 120 0 0.399999999999999
2  128 27 124 0 0.399999999999999
0

0101000
+88 125 -86 125 *
Ve
1e-007
14.85 -7.50999999999999 7.60000000000001
0 0

0101101
*
Ed
 1e-007 1 1 0
1  65 0 0 0.4
2  129 23 120 0 0.4
2  130 25 124 0 0.4
0

0101000
+84 125 -107 125 *
Ve
1.00000001776357e-007
18.7 -7.50999999999999 6.89999999999998
0 0

0101101
*
Ed
 1e-007 1 1 0
1  66 0 0 2.99999999999998
2  131 23 120 0 2.99999999999998
2  132 28 124 0 2.99999999999998
0

0101000
+86 125 -82 125 *
Ve
1e-007
18 -7.50999999999999 7.60000000000001
0 0

0101101
*
Ed
 1e-007 1 1 0
1  67 0 0 3.15
2  133 23 120 0 3.15
2  134 29 124 0 3.15
0

0101000
+80 125 -84 125 *
Ed
 1e-007 1 1 0
1  68 0 0 1.5707963267949
2  135 23 120 0 1.5707963267949
2  136 30 124 0 1.5707963267949
0

0101000
+82 125 -80 125 *
Wi

0101000
-111 130 +118 130 +87 141 -104 130 -85 130 -83 130 -81 130 -79 130 -78 130 *
Fa
0  1e-007 23 139

0101000
+77 0 *
Ve
1e-007
17.8 7.51 6.35
0 0

0101101
*
Ed
 1e-007 1 1 0
1  69 0 0 0.5
2  137 24 144 0 0.5
2  138 26 137 0 0.5
0

0101000
+115 138 -75 138 *
Ve
1e-007
17.8 -7.50999999999999 6.35
0 0

0101101
*
Ed
 1e-007 1 1 0
1  70 0 0 0.5
2  139 24 145 0 0.5
2  140 31 137 0 0.5
0

0101000
+113 143 -73 143 *
Ed
 1e-007 1 1 0
1  71 0 0 15.02
2  141 24 0 0 15.02
2  142 32 0 0 15.02
0

0101000
+75 129 -73 129 *
Wi

0101000
+112 127 -74 135 +72 141 -71 127 *
Fa
0  1e-007 24 127

0101000
+70 0 *
Ed
 1e-007 1 1 0
1  72 0 0 15.02
2  143 25 0 0 15.02
2  144 29 0 0 15.02
0

0101000
+97 114 -84 114 *
Wi

0101000
+68 0 -106 0 -96 118 +83 123 *
Fa
0  1e-007 25 0

0101000
+67 0 *
Ve
1e-007
-20.9 7.51 7.55
0 0

0101101
*
Ve
1e-007
-20.9 7.51 3.85
0 0

0101101
*
Ed
 1e-007 1 1 0
1  73 0 0 3.7
2  145 26 137 0 3.7
2  146 33 144 0 3.7
0

0101000
+65 138 -64 138 *
Ve
1e-007
14.8 7.51 7.55
0 0

0101101
*
Ed
 1e-007 1 1 0
1  74 0 0 35.7
2  147 26 137 0 35.7
2  148 34 144 0 35.7
0

0101000
+62 138 -65 138 *
Ve
1e-007
18.3 7.51 3.85
0 0

0101101
*
Ed
 1e-007 1 1 0
1  75 0 0 39.2
2  149 26 137 0 39.2
2  150 35 144 0 39.2
0

0101000
+64 138 -60 138 *
Ve
1e-007
14.8 7.51 6.94999999999999
0 0

0101101
*
Ed
 1e-007 1 1 0
1  76 0 0 0.600000000000001
2  151 26 137 0 0.600000000000001
2  152 36 144 0 0.600000000000001
0

0101000
+58 138 -62 138 *
Ed
 1e-007 1 1 0
1  77 0 0 0.049999999999998
2  153 26 137 0 0.049999999999998
2  154 37 144 0 0.049999999999998
0

0101000
+60 138 -101 138 *
Ve
1e-007
17.8 7.51 6.94999999999999
0 0

0101101
*
Ed
 1e-007 1 1 0
1  78 0 0 3
2  155 26 137 0 3
2  156 38 144 0 3
0

0101000
+55 138 -58 138 *
Ed
 1e-007 1 1 0
1  79 0 0 0.6
2  157 26 137 0 0.6
2  158 32 144 0 0.6
0

0101000
+75 138 -55 138 *
Wi

0101000
-63 135 -61 135 -59 135 -57 135 -56 135 -54 135 -100 135 -53 135 -74 135 *
Fa
0  1e-007 26 146

0101000
+52 0 *
Ed
 1e-007 1 1 0
1  80 0 0 15.02
2  159 27 0 0 15.02
2  160 37 147 0 15.02
0

0101000
+101 114 -88 114 *
Ed
 1e-007 1 1 0
1  81 0 0 15.02
2  161 27 0 0 15.02
2  162 28 0 0 15.02
0

0101000
+99 114 -86 114 *
Wi

0101000
+50 113 -98 126 +85 130 -49 113 *
Fa
0  1e-007 27 113

0101000
+48 0 *
Ed
 1.00000001776357e-007 1 1 0
1  82 0 0 15.02
2  163 28 0 0 15.02
2  164 30 0 0 15.02
4 G1 28 0 30 0
0

0101000
+95 114 -82 114 *
Wi

0101000
+49 0 -46 0 -94 118 +81 123 *
Fa
0  1e-007 28 0

0101000
+45 0 *
Ed
 1e-007 1 1 0
1  83 0 0 15.02
2  165 29 0 0 15.02
2  166 30 0 0 15.02
4 G1 29 0 30 0
0

0101000
+93 114 -80 114 *
Wi

0101000
+43 0 -68 0 -92 118 +79 123 *
Fa
0  1e-007 29 0

0101000
+42 0 *
Wi

0101000
+46 0 -43 0 -91 118 +78 123 *
Fa
0  1e-007 30 0

0101000
+40 0 *
Ve
1e-007
-20.9 -7.50999999999999 7.55
0 0

0101101
*
Ve
1e-007
-20.9 -7.51 3.85
0 0

0101101
*
Ed
 1e-007 1 1 0
1  84 0 0 3.7
2  167 31 137 0 3.7
2  168 33 145 0 3.7
0

0101000
+38 143 -37 143 *
Ve
1e-007
14.8 -7.50999999999999 7.55
0 0

0101101
*
Ed
 1e-007 1 1 0
1  85 0 0 35.7
2  169 31 137 0 35.7
2  170 34 145 0 35.7
0

0101000
+35 143 -38 143 *
Ve
1e-007
18.3 -7.51 3.85
0 0

0101101
*
Ed
 1e-007 1 1 0
1  86 0 0 39.2
2  171 31 137 0 39.2
2  172 35 145 0 39.2
0

0101000
+37 143 -33 143 *
Ve
1e-007
14.8 -7.50999999999999 6.95
0 0

0101101
*
Ed
 1e-007 1 1 0
1  87 0 0 0.600000000000001
2  173 31 137 0 0.600000000000001
2  174 36 145 0 0.600000000000001
0

0101000
+31 143 -35 143 *
Ed
 1e-007 1 1 0
1  88 0 0 0.049999999999998
2  175 31 137 0 0.049999999999998
2  176 37 145 0 0.049999999999998
0

0101000
+33 143 -88 143 *
Ve
1e-007
17.8 -7.50999999999999 6.95
0 0

0101101
*
Ed
 1e-007 1 1 0
1  89 0 0 3
2  177 31 137 0 3
2  178 38 145 0 3
0

0101000
+28 143 -31 143 *
Ed
 1e-007 1 1 0
1  90 0 0 0.6
2  179 31 137 0 0.6
2  180 32 145 0 0.6
0

0101000
+73 143 -28 143 *
Wi

0101000
-36 141 -34 141 -32 141 -30 141 -29 141 -27 141 -87 141 -26 141 -72 141 *
Fa
0  1e-007 31 148

0101000
+25 0 *
Ed
 1e-007 1 1 0
1  91 0 0 15.02
2  181 32 0 0 15.02
2  182 38 0 0 15.02
0

0101000
+55 129 -28 129 *
Wi

0101000
+71 0 -23 0 -53 149 +26 150 *
Fa
0  1e-007 32 0

0101000
+22 0 *
Ed
 1e-007 1 1 0
1  92 0 0 15.02
2  183 33 0 0 15.02
2  184 34 0 0 15.02
0

0101000
+65 129 -38 129 *
Ed
 1e-007 1 1 0
1  93 0 0 15.02
2  185 33 0 0 15.02
2  186 35 0 0 15.02
0

0101000
+64 129 -37 129 *
Wi

0101000
+20 0 -19 0 -63 149 +36 150 *
Fa
0  1e-007 33 0

0101000
+18 0 *
Ed
 1e-007 1 1 0
1  94 0 0 15.02
2  187 34 0 0 15.02
2  188 36 0 0 15.02
0

0101000
+62 129 -35 129 *
Wi

0101000
+16 0 -20 0 -61 149 +34 150 *
Fa
0  1e-007 34 0

0101000
+15 0 *
Ed
 1e-007 1 1 0
1  95 0 0 15.02
2  189 35 0 0 15.02
2  190 37 0 0 15.02
0

0101000
+60 129 -33 129 *
Wi

0101000
+19 0 -13 0 -59 149 +32 150 *
Fa
0  1e-007 35 0

0101000
+12 0 *
Ed
 1e-007 1 1 0
1  96 0 0 15.02
2  191 36 0 0 15.02
2  192 38 0 0 15.02
0

0101000
+58 129 -31 129 *
Wi

0101000
+10 0 -16 0 -57 149 +30 150 *
Fa
0  1e-007 36 0

0101000
+9 0 *
Wi

0101000
-56 135 -50 113 +29 141 +13 127 *
Fa
0  1e-007 37 127

0101000
+7 0 *
Wi

0101000
+23 0 -10 0 -54 149 +27 150 *
Fa
0  1e-007 38 0

0101000
+5 0 *
Sh

0101100
+116 113 -109 0 -102 113 +89 0 -76 0 -69 0 -66 113 +51 0 -47 0 -44 113 
-41 113 -39 113 -24 0 -21 127 -17 127 -14 127 -11 127 -8 127 -6 0 -4 127 
*
So

0100000
+3 0 *
Co

1100000
+126 0 +2 112 *

+1 1 