DBRep_DrawableShape

CASCADE Topology V1, (c) Matra-Datavision
Locations 134
1
              1               0               0               0 
              0               1               0               0 
              0               0               1               0 
1
              1               0               0               0 
              0               1               0               0 
              0               0               1               0 
1
              1               0               0               0 
              0               1               0               0 
              0               0               1               0 
1
              1               0               0               0 
              0               1               0               0 
              0               0               1               0 
1
              1               0               0               0 
              0               1               0               0 
              0               0               1               0 
1
              1               0               0               0 
              0               1               0               0 
              0               0               1               0 
1
              1               0               0               0 
              0               1               0               0 
              0               0               1               0 
1
              1               0               0               0 
              0               1               0               0 
              0               0               1               0 
1
              1               0               0               0 
              0               1               0               0 
              0               0               1               0 
1
              1               0               0               0 
              0               1               0               0 
              0               0               1               0 
2  3 1 4 -1 5 1 6 1 7 -1 8 1 9 -1 10 1 0
1
              1               0               0               0 
              0               1               0               0 
              0               0               1               0 
1
              1               0               0               0 
              0               1               0               0 
              0               0               1               0 
1
              1               0               0               0 
              0               1               0               0 
              0               0               1               0 
2  12 -1 13 1 14 -1 0
1
              1               0               0               0 
              0               1               0               0 
              0               0               1               0 
2  16 1 12 -1 13 1 14 -1 0
2  16 -1 0
2  10 -1 9 1 8 -1 7 1 6 -1 5 -1 4 1 3 -1 14 1 13 -1 12 1 16 -1 0
2  1 -1 2 -1 10 -1 9 1 8 -1 7 1 6 -1 5 -1 4 1 3 -1 14 1 13 -1 12 1 16 -1 0
2  5 -1 4 1 3 -1 14 1 13 -1 12 1 16 -1 0
1
              1               0               0               0 
              0              -1               0              -0 
              0               0              -1               0 
2  22 1 14 -1 0
2  12 -1 13 1 22 -1 0
2  14 1 22 -1 0
2  1 -1 2 -1 10 -1 9 1 8 -1 7 1 6 -1 5 -1 4 1 3 -1 14 1 22 -1 0
2  6 1 7 -1 8 1 9 -1 10 1 0
2  10 -1 9 1 8 -1 7 1 6 -1 0
2  1 -1 2 -1 10 -1 9 1 8 -1 7 1 6 -1 0
1
              1               0               0              -0 
              0               1               0               0 
              0               0               1             3.8 
1
              1               0               0               0 
              0               1               0               0 
              0               0               1             3.8 
2  30 1 4 -1 31 1 5 1 0
2  5 -1 31 -1 4 1 30 -1 0
2  30 -1 0
2  1 -1 2 -1 10 -1 9 1 8 -1 7 1 6 -1 5 -1 31 -1 4 1 30 -1 0
2  16 1 12 -1 13 1 14 -1 3 1 4 -1 5 1 0
2  1 -1 2 -1 10 -1 9 1 8 -1 7 1 6 -1 5 -1 4 1 3 -1 0
1
              1               0               0               0 
              0               1               0               0 
              0               0               1           -0.51 
2  22 1 14 -1 38 1 0
2  38 -1 14 1 22 -1 0
2  22 -1 0
2  1 -1 2 -1 10 -1 9 1 8 -1 7 1 6 -1 5 -1 4 1 3 -1 38 -1 14 1 22 -1 0
2  4 -1 31 1 5 1 6 1 7 -1 8 1 9 -1 10 1 0
2  10 -1 9 1 8 -1 7 1 6 -1 5 -1 31 -1 4 1 30 -1 0
2  31 -1 4 1 30 -1 0
2  5 1 6 1 7 -1 8 1 9 -1 10 1 0
2  10 -1 9 1 8 -1 7 1 6 -1 5 -1 0
2  1 -1 2 -1 10 -1 9 1 8 -1 7 1 6 -1 5 -1 0
2  30 1 4 -1 0
2  4 1 30 -1 0
1
              1               0               0               0 
              0               1               0               0 
              0               0               1             3.8 
2  12 -1 51 1 13 1 14 -1 3 1 30 -1 0
2  1 -1 2 -1 10 -1 9 1 8 -1 7 1 6 -1 5 -1 4 1 30 -1 0
2  30 1 4 -1 31 1 0
2  8 1 9 -1 10 1 0
2  12 -1 51 1 13 1 14 -1 3 1 4 -1 5 1 6 1 7 -1 0
2  16 1 12 -1 51 1 13 1 14 -1 3 1 4 -1 5 1 6 1 7 -1 0
2  10 -1 9 1 8 -1 7 1 6 -1 5 -1 4 1 3 -1 14 1 13 -1 51 -1 12 1 16 -1 0
2  1 -1 2 -1 10 -1 9 1 8 -1 7 1 6 -1 5 -1 4 1 3 -1 14 1 13 -1 51 -1 12 1 16 -1 0
1
              1               0               0              -0 
              0               1               0               0 
              0               0               1             3.8 
2  60 1 7 -1 0
2  12 -1 51 1 13 1 14 -1 3 1 4 -1 5 1 6 1 60 -1 0
2  10 -1 9 1 8 -1 7 1 60 -1 0
2  1 -1 2 -1 10 -1 9 1 8 -1 7 1 60 -1 0
2  30 1 4 -1 5 1 6 1 7 -1 0
2  14 -1 38 1 3 1 4 -1 5 1 6 1 7 -1 8 1 9 -1 10 1 0
2  30 1 4 -1 31 1 5 1 6 1 7 -1 8 1 9 -1 10 1 0
2  16 1 12 -1 51 1 13 1 14 -1 3 1 4 -1 5 1 6 1 7 -1 8 1 9 -1 10 1 0
2  10 -1 9 1 8 -1 0
2  1 -1 2 -1 10 -1 9 1 8 -1 0
1
              1               0               0               0 
              0               1               0               0 
              0               0               1             1.5 
2  60 1 7 -1 71 1 8 1 9 -1 10 1 0
2  10 -1 9 1 8 -1 71 -1 7 1 60 -1 0
2  60 -1 0
2  1 -1 2 -1 10 -1 9 1 8 -1 71 -1 7 1 60 -1 0
2  1 -1 2 -1 0
2  16 1 12 -1 13 1 14 -1 3 1 4 -1 5 1 6 1 7 -1 8 1 9 -1 10 1 0
2  7 -1 71 1 8 1 9 -1 0
2  60 1 7 -1 71 1 8 1 9 -1 0
1
              1               0               0              -0 
              0               1               0               0 
              0               0               1             5.3 
2  80 1 9 -1 0
2  7 -1 71 1 8 1 80 -1 0
2  9 1 80 -1 0
2  1 -1 2 -1 10 -1 9 1 80 -1 0
2  10 -1 0
2  1 -1 2 -1 10 -1 0
1
              1               0               0               0 
              0               1               0               0 
              0               0               1             2.3 
2  80 1 9 -1 87 1 0
2  87 -1 9 1 80 -1 0
2  80 -1 0
2  1 -1 2 -1 10 -1 87 -1 9 1 80 -1 0
2  9 -1 87 1 10 1 0
2  10 -1 87 -1 9 1 80 -1 0
2  80 1 9 -1 87 1 10 1 0
2  60 1 7 -1 8 1 9 -1 10 1 0
1
              1               0               0               0 
              0               1               0               0 
              0               0               1               0 
1
              1               0              -0               0 
             -0 2.22044604925031e-016              -1               0 
              0               1 2.22044604925031e-016               0 
2  1 -1 96 -1 97 -1 0
1
              1               0              -0               0 
             -0 2.22044604925031e-016              -1               0 
              0               1 2.22044604925031e-016               0 
1
              1               0               0               0 
              0 -2.22044604925031e-016              -1               0 
              0               1 -2.22044604925031e-016               0 
1
              1               0               0              -0 
              0               1               0 -1.66755498298699e-015 
              0               0               1           -7.51 
2  99 1 100 -1 101 1 0
2  101 -1 100 1 99 -1 0
2  99 -1 0
2  1 -1 96 -1 97 -1 101 -1 100 1 99 -1 0
1
              1               0               0               0 
              0               1               0 3.33510996597397e-015 
              0               0               1           15.02 
2  99 1 100 -1 101 1 106 1 0
2  106 -1 101 -1 100 1 99 -1 0
2  1 -1 96 -1 97 -1 106 -1 101 -1 100 1 99 -1 0
2  99 1 100 -1 101 1 97 1 0
1
              1               0              -0               0 
             -0 2.22044604925031e-016              -1               0 
              0               1 2.22044604925031e-016               0 
2  97 1 111 -1 0
2  1 -1 96 -1 111 -1 0
2  99 1 100 -1 101 1 106 1 97 1 0
2  100 -1 101 1 97 1 0
1
              1               0              -0               0 
             -0 2.22044604925031e-016              -1               0 
              0               1 2.22044604925031e-016               0 
1
              1               0               0               0 
              0 -2.22044604925031e-016              -1               0 
              0               1 -2.22044604925031e-016               0 
1
              1               0               0              -0 
              0               1               0 -1.66755498298699e-015 
              0               0               1           -7.51 
2  116 1 117 -1 118 1 111 1 0
2  100 -1 101 1 97 1 111 -1 118 -1 117 1 116 -1 0
2  116 -1 0
2  1 -1 96 -1 111 -1 118 -1 117 1 116 -1 0
2  100 -1 101 1 106 1 97 1 0
1
              1               0               0               0 
              0               1               0 3.33510996597397e-015 
              0               0               1           15.02 
2  116 1 117 -1 118 1 124 1 111 1 0
2  100 -1 101 1 106 1 97 1 111 -1 124 -1 118 -1 117 1 116 -1 0
2  1 -1 96 -1 111 -1 124 -1 118 -1 117 1 116 -1 0
2  118 -1 117 1 116 -1 0
2  124 -1 118 -1 117 1 116 -1 0
2  117 -1 118 1 111 1 0
2  111 1 97 -1 0
2  117 -1 118 1 124 1 111 1 0
2  116 1 117 -1 118 1 0
2  116 1 117 -1 118 1 124 1 0
Curve2ds 166
1 0 0 1 0 
1 0 0 0 1 
1 0 -15.02 0 1 
1 0 0 0 -1 
1 50.399999999999999 0 0 -1 
1 0 -0 0 1 
1 50.399999999999999 -15.02 -1 0 
1 0 0 0 -1 
2 25.199999999999999 -7.5099999999999998 1 0 0 -1 1.48
1 0 0 1 0 
1 0 0 1 0 
1 0 -50.399999999999999 1 0 
1 7.5999999999999996 0 0 -1 
1 0 -15.02 0 1 
1 0 -15.02 1 0 
1 0 0 -1 0 
1 0 0 0 -1 
1 6.2831853071795862 0 0 -1 
1 0 -0.51000000000000001 1 0 
2 -1.48 0 1 0 0 -1 1.48
1 0 0 1 0 
1 -7.5999999999999996 0 0 1 
1 4.1999999999999993 0 0 -1 
1 0 -3.7999999999999998 1 0 
1 4.1999999999999993 -15.02 -1 0 
1 7.5999999999999996 -46.200000000000003 0 -1 
1 0 0 0 -1 
1 -3.7999999999999998 4.1999999999999993 -1 0 
1 0 0 1 0 
1 4.1999999999999993 0 0 -1 
1 15.02 0 0 -1 
1 3.7999999999999998 -46.200000000000003 1 0 
1 0 0 1 0 
1 -3.7999999999999998 0 0 1 
1 46.200000000000003 -15.02 0 1 
1 0 0 0 -1 
1 50.399999999999999 -15.02 -1 0 
1 3.7999999999999998 0 0 -1 
1 -3.7999999999999998 46.200000000000003 -1 0 
1 0 -15.02 1 0 
1 -5.2999999999999998 46.200000000000003 0 1 
1 0 0 1 0 
1 -3.7999999999999998 50.399999999999999 -1 0 
1 -3.7999999999999998 -0 -1 -0 
1 4.1999999999999993 0 0 -1 
1 -5.2999999999999998 -0 0 1 
1 0 -2.1999999999999993 1 0 
1 0 0 1 0 
1 0 -15.02 0 1 
1 1.5 0 0 -1 
1 0 0 0 -1 
1 1.5 -12.82 1 0 
1 0 -2.2999999999999998 1 0 
1 0 0 1 0 
1 4.1999999999999993 0 0 -1 
1 -5.2999999999999998 2.1999999999999993 -1 -0 
1 4.1999999999999993 0 0 -1 
1 -7.5999999999999996 2.1999999999999993 0 1 
1 4.1999999999999993 -12.82 -1 0 
1 7.5999999999999996 0 0 -1 
1 0 -12.82 0 1 
1 3.7999999999999998 0 0 -1 
1 -5.2999999999999998 15.02 -1 -0 
1 5.2999999999999998 0 1 0 
1 5.2999999999999998 -4.1999999999999993 1 0 
1 1.5 0 1 0 
1 0 0 0 -1 
1 0 0 2.2204460492503131e-016 -1 
1 1.5707963267948966 0 0 -1 
1 3.1499999999999968 0 0 -1 
1 0 0 1 0 
2 0 -0.30000000000001847 0 1 1 -0 0.30000000000002203
1 0 -15.02 1 0 
2 0 -0.30000000000001847 0 1 1 -0 0.30000000000002203
1 0 0 1 0 
1 0 3.5527136788005009e-015 -1 0 
1 0.54999999999998117 3.6637359812628912e-016 2.2204460492503131e-016 -1 
1 0 0 0 -1 
1 2.8999025403209078e-015 -15.019999999999998 1 0 
1 0 3.5527136788005009e-015 -1 0 
1 0 0 0 -1 
1 0.40000000000000036 2.6645352591003781e-016 2.2204460492503131e-016 -1 
1 0 -8.8817841970012523e-016 1 0 
1 0.30000000000002292 -3.4500000000000188 0 1 
1 0 -15.02 1 0 
1 0.30000000000002292 -3.4500000000000188 0 1 
1 -3.0499999999999807 7.1054273576010019e-015 1 0 
1 -3.6999999999999997 39.199999999999989 1 0 
1 -2.9999999999999827 3.5527136788005009e-015 0 1 
1 3.5527136788005009e-015 0 1 0 
1 0.70000000000002327 -3.4500000000000188 -1 0 
1 0 0 1 0 
1 -2.9999999999999827 0.40000000000000213 1 0 
1 0 0 1 0 
1 0.70000000000002327 -0.30000000000001847 0 -1 
1 -3.5527136788005009e-015 0 1 0 
2 0 -0.30000000000001847 0 1 1 -0 0.70000000000002416
1 0 0 1 0 
1 -3.0499999999999807 7.1054273576010019e-015 1 0 
1 -3.6999999999999997 39.199999999999989 1 0 
1 -2.9999999999999827 3.5527136788005009e-015 0 1 
1 3.5527136788005009e-015 -15.019999999999998 1 0 
1 0.70000000000002327 -3.4500000000000188 -1 0 
1 2.8999025403209078e-015 -15.019999999999998 1 0 
1 -2.9999999999999827 0.40000000000000213 1 0 
1 -2.8999025403209078e-015 -15.019999999999998 1 0 
1 0.70000000000002327 -0.30000000000001847 0 -1 
1 -3.5527136788005009e-015 -15.019999999999998 1 0 
2 0 -0.30000000000001847 0 1 1 -0 0.70000000000002416
1 0 -15.02 1 0 
1 -3.5527136788005009e-015 0 1 0 
1 -1.2000000000000002 39.199999999999989 0 -1 
1 -3.5527136788005009e-015 -15.019999999999998 1 0 
1 -1.2000000000000002 39.199999999999989 0 -1 
1 0.5 0 0 -1 
1 0 0 -2.2204460492503131e-016 -1 
1 0 0 2.2204460492503131e-016 -1 
1 3.1499999999999968 0 0 -1 
1 0 -3.5527136788005009e-015 -1 0 
1 0 0 1 0 
1 0 35.699999999999989 0 -1 
1 0 0 1 0 
1 -3.6999999999999997 -3.5527136788005009e-015 0 1 
1 -3.5527136788005009e-015 0 1 0 
1 -0.60000000000000053 35.699999999999989 1 0 
1 0 0 1 0 
1 -3.6999999999999997 39.199999999999989 1 0 
1 0 0 1 0 
1 -0.60000000000000053 38.699999999999989 0 -1 
1 -3.5527136788005009e-015 0 1 0 
1 -1.2000000000000002 38.699999999999989 1 0 
1 0 0 1 0 
1 0 0 0 -1 
1 0.049999999999998046 -3.3306690738753395e-017 -2.2204460492503131e-016 -1 
1 0.39999999999999858 0 0 -1 
1 0 0 -2.2204460492503131e-016 -1 
1 2.9999999999999827 -2.2204460492501987e-016 -2.2204460492503131e-016 -1 
1 0 0 0 -1 
1 0 0 0 -1 
1 1.5707963267948966 0 0 -1 
1 0 -3.5527136788005009e-015 -1 0 
1 2.8999025403209078e-015 -15.019999999999998 1 0 
1 0 35.699999999999989 0 -1 
1 0 -15.019999999999998 1 0 
1 -3.6999999999999997 -3.5527136788005009e-015 0 1 
1 -3.5527136788005009e-015 -15.019999999999998 1 0 
1 -0.60000000000000053 35.699999999999989 1 0 
1 -2.8999025403209078e-015 -15.019999999999998 1 0 
1 -3.6999999999999997 39.199999999999989 1 0 
1 -2.8999025403209078e-015 -15.019999999999998 1 0 
1 -0.60000000000000053 38.699999999999989 0 -1 
1 -3.5527136788005009e-015 -15.019999999999998 1 0 
1 -1.2000000000000002 38.699999999999989 1 0 
1 -2.8999025403209078e-015 -15.019999999999998 1 0 
1 0.59999999999999964 -3.9968028886505612e-016 -2.2204460492503131e-016 -1 
1 0 0 0 -1 
1 0 0 2.2204460492503131e-016 -1 
1 35.699999999999989 0 0 -1 
1 3.6999999999999997 -1.9984014443252826e-016 2.2204460492503131e-016 -1 
1 0 0 0 -1 
1 0 0 0 -1 
1 0.60000000000000053 4.8849813083506852e-016 -2.2204460492503131e-016 -1 
1 39.199999999999989 0 0 -1 
1 0 0 -2.2204460492503131e-016 -1 
1 0 0 -2.2204460492503131e-016 -1 
1 2.9999999999999964 0 0 -1 
Curves 83
1 -25.199999999999999 7.5099999999999998 0 1 0 0 
1 -25.199999999999999 -7.5099999999999998 0 0 1 0 
1 25.199999999999999 7.5099999999999998 0 0 -1 0 
1 25.199999999999999 -7.5099999999999998 0 -1 0 0 
2 0 0 0 0 0 1 1 0 -0 -0 1 0 1.48
1 -25.199999999999999 -7.5099999999999998 0 0 0 1 
1 -25.199999999999999 -7.5099999999999998 0 0 1 0 
1 -25.199999999999999 7.5099999999999998 0 0 0 1 
1 1.48 0 0 0 0 -1 
2 0 0 0 0 0 1 1 0 -0 -0 1 0 1.48
1 -25.199999999999999 7.5099999999999998 0 1 0 0 
1 -21 7.5099999999999998 0 0 -1 0 
1 -21 -7.5099999999999998 0 -1 0 0 
1 -21 7.5099999999999998 3.7999999999999998 0 0 1 
1 -21 7.5099999999999998 0 0 -1 0 
1 -21 -7.5099999999999998 3.7999999999999998 0 0 1 
1 -25.199999999999999 7.5099999999999998 0 1 0 0 
1 21 -7.5099999999999998 0 0 1 0 
1 25.199999999999999 -7.5099999999999998 0 -1 0 0 
1 21 7.5099999999999998 3.7999999999999998 0 0 1 
1 21 7.5099999999999998 0 1 0 0 
1 25.199999999999999 7.5099999999999998 3.7999999999999998 0 0 1 
1 25.199999999999999 7.5099999999999998 0 0 -1 0 
1 21 5.3100000000000005 0 1 0 0 
1 21 -7.5099999999999998 0 0 1 0 
1 21 5.3100000000000005 5.2999999999999998 0 0 1 
1 21 5.3100000000000005 0 1 0 0 
1 25.199999999999999 5.3100000000000005 5.2999999999999998 0 0 1 
1 25.199999999999999 5.3100000000000005 0 0 -1 0 
1 25.199999999999999 -7.5099999999999998 0 -1 0 0 
1 21 -7.5099999999999998 0 0 1 0 
1 25.199999999999999 -7.5099999999999998 5.2999999999999998 0 0 1 
1 21 -7.5099999999999998 5.2999999999999998 0 0 1 
1 18.299999999999997 6.899999999999979 -7.5100000000000025 0 2.2204460492503131e-016 1 
1 17.999999999999975 7.200000000000002 -7.5100000000000033 0 2.2204460492503131e-016 1 
2 17.999999999999979 6.8999999999999817 0 0 0 1 1 0 -0 -0 1 0 0.30000000000002319
2 17.999999999999979 6.8999999999999817 0 0 0 1 1 0 -0 -0 1 0 0.30000000000002319
1 18.300000000000001 6.8999999999999817 0 0 -1 0 
1 18.300000000000001 6.3499999999999979 -7.5100000000000025 0 2.2204460492503131e-016 1 
1 18.300000000000001 6.8999999999999817 0 0 -1 0 
1 14.849999999999977 7.200000000000002 -7.5100000000000033 0 2.2204460492503131e-016 1 
1 14.849999999999978 7.2000000000000046 0 1 0 0 
1 14.849999999999978 7.2000000000000046 0 1 0 0 
1 18.300000000000004 3.8500000000000001 0 0 1 0 
1 18.300000000000001 3.8999999999999981 0 1 0 0 
1 14.849999999999978 7.600000000000005 0 0 -1 0 
1 18.699999999999999 3.8999999999999981 0 0 1 0 
1 17.999999999999979 7.600000000000005 0 -1 0 0 
2 17.999999999999979 6.8999999999999817 0 0 0 1 1 0 -0 -0 1 0 0.70000000000002316
1 18.300000000000004 3.8500000000000001 0 0 1 0 
1 18.300000000000001 3.8999999999999981 0 1 0 0 
1 14.849999999999978 7.600000000000005 0 0 -1 0 
1 18.699999999999999 3.8999999999999981 0 0 1 0 
1 17.999999999999979 7.600000000000005 0 -1 0 0 
2 17.999999999999979 6.8999999999999817 0 0 0 1 1 0 -0 -0 1 0 0.70000000000002316
1 18.300000000000004 6.3500000000000005 0 -1 0 0 
1 18.300000000000004 6.3500000000000005 0 -1 0 0 
1 17.800000000000001 6.3499999999999979 -7.5100000000000025 0 2.2204460492503131e-016 1 
1 14.849999999999977 7.6000000000000023 -7.5100000000000033 0 2.2204460492503131e-016 1 
1 -20.899999999999999 7.5500000000000007 0 0 -1 0 
1 14.800000000000004 7.5500000000000007 0 -1 0 0 
1 -20.899999999999999 3.8500000000000001 0 1 0 0 
1 14.800000000000004 6.9500000000000002 0 0 1 0 
1 18.300000000000004 3.8500000000000001 0 0 1 0 
1 17.800000000000004 6.9500000000000002 0 -1 0 0 
1 17.800000000000004 6.3500000000000005 0 0 1 0 
1 18.299999999999997 3.8999999999999959 -7.5100000000000016 0 2.2204460492503131e-016 1 
1 18.699999999999996 3.8999999999999959 -7.5100000000000016 0 2.2204460492503131e-016 1 
1 18.699999999999999 6.899999999999979 -7.5100000000000025 0 2.2204460492503131e-016 1 
1 17.999999999999975 7.6000000000000023 -7.5100000000000033 0 2.2204460492503131e-016 1 
1 -20.899999999999999 7.5500000000000007 0 0 -1 0 
1 14.800000000000004 7.5500000000000007 0 -1 0 0 
1 -20.899999999999999 3.8500000000000001 0 1 0 0 
1 14.800000000000004 6.9500000000000002 0 0 1 0 
1 18.300000000000004 3.8500000000000001 0 0 1 0 
1 17.800000000000004 6.9500000000000002 0 -1 0 0 
1 17.800000000000004 6.3500000000000005 0 0 1 0 
1 17.800000000000001 6.9499999999999975 -7.5100000000000025 0 2.2204460492503131e-016 1 
1 -20.899999999999995 7.549999999999998 -7.5100000000000033 0 2.2204460492503131e-016 1 
1 -20.899999999999995 3.8499999999999979 -7.5100000000000016 0 2.2204460492503131e-016 1 
1 14.800000000000002 7.549999999999998 -7.5100000000000033 0 2.2204460492503131e-016 1 
1 18.300000000000001 3.8499999999999979 -7.5100000000000016 0 2.2204460492503131e-016 1 
1 14.800000000000002 6.9499999999999975 -7.5100000000000025 0 2.2204460492503131e-016 1 
Polygon3D 0
PolygonOnTriangulations 0
Surfaces 34
1 -25.199999999999999 7.5099999999999998 0 -0 0 1 1 0 0 0 1 -0 
1 -25.199999999999999 7.5099999999999998 0 0 -1 0 0 -0 -1 1 0 0 
1 -25.199999999999999 -7.5099999999999998 0 1 0 0 -0 0 1 0 -1 0 
1 25.199999999999999 7.5099999999999998 0 -1 0 0 0 0 -1 -0 -1 -0 
1 25.199999999999999 -7.5099999999999998 0 0 1 -0 0 0 1 1 -0 0 
2 0 0 0 -0 -0 1 1 0 0 0 -1 -0 1.48
1 -25.199999999999999 7.5099999999999998 3.7999999999999998 -0 0 1 1 0 0 0 1 -0 
1 1.48 0 0 0 0 1 1 0 -0 -0 1 0 
1 -21 7.5099999999999998 3.7999999999999998 1 0 -0 0 -1 0 0 -0 -1 
1 -25.199999999999999 7.5099999999999998 0 -0 0 1 1 0 0 0 1 -0 
1 21 -7.5099999999999998 3.7999999999999998 1 0 0 -0 0 1 0 -1 0 
1 21 7.5099999999999998 3.7999999999999998 -0 0 1 1 0 0 0 1 -0 
1 21 5.3100000000000005 5.2999999999999998 0 1 0 1 0 0 0 0 -1 
1 21 5.3100000000000005 5.2999999999999998 -0 0 1 1 0 0 0 1 -0 
2 17.999999999999975 6.899999999999979 -7.5100000000000025 0 -4.4408920985006262e-016 -1 1 0 0 -0 1 -4.4408920985006262e-016 0.30000000000002314
1 18.299999999999997 6.899999999999979 -7.5100000000000025 1 0 -0 0 -1 4.4408920985006262e-016 0 -4.4408920985006262e-016 -1 
1 14.849999999999977 7.200000000000002 -7.5100000000000033 0 1 -2.2204460492503131e-016 1 0 0 0 -2.2204460492503131e-016 -1 
1 18.299999999999997 1.5321077739827122e-015 6.8999999999999808 0 1 -2.2204460492503136e-016 0 2.2204460492503136e-016 1 1 -0 0 
1 18.299999999999997 1.5321077739827122e-015 6.8999999999999808 0 1 -2.2204460492503136e-016 0 2.2204460492503136e-016 1 1 -0 0 
1 18.300000000000001 6.3499999999999979 -7.5100000000000025 0 -1 2.2204460492503131e-016 -1 0 0 -0 -2.2204460492503131e-016 -1 
1 14.849999999999977 7.6000000000000023 -7.5100000000000033 1 0 -0 0 -1 4.4408920985006262e-016 0 -4.4408920985006262e-016 -1 
1 -20.899999999999995 1.6764367671839867e-015 7.5499999999999998 0 1 -2.2204460492503136e-016 0 2.2204460492503136e-016 1 1 -0 0 
1 18.299999999999997 3.8999999999999959 -7.5100000000000016 0 1 -2.2204460492503131e-016 1 0 0 0 -2.2204460492503131e-016 -1 
1 18.699999999999996 3.8999999999999959 -7.5100000000000016 -1 0 0 0 1 -4.4408920985006262e-016 -0 -4.4408920985006262e-016 -1 
1 17.999999999999975 7.6000000000000023 -7.5100000000000033 0 -1 2.2204460492503131e-016 -1 0 0 -0 -2.2204460492503131e-016 -1 
2 17.999999999999975 6.899999999999979 -7.5100000000000025 0 -4.4408920985006262e-016 -1 1 0 0 -0 1 -4.4408920985006262e-016 0.70000000000002305
1 -20.899999999999995 1.6764367671839867e-015 7.5499999999999998 0 1 -2.2204460492503136e-016 0 2.2204460492503136e-016 1 1 -0 0 
1 17.800000000000001 6.3499999999999979 -7.5100000000000025 -1 0 0 0 1 -4.4408920985006262e-016 -0 -4.4408920985006262e-016 -1 
1 -20.899999999999995 7.549999999999998 -7.5100000000000033 1 0 -0 0 -1 4.4408920985006262e-016 0 -4.4408920985006262e-016 -1 
1 14.800000000000002 7.549999999999998 -7.5100000000000033 0 -1 2.2204460492503131e-016 -1 0 0 -0 -2.2204460492503131e-016 -1 
1 -20.899999999999995 3.8499999999999979 -7.5100000000000016 0 1 -2.2204460492503131e-016 1 0 0 0 -2.2204460492503131e-016 -1 
1 14.800000000000002 6.9499999999999975 -7.5100000000000025 -1 0 0 0 1 -4.4408920985006262e-016 -0 -4.4408920985006262e-016 -1 
1 18.300000000000001 3.8499999999999979 -7.5100000000000016 -1 0 0 0 1 -4.4408920985006262e-016 -0 -4.4408920985006262e-016 -1 
1 17.800000000000001 6.9499999999999975 -7.5100000000000025 0 -1 2.2204460492503131e-016 -1 0 0 -0 -2.2204460492503131e-016 -1 
Triangulations 0

TShapes 211
Ve
1e-007
-25.2 7.51 0
0 0

0101101
*
Ve
1e-007
25.2 7.51 0
0 0

0101101
*
Ed
 1e-007 1 1 0
1  1 0 0 50.4
2  1 1 18 0 50.4
2  2 2 19 0 50.4
0

0101000
+211 20 -210 20 *
Ve
1e-007
-25.2 -7.51 0
0 0

0101101
*
Ed
 1e-007 1 1 0
1  2 0 0 15.02
2  3 1 18 0 15.02
2  4 3 21 0 15.02
0

0101000
+208 20 -211 20 *
Ve
1e-007
25.2 -7.51 0
0 0

0101101
*
Ed
 1e-007 1 1 0
1  3 0 0 15.02
2  5 1 18 0 15.02
2  6 4 19 0 15.02
0

0101000
+210 20 -206 20 *
Ed
 1e-007 1 1 0
1  4 0 0 50.4
2  7 1 18 0 50.4
2  8 5 19 0 50.4
0

0101000
+206 20 -208 20 *
Wi

0101000
-209 17 -207 17 -205 17 -204 17 *
Ve
1e-007
1.48 0 0
0 0

0101101
*
Ed
 1e-007 1 1 0
1  5 0 0 6.28318530717959
2  9 1 24 0 6.28318530717959
2  10 6 25 0 6.28318530717959
0

0101100
+202 26 -202 26 *
Wi

0101100
+201 23 *
Fa
0  1e-007 1 15

0101000
+203 0 +200 0 *
Ve
1e-007
-25.2 -7.51 7.6
0 0

0101101
*
Ed
 1e-007 1 1 0
1  6 0 0 7.6
2  11 3 0 0 7.6
2  12 5 28 0 7.6
0

0101000
+208 29 -198 29 *
Ve
1e-007
-25.2 7.51 7.6
0 0

0101101
*
Ed
 1e-007 1 1 0
1  7 0 0 15.02
2  13 3 33 0 15.02
2  14 7 34 0 15.02
0

0101000
+198 35 -196 35 *
Ed
 1e-007 1 1 0
1  8 0 0 7.6
2  15 3 0 0 7.6
2  16 2 28 0 7.6
0

0101000
+211 29 -196 29 *
Wi

0101000
+197 0 +195 32 -194 0 -207 36 *
Fa
0  1e-007 3 0

0101000
-193 0 *
Ve
1e-007
1.48 0 -0.51
0 0

0101101
*
Ed
 1e-007 1 1 0
1  9 0 0 0.51
3  17 18CN 6 0 0 0.51
0

0101000
+202 37 -191 37 *
Ed
 1e-007 1 1 0
1  10 0 0 6.28318530717959
2  19 6 40 0 6.28318530717959
2  20 8 41 0 6.28318530717959
0

0101100
+191 42 -191 42 *
Wi

0101000
-201 23 -190 0 +189 39 +190 0 *
Fa
0  1e-007 6 0

0101000
+188 0 *
Ve
1e-007
-21 7.51 7.6
0 0

0101101
*
Ed
 1e-007 1 1 0
1  11 0 0 4.2
2  21 7 34 0 4.2
2  22 2 44 0 4.2
0

0101000
+196 35 -186 35 *
Ve
1e-007
-21 -7.51 7.6
0 0

0101101
*
Ed
 1e-007 1 1 0
1  12 0 0 15.02
2  23 7 34 0 15.02
2  24 9 45 0 15.02
0

0101000
+186 35 -184 35 *
Ed
 1e-007 1 1 0
1  13 0 0 4.2
2  25 7 34 0 4.2
2  26 5 44 0 4.2
0

0101000
+184 35 -198 35 *
Wi

0101100
+185 0 +183 0 +182 0 +195 0 *
Fa
0  1e-007 7 0

0101000
-181 30 *
Ve
1e-007
-21 7.51 3.8
0 0

0101101
*
Ed
 1e-007 1 1 0
1  14 0 0 3.8
2  27 9 0 0 3.8
2  28 2 47 0 3.8
0

0101000
+179 48 -186 48 *
Ve
1e-007
-21 -7.51 3.8
0 0

0101101
*
Ed
 1e-007 1 1 0
1  15 0 0 15.02
2  29 9 50 0 15.02
2  30 10 52 0 15.02
0

0101000
+179 53 -177 53 *
Ed
 1e-007 1 1 0
1  16 0 0 3.8
2  31 9 0 0 3.8
2  32 5 47 0 3.8
0

0101000
+177 48 -184 48 *
Wi

0101000
+178 0 -176 49 +183 54 -175 0 *
Fa
0  1e-007 9 0

0101000
+174 0 *
Ve
1e-007
21 7.51 3.8
0 0

0101101
*
Ed
 1e-007 1 1 0
1  17 0 4.2 46.2
2  33 10 18 4.2 46.2
2  34 2 58 4.2 46.2
0

0101000
+179 59 -172 59 *
Ve
1e-007
21 -7.51 3.8
0 0

0101101
*
Ed
 1e-007 1 1 0
1  18 0 0 15.02
2  35 10 62 0 15.02
2  36 11 63 0 15.02
0

0101000
+170 64 -172 64 *
Ed
 1e-007 1 1 0
1  19 0 4.2 46.2
2  37 10 18 4.2 46.2
2  38 5 58 4.2 46.2
0

0101000
+170 59 -177 59 *
Wi

0101000
-171 57 +169 61 -168 57 +176 65 *
Fa
0  1e-007 10 56

0101000
+167 0 *
Wi

0101100
+189 0 *
Fa
0  1e-007 8 0

0101000
-165 22 *
Ve
1e-007
21 7.51 5.3
0 0

0101101
*
Ed
 1e-007 1 1 0
1  20 0 0 1.5
2  39 2 69 0 1.5
2  40 11 69 0 1.5
0

0101000
+172 70 -163 70 *
Ve
1e-007
25.2 7.51 5.3
0 0

0101101
*
Ed
 1e-007 1 1 0
1  21 0 0 4.2
2  41 2 73 0 4.2
2  42 12 74 0 4.2
0

0101000
+163 75 -161 75 *
Ed
 1e-007 1 1 0
1  22 0 -3.8 1.5
2  43 2 0 -3.8 1.5
2  44 4 0 -3.8 1.5
0

0101000
+210 76 -161 76 *
Wi

0101000
+194 27 +185 67 -178 46 +171 68 +162 55 +160 72 -159 0 -209 77 *
Fa
0  1e-007 2 0

0101000
-158 0 *
Ve
0.0001
25.2 5.31 5.3
0 0

0101101
*
Ed
 1e-007 1 1 0
1  23 0 0 2.2
2  45 12 74 0 2.2
2  46 4 73 0 2.2
0

0101000
+161 75 -156 75 *
Ve
1e-007
21 5.31 5.3
0 0

0101101
*
Ed
 1e-007 1 1 0
1  24 0 0 4.2
2  47 12 82 0 4.2
2  48 13 83 0 4.2
0

0101000
+154 84 -156 84 *
Ed
 1e-007 1 1 0
1  25 0 12.82 15.02
2  49 12 74 12.82 15.02
2  50 11 73 12.82 15.02
0

0101000
+154 75 -163 75 *
Wi

0101000
-160 79 -155 79 +153 81 -152 79 *
Fa
0  1e-007 12 78

0101000
+151 0 *
Ve
1e-007
21 5.31 7.6
0 0

0101101
*
Ed
 1e-007 1 1 0
1  26 0 0 2.3
2  51 13 0 0 2.3
2  52 11 85 0 2.3
0

0101000
+154 86 -149 86 *
Ve
1e-007
25.2 5.31 7.6
0 0

0101101
*
Ed
 1e-007 1 1 0
1  27 0 0 4.2
2  53 13 89 0 4.2
2  54 14 90 0 4.2
0

0101000
+149 91 -147 91 *
Ed
 1e-007 1 1 0
1  28 0 0 2.3
2  55 13 0 0 2.3
2  56 4 85 0 2.3
0

0101000
+156 86 -147 86 *
Wi

0101000
+148 0 -153 81 +146 88 -145 0 *
Fa
0  1e-007 13 0

0101000
+144 0 *
Ve
1e-007
25.2 -7.51 7.6
0 0

0101101
*
Ed
 1e-007 1 1 0
1  29 0 0 12.82
2  57 14 90 0 12.82
2  58 4 93 0 12.82
0

0101000
+147 91 -142 91 *
Ve
1e-007
21 -7.51 7.6
0 0

0101101
*
Ed
 1e-007 1 1 0
1  30 0 0 4.2
2  59 14 90 0 4.2
2  60 5 93 0 4.2
0

0101000
+142 91 -140 91 *
Ed
 1e-007 1 1 0
1  31 0 0 12.82
2  61 14 90 0 12.82
2  62 11 93 0 12.82
0

0101000
+140 91 -149 91 *
Wi

0101100
+146 0 +141 0 +139 0 +138 0 *
Fa
0  1e-007 14 0

0101000
-137 80 *
Ed
 1e-007 1 1 0
1  32 0 -5.3 2.3
2  63 4 0 -5.3 2.3
2  64 5 0 -5.3 2.3
0

0101000
+206 76 -142 76 *
Wi

0101000
+159 0 +155 72 +145 10 +141 94 -135 0 -205 77 *
Fa
0  1e-007 4 0

0101000
-134 0 *
Ed
 1e-007 1 1 0
1  33 0 -1.5 2.3
2  65 5 0 -1.5 2.3
2  66 11 0 -1.5 2.3
0

0101000
+170 76 -140 76 *
Wi

0101000
+135 0 +139 94 -132 0 +168 68 +175 46 +182 67 -197 27 -204 77 *
Fa
0  1e-007 5 0

0101000
-131 0 *
Wi

0101000
+132 0 +138 94 -148 10 +152 72 -162 55 -169 95 *
Fa
0  1e-007 11 0

0101000
-129 0 *
Sh

0101000
-199 11 -192 27 -187 11 +180 43 +173 46 +166 55 -164 66 -157 0 +150 10 +143 10 
+136 92 -133 0 -130 0 -128 0 *
So

0100000
+127 0 *
Ve
1e-007
18.3 7.51 6.89999999999998
0 0

0101101
*
Ve
1e-007
18.3 -7.50999999999999 6.89999999999998
0 0

0101101
*
Ed
 1e-007 1 1 0
1  34 0 0 15.02
2  67 15 0 0 15.02
2  68 16 0 0 15.02
4 G1 15 0 16 0
0

0101000
+125 98 -124 98 *
Ve
1e-007
18 7.51 7.2
0 0

0101101
*
Ve
1e-007
18 -7.50999999999999 7.20000000000001
0 0

0101101
*
Ed
 1e-007 1 1 0
1  35 0 0 15.02
2  69 15 0 0 15.02
2  70 17 0 0 15.02
4 G1 15 0 17 0
0

0101000
+122 98 -121 98 *
Ed
 1e-007 1 1 0
1  36 0 0 1.5707963267949
2  71 15 103 0 1.5707963267949
2  72 18 104 0 1.5707963267949
0

0101000
+125 105 -122 105 *
Ed
 1e-007 1 1 0
1  37 0 0 1.5707963267949
2  73 15 108 0 1.5707963267949
2  74 19 104 0 1.5707963267949
0

0101000
+124 109 -121 109 *
Wi

0101000
+123 0 -120 0 -119 102 +118 107 *
Fa
0  1e-007 15 0

0101000
+117 0 *
Ve
1e-007
18.3 7.51 6.35
0 0

0101101
*
Ed
 1e-007 1 1 0
1  38 0 0 0.549999999999981
2  75 16 103 0 0.549999999999981
2  76 18 104 0 0.549999999999981
0

0101000
+125 105 -115 105 *
Ve
1e-007
18.3 -7.50999999999999 6.35
0 0

0101101
*
Ed
 1e-007 1 1 0
1  39 0 0 15.02
2  77 16 112 0 15.02
2  78 20 0 0 15.02
0

0101000
+115 113 -113 113 *
Ed
 1e-007 1 1 0
1  40 0 0 0.549999999999981
2  79 16 108 0 0.549999999999981
2  80 19 104 0 0.549999999999981
0

0101000
+124 109 -113 109 *
Wi

0101000
-114 110 -112 111 +111 114 +123 97 *
Fa
0  1e-007 16 97

0101000
+110 0 *
Ve
1e-007
14.85 7.51 7.2
0 0

0101101
*
Ve
1e-007
14.85 -7.50999999999999 7.20000000000001
0 0

0101101
*
Ed
 1e-007 1 1 0
1  41 0 0 15.02
2  81 17 0 0 15.02
2  82 21 0 0 15.02
0

0101000
+108 98 -107 98 *
Ed
 1e-007 1 1 0
1  42 0 0 3.15
2  83 17 103 0 3.15
2  84 18 104 0 3.15
0

0101000
+108 105 -122 105 *
Ed
 1e-007 1 1 0
1  43 0 0 3.15
2  85 17 108 0 3.15
2  86 19 104 0 3.15
0

0101000
+107 109 -121 109 *
Wi

0101000
+106 0 -120 0 -105 102 +104 107 *
Fa
0  1e-007 17 0

0101000
+103 0 *
Ve
1e-007
18.3 7.51 3.89999999999999
0 0

0101101
*
Ed
 1e-007 1 1 0
1  44 0 0.049999999999998 2.5
2  87 18 120 0.049999999999998 2.5
2  88 22 121 0.049999999999998 2.5
0

0101000
+101 122 -115 122 *
Ve
1e-007
18.7 7.51 3.89999999999999
0 0

0101101
*
Ed
 1e-007 1 1 0
1  45 0 0 0.399999999999999
2  89 18 104 0 0.399999999999999
2  90 23 103 0 0.399999999999999
0

0101000
+101 105 -99 105 *
Ve
1e-007
14.85 7.51 7.6
0 0

0101101
*
Ed
 1e-007 1 1 0
1  46 0 0 0.4
2  91 18 104 0 0.4
2  92 21 103 0 0.4
0

0101000
+97 105 -108 105 *
Ve
1.00000001776357e-007
18.7 7.51 6.89999999999998
0 0

0101101
*
Ed
 1e-007 1 1 0
1  47 0 0 2.99999999999998
2  93 18 104 0 2.99999999999998
2  94 24 103 0 2.99999999999998
0

0101000
+99 105 -95 105 *
Ve
1e-007
18 7.51 7.6
0 0

0101101
*
Ed
 1e-007 1 1 0
1  48 0 0 3.15
2  95 18 104 0 3.15
2  96 25 103 0 3.15
0

0101000
+93 105 -97 105 *
Ed
 1e-007 1 1 0
1  49 0 0 1.5707963267949
2  97 18 104 0 1.5707963267949
2  98 26 103 0 1.5707963267949
0

0101000
+95 105 -93 105 *
Wi

0101000
-114 110 +119 110 +100 119 -105 110 -98 110 -96 110 -94 110 -92 110 -91 110 *
Fa
0  1e-007 18 115

0101000
+90 0 *
Ve
1e-007
18.3 -7.51 3.9
0 0

0101101
*
Ed
 1e-007 1 1 0
1  50 0 0.049999999999998 2.5
2  99 19 126 0.049999999999998 2.5
2  100 27 121 0.049999999999998 2.5
0

0101000
+88 127 -113 127 *
Ve
1e-007
18.7 -7.51 3.9
0 0

0101101
*
Ed
 1e-007 1 1 0
1  51 0 0 0.399999999999999
2  101 19 104 0 0.399999999999999
2  102 23 108 0 0.399999999999999
0

0101000
+88 109 -86 109 *
Ve
1e-007
14.85 -7.50999999999999 7.60000000000001
0 0

0101101
*
Ed
 1e-007 1 1 0
1  52 0 0 0.4
2  103 19 104 0 0.4
2  104 21 108 0 0.4
0

0101000
+84 109 -107 109 *
Ve
1.00000001776357e-007
18.7 -7.50999999999999 6.89999999999998
0 0

0101101
*
Ed
 1e-007 1 1 0
1  53 0 0 2.99999999999998
2  105 19 104 0 2.99999999999998
2  106 24 108 0 2.99999999999998
0

0101000
+86 109 -82 109 *
Ve
1e-007
18 -7.50999999999999 7.60000000000001
0 0

0101101
*
Ed
 1e-007 1 1 0
1  54 0 0 3.15
2  107 19 104 0 3.15
2  108 25 108 0 3.15
0

0101000
+80 109 -84 109 *
Ed
 1e-007 1 1 0
1  55 0 0 1.5707963267949
2  109 19 104 0 1.5707963267949
2  110 26 108 0 1.5707963267949
0

0101000
+82 109 -80 109 *
Wi

0101000
-111 114 +118 114 +87 125 -104 114 -85 114 -83 114 -81 114 -79 114 -78 114 *
Fa
0  1e-007 19 123

0101000
+77 0 *
Ve
1e-007
17.8 7.51 6.35
0 0

0101101
*
Ed
 1e-007 1 1 0
1  56 0 0 0.5
2  111 20 128 0 0.5
2  112 22 121 0 0.5
0

0101000
+115 122 -75 122 *
Ve
1e-007
17.8 -7.50999999999999 6.35
0 0

0101101
*
Ed
 1e-007 1 1 0
1  57 0 0 0.5
2  113 20 129 0 0.5
2  114 27 121 0 0.5
0

0101000
+113 127 -73 127 *
Ed
 1e-007 1 1 0
1  58 0 0 15.02
2  115 20 0 0 15.02
2  116 28 0 0 15.02
0

0101000
+75 113 -73 113 *
Wi

0101000
+112 111 -74 119 +72 125 -71 111 *
Fa
0  1e-007 20 111

0101000
+70 0 *
Ed
 1e-007 1 1 0
1  59 0 0 15.02
2  117 21 0 0 15.02
2  118 25 0 0 15.02
0

0101000
+97 98 -84 98 *
Wi

0101000
+68 0 -106 0 -96 102 +83 107 *
Fa
0  1e-007 21 0

0101000
+67 0 *
Ve
1e-007
-20.9 7.51 7.55
0 0

0101101
*
Ve
1e-007
-20.9 7.51 3.85
0 0

0101101
*
Ed
 1e-007 1 1 0
1  60 0 0 3.7
2  119 22 121 0 3.7
2  120 29 128 0 3.7
0

0101000
+65 122 -64 122 *
Ve
1e-007
14.8 7.51 7.55
0 0

0101101
*
Ed
 1e-007 1 1 0
1  61 0 0 35.7
2  121 22 121 0 35.7
2  122 30 128 0 35.7
0

0101000
+62 122 -65 122 *
Ve
1e-007
18.3 7.51 3.85
0 0

0101101
*
Ed
 1e-007 1 1 0
1  62 0 0 39.2
2  123 22 121 0 39.2
2  124 31 128 0 39.2
0

0101000
+64 122 -60 122 *
Ve
1e-007
14.8 7.51 6.94999999999999
0 0

0101101
*
Ed
 1e-007 1 1 0
1  63 0 0 0.600000000000001
2  125 22 121 0 0.600000000000001
2  126 32 128 0 0.600000000000001
0

0101000
+58 122 -62 122 *
Ed
 1e-007 1 1 0
1  64 0 0 0.049999999999998
2  127 22 121 0 0.049999999999998
2  128 33 128 0 0.049999999999998
0

0101000
+60 122 -101 122 *
Ve
1e-007
17.8 7.51 6.94999999999999
0 0

0101101
*
Ed
 1e-007 1 1 0
1  65 0 0 3
2  129 22 121 0 3
2  130 34 128 0 3
0

0101000
+55 122 -58 122 *
Ed
 1e-007 1 1 0
1  66 0 0 0.6
2  131 22 121 0 0.6
2  132 28 128 0 0.6
0

0101000
+75 122 -55 122 *
Wi

0101000
-63 119 -61 119 -59 119 -57 119 -56 119 -54 119 -100 119 -53 119 -74 119 *
Fa
0  1e-007 22 130

0101000
+52 0 *
Ed
 1e-007 1 1 0
1  67 0 0 15.02
2  133 23 0 0 15.02
2  134 33 131 0 15.02
0

0101000
+101 98 -88 98 *
Ed
 1e-007 1 1 0
1  68 0 0 15.02
2  135 23 0 0 15.02
2  136 24 0 0 15.02
0

0101000
+99 98 -86 98 *
Wi

0101000
+50 97 -98 110 +85 114 -49 97 *
Fa
0  1e-007 23 97

0101000
+48 0 *
Ed
 1.00000001776357e-007 1 1 0
1  69 0 0 15.02
2  137 24 0 0 15.02
2  138 26 0 0 15.02
4 G1 24 0 26 0
0

0101000
+95 98 -82 98 *
Wi

0101000
+49 0 -46 0 -94 102 +81 107 *
Fa
0  1e-007 24 0

0101000
+45 0 *
Ed
 1e-007 1 1 0
1  70 0 0 15.02
2  139 25 0 0 15.02
2  140 26 0 0 15.02
4 G1 25 0 26 0
0

0101000
+93 98 -80 98 *
Wi

0101000
+43 0 -68 0 -92 102 +79 107 *
Fa
0  1e-007 25 0

0101000
+42 0 *
Wi

0101000
+46 0 -43 0 -91 102 +78 107 *
Fa
0  1e-007 26 0

0101000
+40 0 *
Ve
1e-007
-20.9 -7.50999999999999 7.55
0 0

0101101
*
Ve
1e-007
-20.9 -7.51 3.85
0 0

0101101
*
Ed
 1e-007 1 1 0
1  71 0 0 3.7
2  141 27 121 0 3.7
2  142 29 129 0 3.7
0

0101000
+38 127 -37 127 *
Ve
1e-007
14.8 -7.50999999999999 7.55
0 0

0101101
*
Ed
 1e-007 1 1 0
1  72 0 0 35.7
2  143 27 121 0 35.7
2  144 30 129 0 35.7
0

0101000
+35 127 -38 127 *
Ve
1e-007
18.3 -7.51 3.85
0 0

0101101
*
Ed
 1e-007 1 1 0
1  73 0 0 39.2
2  145 27 121 0 39.2
2  146 31 129 0 39.2
0

0101000
+37 127 -33 127 *
Ve
1e-007
14.8 -7.50999999999999 6.95
0 0

0101101
*
Ed
 1e-007 1 1 0
1  74 0 0 0.600000000000001
2  147 27 121 0 0.600000000000001
2  148 32 129 0 0.600000000000001
0

0101000
+31 127 -35 127 *
Ed
 1e-007 1 1 0
1  75 0 0 0.049999999999998
2  149 27 121 0 0.049999999999998
2  150 33 129 0 0.049999999999998
0

0101000
+33 127 -88 127 *
Ve
1e-007
17.8 -7.50999999999999 6.95
0 0

0101101
*
Ed
 1e-007 1 1 0
1  76 0 0 3
2  151 27 121 0 3
2  152 34 129 0 3
0

0101000
+28 127 -31 127 *
Ed
 1e-007 1 1 0
1  77 0 0 0.6
2  153 27 121 0 0.6
2  154 28 129 0 0.6
0

0101000
+73 127 -28 127 *
Wi

0101000
-36 125 -34 125 -32 125 -30 125 -29 125 -27 125 -87 125 -26 125 -72 125 *
Fa
0  1e-007 27 132

0101000
+25 0 *
Ed
 1e-007 1 1 0
1  78 0 0 15.02
2  155 28 0 0 15.02
2  156 34 0 0 15.02
0

0101000
+55 113 -28 113 *
Wi

0101000
+71 0 -23 0 -53 133 +26 134 *
Fa
0  1e-007 28 0

0101000
+22 0 *
Ed
 1e-007 1 1 0
1  79 0 0 15.02
2  157 29 0 0 15.02
2  158 30 0 0 15.02
0

0101000
+65 113 -38 113 *
Ed
 1e-007 1 1 0
1  80 0 0 15.02
2  159 29 0 0 15.02
2  160 31 0 0 15.02
0

0101000
+64 113 -37 113 *
Wi

0101000
+20 0 -19 0 -63 133 +36 134 *
Fa
0  1e-007 29 0

0101000
+18 0 *
Ed
 1e-007 1 1 0
1  81 0 0 15.02
2  161 30 0 0 15.02
2  162 32 0 0 15.02
0

0101000
+62 113 -35 113 *
Wi

0101000
+16 0 -20 0 -61 133 +34 134 *
Fa
0  1e-007 30 0

0101000
+15 0 *
Ed
 1e-007 1 1 0
1  82 0 0 15.02
2  163 31 0 0 15.02
2  164 33 0 0 15.02
0

0101000
+60 113 -33 113 *
Wi

0101000
+19 0 -13 0 -59 133 +32 134 *
Fa
0  1e-007 31 0

0101000
+12 0 *
Ed
 1e-007 1 1 0
1  83 0 0 15.02
2  165 32 0 0 15.02
2  166 34 0 0 15.02
0

0101000
+58 113 -31 113 *
Wi

0101000
+10 0 -16 0 -57 133 +30 134 *
Fa
0  1e-007 32 0

0101000
+9 0 *
Wi

0101000
-56 119 -50 97 +29 125 +13 111 *
Fa
0  1e-007 33 111

0101000
+7 0 *
Wi

0101000
+23 0 -10 0 -54 133 +27 134 *
Fa
0  1e-007 34 0

0101000
+5 0 *
Sh

0101100
+116 97 -109 0 -102 97 +89 0 -76 0 -69 0 -66 97 +51 0 -47 0 -44 97 
-41 97 -39 97 -24 0 -21 111 -17 111 -14 111 -11 111 -8 111 -6 0 -4 111 
*
So

0100000
+3 0 *
Co

1100000
+126 2 +2 96 *

+1 1 