DBRep_DrawableShape

CASCADE Topology V1, (c) Matra-Datavision
Locations 48
1
              1               0               0               0 
              0               1               0               0 
              0               0               1               0 
1
              1               0               0               0 
              0               1               0               0 
              0               0               1               0 
1
              1               0               0               0 
              0               1               0               0 
              0               0               1               0 
2  2 1 3 -1 0
1
              1               0               0               0 
              0               1               0               0 
              0               0               1               0 
1
              1               0               0               0 
              0               1               0               0 
              0               0               1               0 
1
              1               0               0               0 
              0               1               0               0 
              0               0               1               0 
2  5 -1 6 1 7 -1 0
1
              1               0               0               0 
              0               1               0               0 
              0               0               1               0 
2  9 1 5 -1 6 1 7 -1 0
2  9 -1 0
2  5 1 9 -1 0
2  1 -1 3 1 2 -1 7 1 6 -1 5 1 9 -1 0
1
              1               0               0               0 
              0              -1               0              -0 
              0               0              -1               0 
2  14 1 7 -1 0
2  5 -1 6 1 14 -1 0
2  7 1 14 -1 0
2  1 -1 3 1 2 -1 7 1 14 -1 0
2  6 1 7 -1 2 1 3 -1 0
2  1 -1 3 1 2 -1 7 1 6 -1 0
2  9 1 5 -1 6 1 7 -1 2 1 3 -1 0
1
              1               0               0              -0 
              0               1               0               0 
              0               0               1             3.8 
2  22 1 3 -1 0
2  6 1 7 -1 2 1 22 -1 0
2  3 1 22 -1 0
2  1 -1 3 1 22 -1 0
1
              1               0               0               0 
              0               1               0               0 
              0               0               1             3.8 
2  9 1 5 -1 27 1 6 1 7 -1 2 1 3 -1 0
2  27 -1 5 1 9 -1 0
2  1 -1 3 1 2 -1 7 1 6 -1 27 -1 5 1 9 -1 0
2  9 1 5 -1 0
2  9 1 5 -1 27 1 0
2  1 -1 3 1 2 -1 0
1
              1               0               0               0 
              0               1               0               0 
              0               0               1           -0.51 
2  14 1 7 -1 34 1 0
2  34 -1 7 1 14 -1 0
2  14 -1 0
2  1 -1 3 1 2 -1 34 -1 7 1 14 -1 0
2  1 -1 0
1
              1               0               0               0 
              0               1               0               0 
              0               0               1             3.8 
2  22 1 3 -1 40 1 0
2  40 -1 3 1 22 -1 0
2  22 -1 0
2  1 -1 40 -1 3 1 22 -1 0
2  5 -1 27 1 6 1 7 -1 2 1 3 -1 0
2  5 -1 27 1 6 1 7 -1 2 1 22 -1 0
2  7 -1 34 1 2 1 3 -1 0
2  3 -1 40 1 0
Curve2ds 52
1 0 0 1 0 
1 0 0 1 0 
1 0 -15.02 0 1 
1 0 0 1 0 
1 50.399999999999999 0 0 -1 
1 0 0 1 0 
1 50.399999999999999 -15.02 -1 0 
1 0 -0 1 0 
2 25.199999999999999 -7.5099999999999998 1 0 0 -1 1.48
1 0 0 1 0 
1 0 0 0 -1 
1 15.02 0 0 -1 
1 0 -3.7999999999999998 1 0 
1 0 0 1 0 
1 50.399999999999999 0 0 -1 
1 0 0 0 -1 
1 0 -3.7999999999999998 1 0 
1 0 0 1 0 
1 0 0 0 -1 
1 50.399999999999999 0 0 -1 
1 0 -3.7999999999999998 1 0 
1 0 0 1 0 
1 15.02 0 0 -1 
1 0 -0 0 -1 
1 0 -3.7999999999999998 1 0 
1 50.399999999999999 0 0 -1 
1 0 -3.7999999999999998 1 0 
1 50.399999999999999 -15.02 -1 0 
1 46.200000000000003 -3.7999999999999998 1 0 
1 0 -0 1 0 
1 0 0 0 -1 
1 6.2831853071795862 0 0 -1 
1 0 -0.51000000000000001 1 0 
2 -1.48 0 1 0 0 -1 1.48
1 0 0 0 -1 
1 15.02 0 0 -1 
1 0 -3.7999999999999998 1 0 
1 0 0 1 0 
1 4.1999999999999993 0 0 -1 
1 0 0 0 -1 
1 4.1999999999999993 0 0 -1 
1 0 0 1 0 
1 0 0 0 -1 
1 4.1999999999999993 0 0 -1 
1 0 -3.7999999999999998 1 0 
1 0 -15.02 0 1 
1 0 -0 0 -1 
1 15.02 0 0 -1 
1 0 -3.7999999999999998 1 0 
1 4.1999999999999993 -15.02 -1 0 
1 4.1999999999999993 0 0 -1 
1 0 -3.7999999999999998 1 0 
Curves 26
1 -25.199999999999999 7.5099999999999998 0 1 0 0 
1 -25.199999999999999 -7.5099999999999998 0 0 1 0 
1 25.199999999999999 7.5099999999999998 0 0 -1 0 
1 25.199999999999999 -7.5099999999999998 0 -1 0 0 
2 0 0 0 0 0 1 1 0 -0 -0 1 0 1.48
1 -25.199999999999999 7.5099999999999998 0 0 0 1 
1 -25.199999999999999 7.5099999999999998 0 1 0 0 
1 25.199999999999999 7.5099999999999998 0 0 0 1 
1 -25.199999999999999 7.5099999999999998 0 1 0 0 
1 -25.199999999999999 -7.5099999999999998 0 0 0 1 
1 -25.199999999999999 -7.5099999999999998 0 0 1 0 
1 25.199999999999999 -7.5099999999999998 0 0 0 1 
1 25.199999999999999 7.5099999999999998 0 0 -1 0 
1 25.199999999999999 -7.5099999999999998 0 -1 0 0 
1 -21 -7.5099999999999998 0 -1 0 0 
1 1.48 0 0 0 0 -1 
2 0 0 0 0 0 1 1 0 -0 -0 1 0 1.48
1 -25.199999999999999 7.5099999999999998 3.7999999999999998 0 0 1 
1 -25.199999999999999 7.5099999999999998 0 1 0 0 
1 -21 7.5099999999999998 3.7999999999999998 0 0 1 
1 -21 7.5099999999999998 0 0 -1 0 
1 -25.199999999999999 -7.5099999999999998 3.7999999999999998 0 0 1 
1 -25.199999999999999 -7.5099999999999998 0 0 1 0 
1 -21 -7.5099999999999998 3.7999999999999998 0 0 1 
1 -21 -7.5099999999999998 0 -1 0 0 
1 -21 7.5099999999999998 0 0 -1 0 
Polygon3D 0
PolygonOnTriangulations 0
Surfaces 13
1 -25.199999999999999 7.5099999999999998 0 -0 0 1 1 0 0 0 1 -0 
1 -25.199999999999999 7.5099999999999998 0 0 1 0 1 0 0 0 0 -1 
1 -25.199999999999999 -7.5099999999999998 0 -1 0 0 0 1 0 0 0 -1 
1 25.199999999999999 7.5099999999999998 0 1 0 -0 0 -1 0 0 -0 -1 
1 25.199999999999999 -7.5099999999999998 0 0 -1 0 -1 0 0 -0 -0 -1 
2 0 0 0 -0 -0 1 1 0 0 0 -1 -0 1.48
1 -25.199999999999999 7.5099999999999998 3.7999999999999998 0 1 0 1 0 0 0 0 -1 
1 -25.199999999999999 7.5099999999999998 0 -0 0 1 1 0 0 0 1 -0 
1 -25.199999999999999 -7.5099999999999998 3.7999999999999998 -1 0 0 0 1 0 0 0 -1 
1 -21 -7.5099999999999998 3.7999999999999998 0 -1 0 -1 0 0 -0 -0 -1 
1 1.48 0 0 0 0 1 1 0 -0 -0 1 0 
1 -25.199999999999999 7.5099999999999998 3.7999999999999998 -0 0 1 1 0 0 0 1 -0 
1 -21 7.5099999999999998 3.7999999999999998 1 0 -0 0 -1 0 0 -0 -1 
Triangulations 0

TShapes 71
Ve
1e-007
-25.2 7.51 0
0 0

0101101
*
Ve
1e-007
25.2 7.51 0
0 0

0101101
*
Ed
 1e-007 1 1 0
1  1 0 0 50.4
2  1 1 11 0 50.4
2  2 2 12 0 50.4
0

0101000
+71 13 -70 13 *
Ve
1e-007
-25.2 -7.51 0
0 0

0101101
*
Ed
 1e-007 1 1 0
1  2 0 0 15.02
2  3 1 11 0 15.02
2  4 3 12 0 15.02
0

0101000
+68 13 -71 13 *
Ve
1e-007
25.2 -7.51 0
0 0

0101101
*
Ed
 1e-007 1 1 0
1  3 0 0 15.02
2  5 1 11 0 15.02
2  6 4 12 0 15.02
0

0101000
+70 13 -66 13 *
Ed
 1e-007 1 1 0
1  4 0 0 50.4
2  7 1 11 0 50.4
2  8 5 12 0 50.4
0

0101000
+66 13 -68 13 *
Wi

0101000
-69 10 -67 10 -65 10 -64 10 *
Ve
1e-007
1.48 0 0
0 0

0101101
*
Ed
 1e-007 1 1 0
1  5 0 0 6.28318530717959
2  9 1 16 0 6.28318530717959
2  10 6 17 0 6.28318530717959
0

0101100
+62 18 -62 18 *
Wi

0101000
+61 15 *
Fa
0  1e-007 1 8

0101000
+63 0 +60 0 *
Ve
1e-007
-25.2 7.51 3.8
0 0

0101101
*
Ed
 1e-007 1 1 0
1  6 0 0 3.8
2  11 2 0 0 3.8
2  12 3 0 0 3.8
0

0101000
+71 20 -58 20 *
Ve
1e-007
-21 7.51 3.8
0 0

0101101
*
Ed
 1e-007 1 1 0
1  7 0 0 4.2
2  13 2 24 0 4.2
2  14 7 25 0 4.2
0

0101000
+58 26 -56 26 *
Ve
1e-007
25.2 7.51 3.8
0 0

0101101
*
Ed
 1e-007 1 1 0
1  8 0 0 3.8
2  15 2 0 0 3.8
2  16 4 0 0 3.8
0

0101000
+70 20 -54 20 *
Ed
 1e-007 1 1 0
1  9 0 4.2 50.4
2  17 2 29 4.2 50.4
2  18 8 11 4.2 50.4
0

0101000
+56 30 -54 30 *
Wi

0101000
+57 19 -69 21 +55 23 -53 19 +52 28 *
Fa
0  1e-007 2 19

0101000
+51 0 *
Ve
1e-007
-25.2 -7.51 3.8
0 0

0101101
*
Ed
 1e-007 1 1 0
1  10 0 0 3.8
2  19 3 0 0 3.8
2  20 5 0 0 3.8
0

0101000
+68 20 -49 20 *
Ed
 1e-007 1 1 0
1  11 0 0 15.02
2  21 3 24 0 15.02
2  22 9 25 0 15.02
0

0101000
+49 26 -58 26 *
Wi

0101000
+48 19 -67 21 +47 23 -57 19 *
Fa
0  1e-007 3 19

0101000
+46 0 *
Ve
1e-007
25.2 -7.51 3.8
0 0

0101101
*
Ed
 1e-007 1 1 0
1  12 0 0 3.8
2  23 4 0 0 3.8
2  24 5 0 0 3.8
0

0101000
+66 20 -44 20 *
Ed
 1e-007 1 1 0
1  13 0 0 15.02
2  25 4 29 0 15.02
2  26 8 11 0 15.02
0

0101000
+54 30 -44 30 *
Wi

0101000
+53 0 -43 0 -65 31 +42 32 *
Fa
0  1e-007 4 0

0101000
+41 0 *
Ve
1e-007
-21 -7.51 3.8
0 0

0101101
*
Ed
 1e-007 1 1 0
1  14 0 0 46.2
2  27 5 29 0 46.2
2  28 8 11 0 46.2
0

0101000
+44 30 -39 30 *
Ed
 1e-007 1 1 0
1  15 0 0 4.2
2  29 5 24 0 4.2
2  30 10 25 0 4.2
0

0101000
+39 26 -49 26 *
Wi

0101000
+43 19 -64 21 +38 28 -48 19 +37 23 *
Fa
0  1e-007 5 19

0101000
+36 0 *
Ve
1e-007
1.48 0 -0.51
0 0

0101101
*
Ed
 1e-007 1 1 0
1  16 0 0 0.51
3  31 32CN 6 0 0 0.51
0

0101000
+62 33 -34 33 *
Ed
 1e-007 1 1 0
1  17 0 0 6.28318530717959
2  33 6 36 0 6.28318530717959
2  34 11 37 0 6.28318530717959
0

0101100
+34 38 -34 38 *
Wi

0101000
-61 15 -33 0 +32 35 +33 0 *
Fa
0  1e-007 6 0

0101000
+31 0 *
Ve
1e-007
-25.2 7.51 7.6
0 0

0101101
*
Ed
 1e-007 1 1 0
1  18 0 0 3.8
2  35 7 0 0 3.8
2  36 9 0 0 3.8
0

0101000
+58 39 -29 39 *
Ve
1e-007
-21 7.51 7.6
0 0

0101101
*
Ed
 1e-007 1 1 0
1  19 0 0 4.2
2  37 7 42 0 4.2
2  38 12 43 0 4.2
0

0101000
+29 44 -27 44 *
Ed
 1e-007 1 1 0
1  20 0 0 3.8
2  39 7 0 0 3.8
2  40 13 0 0 3.8
0

0101000
+56 39 -27 39 *
Wi

0101000
+28 0 -55 23 +26 41 -25 0 *
Fa
0  1e-007 7 0

0101000
+24 0 *
Ed
 1e-007 1 1 0
1  21 0 0 15.02
2  41 8 46 0 15.02
2  42 13 25 0 15.02
0

0101000
+56 26 -39 26 *
Wi

0101000
-52 28 -42 28 -38 28 +22 23 *
Fa
0  1e-007 8 45

0101000
+21 0 *
Ve
1e-007
-25.2 -7.51 7.6
0 0

0101101
*
Ed
 1e-007 1 1 0
1  22 0 0 3.8
2  43 9 0 0 3.8
2  44 10 0 0 3.8
0

0101000
+49 39 -19 39 *
Ed
 1e-007 1 1 0
1  23 0 0 15.02
2  45 9 42 0 15.02
2  46 12 43 0 15.02
0

0101000
+19 44 -29 44 *
Wi

0101000
+18 0 -47 23 +17 41 -28 0 *
Fa
0  1e-007 9 0

0101000
+16 0 *
Ve
1e-007
-21 -7.51 7.6
0 0

0101101
*
Ed
 1e-007 1 1 0
1  24 0 0 3.8
2  47 10 0 0 3.8
2  48 13 0 0 3.8
0

0101000
+39 39 -14 39 *
Ed
 1e-007 1 1 0
1  25 0 0 4.2
2  49 10 42 0 4.2
2  50 12 43 0 4.2
0

0101000
+14 44 -19 44 *
Wi

0101000
+13 0 -37 23 +12 41 -18 0 *
Fa
0  1e-007 10 0

0101000
+11 0 *
Wi

0101100
+32 0 *
Fa
0  1e-007 11 0

0101000
-9 14 *
Ed
 1e-007 1 1 0
1  26 0 0 15.02
2  51 12 43 0 15.02
2  52 13 42 0 15.02
0

0101000
+27 44 -14 44 *
Wi

0101100
+26 0 +7 0 +12 0 +17 0 *
Fa
0  1e-007 12 0

0101000
-6 22 *
Wi

0101000
+25 0 -22 23 +7 41 -13 0 *
Fa
0  1e-007 13 0

0101000
+4 0 *
Sh

0101100
-59 4 +50 0 +45 0 +40 19 +35 0 -30 4 +23 0 +20 0 +15 0 +10 0 
-8 47 +5 48 +3 0 *
So

0100000
+2 0 *

+1 1 