DBRep_DrawableShape

CASCADE Topology V1, (c) Matra-Datavision
Locations 166
1
              1               0               0               0 
              0               1               0               0 
              0               0               1               0 
1
              1               0               0               0 
              0               1               0               0 
              0               0               1               0 
1
              1               0               0               0 
              0               1               0               0 
              0               0               1               0 
1
              1               0               0               0 
              0               1               0               0 
              0               0               1               0 
1
              1               0               0               0 
              0               1               0               0 
              0               0               1               0 
2  2 1 3 1 4 1 5 1 0
2  5 -1 4 -1 3 -1 2 -1 0
1
              1               0               0               0 
              0               1               0               0 
              0               0               1               0 
1
              1               0               0               0 
              0               1               0               0 
              0               0               1               0 
1
              1               0               0               0 
              0               1               0               0 
              0               0               1               0 
1
              1               0               0               0 
              0               1               0               0 
              0               0               1               0 
1
              1               0               0               0 
              0               1               0               0 
              0               0               1               0 
1
              1               0               0               0 
              0               1               0               0 
              0               0               1               0 
1
              1               0               0               0 
              0               1               0               0 
              0               0               1               0 
1
              1               0               0               0 
              0               1               0               0 
              0               0               1               0 
1
              1               0               0               0 
              0               1               0               0 
              0               0               1               0 
1
              1               0               0               0 
              0               1               0               0 
              0               0               1               0 
1
              1               0               0               0 
              0               1               0               0 
              0               0               1               0 
1
              1               0               0               0 
              0               1               0               0 
              0               0               1               0 
2  8 1 9 -1 10 1 11 -1 12 1 13 -1 14 1 15 1 16 -1 17 1 18 -1 19 1 2 1 3 1 4 1 5 1 0
2  19 -1 18 1 17 -1 16 1 15 -1 14 -1 13 1 12 -1 11 1 10 -1 9 1 8 -1 0
2  8 -1 0
2  1 -1 5 -1 4 -1 3 -1 2 -1 19 -1 18 1 17 -1 16 1 15 -1 14 -1 13 1 12 -1 11 1 10 -1 9 1 8 -1 0
2  1 -1 0
2  2 1 3 1 4 1 0
2  1 -1 5 -1 0
1
              1               0               0              -0 
              0               1               0               0 
              0               0               1             3.8 
1
              1               0               0               0 
              0               1               0               0 
              0               0               1             1.5 
2  27 1 16 -1 28 1 17 1 18 -1 19 1 2 1 3 1 4 1 5 1 0
2  19 -1 18 1 17 -1 28 -1 16 1 27 -1 0
2  27 -1 0
2  1 -1 5 -1 4 -1 3 -1 2 -1 19 -1 18 1 17 -1 28 -1 16 1 27 -1 0
1
              1               0               0              -0 
              0               1               0               0 
              0               0               1             5.3 
1
              1               0               0               0 
              0               1               0               0 
              0               0               1             2.3 
2  33 1 18 -1 34 1 19 1 2 1 3 1 4 1 5 1 0
2  19 -1 34 -1 18 1 33 -1 0
2  33 -1 0
2  1 -1 5 -1 4 -1 3 -1 2 -1 19 -1 34 -1 18 1 33 -1 0
2  4 1 5 1 0
2  2 1 3 1 0
2  16 -1 28 1 17 1 18 -1 19 1 2 1 3 1 0
2  1 -1 5 -1 4 -1 0
2  12 1 13 -1 14 1 15 1 16 -1 17 1 18 -1 19 1 2 1 3 1 4 1 5 1 0
2  9 -1 10 1 11 -1 0
2  5 -1 4 -1 3 -1 2 -1 19 -1 18 1 17 -1 16 1 15 -1 14 -1 13 1 12 -1 0
2  9 -1 10 1 11 -1 12 1 13 -1 14 1 15 1 16 -1 17 1 18 -1 19 1 2 1 3 1 4 1 5 1 0
2  9 -1 10 1 11 -1 12 1 13 -1 14 1 15 1 16 -1 17 1 18 -1 19 1 2 1 3 1 4 1 0
2  14 -1 13 1 12 -1 11 1 10 -1 9 1 8 -1 0
1
              1               0               0               0 
              0              -1               0              -0 
              0               0              -1               0 
2  49 1 11 -1 0
2  9 -1 10 1 49 -1 0
2  11 1 49 -1 0
2  1 -1 5 -1 4 -1 3 -1 2 -1 19 -1 18 1 17 -1 16 1 15 -1 14 -1 13 1 12 -1 11 1 49 -1 0
2  16 -1 28 1 17 1 18 -1 19 1 2 1 3 1 4 1 5 1 0
2  18 -1 34 1 19 1 2 1 3 1 4 1 0
2  19 1 2 1 3 1 4 1 5 1 0
2  16 -1 28 1 17 1 18 -1 0
2  5 -1 4 -1 3 -1 2 -1 19 -1 0
2  33 1 18 -1 19 1 2 1 3 1 4 1 5 1 0
2  16 -1 28 1 17 1 33 -1 0
2  18 1 33 -1 0
2  1 -1 5 -1 4 -1 3 -1 2 -1 19 -1 18 1 33 -1 0
2  18 -1 34 1 19 1 2 1 3 1 4 1 5 1 0
2  4 -1 3 -1 2 -1 19 -1 34 -1 18 1 0
2  33 1 18 -1 34 1 19 1 2 1 3 1 4 1 0
2  18 -1 34 1 19 1 2 1 3 1 0
2  34 -1 18 1 33 -1 0
2  19 1 2 1 3 1 0
1
              1               0               0              -0 
              0               1               0               0 
              0               0               1             3.8 
1
              1               0               0               0 
              0               1               0               0 
              0               0               1             3.8 
2  69 1 13 -1 70 1 14 1 15 1 16 -1 17 1 18 -1 19 1 2 1 3 1 4 1 5 1 0
2  19 -1 18 1 17 -1 16 1 15 -1 14 -1 70 -1 13 1 69 -1 0
2  69 -1 0
2  1 -1 5 -1 4 -1 3 -1 2 -1 19 -1 18 1 17 -1 16 1 15 -1 14 -1 70 -1 13 1 69 -1 0
2  17 1 18 -1 19 1 2 1 3 1 4 1 5 1 0
2  19 -1 18 1 17 -1 0
2  1 -1 5 -1 4 -1 3 -1 2 -1 19 -1 18 1 17 -1 0
2  14 1 15 1 16 -1 17 1 18 -1 19 1 2 1 3 1 4 1 5 1 0
2  19 -1 18 1 17 -1 16 1 15 -1 14 -1 0
2  1 -1 5 -1 4 -1 3 -1 2 -1 19 -1 18 1 17 -1 16 1 15 -1 14 -1 0
1
              1               0               0               0 
              0               1               0               0 
              0               0               1             3.8 
2  8 1 9 -1 81 1 10 1 11 -1 12 1 13 -1 14 1 15 1 16 -1 17 1 18 -1 19 1 2 1 3 1 4 1 5 1 0
2  19 -1 18 1 17 -1 16 1 15 -1 14 -1 13 1 12 -1 11 1 10 -1 81 -1 9 1 8 -1 0
2  1 -1 5 -1 4 -1 3 -1 2 -1 19 -1 18 1 17 -1 16 1 15 -1 14 -1 13 1 12 -1 11 1 10 -1 81 -1 9 1 8 -1 0
2  15 1 16 -1 17 1 18 -1 19 1 2 1 3 1 4 1 0
2  13 -1 70 1 14 1 15 1 16 -1 17 1 18 -1 19 1 2 1 3 1 4 1 0
2  15 1 16 -1 17 1 18 -1 19 1 2 1 3 1 4 1 5 1 0
2  4 -1 3 -1 2 -1 19 -1 18 1 17 -1 16 1 15 -1 0
2  69 1 13 -1 70 1 14 1 15 1 16 -1 17 1 18 -1 19 1 2 1 3 1 4 1 0
2  14 -1 70 -1 13 1 69 -1 0
2  8 1 9 -1 10 1 11 -1 12 1 13 -1 14 1 15 1 16 -1 17 1 18 -1 19 1 2 1 3 1 4 1 0
2  4 -1 3 -1 2 -1 0
2  1 -1 5 -1 4 -1 3 -1 2 -1 0
2  8 1 9 -1 81 1 10 1 11 -1 12 1 13 -1 14 1 15 1 16 -1 17 1 18 -1 19 1 2 1 3 1 4 1 0
2  14 1 15 1 16 -1 17 1 18 -1 19 1 2 1 3 1 4 1 0
2  1 -1 5 -1 4 -1 3 -1 2 -1 19 -1 18 1 17 -1 16 1 15 -1 14 -1 13 1 12 -1 0
1
              1               0               0               0 
              0               1               0               0 
              0               0               1           -0.51 
2  49 1 11 -1 97 1 0
2  97 -1 11 1 49 -1 0
2  49 -1 0
2  1 -1 5 -1 4 -1 3 -1 2 -1 19 -1 18 1 17 -1 16 1 15 -1 14 -1 13 1 12 -1 97 -1 11 1 49 -1 0
2  33 1 18 -1 34 1 19 1 0
2  19 -1 0
2  1 -1 5 -1 4 -1 3 -1 2 -1 19 -1 0
2  27 1 16 -1 28 1 17 1 18 -1 19 1 0
2  17 1 18 -1 19 1 0
2  27 1 16 -1 17 1 18 -1 19 1 0
2  19 -1 18 1 17 -1 16 1 27 -1 0
2  9 -1 81 1 10 1 11 -1 12 1 13 -1 14 1 15 1 27 -1 0
2  1 -1 5 -1 4 -1 3 -1 2 -1 19 -1 18 1 17 -1 16 1 27 -1 0
2  3 -1 2 -1 19 -1 0
2  33 1 18 -1 19 1 2 1 3 1 0
2  33 1 18 -1 34 1 19 1 2 1 3 1 0
2  13 -1 70 1 14 1 15 1 16 -1 17 1 18 -1 19 1 2 1 3 1 4 1 5 1 0
2  4 -1 3 -1 2 -1 19 -1 18 1 17 -1 16 1 15 -1 14 -1 70 -1 13 1 0
2  70 -1 13 1 69 -1 0
2  69 1 13 -1 0
2  13 1 69 -1 0
2  9 -1 81 1 10 1 11 -1 12 1 69 -1 0
2  1 -1 5 -1 4 -1 3 -1 2 -1 19 -1 18 1 17 -1 16 1 15 -1 14 -1 13 1 69 -1 0
2  69 1 13 -1 70 1 0
2  9 -1 81 1 10 1 11 -1 12 1 13 -1 14 1 15 1 16 -1 0
2  8 1 9 -1 81 1 10 1 11 -1 12 1 13 -1 14 1 15 1 16 -1 0
2  27 1 16 -1 0
2  69 1 13 -1 14 1 15 1 16 -1 0
2  11 -1 97 1 12 1 13 -1 14 1 15 1 16 -1 17 1 18 -1 19 1 2 1 3 1 4 1 5 1 0
1
              1               0               0               0 
              0               1               0               0 
              0               0               1               0 
2  127 1 3 1 4 1 5 1 0
1
              1               0              -0               0 
             -0 2.22044604925031e-016              -1               0 
              0               1 2.22044604925031e-016               0 
2  1 -1 5 -1 4 -1 3 -1 127 -1 129 -1 0
1
              1               0              -0               0 
             -0 2.22044604925031e-016              -1               0 
              0               1 2.22044604925031e-016               0 
1
              1               0               0               0 
              0 -2.22044604925031e-016              -1               0 
              0               1 -2.22044604925031e-016               0 
1
              1               0               0              -0 
              0               1               0 -1.66755498298699e-015 
              0               0               1           -7.51 
2  131 1 132 -1 133 1 0
2  133 -1 132 1 131 -1 0
2  131 -1 0
2  1 -1 5 -1 4 -1 3 -1 127 -1 129 -1 133 -1 132 1 131 -1 0
1
              1               0               0               0 
              0               1               0 3.33510996597397e-015 
              0               0               1           15.02 
2  131 1 132 -1 133 1 138 1 0
2  138 -1 133 -1 132 1 131 -1 0
2  1 -1 5 -1 4 -1 3 -1 127 -1 129 -1 138 -1 133 -1 132 1 131 -1 0
2  131 1 132 -1 133 1 129 1 0
1
              1               0              -0               0 
             -0 2.22044604925031e-016              -1               0 
              0               1 2.22044604925031e-016               0 
2  129 1 143 -1 0
2  1 -1 5 -1 4 -1 3 -1 127 -1 143 -1 0
2  131 1 132 -1 133 1 138 1 129 1 0
2  132 -1 133 1 129 1 0
1
              1               0              -0               0 
             -0 2.22044604925031e-016              -1               0 
              0               1 2.22044604925031e-016               0 
1
              1               0               0               0 
              0 -2.22044604925031e-016              -1               0 
              0               1 -2.22044604925031e-016               0 
1
              1               0               0              -0 
              0               1               0 -1.66755498298699e-015 
              0               0               1           -7.51 
2  148 1 149 -1 150 1 143 1 0
2  132 -1 133 1 129 1 143 -1 150 -1 149 1 148 -1 0
2  148 -1 0
2  1 -1 5 -1 4 -1 3 -1 127 -1 143 -1 150 -1 149 1 148 -1 0
2  132 -1 133 1 138 1 129 1 0
1
              1               0               0               0 
              0               1               0 3.33510996597397e-015 
              0               0               1           15.02 
2  148 1 149 -1 150 1 156 1 143 1 0
2  132 -1 133 1 138 1 129 1 143 -1 156 -1 150 -1 149 1 148 -1 0
2  1 -1 5 -1 4 -1 3 -1 127 -1 143 -1 156 -1 150 -1 149 1 148 -1 0
2  150 -1 149 1 148 -1 0
2  156 -1 150 -1 149 1 148 -1 0
2  149 -1 150 1 143 1 0
2  143 1 129 -1 0
2  149 -1 150 1 156 1 143 1 0
2  148 1 149 -1 150 1 0
2  148 1 149 -1 150 1 156 1 0
Curve2ds 198
1 0 -0 0 1 
1 50.399999999999999 0 0 -1 
1 0 0.90000000000000036 -1 -0 
1 0 0 0 1 
1 0 14.119999999999999 -1 -0 
1 0 0 0 1 
1 -5.2999999999999998 -0 0 1 
1 4.1999999999999993 0 0 -1 
1 -7.5999999999999996 2.1999999999999993 0 1 
1 4.1999999999999993 0 0 -1 
1 -5.2999999999999998 -0 -0 1 
1 4.1999999999999993 0 0 -1 
1 -5.2999999999999998 3.0999999999999996 -1 -0 
1 1.5707963267948966 0 0 1 
1 0 0 1 0 
1 0 0 0 1 
2 49.5 -0.90000000000000036 0 -1 1 0 0.90000000000000002
1 -1.5707963267948966 0 1 0 
2 0.89999999999999858 -0.90000000000000036 0 -1 1 0 0.90000000000000002
1 -3.1415926535897931 0 1 0 
1 0 -15.02 0 1 
1 0 0 0 -1 
2 49.5 -14.119999999999999 0 -1 -1 -0 0.90000000000000002
1 -4.7123889803846897 0 1 0 
2 0.89999999999999858 -14.119999999999999 0 -1 -1 -0 0.90000000000000002
1 0 0 1 0 
1 50.399999999999999 -15.02 -1 0 
1 0 0 0 -1 
2 25.199999999999999 -7.5099999999999998 1 0 0 -1 1.48
1 0 0 1 0 
1 1.5707963267948966 0 0 1 
1 0 49.5 -1 0 
1 -1.5707963267948966 5.2999999999999998 1 0 
2 3.3000000000000007 -0.90000000000000036 0 -1 1 0 0.90000000000000002
1 1.5707963267948966 0 0 1 
1 0 -0.89999999999999858 1 0 
1 -4.7123889803846897 7.5999999999999996 1 0 
2 3.3000000000000007 -11.92 0 -1 -1 -0 0.90000000000000002
1 0 0 1 0 
1 -5.2999999999999998 46.200000000000003 0 1 
1 0 -15.02 0 1 
1 1.5 0 0 -1 
1 0 -2.1999999999999993 1 0 
1 0 0 1 0 
2 3.3000000000000007 -3.0999999999999996 0 -1 -1 -0 0.90000000000000002
1 -3.1415926535897931 0 1 0 
2 3.3000000000000007 -0.90000000000000036 0 -1 -1 -0 0.90000000000000002
1 -3.1415926535897931 2.2999999999999998 1 0 
1 4.1999999999999993 -12.82 -1 0 
1 7.5999999999999996 0 0 -1 
1 0 0 1 0 
1 0 -2.2999999999999998 1 0 
1 0 -12.82 0 1 
1 3.7999999999999998 0 0 -1 
1 0 0 0 1 
1 3.3000000000000007 0 0 -1 
1 0 0.89999999999999858 -1 0 
1 0 0 0 1 
1 -7.5999999999999996 0 0 1 
1 0 0 1 0 
1 -3.7999999999999998 46.200000000000003 -1 0 
1 0 -15.02 1 0 
1 -3.7999999999999998 4.1999999999999993 -1 0 
1 0 0 0 -1 
1 -3.7999999999999998 0 0 1 
1 0 0 1 0 
1 1.5707963267948966 0 0 1 
1 0 -14.119999999999999 1 0 
1 -3.1415926535897931 7.5999999999999996 1 0 
2 0.89999999999999858 -0.90000000000000036 0 -1 1 0 0.90000000000000002
1 7.5999999999999996 0 0 -1 
1 0 -15.02 0 1 
1 0 -0.90000000000000036 1 0 
1 1.5707963267948966 0 0 1 
1 0 0 0 1 
1 0 -49.5 1 0 
1 0 7.5999999999999996 1 0 
2 0.89999999999999858 -14.119999999999999 0 -1 -1 -0 0.90000000000000002
1 5.2999999999999998 -4.1999999999999993 1 0 
1 1.5 0 1 0 
1 3.7999999999999998 0 0 -1 
1 50.399999999999999 -15.02 -1 0 
1 3.7999999999999998 -46.200000000000003 1 0 
1 15.02 0 0 -1 
1 7.5999999999999996 -46.200000000000003 0 -1 
1 4.1999999999999993 -15.02 -1 0 
1 0 0 0 -1 
1 6.2831853071795862 0 0 -1 
1 0 -0.51000000000000001 1 0 
2 -1.48 0 1 0 0 -1 1.48
1 1.5 -12.82 1 0 
1 0 0 0 -1 
1 0 0 0 -1 
1 46.200000000000003 -15.02 0 1 
1 4.1999999999999993 0 0 -1 
1 0 -3.7999999999999998 1 0 
1 0 0 1 0 
1 4.1999999999999993 0 0 -1 
1 0 0 0 -1 
1 0 0 2.2204460492503131e-016 -1 
1 1.5707963267948966 0 0 -1 
1 3.1499999999999968 0 0 -1 
1 0 0 1 0 
2 0 -0.30000000000001847 0 1 1 -0 0.30000000000002203
1 0 -15.02 1 0 
2 0 -0.30000000000001847 0 1 1 -0 0.30000000000002203
1 0 0 1 0 
1 0 3.5527136788005009e-015 -1 0 
1 0.54999999999998117 3.6637359812628912e-016 2.2204460492503131e-016 -1 
1 0 0 0 -1 
1 2.8999025403209078e-015 -15.019999999999998 1 0 
1 0 3.5527136788005009e-015 -1 0 
1 0 0 0 -1 
1 0.40000000000000036 2.6645352591003781e-016 2.2204460492503131e-016 -1 
1 0 -8.8817841970012523e-016 1 0 
1 0.30000000000002292 -3.4500000000000188 0 1 
1 0 -15.02 1 0 
1 0.30000000000002292 -3.4500000000000188 0 1 
1 -3.0499999999999807 7.1054273576010019e-015 1 0 
1 -3.6999999999999997 39.199999999999989 1 0 
1 -2.9999999999999827 3.5527136788005009e-015 0 1 
1 3.5527136788005009e-015 0 1 0 
1 0.70000000000002327 -3.4500000000000188 -1 0 
1 0 0 1 0 
1 -2.9999999999999827 0.40000000000000213 1 0 
1 0 0 1 0 
1 0.70000000000002327 -0.30000000000001847 0 -1 
1 -3.5527136788005009e-015 0 1 0 
2 0 -0.30000000000001847 0 1 1 -0 0.70000000000002416
1 0 0 1 0 
1 -3.0499999999999807 7.1054273576010019e-015 1 0 
1 -3.6999999999999997 39.199999999999989 1 0 
1 -2.9999999999999827 3.5527136788005009e-015 0 1 
1 3.5527136788005009e-015 -15.019999999999998 1 0 
1 0.70000000000002327 -3.4500000000000188 -1 0 
1 2.8999025403209078e-015 -15.019999999999998 1 0 
1 -2.9999999999999827 0.40000000000000213 1 0 
1 -2.8999025403209078e-015 -15.019999999999998 1 0 
1 0.70000000000002327 -0.30000000000001847 0 -1 
1 -3.5527136788005009e-015 -15.019999999999998 1 0 
2 0 -0.30000000000001847 0 1 1 -0 0.70000000000002416
1 0 -15.02 1 0 
1 -3.5527136788005009e-015 0 1 0 
1 -1.2000000000000002 39.199999999999989 0 -1 
1 -3.5527136788005009e-015 -15.019999999999998 1 0 
1 -1.2000000000000002 39.199999999999989 0 -1 
1 0.5 0 0 -1 
1 0 0 -2.2204460492503131e-016 -1 
1 0 0 2.2204460492503131e-016 -1 
1 3.1499999999999968 0 0 -1 
1 0 -3.5527136788005009e-015 -1 0 
1 0 0 1 0 
1 0 35.699999999999989 0 -1 
1 0 0 1 0 
1 -3.6999999999999997 -3.5527136788005009e-015 0 1 
1 -3.5527136788005009e-015 0 1 0 
1 -0.60000000000000053 35.699999999999989 1 0 
1 0 0 1 0 
1 -3.6999999999999997 39.199999999999989 1 0 
1 0 0 1 0 
1 -0.60000000000000053 38.699999999999989 0 -1 
1 -3.5527136788005009e-015 0 1 0 
1 -1.2000000000000002 38.699999999999989 1 0 
1 0 0 1 0 
1 0 0 0 -1 
1 0.049999999999998046 -3.3306690738753395e-017 -2.2204460492503131e-016 -1 
1 0.39999999999999858 0 0 -1 
1 0 0 -2.2204460492503131e-016 -1 
1 2.9999999999999827 -2.2204460492501987e-016 -2.2204460492503131e-016 -1 
1 0 0 0 -1 
1 0 0 0 -1 
1 1.5707963267948966 0 0 -1 
1 0 -3.5527136788005009e-015 -1 0 
1 2.8999025403209078e-015 -15.019999999999998 1 0 
1 0 35.699999999999989 0 -1 
1 0 -15.019999999999998 1 0 
1 -3.6999999999999997 -3.5527136788005009e-015 0 1 
1 -3.5527136788005009e-015 -15.019999999999998 1 0 
1 -0.60000000000000053 35.699999999999989 1 0 
1 -2.8999025403209078e-015 -15.019999999999998 1 0 
1 -3.6999999999999997 39.199999999999989 1 0 
1 -2.8999025403209078e-015 -15.019999999999998 1 0 
1 -0.60000000000000053 38.699999999999989 0 -1 
1 -3.5527136788005009e-015 -15.019999999999998 1 0 
1 -1.2000000000000002 38.699999999999989 1 0 
1 -2.8999025403209078e-015 -15.019999999999998 1 0 
1 0.59999999999999964 -3.9968028886505612e-016 -2.2204460492503131e-016 -1 
1 0 0 0 -1 
1 0 0 2.2204460492503131e-016 -1 
1 35.699999999999989 0 0 -1 
1 3.6999999999999997 -1.9984014443252826e-016 2.2204460492503131e-016 -1 
1 0 0 0 -1 
1 0 0 0 -1 
1 0.60000000000000053 4.8849813083506852e-016 -2.2204460492503131e-016 -1 
1 39.199999999999989 0 0 -1 
1 0 0 -2.2204460492503131e-016 -1 
1 0 0 -2.2204460492503131e-016 -1 
1 2.9999999999999964 0 0 -1 
Curves 99
1 25.199999999999999 7.5099999999999998 0 0 -1 0 
1 25.199999999999999 6.6099999999999994 0 0 0 1 
1 25.199999999999999 -6.6099999999999994 0 0 0 1 
1 25.199999999999999 7.5099999999999998 0 0 -1 0 
1 25.199999999999999 5.3100000000000005 0 0 -1 0 
8 2.2000000000000002 3.0999999999999996
1 25.199999999999999 7.5099999999999998 5.2999999999999998 -0 -1 0 
1 25.199999999999999 4.4100000000000001 5.2999999999999998 0 0 1 
1 -25.199999999999999 7.5099999999999998 0 1 0 0 
8 1.5707963267948966 3.1415926535897931
2 24.300000000000001 6.6099999999999994 0 0 0 1 0 -1 0 1 0 -0 0.90000000000000002
8 3.1415926535897931 4.7123889803846897
2 -24.300000000000001 6.6099999999999994 0 0 0 1 0 -1 0 1 0 -0 0.90000000000000002
1 -25.199999999999999 -7.5099999999999998 0 0 1 0 
8 4.7123889803846897 6.2831853071795862
2 24.300000000000001 -6.6099999999999994 0 -0 -0 -1 0 -1 0 -1 0 0 0.90000000000000002
8 0 1.5707963267948966
2 -24.300000000000001 -6.6099999999999994 0 -0 -0 -1 0 -1 0 -1 0 0 0.90000000000000002
1 25.199999999999999 -7.5099999999999998 0 -1 0 0 
2 0 0 0 0 0 1 1 0 -0 -0 1 0 1.48
1 24.300000000000001 7.5099999999999998 0 0 0 1 
8 1.5707963267948966 3.1415926535897931
2 24.300000000000001 6.6099999999999994 5.2999999999999998 0 0 1 0 -1 0 1 0 -0 0.90000000000000002
1 24.300000000000001 -7.5099999999999998 0 0 0 1 
8 4.7123889803846897 6.2831853071795862
2 24.300000000000001 -6.6099999999999994 7.5999999999999996 -0 -0 -1 0 -1 0 -1 0 0 0.90000000000000002
1 21 7.5099999999999998 0 1 0 0 
1 21 -7.5099999999999998 0 0 1 0 
1 21 5.3100000000000005 0 1 0 0 
8 3.1415926535897931 4.7123889803846897
2 24.300000000000001 4.4100000000000001 5.2999999999999998 -0 -0 -1 0 -1 0 -1 0 0 0.90000000000000002
8 3.1415926535897931 4.7123889803846897
2 24.300000000000001 4.4100000000000001 7.5999999999999996 -0 -0 -1 0 -1 0 -1 0 0 0.90000000000000002
1 25.199999999999999 -7.5099999999999998 0 -1 0 0 
1 21 5.3100000000000005 0 1 0 0 
1 21 -7.5099999999999998 0 0 1 0 
1 24.300000000000001 5.3100000000000005 5.2999999999999998 0 0 1 
1 -24.300000000000001 7.5099999999999998 0 0 0 1 
1 -25.199999999999999 7.5099999999999998 0 1 0 0 
1 21 7.5099999999999998 3.7999999999999998 0 0 1 
1 -21 7.5099999999999998 3.7999999999999998 0 0 1 
1 -25.199999999999999 7.5099999999999998 0 1 0 0 
1 -25.199999999999999 6.6099999999999994 0 0 0 1 
8 3.1415926535897931 4.7123889803846897
2 -24.300000000000001 6.6099999999999994 7.5999999999999996 0 0 1 0 -1 0 1 0 -0 0.90000000000000002
1 -25.199999999999999 -7.5099999999999998 0 0 1 0 
1 -25.199999999999999 -6.6099999999999994 0 0 0 1 
1 -24.300000000000001 -7.5099999999999998 0 0 0 1 
8 0 1.5707963267948966
2 -24.300000000000001 -6.6099999999999994 7.5999999999999996 -0 -0 -1 0 -1 0 -1 0 0 0.90000000000000002
1 21 -7.5099999999999998 5.2999999999999998 0 0 1 
1 25.199999999999999 -7.5099999999999998 0 -1 0 0 
1 -21 -7.5099999999999998 3.7999999999999998 0 0 1 
1 -21 -7.5099999999999998 0 -1 0 0 
1 1.48 0 0 0 0 -1 
2 0 0 0 0 0 1 1 0 -0 -0 1 0 1.48
1 21 5.3100000000000005 5.2999999999999998 0 0 1 
1 21 -7.5099999999999998 0 0 1 0 
1 -21 7.5099999999999998 0 0 -1 0 
1 -21 7.5099999999999998 0 0 -1 0 
1 18.299999999999997 6.899999999999979 -7.5100000000000025 0 2.2204460492503131e-016 1 
1 17.999999999999975 7.200000000000002 -7.5100000000000033 0 2.2204460492503131e-016 1 
2 17.999999999999979 6.8999999999999817 0 0 0 1 1 0 -0 -0 1 0 0.30000000000002319
2 17.999999999999979 6.8999999999999817 0 0 0 1 1 0 -0 -0 1 0 0.30000000000002319
1 18.300000000000001 6.8999999999999817 0 0 -1 0 
1 18.300000000000001 6.3499999999999979 -7.5100000000000025 0 2.2204460492503131e-016 1 
1 18.300000000000001 6.8999999999999817 0 0 -1 0 
1 14.849999999999977 7.200000000000002 -7.5100000000000033 0 2.2204460492503131e-016 1 
1 14.849999999999978 7.2000000000000046 0 1 0 0 
1 14.849999999999978 7.2000000000000046 0 1 0 0 
1 18.300000000000004 3.8500000000000001 0 0 1 0 
1 18.300000000000001 3.8999999999999981 0 1 0 0 
1 14.849999999999978 7.600000000000005 0 0 -1 0 
1 18.699999999999999 3.8999999999999981 0 0 1 0 
1 17.999999999999979 7.600000000000005 0 -1 0 0 
2 17.999999999999979 6.8999999999999817 0 0 0 1 1 0 -0 -0 1 0 0.70000000000002316
1 18.300000000000004 3.8500000000000001 0 0 1 0 
1 18.300000000000001 3.8999999999999981 0 1 0 0 
1 14.849999999999978 7.600000000000005 0 0 -1 0 
1 18.699999999999999 3.8999999999999981 0 0 1 0 
1 17.999999999999979 7.600000000000005 0 -1 0 0 
2 17.999999999999979 6.8999999999999817 0 0 0 1 1 0 -0 -0 1 0 0.70000000000002316
1 18.300000000000004 6.3500000000000005 0 -1 0 0 
1 18.300000000000004 6.3500000000000005 0 -1 0 0 
1 17.800000000000001 6.3499999999999979 -7.5100000000000025 0 2.2204460492503131e-016 1 
1 14.849999999999977 7.6000000000000023 -7.5100000000000033 0 2.2204460492503131e-016 1 
1 -20.899999999999999 7.5500000000000007 0 0 -1 0 
1 14.800000000000004 7.5500000000000007 0 -1 0 0 
1 -20.899999999999999 3.8500000000000001 0 1 0 0 
1 14.800000000000004 6.9500000000000002 0 0 1 0 
1 18.300000000000004 3.8500000000000001 0 0 1 0 
1 17.800000000000004 6.9500000000000002 0 -1 0 0 
1 17.800000000000004 6.3500000000000005 0 0 1 0 
1 18.299999999999997 3.8999999999999959 -7.5100000000000016 0 2.2204460492503131e-016 1 
1 18.699999999999996 3.8999999999999959 -7.5100000000000016 0 2.2204460492503131e-016 1 
1 18.699999999999999 6.899999999999979 -7.5100000000000025 0 2.2204460492503131e-016 1 
1 17.999999999999975 7.6000000000000023 -7.5100000000000033 0 2.2204460492503131e-016 1 
1 -20.899999999999999 7.5500000000000007 0 0 -1 0 
1 14.800000000000004 7.5500000000000007 0 -1 0 0 
1 -20.899999999999999 3.8500000000000001 0 1 0 0 
1 14.800000000000004 6.9500000000000002 0 0 1 0 
1 18.300000000000004 3.8500000000000001 0 0 1 0 
1 17.800000000000004 6.9500000000000002 0 -1 0 0 
1 17.800000000000004 6.3500000000000005 0 0 1 0 
1 17.800000000000001 6.9499999999999975 -7.5100000000000025 0 2.2204460492503131e-016 1 
1 -20.899999999999995 7.549999999999998 -7.5100000000000033 0 2.2204460492503131e-016 1 
1 -20.899999999999995 3.8499999999999979 -7.5100000000000016 0 2.2204460492503131e-016 1 
1 14.800000000000002 7.549999999999998 -7.5100000000000033 0 2.2204460492503131e-016 1 
1 18.300000000000001 3.8499999999999979 -7.5100000000000016 0 2.2204460492503131e-016 1 
1 14.800000000000002 6.9499999999999975 -7.5100000000000025 0 2.2204460492503131e-016 1 
Polygon3D 0
PolygonOnTriangulations 0
Surfaces 39
1 25.199999999999999 7.5099999999999998 0 -1 0 0 0 0 -1 -0 -1 -0 
1 -25.199999999999999 7.5099999999999998 0 -0 0 1 1 0 0 0 1 -0 
2 24.300000000000001 6.6099999999999994 0 0 0 1 1 0 -0 -0 1 0 0.90000000000000002
2 24.300000000000001 -6.6099999999999994 0 0 0 1 1 0 -0 0 -1 -0 0.90000000000000002
1 21 7.5099999999999998 3.7999999999999998 -0 0 1 1 0 0 0 1 -0 
1 21 5.3100000000000005 5.2999999999999998 -0 0 1 1 0 0 0 1 -0 
2 24.300000000000001 4.4100000000000001 5.2999999999999998 0 0 1 -0 1 0 1 0 -0 0.90000000000000002
1 -25.199999999999999 7.5099999999999998 0 0 -1 0 0 -0 -1 1 0 0 
2 -24.300000000000001 6.6099999999999994 0 0 0 1 -0 1 0 -1 -0 0 0.90000000000000002
1 -25.199999999999999 -7.5099999999999998 0 1 0 0 -0 0 1 0 -1 0 
2 -24.300000000000001 -6.6099999999999994 0 0 0 1 0 -1 0 -1 -0 0 0.90000000000000002
1 25.199999999999999 -7.5099999999999998 0 0 1 -0 0 0 1 1 -0 0 
2 0 0 0 -0 -0 1 1 0 0 0 -1 -0 1.48
1 21 -7.5099999999999998 3.7999999999999998 1 0 0 -0 0 1 0 -1 0 
1 21 5.3100000000000005 5.2999999999999998 0 1 0 1 0 0 0 0 -1 
1 -25.199999999999999 7.5099999999999998 3.7999999999999998 -0 0 1 1 0 0 0 1 -0 
1 -21 7.5099999999999998 3.7999999999999998 1 0 -0 0 -1 0 0 -0 -1 
1 -25.199999999999999 7.5099999999999998 0 -0 0 1 1 0 0 0 1 -0 
1 1.48 0 0 0 0 1 1 0 -0 -0 1 0 
2 17.999999999999975 6.899999999999979 -7.5100000000000025 0 -4.4408920985006262e-016 -1 1 0 0 -0 1 -4.4408920985006262e-016 0.30000000000002314
1 18.299999999999997 6.899999999999979 -7.5100000000000025 1 0 -0 0 -1 4.4408920985006262e-016 0 -4.4408920985006262e-016 -1 
1 14.849999999999977 7.200000000000002 -7.5100000000000033 0 1 -2.2204460492503131e-016 1 0 0 0 -2.2204460492503131e-016 -1 
1 18.299999999999997 1.5321077739827122e-015 6.8999999999999808 0 1 -2.2204460492503136e-016 0 2.2204460492503136e-016 1 1 -0 0 
1 18.299999999999997 1.5321077739827122e-015 6.8999999999999808 0 1 -2.2204460492503136e-016 0 2.2204460492503136e-016 1 1 -0 0 
1 18.300000000000001 6.3499999999999979 -7.5100000000000025 0 -1 2.2204460492503131e-016 -1 0 0 -0 -2.2204460492503131e-016 -1 
1 14.849999999999977 7.6000000000000023 -7.5100000000000033 1 0 -0 0 -1 4.4408920985006262e-016 0 -4.4408920985006262e-016 -1 
1 -20.899999999999995 1.6764367671839867e-015 7.5499999999999998 0 1 -2.2204460492503136e-016 0 2.2204460492503136e-016 1 1 -0 0 
1 18.299999999999997 3.8999999999999959 -7.5100000000000016 0 1 -2.2204460492503131e-016 1 0 0 0 -2.2204460492503131e-016 -1 
1 18.699999999999996 3.8999999999999959 -7.5100000000000016 -1 0 0 0 1 -4.4408920985006262e-016 -0 -4.4408920985006262e-016 -1 
1 17.999999999999975 7.6000000000000023 -7.5100000000000033 0 -1 2.2204460492503131e-016 -1 0 0 -0 -2.2204460492503131e-016 -1 
2 17.999999999999975 6.899999999999979 -7.5100000000000025 0 -4.4408920985006262e-016 -1 1 0 0 -0 1 -4.4408920985006262e-016 0.70000000000002305
1 -20.899999999999995 1.6764367671839867e-015 7.5499999999999998 0 1 -2.2204460492503136e-016 0 2.2204460492503136e-016 1 1 -0 0 
1 17.800000000000001 6.3499999999999979 -7.5100000000000025 -1 0 0 0 1 -4.4408920985006262e-016 -0 -4.4408920985006262e-016 -1 
1 -20.899999999999995 7.549999999999998 -7.5100000000000033 1 0 -0 0 -1 4.4408920985006262e-016 0 -4.4408920985006262e-016 -1 
1 14.800000000000002 7.549999999999998 -7.5100000000000033 0 -1 2.2204460492503131e-016 -1 0 0 -0 -2.2204460492503131e-016 -1 
1 -20.899999999999995 3.8499999999999979 -7.5100000000000016 0 1 -2.2204460492503131e-016 1 0 0 0 -2.2204460492503131e-016 -1 
1 14.800000000000002 6.9499999999999975 -7.5100000000000025 -1 0 0 0 1 -4.4408920985006262e-016 -0 -4.4408920985006262e-016 -1 
1 18.300000000000001 3.8499999999999979 -7.5100000000000016 -1 0 0 0 1 -4.4408920985006262e-016 -0 -4.4408920985006262e-016 -1 
1 17.800000000000001 6.9499999999999975 -7.5100000000000025 0 -1 2.2204460492503131e-016 -1 0 0 -0 -2.2204460492503131e-016 -1 
Triangulations 0

TShapes 248
Ve
0.0001
25.2 6.61 0
0 0

0101101
*
Ve
0.0001
25.2 -6.61 0
0 0

0101101
*
Ed
 0.0001 1 1 0
1  1 0 0.9 14.12
2  1 1 21 0.9 14.12
2  2 2 22 0.9 14.12
0

0101000
+248 23 -247 23 *
Ve
1e-007
25.2 6.61 5.3
0 0

0101101
*
Ed
 1e-007 1 1 0
1  2 0 -0 5.3
2  3 1 6 -0 5.3
2  4 3 0 -0 5.3
4 G1 1 6 3 0
0

0101000
+248 24 -245 24 *
Ve
1e-007
25.2 -6.61 7.6
0 0

0101101
*
Ed
 1e-007 1 1 0
1  3 0 -0 7.6
2  5 1 25 -0 7.6
2  6 4 0 -0 7.6
4 G1 1 25 4 0
0

0101000
+247 26 -243 26 *
Ve
0.0001
25.2 5.31 5.3
0 0

0101101
*
Ed
 1e-007 1 1 0
1  4 0 0.9 2.2
2  7 1 30 0.9 2.2
2  8 5 31 0.9 2.2
0

0101000
+245 32 -241 32 *
Ve
1e-007
25.2 4.41 7.6
0 0

0101101
*
Ed
 1e-007 1 1 0
1  5 0 0.9 11.92
2  9 1 36 0.9 11.92
2  10 6 37 0.9 11.92
0

0101000
-243 38 +239 38 *
Ve
0.0001
25.2 4.41 5.3
0 0

0101101
*
Ed
 0.0001 1 1 0
1  6 0 2.2 3.1
2  11 1 40 2.2 3.1
2  12 5 41 2.2 3.1
0

0101000
+241 42 -237 42 *
Ed
 1e-007 1 1 0
1  7 0 -0 2.3
2  13 1 40 -0 2.3
2  14 7 0 -0 2.3
4 G1 1 40 7 0
0

0101000
+237 42 -239 42 *
Wi

0101100
+246 20 -244 0 +242 5 -240 29 -238 35 -236 39 -235 39 *
Fa
0  1e-007 1 0

0101000
+234 7 *
Ve
1e-007
24.3 7.51 0
0 0

0101101
*
Ve
1e-007
-24.3 7.51 0
0 0

0101101
*
Ed
 1e-007 1 1 0
1  8 0 0.899999999999999 49.5
2  15 2 22 0.899999999999999 49.5
2  16 8 21 0.899999999999999 49.5
0

0101000
-232 23 +231 23 *
Ed
 1e-007 1 1 0
1  9 0 1.5707963267949 3.14159265358979
2  17 2 46 1.5707963267949 3.14159265358979
2  18 3 0 1.5707963267949 3.14159265358979
0

0101000
+248 24 -232 24 *
Ve
1e-007
-25.2 6.61 0
0 0

0101101
*
Ed
 1e-007 1 1 0
1  10 0 3.14159265358979 4.71238898038469
2  19 2 47 3.14159265358979 4.71238898038469
2  20 9 0 3.14159265358979 4.71238898038469
0

0101000
+231 26 -228 26 *
Ve
1e-007
-25.2 -6.61 0
0 0

0101101
*
Ed
 1e-007 1 1 0
1  11 0 0.9 14.12
2  21 2 22 0.9 14.12
2  22 10 48 0.9 14.12
0

0101000
+226 23 -228 23 *
Ve
1e-007
24.3 -7.51 0
0 0

0101101
*
Ed
 1e-007 1 1 0
1  12 0 4.71238898038469 6.28318530717959
2  23 2 47 4.71238898038469 6.28318530717959
2  24 4 0 4.71238898038469 6.28318530717959
0

0101000
+247 26 -224 26 *
Ve
1e-007
-24.3 -7.51 0
0 0

0101101
*
Ed
 1e-007 1 1 0
1  13 0 0 1.5707963267949
2  25 2 47 0 1.5707963267949
2  26 11 0 0 1.5707963267949
0

0101000
+222 26 -226 26 *
Ed
 1e-007 1 1 0
1  14 0 0.899999999999999 49.5
2  27 2 22 0.899999999999999 49.5
2  28 12 21 0.899999999999999 49.5
0

0101000
+224 23 -222 23 *
Wi

0101100
-230 20 +229 0 +227 5 -246 20 -225 20 -223 5 -221 5 -220 20 *
Ve
1e-007
1.48 0 0
0 0

0101101
*
Ed
 1e-007 1 1 0
1  15 0 0 6.28318530717959
2  29 2 51 0 6.28318530717959
2  30 13 52 0 6.28318530717959
0

0101100
+218 53 -218 53 *
Wi

0101100
+217 50 *
Fa
0  1e-007 2 44

0101000
+219 45 +216 0 *
Ve
1e-007
24.3 7.51 5.3
0 0

0101101
*
Ed
 1e-007 1 1 0
1  16 0 -0 5.3
2  31 3 0 -0 5.3
2  32 8 6 -0 5.3
4 G1 3 0 8 6
0

0101000
+232 24 -214 24 *
Ed
 1e-007 1 1 0
1  17 0 1.5707963267949 3.14159265358979
2  33 3 0 1.5707963267949 3.14159265358979
2  34 5 54 1.5707963267949 3.14159265358979
0

0101000
+245 24 -214 24 *
Wi

0101100
+229 0 -244 0 +213 0 -212 0 *
Fa
0  1e-007 3 0

0101000
+211 0 *
Ve
1e-007
24.3 -7.51 7.6
0 0

0101101
*
Ed
 1e-007 1 1 0
1  18 0 0 7.6
2  35 4 0 0 7.6
2  36 12 25 0 7.6
4 G1 4 0 12 25
0

0101000
+224 26 -209 26 *
Ed
 1e-007 1 1 0
1  19 0 4.71238898038469 6.28318530717959
2  37 4 0 4.71238898038469 6.28318530717959
2  38 6 55 4.71238898038469 6.28318530717959
0

0101000
+243 26 -209 26 *
Wi

0101100
+223 0 -242 0 +208 0 -207 0 *
Fa
0  1e-007 4 0

0101000
+206 0 *
Ve
1e-007
21 7.51 5.3
0 0

0101101
*
Ed
 1e-007 1 1 0
1  20 0 0 3.3
2  39 5 31 0 3.3
2  40 8 30 0 3.3
0

0101000
-214 32 +204 32 *
Ve
1e-006
21 5.31 5.3
0 0

0101101
*
Ed
 1e-007 1 1 0
1  21 0 12.82 15.02
2  41 5 31 12.82 15.02
2  42 14 30 12.82 15.02
0

0101000
+202 32 -204 32 *
Ve
1e-006
24.3 5.31 5.3
0 0

0101101
*
Ed
 1e-006 1 1 0
1  22 0 0 3.3
2  43 5 60 0 3.3
2  44 15 61 0 3.3
0

0101000
-200 62 +202 62 *
Ed
 1e-007 1 1 0
1  23 0 3.14159265358979 4.71238898038469
2  45 5 41 3.14159265358979 4.71238898038469
2  46 7 0 3.14159265358979 4.71238898038469
0

0101000
+200 42 -237 42 *
Wi

0101100
-203 29 +212 0 -201 29 -240 29 +199 59 -236 39 +198 39 *
Fa
0  1e-007 5 57

0101000
+197 58 *
Ve
1e-007
24.3 5.31 7.6
0 0

0101101
*
Ed
 1e-007 1 1 0
1  24 0 3.14159265358979 4.71238898038469
2  47 6 66 3.14159265358979 4.71238898038469
2  48 7 0 3.14159265358979 4.71238898038469
0

0101000
+195 42 -239 42 *
Ve
1e-007
21 -7.51 7.6
0 0

0101101
*
Ed
 1e-007 1 1 0
1  25 0 0.899999999999999 4.2
2  49 6 37 0.899999999999999 4.2
2  50 12 36 0.899999999999999 4.2
0

0101000
+209 38 -193 38 *
Ve
1e-006
21 5.31 7.6
0 0

0101101
*
Ed
 1e-007 1 1 0
1  26 0 0 3.3
2  51 6 37 0 3.3
2  52 15 67 0 3.3
0

0101000
-195 38 +191 38 *
Ed
 1e-007 1 1 0
1  27 0 0 12.82
2  53 6 37 0 12.82
2  54 14 36 0 12.82
0

0101000
+193 38 -191 38 *
Wi

0101100
-238 65 -207 0 -194 4 -192 65 -190 65 -189 65 *
Fa
0  1e-007 6 0

0101000
+188 64 *
Ed
 1e-007 1 1 0
1  28 0 -0 2.3
2  55 7 0 -0 2.3
2  56 15 68 -0 2.3
4 G1 7 0 15 68
0

0101000
+200 42 -195 42 *
Wi

0101100
+198 0 -186 0 +235 0 -194 0 *
Fa
0  1e-007 7 0

0101000
+185 0 *
Ve
1e-007
-24.3 7.51 7.6
0 0

0101101
*
Ed
 1e-007 1 1 0
1  29 0 -0 7.6
2  57 8 25 -0 7.6
2  58 9 0 -0 7.6
4 G1 8 25 9 0
0

0101000
+231 26 -183 26 *
Ve
1e-007
-21 7.51 7.6
0 0

0101101
*
Ed
 1e-007 1 1 0
1  30 0 0.899999999999999 4.2
2  59 8 72 0.899999999999999 4.2
2  60 16 73 0.899999999999999 4.2
0

0101000
+183 74 -181 74 *
Ve
1e-007
21 7.51 3.8
0 0

0101101
*
Ed
 1e-007 1 1 0
1  31 0 0 1.5
2  61 8 76 0 1.5
2  62 14 76 0 1.5
0

0101000
+179 77 -204 77 *
Ve
1e-007
-21 7.51 3.8
0 0

0101101
*
Ed
 1e-007 1 1 0
1  32 0 0 3.8
2  63 8 79 0 3.8
2  64 17 0 0 3.8
0

0101000
+177 80 -181 80 *
Ed
 1e-007 1 1 0
1  33 0 4.2 46.2
2  65 8 83 4.2 46.2
2  66 18 22 4.2 46.2
0

0101000
+177 84 -179 84 *
Wi

0101100
+230 20 +213 0 -182 5 -203 29 -180 71 -178 75 +176 78 -175 82 *
Fa
0  1e-007 8 0

0101000
+174 7 *
Ve
1e-007
-25.2 6.61 7.6
0 0

0101101
*
Ed
 1e-007 1 1 0
1  34 0 0 7.6
2  67 9 0 0 7.6
2  68 10 85 0 7.6
4 G1 9 0 10 85
0

0101000
+228 26 -172 26 *
Ed
 1e-007 1 1 0
1  35 0 3.14159265358979 4.71238898038469
2  69 9 0 3.14159265358979 4.71238898038469
2  70 16 86 3.14159265358979 4.71238898038469
0

0101000
+183 26 -172 26 *
Wi

0101100
+227 0 -182 0 +171 0 -170 0 *
Fa
0  1e-007 9 0

0101000
+169 0 *
Ve
1e-007
-25.2 -6.61 7.6
0 0

0101101
*
Ed
 1e-007 1 1 0
1  36 0 0.9 14.12
2  71 10 90 0.9 14.12
2  72 16 73 0.9 14.12
0

0101000
+167 74 -172 74 *
Ed
 1e-007 1 1 0
1  37 0 0 7.6
2  73 10 85 0 7.6
2  74 11 0 0 7.6
4 G1 10 85 11 0
0

0101000
+226 26 -167 26 *
Wi

0101100
-166 89 -165 0 +171 0 +225 91 *
Fa
0  1e-007 10 0

0101000
+164 88 *
Ve
1e-007
-24.3 -7.51 7.6
0 0

0101101
*
Ed
 1e-007 1 1 0
1  38 0 0 7.6
2  75 11 0 0 7.6
2  76 12 25 0 7.6
4 G1 11 0 12 25
0

0101000
+222 26 -162 26 *
Ed
 1e-007 1 1 0
1  39 0 0 1.5707963267949
2  77 11 0 0 1.5707963267949
2  78 16 86 0 1.5707963267949
0

0101000
+162 26 -167 26 *
Wi

0101100
+221 0 -161 0 +165 0 -160 0 *
Fa
0  1e-007 11 0

0101000
+159 0 *
Ve
1e-007
21 -7.51 3.8
0 0

0101101
*
Ed
 1e-007 1 1 0
1  40 0 -1.5 2.3
2  79 12 0 -1.5 2.3
2  80 14 0 -1.5 2.3
0

0101000
+157 93 -193 93 *
Ve
1e-007
-21 -7.51 3.8
0 0

0101101
*
Ed
 1e-007 1 1 0
1  41 0 4.2 46.2
2  81 12 83 4.2 46.2
2  82 18 22 4.2 46.2
0

0101000
+157 84 -155 84 *
Ve
1e-007
-21 -7.51 7.6
0 0

0101101
*
Ed
 1e-007 1 1 0
1  42 0 0 3.8
2  83 12 79 0 3.8
2  84 17 0 0 3.8
0

0101000
+155 80 -153 80 *
Ed
 1e-007 1 1 0
1  43 0 0 3.3
2  85 12 72 0 3.3
2  86 16 73 0 3.3
0

0101000
-162 74 +153 74 *
Wi

0101100
-192 65 -208 0 +156 25 +220 91 -154 94 +161 0 -152 95 -151 89 *
Fa
0  1e-007 12 0

0101000
+150 92 *
Ve
1e-007
1.48 0 -0.51
0 0

0101101
*
Ed
 1e-007 1 1 0
1  44 0 0 0.51
3  87 88CN 13 0 0 0.51
0

0101000
+218 96 -148 96 *
Ed
 1e-007 1 1 0
1  45 0 0 6.28318530717959
2  89 13 99 0 6.28318530717959
2  90 19 100 0 6.28318530717959
0

0101100
+148 101 -148 101 *
Wi

0101000
-217 50 -147 0 +146 98 +147 0 *
Fa
0  1e-007 13 0

0101000
+145 0 *
Ed
 1e-007 1 1 0
1  46 0 0 2.3
2  91 14 103 0 2.3
2  92 15 0 0 2.3
0

0101000
+202 104 -191 104 *
Ed
 1e-007 1 1 0
1  47 0 0 15.02
2  93 14 108 0 15.02
2  94 18 109 0 15.02
0

0101000
+157 110 -179 110 *
Wi

0101000
+156 0 +189 102 -143 19 +201 105 -178 106 -142 107 *
Fa
0  1e-007 14 0

0101000
-141 0 *
Wi

0101100
-199 112 -186 0 +143 68 +190 113 *
Fa
0  1e-007 15 0

0101000
+139 111 *
Ed
 1e-007 1 1 0
1  48 0 0 15.02
2  95 16 73 0 15.02
2  96 17 116 0 15.02
0

0101000
+181 74 -153 74 *
Wi

0101100
-180 89 +170 0 -137 89 -166 89 -151 89 -160 0 *
Fa
0  1e-007 16 0

0101000
+136 115 *
Ed
 1e-007 1 1 0
1  49 0 0 15.02
2  97 17 118 0 15.02
2  98 18 119 0 15.02
0

0101000
+177 120 -155 120 *
Wi

0101000
+176 0 -134 117 +137 121 -152 0 *
Fa
0  1e-007 17 0

0101000
+133 0 *
Wi

0101000
-175 123 +142 124 -154 123 +134 125 *
Fa
0  1e-007 18 122

0101000
+131 0 *
Wi

0101100
+146 0 *
Fa
0  1e-007 19 0

0101000
-129 49 *
Sh

0101100
-233 6 -215 43 +210 0 -205 5 +196 56 +187 63 -184 39 -173 6 +168 5 -163 87 
-158 5 -149 6 -144 43 -140 6 +138 56 +135 114 +132 78 +130 75 -128 126 *
So

0100000
+127 0 *
Ve
1e-007
18.3 7.51 6.89999999999998
0 0

0101101
*
Ve
1e-007
18.3 -7.50999999999999 6.89999999999998
0 0

0101101
*
Ed
 1e-007 1 1 0
1  50 0 0 15.02
2  99 20 0 0 15.02
2  100 21 0 0 15.02
4 G1 20 0 21 0
0

0101000
+125 130 -124 130 *
Ve
1e-007
18 7.51 7.2
0 0

0101101
*
Ve
1e-007
18 -7.50999999999999 7.20000000000001
0 0

0101101
*
Ed
 1e-007 1 1 0
1  51 0 0 15.02
2  101 20 0 0 15.02
2  102 22 0 0 15.02
4 G1 20 0 22 0
0

0101000
+122 130 -121 130 *
Ed
 1e-007 1 1 0
1  52 0 0 1.5707963267949
2  103 20 135 0 1.5707963267949
2  104 23 136 0 1.5707963267949
0

0101000
+125 137 -122 137 *
Ed
 1e-007 1 1 0
1  53 0 0 1.5707963267949
2  105 20 140 0 1.5707963267949
2  106 24 136 0 1.5707963267949
0

0101000
+124 141 -121 141 *
Wi

0101000
+123 0 -120 0 -119 134 +118 139 *
Fa
0  1e-007 20 0

0101000
+117 0 *
Ve
1e-007
18.3 7.51 6.35
0 0

0101101
*
Ed
 1e-007 1 1 0
1  54 0 0 0.549999999999981
2  107 21 135 0 0.549999999999981
2  108 23 136 0 0.549999999999981
0

0101000
+125 137 -115 137 *
Ve
1e-007
18.3 -7.50999999999999 6.35
0 0

0101101
*
Ed
 1e-007 1 1 0
1  55 0 0 15.02
2  109 21 144 0 15.02
2  110 25 0 0 15.02
0

0101000
+115 145 -113 145 *
Ed
 1e-007 1 1 0
1  56 0 0 0.549999999999981
2  111 21 140 0 0.549999999999981
2  112 24 136 0 0.549999999999981
0

0101000
+124 141 -113 141 *
Wi

0101000
-114 142 -112 143 +111 146 +123 129 *
Fa
0  1e-007 21 129

0101000
+110 0 *
Ve
1e-007
14.85 7.51 7.2
0 0

0101101
*
Ve
1e-007
14.85 -7.50999999999999 7.20000000000001
0 0

0101101
*
Ed
 1e-007 1 1 0
1  57 0 0 15.02
2  113 22 0 0 15.02
2  114 26 0 0 15.02
0

0101000
+108 130 -107 130 *
Ed
 1e-007 1 1 0
1  58 0 0 3.15
2  115 22 135 0 3.15
2  116 23 136 0 3.15
0

0101000
+108 137 -122 137 *
Ed
 1e-007 1 1 0
1  59 0 0 3.15
2  117 22 140 0 3.15
2  118 24 136 0 3.15
0

0101000
+107 141 -121 141 *
Wi

0101000
+106 0 -120 0 -105 134 +104 139 *
Fa
0  1e-007 22 0

0101000
+103 0 *
Ve
1e-007
18.3 7.51 3.89999999999999
0 0

0101101
*
Ed
 1e-007 1 1 0
1  60 0 0.049999999999998 2.5
2  119 23 152 0.049999999999998 2.5
2  120 27 153 0.049999999999998 2.5
0

0101000
+101 154 -115 154 *
Ve
1e-007
18.7 7.51 3.89999999999999
0 0

0101101
*
Ed
 1e-007 1 1 0
1  61 0 0 0.399999999999999
2  121 23 136 0 0.399999999999999
2  122 28 135 0 0.399999999999999
0

0101000
+101 137 -99 137 *
Ve
1e-007
14.85 7.51 7.6
0 0

0101101
*
Ed
 1e-007 1 1 0
1  62 0 0 0.4
2  123 23 136 0 0.4
2  124 26 135 0 0.4
0

0101000
+97 137 -108 137 *
Ve
1.00000001776357e-007
18.7 7.51 6.89999999999998
0 0

0101101
*
Ed
 1e-007 1 1 0
1  63 0 0 2.99999999999998
2  125 23 136 0 2.99999999999998
2  126 29 135 0 2.99999999999998
0

0101000
+99 137 -95 137 *
Ve
1e-007
18 7.51 7.6
0 0

0101101
*
Ed
 1e-007 1 1 0
1  64 0 0 3.15
2  127 23 136 0 3.15
2  128 30 135 0 3.15
0

0101000
+93 137 -97 137 *
Ed
 1e-007 1 1 0
1  65 0 0 1.5707963267949
2  129 23 136 0 1.5707963267949
2  130 31 135 0 1.5707963267949
0

0101000
+95 137 -93 137 *
Wi

0101000
-114 142 +119 142 +100 151 -105 142 -98 142 -96 142 -94 142 -92 142 -91 142 *
Fa
0  1e-007 23 147

0101000
+90 0 *
Ve
1e-007
18.3 -7.51 3.9
0 0

0101101
*
Ed
 1e-007 1 1 0
1  66 0 0.049999999999998 2.5
2  131 24 158 0.049999999999998 2.5
2  132 32 153 0.049999999999998 2.5
0

0101000
+88 159 -113 159 *
Ve
1e-007
18.7 -7.51 3.9
0 0

0101101
*
Ed
 1e-007 1 1 0
1  67 0 0 0.399999999999999
2  133 24 136 0 0.399999999999999
2  134 28 140 0 0.399999999999999
0

0101000
+88 141 -86 141 *
Ve
1e-007
14.85 -7.50999999999999 7.60000000000001
0 0

0101101
*
Ed
 1e-007 1 1 0
1  68 0 0 0.4
2  135 24 136 0 0.4
2  136 26 140 0 0.4
0

0101000
+84 141 -107 141 *
Ve
1.00000001776357e-007
18.7 -7.50999999999999 6.89999999999998
0 0

0101101
*
Ed
 1e-007 1 1 0
1  69 0 0 2.99999999999998
2  137 24 136 0 2.99999999999998
2  138 29 140 0 2.99999999999998
0

0101000
+86 141 -82 141 *
Ve
1.00001001168611e-007
18 -7.50999999999999 7.60000000000001
0 0

0101101
*
Ed
 1e-007 1 1 0
1  70 0 0 3.15
2  139 24 136 0 3.15
2  140 30 140 0 3.15
0

0101000
+80 141 -84 141 *
Ed
 1e-007 1 1 0
1  71 0 0 1.5707963267949
2  141 24 136 0 1.5707963267949
2  142 31 140 0 1.5707963267949
0

0101000
+82 141 -80 141 *
Wi

0101000
-111 146 +118 146 +87 157 -104 146 -85 146 -83 146 -81 146 -79 146 -78 146 *
Fa
0  1e-007 24 155

0101000
+77 0 *
Ve
1e-007
17.8 7.51 6.35
0 0

0101101
*
Ed
 1e-007 1 1 0
1  72 0 0 0.5
2  143 25 160 0 0.5
2  144 27 153 0 0.5
0

0101000
+115 154 -75 154 *
Ve
1e-007
17.8 -7.50999999999999 6.35
0 0

0101101
*
Ed
 1e-007 1 1 0
1  73 0 0 0.5
2  145 25 161 0 0.5
2  146 32 153 0 0.5
0

0101000
+113 159 -73 159 *
Ed
 1e-007 1 1 0
1  74 0 0 15.02
2  147 25 0 0 15.02
2  148 33 0 0 15.02
0

0101000
+75 145 -73 145 *
Wi

0101000
+112 143 -74 151 +72 157 -71 143 *
Fa
0  1e-007 25 143

0101000
+70 0 *
Ed
 1e-007 1 1 0
1  75 0 0 15.02
2  149 26 0 0 15.02
2  150 30 0 0 15.02
0

0101000
+97 130 -84 130 *
Wi

0101000
+68 0 -106 0 -96 134 +83 139 *
Fa
0  1e-007 26 0

0101000
+67 0 *
Ve
1e-007
-20.9 7.51 7.55
0 0

0101101
*
Ve
1e-007
-20.9 7.51 3.85
0 0

0101101
*
Ed
 1e-007 1 1 0
1  76 0 0 3.7
2  151 27 153 0 3.7
2  152 34 160 0 3.7
0

0101000
+65 154 -64 154 *
Ve
1e-007
14.8 7.51 7.55
0 0

0101101
*
Ed
 1e-007 1 1 0
1  77 0 0 35.7
2  153 27 153 0 35.7
2  154 35 160 0 35.7
0

0101000
+62 154 -65 154 *
Ve
1e-007
18.3 7.51 3.85
0 0

0101101
*
Ed
 1e-007 1 1 0
1  78 0 0 39.2
2  155 27 153 0 39.2
2  156 36 160 0 39.2
0

0101000
+64 154 -60 154 *
Ve
1e-007
14.8 7.51 6.94999999999999
0 0

0101101
*
Ed
 1e-007 1 1 0
1  79 0 0 0.600000000000001
2  157 27 153 0 0.600000000000001
2  158 37 160 0 0.600000000000001
0

0101000
+58 154 -62 154 *
Ed
 1e-007 1 1 0
1  80 0 0 0.049999999999998
2  159 27 153 0 0.049999999999998
2  160 38 160 0 0.049999999999998
0

0101000
+60 154 -101 154 *
Ve
1e-007
17.8 7.51 6.94999999999999
0 0

0101101
*
Ed
 1e-007 1 1 0
1  81 0 0 3
2  161 27 153 0 3
2  162 39 160 0 3
0

0101000
+55 154 -58 154 *
Ed
 1e-007 1 1 0
1  82 0 0 0.6
2  163 27 153 0 0.6
2  164 33 160 0 0.6
0

0101000
+75 154 -55 154 *
Wi

0101000
-63 151 -61 151 -59 151 -57 151 -56 151 -54 151 -100 151 -53 151 -74 151 *
Fa
0  1e-007 27 162

0101000
+52 0 *
Ed
 1e-007 1 1 0
1  83 0 0 15.02
2  165 28 0 0 15.02
2  166 38 163 0 15.02
0

0101000
+101 130 -88 130 *
Ed
 1e-007 1 1 0
1  84 0 0 15.02
2  167 28 0 0 15.02
2  168 29 0 0 15.02
0

0101000
+99 130 -86 130 *
Wi

0101000
+50 129 -98 142 +85 146 -49 129 *
Fa
0  1e-007 28 129

0101000
+48 0 *
Ed
 1.00000001776357e-007 1 1 0
1  85 0 0 15.02
2  169 29 0 0 15.02
2  170 31 0 0 15.02
4 G1 29 0 31 0
0

0101000
+95 130 -82 130 *
Wi

0101000
+49 0 -46 0 -94 134 +81 139 *
Fa
0  1e-007 29 0

0101000
+45 0 *
Ed
 1e-007 1 1 0
1  86 0 0 15.02
2  171 30 0 0 15.02
2  172 31 0 0 15.02
4 G1 30 0 31 0
0

0101000
+93 130 -80 130 *
Wi

0101000
+43 0 -68 0 -92 134 +79 139 *
Fa
0  1e-007 30 0

0101000
+42 0 *
Wi

0101000
+46 0 -43 0 -91 134 +78 139 *
Fa
0  1e-007 31 0

0101000
+40 0 *
Ve
1e-007
-20.9 -7.50999999999999 7.55
0 0

0101101
*
Ve
1e-007
-20.9 -7.51 3.85
0 0

0101101
*
Ed
 1e-007 1 1 0
1  87 0 0 3.7
2  173 32 153 0 3.7
2  174 34 161 0 3.7
0

0101000
+38 159 -37 159 *
Ve
1e-007
14.8 -7.50999999999999 7.55
0 0

0101101
*
Ed
 1e-007 1 1 0
1  88 0 0 35.7
2  175 32 153 0 35.7
2  176 35 161 0 35.7
0

0101000
+35 159 -38 159 *
Ve
1e-007
18.3 -7.51 3.85
0 0

0101101
*
Ed
 1e-007 1 1 0
1  89 0 0 39.2
2  177 32 153 0 39.2
2  178 36 161 0 39.2
0

0101000
+37 159 -33 159 *
Ve
1e-007
14.8 -7.50999999999999 6.95
0 0

0101101
*
Ed
 1e-007 1 1 0
1  90 0 0 0.600000000000001
2  179 32 153 0 0.600000000000001
2  180 37 161 0 0.600000000000001
0

0101000
+31 159 -35 159 *
Ed
 1e-007 1 1 0
1  91 0 0 0.049999999999998
2  181 32 153 0 0.049999999999998
2  182 38 161 0 0.049999999999998
0

0101000
+33 159 -88 159 *
Ve
1e-007
17.8 -7.50999999999999 6.95
0 0

0101101
*
Ed
 1e-007 1 1 0
1  92 0 0 3
2  183 32 153 0 3
2  184 39 161 0 3
0

0101000
+28 159 -31 159 *
Ed
 1e-007 1 1 0
1  93 0 0 0.6
2  185 32 153 0 0.6
2  186 33 161 0 0.6
0

0101000
+73 159 -28 159 *
Wi

0101000
-36 157 -34 157 -32 157 -30 157 -29 157 -27 157 -87 157 -26 157 -72 157 *
Fa
0  1e-007 32 164

0101000
+25 0 *
Ed
 1e-007 1 1 0
1  94 0 0 15.02
2  187 33 0 0 15.02
2  188 39 0 0 15.02
0

0101000
+55 145 -28 145 *
Wi

0101000
+71 0 -23 0 -53 165 +26 166 *
Fa
0  1e-007 33 0

0101000
+22 0 *
Ed
 1e-007 1 1 0
1  95 0 0 15.02
2  189 34 0 0 15.02
2  190 35 0 0 15.02
0

0101000
+65 145 -38 145 *
Ed
 1e-007 1 1 0
1  96 0 0 15.02
2  191 34 0 0 15.02
2  192 36 0 0 15.02
0

0101000
+64 145 -37 145 *
Wi

0101000
+20 0 -19 0 -63 165 +36 166 *
Fa
0  1e-007 34 0

0101000
+18 0 *
Ed
 1e-007 1 1 0
1  97 0 0 15.02
2  193 35 0 0 15.02
2  194 37 0 0 15.02
0

0101000
+62 145 -35 145 *
Wi

0101000
+16 0 -20 0 -61 165 +34 166 *
Fa
0  1e-007 35 0

0101000
+15 0 *
Ed
 1e-007 1 1 0
1  98 0 0 15.02
2  195 36 0 0 15.02
2  196 38 0 0 15.02
0

0101000
+60 145 -33 145 *
Wi

0101000
+19 0 -13 0 -59 165 +32 166 *
Fa
0  1e-007 36 0

0101000
+12 0 *
Ed
 1e-007 1 1 0
1  99 0 0 15.02
2  197 37 0 0 15.02
2  198 39 0 0 15.02
0

0101000
+58 145 -31 145 *
Wi

0101000
+10 0 -16 0 -57 165 +30 166 *
Fa
0  1e-007 37 0

0101000
+9 0 *
Wi

0101000
-56 151 -50 129 +29 157 +13 143 *
Fa
0  1e-007 38 143

0101000
+7 0 *
Wi

0101000
+23 0 -10 0 -54 165 +27 166 *
Fa
0  1e-007 39 0

0101000
+5 0 *
Sh

0101100
+116 129 -109 0 -102 129 +89 0 -76 0 -69 0 -66 129 +51 0 -47 0 -44 129 
-41 129 -39 129 -24 0 -21 143 -17 143 -14 143 -11 143 -8 143 -6 0 -4 143 
*
So

0100000
+3 0 *
Co

1100000
+126 0 +2 128 *

+1 1 