DBRep_DrawableShape

CASCADE Topology V1, (c) Matra-Datavision
Locations 2
1
              1               0               0               0 
              0               1               0               0 
              0               0               1               0 
2  1 -1 0
Curve2ds 14
1 6.2831853071795862 0 0 1 
8 0 9
1 0 0 0 1 
1 0 0 1 0 
2 0 -0.80999999999999872 0 1 1 -0 0.80999999999999872
1 0 9 1 0 
8 0 6.2831853071795862
1 3.1415926535897931 9.4247779607693793 -0 -1 
1 0 3.1415926535897931 1 0 
8 3.1415926535897931 4.7123889803846897
1 0 9.4247779607693793 1 0 
1 4.7123889803846897 0 0 1 
8 3.1415926535897931 9.4247779607693793
1 9.4247779607693793 0 -1 -0 
1 6.2831853071795862 0 0 1 
8 0 16.77
1 0 0 0 1 
1 0 16.77 1 0 
2 0 -0.8100000000000005 0 1 1 -0 0.8100000000000005
Curves 7
1 19.919999999999998 -4.5 5.6600000000000001 0 1 0 
2 19.109999999999999 -4.5 5.6600000000000001 0 1 0 1 0 0 0 0 -1 0.81000000000000005
2 19.109999999999999 4.5 5.6600000000000001 0 1 0 1 0 0 0 0 -1 0.81000000000000005
2 20.73 4.5 5.6600000000000001 0 -0 -1 1 0 0 0 -1 0 0.81000000000000094
2 20.73 6.120000000000001 5.6600000000000001 -1 -1.8369701987210297e-016 0 -1.8369701987210297e-016 1 0 -0 0 -1 0.81000000000000005
1 20.73 5.3100000000000023 5.6600000000000001 1 0 0 
2 37.5 6.1200000000000028 5.6600000000000001 1 0 0 0 -1 0 0 0 -1 0.81000000000000005
Polygon3D 0
PolygonOnTriangulations 0
Surfaces 5
10 0 6.2831853071795862 0 9
2 19.109999999999999 -4.5 5.6600000000000001 0 1 0 1 0 0 0 0 -1 0.81000000000000005
1 19.919999999999998 -4.5 5.6600000000000001 -0 -1 0 0 -0 -1 1 0 0 
10 3.1415926535897931 4.7123889803846897 3.1415926535897931 9.4247779607693793
5 20.73 4.5 5.6600000000000001 0 -0 -1 1 0 0 0 -1 0 1.620000000000001 0.81000000000000005
10 0 6.2831853071795862 0 16.77
2 20.73 6.1200000000000028 5.6600000000000001 1 0 0 0 -1 0 0 0 -1 0.81000000000000005
1 37.5 5.3100000000000023 5.6600000000000001 -1 0 0 0 0 -1 -0 -1 -0 
Triangulations 0

TShapes 23
Ve
1.00000001991237e-007
19.92 -4.5 5.66
0 0

0101101
*
Ve
1.00000001991237e-007
19.92 4.5 5.66
0 0

0101101
*
Ed
 1e-007 1 1 0
1  1 0 0 9
3  1 2G1 1 0 0 9
0

0101000
+23 2 -22 2 *
Ed
 1e-007 1 1 0
1  2 0 0 6.28318530717959
2  3 1 0 0 6.28318530717959
2  4 2 0 0 6.28318530717959
0

0101100
-23 2 +23 2 *
Ed
 1e-007 1 1 0
1  3 0 0 6.28318530717959
2  5 1 0 0 6.28318530717959
2  6 3 0 0 6.28318530717959
4 G1 1 0 3 0
0

0101100
+22 2 -22 2 *
Wi

0101100
+21 0 +20 0 -21 0 -19 0 *
Fa
0  1e-007 1 0

0101000
+18 0 *
Ve
1e-006
20.73 5.31 5.66
0 0

0101101
*
Ed
 1e-007 1 1 0
1  4 0 3.14159265358979 4.71238898038469
3  7 8G1 3 0 3.14159265358979 4.71238898038469
0

0101000
+22 2 -16 2 *
Ed
 1e-007 1 1 0
1  5 0 3.14159265358979 9.42477796076938
2  9 3 0 3.14159265358979 9.42477796076938
2  10 4 0 3.14159265358979 9.42477796076938
4 G1 3 0 4 0
0

0101100
+16 2 -16 2 *
Wi

0101100
+15 0 +19 0 -15 0 +14 0 *
Fa
0  1e-007 3 0

0101000
+13 0 *
Ve
1.00000003388719e-007
37.5 5.31 5.66
0 0

0101101
*
Ed
 1e-007 1 1 0
1  6 0 0 16.77
3  11 12G1 4 0 0 16.77
0

0101000
+16 2 -11 2 *
Ed
 1e-007 1 1 0
1  7 0 0 6.28318530717959
2  13 4 0 0 6.28318530717959
2  14 5 0 0 6.28318530717959
0

0101100
-11 2 +11 2 *
Wi

0101100
+10 0 -14 0 -10 0 -9 0 *
Fa
0  1e-007 4 0

0101000
+8 0 *
Wi

0101100
-20 0 *
Fa
0  1e-007 2 0

0101000
+6 0 *
Wi

0101100
-9 0 *
Fa
0  1e-007 5 0

0101000
+4 0 *
Sh

0101100
-17 0 -12 0 -7 0 -5 0 +3 0 *
So

1100100
-2 0 *

+1 1 