DBRep_DrawableShape

CASCADE Topology V1, (c) Matra-Datavision
Locations 56
1
              1               0               0               0 
              0               1               0               0 
              0               0               1               0 
1
              1               0               0               0 
              0               1               0               0 
              0               0               1               0 
1
              1               0               0               0 
              0               1               0               0 
              0               0               1               0 
1
              1               0               0               0 
              0               1               0               0 
              0               0               1               0 
2  2 1 3 -1 4 1 0
1
              1               0               0               0 
              0               1               0               0 
              0               0               1               0 
1
              1               0               0               0 
              0               1               0               0 
              0               0               1               0 
1
              1               0               0               0 
              0               1               0               0 
              0               0               1               0 
2  6 -1 7 1 8 -1 0
1
              1               0               0               0 
              0               1               0               0 
              0               0               1               0 
2  10 1 6 -1 7 1 8 -1 0
2  10 -1 0
2  4 -1 3 1 2 -1 8 1 7 -1 6 1 10 -1 0
2  1 -1 4 -1 3 1 2 -1 8 1 7 -1 6 1 10 -1 0
2  6 1 10 -1 0
1
              1               0               0               0 
              0              -1               0              -0 
              0               0              -1               0 
2  16 1 8 -1 0
2  6 -1 7 1 16 -1 0
2  8 1 16 -1 0
2  1 -1 4 -1 3 1 2 -1 8 1 16 -1 0
2  7 1 8 -1 2 1 3 -1 4 1 0
2  4 -1 3 1 2 -1 8 1 7 -1 0
2  1 -1 4 -1 3 1 2 -1 8 1 7 -1 0
2  10 1 6 -1 0
1
              1               0               0               0 
              0               1               0               0 
              0               0               1             3.8 
2  10 1 6 -1 25 1 0
2  25 -1 6 1 10 -1 0
2  1 -1 4 -1 3 1 2 -1 8 1 7 -1 25 -1 6 1 10 -1 0
2  1 -1 4 -1 3 1 2 -1 0
1
              1               0               0               0 
              0               1               0               0 
              0               0               1           -0.51 
2  16 1 8 -1 30 1 0
2  30 -1 8 1 16 -1 0
2  16 -1 0
2  1 -1 4 -1 3 1 2 -1 30 -1 8 1 16 -1 0
2  6 -1 25 1 7 1 8 -1 2 1 3 -1 0
2  10 1 6 -1 25 1 7 1 8 -1 2 1 3 -1 0
2  4 -1 3 1 2 -1 8 1 7 -1 25 -1 6 1 10 -1 0
1
              1               0               0              -0 
              0               1               0               0 
              0               0               1             3.8 
2  38 1 3 -1 0
2  6 -1 25 1 7 1 8 -1 2 1 38 -1 0
2  3 1 38 -1 0
2  1 -1 4 -1 3 1 38 -1 0
2  8 -1 30 1 2 1 3 -1 4 1 0
2  4 -1 0
2  1 -1 4 -1 0
1
              1               0               0               0 
              0               1               0               0 
              0               0               1             3.8 
2  38 1 3 -1 46 1 0
2  46 -1 3 1 38 -1 0
2  38 -1 0
2  1 -1 4 -1 46 -1 3 1 38 -1 0
2  3 -1 46 1 4 1 0
2  4 -1 46 -1 3 1 38 -1 0
2  1 -1 0
2  38 1 3 -1 46 1 4 1 0
2  10 1 6 -1 25 1 7 1 8 -1 2 1 3 -1 4 1 0
2  10 1 6 -1 7 1 8 -1 2 1 3 -1 4 1 0
Curve2ds 42
1 0 0 1 0 
1 0 0 0 1 
1 0 -15.02 0 1 
1 0 0 0 -1 
1 50.399999999999999 0 0 -1 
1 0 0 1 0 
1 50.399999999999999 -15.02 -1 0 
1 0 0 0 -1 
2 25.199999999999999 -7.5099999999999998 1 0 0 -1 1.48
1 0 0 1 0 
1 0 0 0 -1 
1 0 50.399999999999999 -1 0 
1 15.02 0 0 -1 
1 0 0 1 0 
1 0 -3.7999999999999998 1 0 
1 50.399999999999999 0 0 -1 
1 0 0 0 -1 
1 6.2831853071795862 0 0 -1 
1 0 -0.51000000000000001 1 0 
2 -1.48 0 1 0 0 -1 1.48
1 0 0 1 0 
1 -3.7999999999999998 0 0 1 
1 50.399999999999999 -15.02 -1 0 
1 3.7999999999999998 0 0 -1 
1 4.1999999999999993 0 0 -1 
1 0 0 1 0 
1 0 0 0 -1 
1 -3.7999999999999998 4.1999999999999993 -1 0 
1 0 -3.7999999999999998 1 0 
1 4.1999999999999993 0 0 -1 
1 15.02 0 0 -1 
1 3.7999999999999998 -46.200000000000003 1 0 
1 0 0 1 0 
1 -7.5999999999999996 0 0 1 
1 4.1999999999999993 -15.02 -1 0 
1 7.5999999999999996 -46.200000000000003 0 -1 
1 0 -15.02 0 1 
1 7.5999999999999996 0 0 -1 
1 0 0 -1 0 
1 0 -15.02 1 0 
1 0 0 1 0 
1 0 -50.399999999999999 1 0 
Curves 21
1 -25.199999999999999 7.5099999999999998 0 1 0 0 
1 -25.199999999999999 -7.5099999999999998 0 0 1 0 
1 25.199999999999999 7.5099999999999998 0 0 -1 0 
1 25.199999999999999 -7.5099999999999998 0 -1 0 0 
2 0 0 0 0 0 1 1 0 -0 -0 1 0 1.48
1 25.199999999999999 7.5099999999999998 0 0 0 1 
1 25.199999999999999 -7.5099999999999998 0 0 0 1 
1 25.199999999999999 7.5099999999999998 0 0 -1 0 
1 1.48 0 0 0 0 -1 
2 0 0 0 0 0 1 1 0 -0 -0 1 0 1.48
1 -25.199999999999999 7.5099999999999998 0 1 0 0 
1 25.199999999999999 -7.5099999999999998 0 -1 0 0 
1 -21 7.5099999999999998 0 0 -1 0 
1 -21 7.5099999999999998 3.7999999999999998 0 0 1 
1 -21 7.5099999999999998 0 0 -1 0 
1 -21 -7.5099999999999998 3.7999999999999998 0 0 1 
1 -25.199999999999999 7.5099999999999998 0 1 0 0 
1 -21 -7.5099999999999998 0 -1 0 0 
1 -25.199999999999999 -7.5099999999999998 0 0 1 0 
1 -25.199999999999999 7.5099999999999998 0 0 0 1 
1 -25.199999999999999 -7.5099999999999998 0 0 0 1 
Polygon3D 0
PolygonOnTriangulations 0
Surfaces 10
1 -25.199999999999999 7.5099999999999998 0 -0 0 1 1 0 0 0 1 -0 
1 -25.199999999999999 7.5099999999999998 0 0 -1 0 0 -0 -1 1 0 0 
1 -25.199999999999999 -7.5099999999999998 0 1 0 0 -0 0 1 0 -1 0 
1 25.199999999999999 7.5099999999999998 0 1 0 -0 0 -1 0 0 -0 -1 
1 25.199999999999999 -7.5099999999999998 0 0 1 -0 0 0 1 1 -0 0 
2 0 0 0 -0 -0 1 1 0 0 0 -1 -0 1.48
1 -25.199999999999999 7.5099999999999998 0 -0 0 1 1 0 0 0 1 -0 
1 1.48 0 0 0 0 1 1 0 -0 -0 1 0 
1 -21 7.5099999999999998 3.7999999999999998 1 0 -0 0 -1 0 0 -0 -1 
1 -25.199999999999999 7.5099999999999998 3.7999999999999998 -0 0 1 1 0 0 0 1 -0 
Triangulations 0

TShapes 58
Ve
1e-007
-25.2 7.51 0
0 0

0101101
*
Ve
1e-007
25.2 7.51 0
0 0

0101101
*
Ed
 1e-007 1 1 0
1  1 0 0 50.4
2  1 1 12 0 50.4
2  2 2 13 0 50.4
0

0101000
+58 14 -57 14 *
Ve
1e-007
-25.2 -7.51 0
0 0

0101101
*
Ed
 1e-007 1 1 0
1  2 0 0 15.02
2  3 1 12 0 15.02
2  4 3 13 0 15.02
0

0101000
+55 14 -58 14 *
Ve
1e-007
25.2 -7.51 0
0 0

0101101
*
Ed
 1e-007 1 1 0
1  3 0 0 15.02
2  5 1 12 0 15.02
2  6 4 15 0 15.02
0

0101000
+57 14 -53 14 *
Ed
 1e-007 1 1 0
1  4 0 0 50.4
2  7 1 12 0 50.4
2  8 5 13 0 50.4
0

0101000
+53 14 -55 14 *
Wi

0101000
-56 11 -54 11 -52 11 -51 11 *
Ve
1e-007
1.48 0 0
0 0

0101101
*
Ed
 1e-007 1 1 0
1  5 0 0 6.28318530717959
2  9 1 18 0 6.28318530717959
2  10 6 19 0 6.28318530717959
0

0101100
+49 20 -49 20 *
Wi

0101000
+48 17 *
Fa
0  1e-007 1 9

0101000
+50 0 +47 0 *
Ve
1e-007
25.2 7.51 3.8
0 0

0101101
*
Ed
 1e-007 1 1 0
1  6 0 0 3.8
2  11 4 0 0 3.8
2  12 2 22 0 3.8
0

0101000
+57 23 -45 23 *
Ve
1e-007
25.2 -7.51 3.8
0 0

0101101
*
Ed
 1e-007 1 1 0
1  7 0 0 3.8
2  13 4 0 0 3.8
2  14 5 22 0 3.8
0

0101000
+53 23 -43 23 *
Ed
 1e-007 1 1 0
1  8 0 0 15.02
2  15 4 27 0 15.02
2  16 7 12 0 15.02
0

0101000
+45 28 -43 28 *
Wi

0101000
+44 0 -42 0 -52 24 +41 26 *
Fa
0  1e-007 4 0

0101000
+40 0 *
Ve
1e-007
1.48 0 -0.51
0 0

0101101
*
Ed
 1e-007 1 1 0
1  9 0 0 0.51
3  17 18CN 6 0 0 0.51
0

0101000
+49 29 -38 29 *
Ed
 1e-007 1 1 0
1  10 0 0 6.28318530717959
2  19 6 32 0 6.28318530717959
2  20 8 33 0 6.28318530717959
0

0101100
+38 34 -38 34 *
Wi

0101000
-48 17 -37 0 +36 31 +37 0 *
Fa
0  1e-007 6 0

0101000
+35 0 *
Ve
1e-007
-21 7.51 3.8
0 0

0101101
*
Ed
 1e-007 1 1 0
1  11 0 4.2 50.4
2  21 7 12 4.2 50.4
2  22 2 37 4.2 50.4
0

0101000
+33 28 -45 28 *
Ve
1e-007
-21 -7.51 3.8
0 0

0101101
*
Ed
 1e-007 1 1 0
1  12 0 0 46.2
2  23 7 12 0 46.2
2  24 5 37 0 46.2
0

0101000
+43 28 -31 28 *
Ed
 1e-007 1 1 0
1  13 0 0 15.02
2  25 7 40 0 15.02
2  26 9 41 0 15.02
0

0101000
+33 42 -31 42 *
Wi

0101000
-32 36 -41 36 -30 36 +29 39 *
Fa
0  1e-007 7 35

0101000
+28 0 *
Wi

0101100
+36 0 *
Fa
0  1e-007 8 0

0101000
-26 16 *
Ve
1e-007
-21 7.51 7.6
0 0

0101101
*
Ed
 1e-007 1 1 0
1  14 0 0 3.8
2  27 9 0 0 3.8
2  28 2 44 0 3.8
0

0101000
+33 45 -24 45 *
Ve
1e-007
-21 -7.51 7.6
0 0

0101101
*
Ed
 1e-007 1 1 0
1  15 0 0 15.02
2  29 9 48 0 15.02
2  30 10 49 0 15.02
0

0101000
+24 50 -22 50 *
Ed
 1e-007 1 1 0
1  16 0 0 3.8
2  31 9 0 0 3.8
2  32 5 44 0 3.8
0

0101000
+31 45 -22 45 *
Wi

0101000
+23 0 -29 39 +21 47 -20 0 *
Fa
0  1e-007 9 0

0101000
+19 0 *
Ve
1e-007
-25.2 7.51 7.6
0 0

0101101
*
Ed
 1e-007 1 1 0
1  17 0 0 4.2
2  33 10 49 0 4.2
2  34 2 52 0 4.2
0

0101000
+17 50 -24 50 *
Ve
1e-007
-25.2 -7.51 7.6
0 0

0101101
*
Ed
 1e-007 1 1 0
1  18 0 0 4.2
2  35 10 49 0 4.2
2  36 5 52 0 4.2
0

0101000
+22 50 -15 50 *
Ed
 1e-007 1 1 0
1  19 0 0 15.02
2  37 10 49 0 15.02
2  38 3 52 0 15.02
0

0101000
+15 50 -17 50 *
Wi

0101100
+16 0 +21 0 +14 0 +13 0 *
Fa
0  1e-007 10 0

0101000
-12 38 *
Ed
 1e-007 1 1 0
1  20 0 0 7.6
2  39 2 0 0 7.6
2  40 3 0 0 7.6
0

0101000
+58 53 -17 53 *
Wi

0101000
+10 0 +16 54 -23 4 +32 55 -44 21 -56 56 *
Fa
0  1e-007 2 0

0101000
-9 0 *
Ed
 1e-007 1 1 0
1  21 0 0 7.6
2  41 3 0 0 7.6
2  42 5 0 0 7.6
0

0101000
+55 53 -15 53 *
Wi

0101000
+7 0 +13 54 -10 0 -54 56 *
Fa
0  1e-007 3 0

0101000
-6 0 *
Wi

0101000
+42 21 +30 55 +20 4 +14 54 -7 0 -51 56 *
Fa
0  1e-007 5 0

0101000
-4 0 *
Sh

0101000
-46 5 +39 21 -34 5 +27 4 -25 43 +18 4 +11 51 -8 0 -5 0 -3 0 
*
So

1100000
+2 0 *

+1 1 