DBRep_DrawableShape

CASCADE Topology V1, (c) Matra-Datavision
Locations 95
1
              1               0               0               0 
              0               1               0               0 
              0               0               1               0 
1
              1               0               0               0 
              0               1               0               0 
              0               0               1               0 
1
              1               0               0               0 
              0               1               0               0 
              0               0               1               0 
1
              1               0               0               0 
              0               1               0               0 
              0               0               1               0 
1
              1               0               0               0 
              0               1               0               0 
              0               0               1               0 
1
              1               0               0               0 
              0               1               0               0 
              0               0               1               0 
1
              1               0               0               0 
              0               1               0               0 
              0               0               1               0 
1
              1               0               0               0 
              0               1               0               0 
              0               0               1               0 
2  2 1 3 -1 4 1 5 1 6 -1 7 1 8 -1 0
1
              1               0               0               0 
              0               1               0               0 
              0               0               1               0 
1
              1               0               0               0 
              0               1               0               0 
              0               0               1               0 
1
              1               0               0               0 
              0               1               0               0 
              0               0               1               0 
2  10 -1 11 1 12 -1 0
1
              1               0               0               0 
              0               1               0               0 
              0               0               1               0 
2  14 1 10 -1 11 1 12 -1 0
2  14 -1 0
2  4 -1 3 1 2 -1 12 1 11 -1 10 1 14 -1 0
2  1 -1 8 1 7 -1 6 1 5 -1 4 -1 3 1 2 -1 12 1 11 -1 10 1 14 -1 0
2  10 1 14 -1 0
1
              1               0               0               0 
              0              -1               0              -0 
              0               0              -1               0 
2  20 1 12 -1 0
2  10 -1 11 1 20 -1 0
2  12 1 20 -1 0
2  1 -1 8 1 7 -1 6 1 5 -1 4 -1 3 1 2 -1 12 1 20 -1 0
2  7 1 8 -1 0
2  5 1 6 -1 0
2  1 -1 8 1 7 -1 6 1 5 -1 0
2  14 1 10 -1 11 1 12 -1 2 1 3 -1 4 1 5 1 6 -1 0
1
              1               0               0              -0 
              0               1               0               0 
              0               0               1             3.8 
1
              1               0               0               0 
              0               1               0               0 
              0               0               1             3.8 
2  29 1 3 -1 30 1 4 1 5 1 6 -1 0
2  4 -1 30 -1 3 1 29 -1 0
2  29 -1 0
2  1 -1 8 1 7 -1 6 1 5 -1 4 -1 30 -1 3 1 29 -1 0
2  11 1 12 -1 2 1 3 -1 4 1 5 1 6 -1 0
2  4 -1 3 1 2 -1 12 1 11 -1 0
2  1 -1 8 1 7 -1 6 1 5 -1 4 -1 3 1 2 -1 12 1 11 -1 0
2  4 1 5 1 6 -1 0
2  4 -1 0
2  1 -1 8 1 7 -1 6 1 5 -1 4 -1 0
1
              1               0               0               0 
              0               1               0               0 
              0               0               1             3.8 
2  14 1 10 -1 41 1 11 1 12 -1 2 1 3 -1 4 1 5 1 6 -1 0
2  4 -1 3 1 2 -1 12 1 11 -1 41 -1 10 1 14 -1 0
2  6 1 5 -1 4 -1 3 1 2 -1 12 1 11 -1 41 -1 10 1 14 -1 0
2  1 -1 8 1 7 -1 6 1 5 -1 4 -1 3 1 2 -1 12 1 11 -1 41 -1 10 1 14 -1 0
2  5 1 6 -1 7 1 8 -1 0
2  29 1 3 -1 30 1 4 1 0
2  14 1 10 -1 11 1 12 -1 2 1 3 -1 4 1 0
1
              1               0               0              -0 
              0               1               0               0 
              0               0               1             3.8 
2  49 1 6 -1 0
2  11 1 12 -1 2 1 3 -1 4 1 5 1 49 -1 0
2  6 1 49 -1 0
2  1 -1 8 1 7 -1 6 1 49 -1 0
2  1 -1 8 1 7 -1 6 1 5 -1 4 -1 3 1 2 -1 0
1
              1               0               0               0 
              0               1               0               0 
              0               0               1           -0.51 
2  20 1 12 -1 55 1 0
2  55 -1 12 1 20 -1 0
2  20 -1 0
2  1 -1 8 1 7 -1 6 1 5 -1 4 -1 3 1 2 -1 55 -1 12 1 20 -1 0
2  3 -1 30 1 4 1 5 1 6 -1 7 1 8 -1 0
2  30 -1 3 1 29 -1 0
2  4 1 5 1 6 -1 7 1 8 -1 0
2  29 1 3 -1 0
2  3 1 29 -1 0
2  10 -1 41 1 11 1 12 -1 2 1 29 -1 0
2  1 -1 8 1 7 -1 6 1 5 -1 4 -1 3 1 29 -1 0
2  29 1 3 -1 30 1 0
2  1 -1 8 1 7 -1 0
1
              1               0               0               0 
              0               1               0               0 
              0               0               1             1.5 
2  49 1 6 -1 69 1 0
2  69 -1 6 1 49 -1 0
2  49 -1 0
2  1 -1 8 1 7 -1 69 -1 6 1 49 -1 0
2  10 -1 41 1 11 1 12 -1 2 1 3 -1 4 1 5 1 6 -1 0
2  10 -1 41 1 11 1 12 -1 2 1 3 -1 4 1 5 1 49 -1 0
2  29 1 3 -1 4 1 5 1 6 -1 0
2  49 1 6 -1 7 1 8 -1 0
2  49 1 6 -1 69 1 7 1 8 -1 0
1
              1               0               0              -0 
              0               1               0               0 
              0               0               1             5.3 
2  79 1 8 -1 0
2  7 1 79 -1 0
2  8 1 79 -1 0
2  1 -1 8 1 79 -1 0
2  14 1 10 -1 41 1 11 1 12 -1 2 1 3 -1 4 1 5 1 6 -1 7 1 8 -1 0
2  12 -1 55 1 2 1 3 -1 4 1 5 1 6 -1 7 1 8 -1 0
2  8 1 7 -1 69 -1 6 1 49 -1 0
2  6 -1 69 1 7 1 8 -1 0
2  6 -1 69 1 7 1 79 -1 0
2  1 -1 0
1
              1               0               0               0 
              0               1               0               0 
              0               0               1             2.3 
2  79 1 8 -1 90 1 0
2  90 -1 8 1 79 -1 0
2  79 -1 0
2  1 -1 90 -1 8 1 79 -1 0
2  8 -1 90 1 0
Curve2ds 86
1 0 0 1 0 
1 0 0 0 1 
1 0 -15.02 0 1 
1 0 0 0 -1 
1 50.399999999999999 0 0 -1 
1 0 0 1 0 
1 50.399999999999999 -15.02 -1 0 
1 0 0 0 -1 
2 25.199999999999999 -7.5099999999999998 1 0 0 -1 1.48
1 0 0 1 0 
1 0 0 -1 0 
1 0 -15.02 1 0 
1 -7.5999999999999996 0 0 1 
1 0 0 1 0 
1 0 50.399999999999999 -1 0 
1 0 0 0 -1 
1 -3.7999999999999998 4.1999999999999993 -1 0 
1 0 0 0 -1 
1 -3.7999999999999998 0 0 1 
1 -46.200000000000003 0 1 0 
1 -3.7999999999999998 0 0 1 
1 0 0 1 0 
1 0 0 1 0 
1 0 -50.399999999999999 1 0 
1 7.5999999999999996 0 0 -1 
1 0 -15.02 0 1 
1 0 -3.7999999999999998 1 0 
1 0 0 1 0 
1 15.02 0 0 -1 
1 0 0 1 0 
1 3.7999999999999998 0 0 -1 
1 0 -0 1 0 
1 3.7999999999999998 0 0 -1 
1 50.399999999999999 -15.02 -1 0 
1 7.5999999999999996 -46.200000000000003 0 -1 
1 4.1999999999999993 -15.02 -1 0 
1 3.7999999999999998 -46.200000000000003 1 0 
1 15.02 0 0 -1 
1 0 0 0 -1 
1 6.2831853071795862 0 0 -1 
1 0 -0.51000000000000001 1 0 
2 -1.48 0 1 0 0 -1 1.48
1 4.1999999999999993 0 0 -1 
1 0 -3.7999999999999998 1 0 
1 0 0 1 0 
1 4.1999999999999993 0 0 -1 
1 0 0 0 -1 
1 15.02 0 0 -1 
1 0 -1.5 1 0 
1 0 0 1 0 
1 4.1999999999999993 0 0 -1 
1 0 0 0 -1 
1 46.200000000000003 -15.02 0 1 
1 0 0 1 0 
1 0 -1.5 1 0 
1 4.1999999999999993 0 0 -1 
1 15.02 0 0 -1 
1 0 -0 0 -1 
1 2.1999999999999993 -1.5 1 0 
1 0 0 1 0 
1 0 -1.5 1 0 
1 0 -0 1 0 
1 4.1999999999999993 0 0 -1 
1 0 0 0 -1 
1 0 -1.5 1 0 
1 0 0 1 0 
1 0 -1.5 1 0 
1 0 -15.02 0 1 
1 0 -2.1999999999999993 1 0 
1 0 0 1 0 
1 0 0 0 -1 
1 4.1999999999999993 0 0 -1 
1 0 -2.2999999999999998 1 0 
1 4.1999999999999993 0 0 -1 
1 12.82 0 0 -1 
1 0 -0 0 -1 
1 0 -2.2999999999999998 1 0 
1 4.1999999999999993 -12.82 -1 0 
1 4.1999999999999993 0 0 -1 
1 0 0 0 -1 
1 0 -2.2999999999999998 1 0 
1 0 -12.82 0 1 
1 12.82 0 0 -1 
1 0 0 0 -1 
1 0 -2.2999999999999998 1 0 
1 0 0 1 0 
Curves 43
1 -25.199999999999999 7.5099999999999998 0 1 0 0 
1 -25.199999999999999 -7.5099999999999998 0 0 1 0 
1 25.199999999999999 7.5099999999999998 0 0 -1 0 
1 25.199999999999999 -7.5099999999999998 0 -1 0 0 
2 0 0 0 0 0 1 1 0 -0 -0 1 0 1.48
1 -25.199999999999999 7.5099999999999998 0 0 0 1 
1 -25.199999999999999 7.5099999999999998 0 1 0 0 
1 25.199999999999999 7.5099999999999998 0 0 0 1 
1 -21 7.5099999999999998 3.7999999999999998 0 0 1 
1 -25.199999999999999 7.5099999999999998 0 1 0 0 
1 -25.199999999999999 7.5099999999999998 0 1 0 0 
1 -25.199999999999999 -7.5099999999999998 0 0 0 1 
1 -25.199999999999999 -7.5099999999999998 0 0 1 0 
1 25.199999999999999 7.5099999999999998 0 0 -1 0 
1 25.199999999999999 -7.5099999999999998 0 0 0 1 
1 25.199999999999999 -7.5099999999999998 0 -1 0 0 
1 25.199999999999999 -7.5099999999999998 0 -1 0 0 
1 -21 -7.5099999999999998 0 -1 0 0 
1 -21 -7.5099999999999998 3.7999999999999998 0 0 1 
1 1.48 0 0 0 0 -1 
2 0 0 0 0 0 1 1 0 -0 -0 1 0 1.48
1 -21 7.5099999999999998 0 0 -1 0 
1 -21 7.5099999999999998 0 0 -1 0 
1 21 7.5099999999999998 3.7999999999999998 0 0 1 
1 21 7.5099999999999998 0 1 0 0 
1 25.199999999999999 7.5099999999999998 3.7999999999999998 0 0 1 
1 21 -7.5099999999999998 0 0 1 0 
1 25.199999999999999 7.5099999999999998 0 0 -1 0 
1 25.199999999999999 -7.5099999999999998 3.7999999999999998 0 0 1 
1 25.199999999999999 5.3100000000000005 0 0 -1 0 
1 25.199999999999999 -7.5099999999999998 0 -1 0 0 
1 21 -7.5099999999999998 3.7999999999999998 0 0 1 
1 21 -7.5099999999999998 0 0 1 0 
1 21 -7.5099999999999998 0 0 1 0 
1 21 5.3100000000000005 0 1 0 0 
1 25.199999999999999 5.3100000000000005 5.2999999999999998 0 0 1 
1 25.199999999999999 5.3100000000000005 0 0 -1 0 
1 25.199999999999999 -7.5099999999999998 5.2999999999999998 0 0 1 
1 25.199999999999999 -7.5099999999999998 0 -1 0 0 
1 21 -7.5099999999999998 5.2999999999999998 0 0 1 
1 21 -7.5099999999999998 0 0 1 0 
1 21 5.3100000000000005 5.2999999999999998 0 0 1 
1 21 5.3100000000000005 0 1 0 0 
Polygon3D 0
PolygonOnTriangulations 0
Surfaces 20
1 -25.199999999999999 7.5099999999999998 0 -0 0 1 1 0 0 0 1 -0 
1 -25.199999999999999 7.5099999999999998 0 0 -1 0 0 -0 -1 1 0 0 
1 -25.199999999999999 -7.5099999999999998 0 1 0 0 -0 0 1 0 -1 0 
1 25.199999999999999 7.5099999999999998 0 1 0 -0 0 -1 0 0 -0 -1 
1 25.199999999999999 -7.5099999999999998 0 0 1 -0 0 0 1 1 -0 0 
2 0 0 0 -0 -0 1 1 0 0 0 -1 -0 1.48
1 -25.199999999999999 7.5099999999999998 3.7999999999999998 -0 0 1 1 0 0 0 1 -0 
1 -21 7.5099999999999998 3.7999999999999998 1 0 -0 0 -1 0 0 -0 -1 
1 21 7.5099999999999998 3.7999999999999998 0 1 0 1 0 0 0 0 -1 
1 -25.199999999999999 7.5099999999999998 0 -0 0 1 1 0 0 0 1 -0 
1 25.199999999999999 7.5099999999999998 3.7999999999999998 1 0 -0 0 -1 0 0 -0 -1 
1 25.199999999999999 -7.5099999999999998 3.7999999999999998 0 -1 0 -1 0 0 -0 -0 -1 
1 1.48 0 0 0 0 1 1 0 -0 -0 1 0 
1 21 -7.5099999999999998 3.7999999999999998 -1 0 0 0 1 0 0 0 -1 
1 21 7.5099999999999998 3.7999999999999998 -0 0 1 1 0 0 0 1 -0 
1 25.199999999999999 5.3100000000000005 5.2999999999999998 1 0 -0 0 -1 0 0 -0 -1 
1 25.199999999999999 -7.5099999999999998 5.2999999999999998 0 -1 0 -1 0 0 -0 -0 -1 
1 21 -7.5099999999999998 5.2999999999999998 -1 0 0 0 1 0 0 0 -1 
1 21 5.3100000000000005 5.2999999999999998 0 1 0 1 0 0 0 0 -1 
1 21 5.3100000000000005 5.2999999999999998 -0 0 1 1 0 0 0 1 -0 
Triangulations 0

TShapes 112
Ve
1e-007
-25.2 7.51 0
0 0

0101101
*
Ve
1e-007
25.2 7.51 0
0 0

0101101
*
Ed
 1e-007 1 1 0
1  1 0 0 50.4
2  1 1 16 0 50.4
2  2 2 17 0 50.4
0

0101000
+112 18 -111 18 *
Ve
1e-007
-25.2 -7.51 0
0 0

0101101
*
Ed
 1e-007 1 1 0
1  2 0 0 15.02
2  3 1 16 0 15.02
2  4 3 17 0 15.02
0

0101000
+109 18 -112 18 *
Ve
1e-007
25.2 -7.51 0
0 0

0101101
*
Ed
 1e-007 1 1 0
1  3 0 0 15.02
2  5 1 16 0 15.02
2  6 4 19 0 15.02
0

0101000
+111 18 -107 18 *
Ed
 1e-007 1 1 0
1  4 0 0 50.4
2  7 1 16 0 50.4
2  8 5 17 0 50.4
0

0101000
+107 18 -109 18 *
Wi

0101000
-110 15 -108 15 -106 15 -105 15 *
Ve
1e-007
1.48 0 0
0 0

0101101
*
Ed
 1e-007 1 1 0
1  5 0 0 6.28318530717959
2  9 1 22 0 6.28318530717959
2  10 6 23 0 6.28318530717959
0

0101100
+103 24 -103 24 *
Wi

0101000
+102 21 *
Fa
0  1e-007 1 13

0101000
+104 0 +101 0 *
Ve
1e-007
-25.2 7.51 7.6
0 0

0101101
*
Ed
 1e-007 1 1 0
1  6 0 0 7.6
2  11 2 0 0 7.6
2  12 3 0 0 7.6
0

0101000
+112 27 -99 27 *
Ve
1e-007
-21 7.51 7.6
0 0

0101101
*
Ed
 1e-007 1 1 0
1  7 0 0 4.2
2  13 2 32 0 4.2
2  14 7 33 0 4.2
0

0101000
+99 34 -97 34 *
Ve
1e-007
25.2 7.51 3.8
0 0

0101101
*
Ed
 1e-007 1 1 0
1  8 0 0 3.8
2  15 2 36 0 3.8
2  16 4 0 0 3.8
0

0101000
+111 37 -95 37 *
Ve
1e-007
-21 7.51 3.8
0 0

0101101
*
Ed
 1e-007 1 1 0
1  9 0 0 3.8
2  17 2 39 0 3.8
2  18 8 0 0 3.8
0

0101000
+93 40 -97 40 *
Ve
1e-007
21 7.51 3.8
0 0

0101101
*
Ed
 1e-007 1 1 0
1  10 0 46.2 50.4
2  19 2 43 46.2 50.4
2  20 9 44 46.2 50.4
0

0101000
+91 45 -95 45 *
Ed
 1e-007 1 1 0
1  11 0 4.2 46.2
2  21 2 43 4.2 46.2
2  22 10 16 4.2 46.2
0

0101000
+93 45 -91 45 *
Wi

0101000
-98 26 +110 28 -96 31 +94 35 +92 38 -90 42 -89 42 *
Fa
0  1e-007 2 26

0101000
+88 0 *
Ve
1e-007
-25.2 -7.51 7.6
0 0

0101101
*
Ed
 1e-007 1 1 0
1  12 0 0 7.6
2  23 3 0 0 7.6
2  24 5 0 0 7.6
0

0101000
+109 27 -86 27 *
Ed
 1e-007 1 1 0
1  13 0 0 15.02
2  25 3 32 0 15.02
2  26 7 33 0 15.02
0

0101000
+86 34 -99 34 *
Wi

0101000
+85 0 +84 47 -98 0 -108 48 *
Fa
0  1e-007 3 0

0101000
-83 0 *
Ve
1e-007
25.2 -7.51 3.8
0 0

0101101
*
Ed
 1e-007 1 1 0
1  14 0 0 15.02
2  27 4 51 0 15.02
2  28 11 52 0 15.02
0

0101000
+95 53 -81 53 *
Ed
 1e-007 1 1 0
1  15 0 0 3.8
2  29 4 0 0 3.8
2  30 5 36 0 3.8
0

0101000
+107 37 -81 37 *
Wi

0101000
+94 35 -106 28 +80 50 -79 35 *
Fa
0  1e-007 4 35

0101000
+78 0 *
Ve
1e-007
21 -7.51 3.8
0 0

0101101
*
Ed
 1e-007 1 1 0
1  16 0 0 4.2
2  31 5 43 0 4.2
2  32 12 44 0 4.2
0

0101000
+81 45 -76 45 *
Ve
1e-007
-21 -7.51 3.8
0 0

0101101
*
Ed
 1e-007 1 1 0
1  17 0 4.2 46.2
2  33 5 43 4.2 46.2
2  34 10 16 4.2 46.2
0

0101000
+76 45 -74 45 *
Ve
1e-007
-21 -7.51 7.6
0 0

0101101
*
Ed
 1e-007 1 1 0
1  18 0 0 4.2
2  35 5 32 0 4.2
2  36 7 33 0 4.2
0

0101000
+72 34 -86 34 *
Ed
 1e-007 1 1 0
1  19 0 0 3.8
2  37 5 39 0 3.8
2  38 8 0 0 3.8
0

0101000
+74 40 -72 40 *
Wi

0101000
-79 35 +105 28 -75 42 +85 26 -73 42 -71 31 -70 38 *
Fa
0  1e-007 5 26

0101000
+69 0 *
Ve
1e-007
1.48 0 -0.51
0 0

0101101
*
Ed
 1e-007 1 1 0
1  20 0 0 0.51
3  39 40CN 6 0 0 0.51
0

0101000
+103 54 -67 54 *
Ed
 1e-007 1 1 0
1  21 0 0 6.28318530717959
2  41 6 57 0 6.28318530717959
2  42 13 58 0 6.28318530717959
0

0101100
+67 59 -67 59 *
Wi

0101000
-102 21 -66 0 +65 56 +66 0 *
Fa
0  1e-007 6 0

0101000
+64 0 *
Ed
 1e-007 1 1 0
1  22 0 0 15.02
2  43 7 33 0 15.02
2  44 8 61 0 15.02
0

0101000
+97 34 -72 34 *
Wi

0101100
+96 0 +62 0 +71 0 +84 0 *
Fa
0  1e-007 7 0

0101000
-61 29 *
Ed
 1e-007 1 1 0
1  23 0 0 15.02
2  45 8 64 0 15.02
2  46 10 65 0 15.02
0

0101000
+93 66 -74 66 *
Wi

0101000
+92 0 -59 63 +62 67 -70 0 *
Fa
0  1e-007 8 0

0101000
+58 0 *
Ve
1e-007
21 7.51 5.3
0 0

0101101
*
Ed
 1e-007 1 1 0
1  24 0 0 1.5
2  47 9 0 0 1.5
2  48 14 0 0 1.5
0

0101000
+91 68 -56 68 *
Ve
1e-007
25.2 7.51 5.3
0 0

0101101
*
Ed
 1e-007 1 1 0
1  25 0 0 4.2
2  49 9 71 0 4.2
2  50 15 72 0 4.2
0

0101000
+56 73 -54 73 *
Ed
 1e-007 1 1 0
1  26 0 0 1.5
2  51 9 0 0 1.5
2  52 11 0 0 1.5
0

0101000
+95 68 -54 68 *
Wi

0101000
+55 0 -90 42 +53 70 -52 0 *
Fa
0  1e-007 9 0

0101000
+51 0 *
Ed
 1e-007 1 1 0
1  27 0 0 15.02
2  53 10 75 0 15.02
2  54 14 52 0 15.02
0

0101000
+76 53 -91 53 *
Wi

0101000
-89 42 +49 50 -73 42 +59 76 *
Fa
0  1e-007 10 74

0101000
+48 0 *
Ve
1e-007
25.2 5.31 5.3
0 0

0101101
*
Ed
 1e-007 1 1 0
1  28 0 0 2.2
2  55 11 71 0 2.2
2  56 15 72 0 2.2
0

0101000
+54 73 -46 73 *
Ve
1e-007
25.2 -7.51 5.3
0 0

0101101
*
Ed
 1e-007 1 1 0
1  29 0 0 1.5
2  57 11 0 0 1.5
2  58 12 0 0 1.5
0

0101000
+81 68 -44 68 *
Ed
 1e-007 1 1 0
1  30 0 0 12.82
2  59 11 81 0 12.82
2  60 16 82 0 12.82
0

0101000
+46 83 -44 83 *
Wi

0101000
+52 25 -80 77 +45 78 -43 25 +42 80 *
Fa
0  1e-007 11 25

0101000
+41 0 *
Ve
1e-007
21 -7.51 5.3
0 0

0101101
*
Ed
 1e-007 1 1 0
1  31 0 0 4.2
2  61 12 81 0 4.2
2  62 17 82 0 4.2
0

0101000
+44 83 -39 83 *
Ed
 1e-007 1 1 0
1  32 0 0 1.5
2  63 12 0 0 1.5
2  64 14 0 0 1.5
0

0101000
+76 68 -39 68 *
Wi

0101000
+43 25 -75 84 +38 80 -37 25 *
Fa
0  1e-007 12 25

0101000
+36 0 *
Wi

0101100
+65 0 *
Fa
0  1e-007 13 0

0101000
-34 20 *
Ve
1e-007
21 5.31 5.3
0 0

0101101
*
Ed
 1e-007 1 1 0
1  33 0 0 12.82
2  65 14 71 0 12.82
2  66 18 86 0 12.82
0

0101000
+39 73 -32 73 *
Ed
 1e-007 1 1 0
1  34 0 12.82 15.02
2  67 14 71 12.82 15.02
2  68 15 72 12.82 15.02
0

0101000
+32 73 -56 73 *
Wi

0101000
+37 25 -49 77 +31 78 -55 25 +30 78 *
Fa
0  1e-007 14 25

0101000
+29 0 *
Ed
 1e-007 1 1 0
1  35 0 0 4.2
2  69 15 88 0 4.2
2  70 19 82 0 4.2
0

0101000
+32 83 -46 83 *
Wi

0101000
-53 78 -45 78 +27 80 -30 78 *
Fa
0  1e-007 15 87

0101000
+26 0 *
Ve
1e-007
25.2 5.31 7.6
0 0

0101101
*
Ed
 1e-007 1 1 0
1  36 0 0 2.3
2  71 16 0 0 2.3
2  72 19 0 0 2.3
0

0101000
+46 89 -24 89 *
Ve
1e-007
25.2 -7.51 7.6
0 0

0101101
*
Ed
 1e-007 1 1 0
1  37 0 0 12.82
2  73 16 92 0 12.82
2  74 20 93 0 12.82
0

0101000
+24 94 -22 94 *
Ed
 1e-007 1 1 0
1  38 0 0 2.3
2  75 16 0 0 2.3
2  76 17 0 0 2.3
0

0101000
+44 89 -22 89 *
Wi

0101000
+23 0 -42 80 +21 91 -20 0 *
Fa
0  1e-007 16 0

0101000
+19 0 *
Ve
1e-007
21 -7.51 7.6
0 0

0101101
*
Ed
 1e-007 1 1 0
1  39 0 0 4.2
2  77 17 92 0 4.2
2  78 20 93 0 4.2
0

0101000
+22 94 -17 94 *
Ed
 1e-007 1 1 0
1  40 0 0 2.3
2  79 17 0 0 2.3
2  80 18 0 0 2.3
0

0101000
+39 89 -17 89 *
Wi

0101000
+20 0 -38 80 +16 91 -15 0 *
Fa
0  1e-007 17 0

0101000
+14 0 *
Ve
1e-007
21 5.31 7.6
0 0

0101101
*
Ed
 1e-007 1 1 0
1  41 0 0 12.82
2  81 18 92 0 12.82
2  82 20 93 0 12.82
0

0101000
+17 94 -12 94 *
Ed
 1e-007 1 1 0
1  42 0 0 2.3
2  83 18 0 0 2.3
2  84 19 0 0 2.3
0

0101000
+32 89 -12 89 *
Wi

0101000
+15 0 -31 78 +11 91 -10 0 *
Fa
0  1e-007 18 0

0101000
+9 0 *
Ed
 1e-007 1 1 0
1  43 0 0 4.2
2  85 19 92 0 4.2
2  86 20 93 0 4.2
0

0101000
+12 94 -24 94 *
Wi

0101000
+10 0 -27 80 +7 91 -23 0 *
Fa
0  1e-007 19 0

0101000
+6 0 *
Wi

0101100
+7 0 +21 0 +16 0 +11 0 *
Fa
0  1e-007 20 0

0101000
-4 79 *
Sh

0101100
-100 9 -87 25 -82 46 +77 25 -68 25 -63 9 +60 60 +57 62 +50 25 +47 25 
+40 0 +35 0 -33 85 +28 0 +25 0 +18 0 +13 0 +8 0 +5 0 +3 95 
*
So

0100000
+2 0 *

+1 1 