DBRep_DrawableShape

CASCADE Topology V1, (c) Matra-Datavision
Locations 25
1
              1               0               0               0 
              0               1               0               0 
              0               0               1               0 
1
2.22044604925031e-016 -1.11022302462516e-016               1            37.5 
              1 1.11022302462516e-016 -2.22044604925031e-016               0 
-1.11022302462516e-016               1 1.11022302462516e-016               0 
1
              1               0               0               0 
              0               1               0               0 
              0               0               1               0 
1
              1               0               0               0 
              0               1               0               0 
              0               0               1               0 
2  2 1 3 1 4 1 0
2  4 -1 3 -1 2 -1 0
2  1 -1 4 -1 3 -1 2 -1 0
2  1 -1 0
1
2.22044604925031e-016 -1.11022302462516e-016               1            37.5 
              1 1.11022302462516e-016 -2.22044604925031e-016               0 
-1.11022302462516e-016               1 1.11022302462516e-016               0 
1
2.22044604925031e-016 -1.11022302462516e-016               1            37.5 
              1 1.11022302462516e-016 -2.22044604925031e-016               0 
-1.11022302462516e-016               1 1.11022302462516e-016               0 
1
              1               0               0 -7.88258347483861e-016 
              0               1               0 -3.9412917374193e-016 
              0               0               1            -7.1 
2  9 1 10 -1 11 1 2 1 3 1 4 1 0
2  11 -1 10 1 9 -1 0
2  9 -1 0
2  1 -1 4 -1 3 -1 2 -1 11 -1 10 1 9 -1 0
2  10 -1 2 1 3 1 4 1 0
2  3 1 4 1 0
2  10 -1 11 1 2 1 0
2  9 1 10 -1 11 1 2 1 0
1
              1               0               0               0 
              0               1               0               0 
              0               0               1               0 
2  1 -1 4 -1 3 -1 0
2  10 -1 2 1 3 1 0
2  4 -1 0
2  1 -1 4 -1 3 -1 20 -1 0
2  20 1 3 1 4 1 0
Curve2ds 24
1 0 0 0 -1 
1 6.2831853071795862 0 0 -1 
1 3.739698609263684e-016 -1.2999999999999972 1 0 
1 0 0 1 0 
1 0 -7.0999999999999996 1 0 
2 -8.8817841970012523e-016 2.3749999999999964 6.162975822039158e-032 -1 -1 -6.162975822039158e-032 2.375
8 0 1.5707963267948966
1 6.2831853071795862 0 0 1 
8 0 1.5707963267948966
1 -3.739698609263684e-016 0 0 1 
1 0 1.5707963267948966 1 0 
2 0 2.3749999999999956 -8.2621248344197616e-016 -1 -1 8.2621248344197616e-016 1.0749999999999991
2 -3.5527136788005009e-015 2.3749999999999929 -1.0947644252537636e-047 1 1 1.0947644252537636e-047 0.81000000000000005
1 0 9.6700000000000017 1 0 
8 3.1415926535897931 9.4247779607693793
1 9.4247779607693793 0 -1 -0 
1 4.7123889803846897 0 0 1 
1 6.2831853071795862 0 0 1 
8 0 16.77
1 0 0 0 1 
1 0 3.1415926535897931 1 0 
8 3.1415926535897931 4.7123889803846897
1 0 9.4247779607693793 1 0 
8 0 6.2831853071795862
1 3.1415926535897931 9.4247779607693793 -0 -1 
1 0 9 1 0 
1 6.2831853071795862 0 0 1 
8 0 9
1 0 0 0 1 
1 0 0 1 0 
2 0 -0.80999999999999872 0 1 1 -0 0.80999999999999872
Curves 12
1 8.4949999999999974 5.6599999999999993 0 -1.1102230246251564e-016 -5.5511151231257809e-017 -1 
2 36.200000000000003 6.1200000000000001 5.6599999999999975 1 -1.1102230246251563e-016 -1.1102230246251562e-016 1.1102230246251568e-016 1 4.3473996332690377e-016 1.1102230246251557e-016 -4.3473996332690377e-016 1 2.3749999999999991
2 6.1200000000000001 5.6600000000000001 0 0 0 1 1 0 -0 -0 1 0 2.375
2 36.200000000000003 7.1949999999999994 5.6599999999999975 -1.110223024625156e-016 6.0770102400535381e-017 -1 1.1102230246251564e-016 1 6.0770102400535369e-017 1 -1.1102230246251563e-016 -1.1102230246251562e-016 1.3
2 37.5 6.1200000000000001 5.6599999999999975 1 -1.1102230246251563e-016 -1.1102230246251562e-016 1.1102230246251568e-016 1 4.3473996332690377e-016 1.1102230246251557e-016 -4.3473996332690377e-016 1 1.0749999999999991
2 30.400000000000002 6.1200000000000028 5.6600000000000001 1 0 0 0 -1 0 0 0 -1 0.81000000000000005
2 20.73 6.120000000000001 5.6600000000000001 -1 -1.8369701987210297e-016 0 -1.8369701987210297e-016 1 0 -0 0 -1 0.81000000000000005
1 20.73 5.3100000000000023 5.6600000000000001 1 0 0 
2 20.73 4.5 5.6600000000000001 0 -0 -1 1 0 0 0 -1 0 0.81000000000000094
2 19.109999999999999 4.5 5.6600000000000001 0 1 0 1 0 0 0 0 -1 0.81000000000000005
1 19.919999999999998 -4.5 5.6600000000000001 0 1 0 
2 19.109999999999999 -4.5 5.6600000000000001 0 1 0 1 0 0 0 0 -1 0.81000000000000005
Polygon3D 0
PolygonOnTriangulations 0
Surfaces 8
2 6.1199999999999983 5.6599999999999993 1.3078427230084337e-015 -1.1102230246251563e-016 -1.1102230246251562e-016 1 1 1.1102230246251562e-016 1.1102230246251564e-016 -1.1102230246251563e-016 1 1.110223024625156e-016 2.3749999999999996
5 36.200000000000003 6.1200000000000001 5.6599999999999975 1 -1.1102230246251563e-016 -1.1102230246251562e-016 1.1102230246251568e-016 1 4.3473996332690377e-016 1.1102230246251557e-016 -4.3473996332690377e-016 1 1.0749999999999991 1.3
1 37.5 8.4949999999999992 5.6599999999999984 -1 -0 0 -0 0 -1 0 -1 -0 
1 37.5 8.4949999999999992 5.6599999999999984 -1 -0 0 -0 0 -1 0 -1 -0 
10 0 6.2831853071795862 0 16.77
2 20.73 6.1200000000000028 5.6600000000000001 1 0 0 0 -1 0 0 0 -1 0.81000000000000005
10 3.1415926535897931 4.7123889803846897 3.1415926535897931 9.4247779607693793
5 20.73 4.5 5.6600000000000001 0 -0 -1 1 0 0 0 -1 0 1.620000000000001 0.81000000000000005
10 0 6.2831853071795862 0 9
2 19.109999999999999 -4.5 5.6600000000000001 0 1 0 1 0 0 0 0 -1 0.81000000000000005
1 19.919999999999998 -4.5 5.6600000000000001 -0 -1 0 0 -0 -1 1 0 0 
Triangulations 0

TShapes 39
Ve
1e-007
36.2 8.495 5.66
0 0

0101101
*
Ve
1e-007
30.4 8.495 5.66
0 0

0101101
*
Ed
 1e-007 1 1 0
1  1 0 1.3 7.1
3  1 2CN 1 0 1.3 7.1
0

0101000
+39 7 -38 7 *
Ed
 1e-007 1 1 0
1  2 0 -3.73969860926368e-016 6.28318530717959
2  3 1 5 -3.73969860926368e-016 6.28318530717959
2  4 2 0 -3.73969860926368e-016 6.28318530717959
4 G1 1 5 2 0
0

0101100
+39 8 -39 8 *
Ed
 1e-007 1 1 0
1  3 0 0 6.28318530717959
2  5 1 13 0 6.28318530717959
2  6 3 14 0 6.28318530717959
0

0101100
+38 15 -38 15 *
Wi

0101100
+37 5 -36 0 +35 12 -37 5 *
Fa
0  1e-007 1 0

0101000
+34 6 *
Ve
1e-007
37.5 7.195 5.66
0 0

0101101
*
Ed
 1e-007 1 1 0
1  4 0 0 1.5707963267949
3  7 8CN 2 0 0 1.5707963267949
0

0101000
+39 8 -32 8 *
Ed
 1e-007 1 1 0
1  5 0 -3.73969860926368e-016 6.28318530717959
2  9 2 0 -3.73969860926368e-016 6.28318530717959
2  10 4 16 -3.73969860926368e-016 6.28318530717959
4 G1 2 0 4 16
0

0101100
+32 8 -32 8 *
Wi

0101100
-31 0 +36 0 -30 0 +31 0 *
Fa
0  1e-007 2 0

0101000
+29 0 *
Wi

0101000
-35 19 *
Ve
2.00001e-007
30.4 5.31 5.66
0 0

0101101
*
Ed
 1e-007 1 1 0
1  6 0 0 6.28318530717959
2  11 3 18 0 6.28318530717959
2  12 5 20 0 6.28318530717959
0

0101100
+26 21 -26 21 *
Wi

0101100
+25 0 *
Fa
0  1e-007 3 18

0101000
+27 0 +24 0 *
Wi

0101100
-30 0 *
Fa
0  1e-007 4 22

0101000
+22 23 *
Ve
1e-006
20.73 5.31 5.66
0 0

0101101
*
Ed
 1e-007 1 1 0
1  7 0 3.14159265358979 9.42477796076938
2  13 5 0 3.14159265358979 9.42477796076938
2  14 6 0 3.14159265358979 9.42477796076938
4 G1 5 0 6 0
0

0101100
+20 24 -20 24 *
Ed
 1e-007 1 1 0
1  8 0 0 9.67
3  15 16G1 5 0 0 9.67
0

0101000
+20 24 -26 24 *
Wi

0101000
-19 20 -18 20 -25 0 +18 20 *
Fa
0  1e-007 5 20

0101000
+17 0 *
Ve
1.00000001991237e-007
19.92 4.5 5.66
0 0

0101101
*
Ed
 1e-007 1 1 0
1  9 0 3.14159265358979 4.71238898038469
3  17 18G1 6 0 3.14159265358979 4.71238898038469
0

0101000
+15 24 -20 24 *
Ed
 1e-007 1 1 0
1  10 0 0 6.28318530717959
2  19 6 0 0 6.28318530717959
2  20 7 0 0 6.28318530717959
4 G1 6 0 7 0
0

0101100
+15 24 -15 24 *
Wi

0101100
+14 0 +13 0 -14 0 +19 0 *
Fa
0  1e-007 6 0

0101000
+12 0 *
Ve
1.00000001991237e-007
19.92 -4.5 5.66
0 0

0101101
*
Ed
 1e-007 1 1 0
1  11 0 0 9
3  21 22G1 7 0 0 9
0

0101000
+10 24 -15 24 *
Ed
 1e-007 1 1 0
1  12 0 0 6.28318530717959
2  23 7 0 0 6.28318530717959
2  24 8 0 0 6.28318530717959
0

0101100
-10 24 +10 24 *
Wi

0101100
+9 0 +8 0 -9 0 -13 0 *
Fa
0  1e-007 7 0

0101000
+7 0 *
Wi

0101100
-8 0 *
Fa
0  1e-007 8 0

0101000
+5 0 *
Sh

0101100
+33 5 +28 0 +23 17 -21 4 +16 17 +11 25 +6 25 +4 25 *
So

0100000
+3 0 *
Co

1100000
+2 0 *

+1 1 