DBRep_DrawableShape

CASCADE Topology V1, (c) Matra-Datavision
Locations 147
1
              1               0               0               0 
              0               1               0               0 
              0               0               1               0 
1
              1               0               0               0 
              0               1               0               0 
              0               0               1               0 
1
              1               0               0               0 
              0               1               0               0 
              0               0               1               0 
1
              1               0               0               0 
              0               1               0               0 
              0               0               1               0 
2  2 1 3 1 4 1 0
1
              1               0               0               0 
              0               1               0               0 
              0               0               1               0 
1
              1               0               0               0 
              0               1               0               0 
              0               0               1             1.5 
1
              1               0               0               0 
              0               1               0               0 
              0               0               1               0 
1
              1               0               0               0 
              0               1               0               0 
              0               0               1               0 
2  6 -1 7 1 8 1 9 -1 0
2  4 -1 3 -1 2 -1 0
1
              1               0               0              -0 
              0               1               0               0 
              0               0               1             5.3 
2  12 1 9 -1 2 1 3 1 4 1 0
2  6 -1 7 1 8 1 12 -1 0
2  9 1 12 -1 0
2  1 -1 4 -1 3 -1 2 -1 9 1 12 -1 0
2  6 -1 7 1 8 1 9 -1 2 1 3 1 4 1 0
2  1 -1 0
1
              1               0               0              -0 
              0               1               0               0 
              0               0               1             3.8 
2  19 1 6 -1 7 1 8 1 9 -1 2 1 3 1 4 1 0
2  19 -1 0
2  2 -1 9 1 8 -1 7 -1 6 1 19 -1 0
2  1 -1 4 -1 3 -1 2 -1 9 1 8 -1 7 -1 6 1 19 -1 0
2  3 1 4 1 0
2  2 -1 0
2  1 -1 4 -1 3 -1 2 -1 0
1
              1               0               0               0 
              0               1               0               0 
              0               0               1             2.3 
2  12 1 9 -1 27 1 2 1 3 1 4 1 0
2  27 -1 9 1 12 -1 0
2  12 -1 0
2  1 -1 4 -1 3 -1 2 -1 27 -1 9 1 12 -1 0
2  9 -1 27 1 2 1 3 1 4 1 0
2  1 -1 4 -1 3 -1 0
2  12 1 9 -1 27 1 2 1 0
2  2 -1 27 -1 9 1 12 -1 0
2  19 1 6 -1 7 1 8 1 9 -1 2 1 0
2  8 1 9 -1 2 1 0
2  2 -1 9 1 8 -1 0
2  1 -1 4 -1 3 -1 2 -1 9 1 8 -1 0
2  19 1 6 -1 8 1 9 -1 2 1 0
2  2 -1 9 1 8 -1 6 1 19 -1 0
1
              1               0               0               0 
              0               1               0               0 
              0               0               1               0 
1
              1               0               0               0 
              0               1               0               0 
              0               0               1             3.8 
1
              1               0               0               0 
              0               1               0               0 
              0               0               1               0 
1
              1               0               0               0 
              0               1               0               0 
              0               0               1               0 
1
              1               0               0               0 
              0               1               0               0 
              0               0               1               0 
1
              1               0               0               0 
              0               1               0               0 
              0               0               1               0 
1
              1               0               0               0 
              0               1               0               0 
              0               0               1               0 
1
              1               0               0               0 
              0               1               0               0 
              0               0               1               0 
2  42 -1 43 1 44 1 45 -1 46 1 47 -1 48 1 49 1 19 -1 0
2  1 -1 4 -1 3 -1 2 -1 9 1 8 -1 6 1 19 -1 0
2  4 -1 3 -1 0
1
              1               0               0               0 
              0               1               0               0 
              0               0               1               0 
2  53 1 42 -1 44 1 45 -1 46 1 47 -1 48 1 49 1 6 -1 8 1 9 -1 2 1 3 1 4 1 0
2  2 -1 9 1 8 -1 6 1 49 -1 48 -1 47 1 46 -1 45 1 44 -1 42 1 53 -1 0
2  53 -1 0
2  1 -1 4 -1 3 -1 2 -1 9 1 8 -1 6 1 49 -1 48 -1 47 1 46 -1 45 1 44 -1 42 1 53 -1 0
2  49 1 6 -1 8 1 9 -1 2 1 0
2  2 -1 9 1 8 -1 6 1 49 -1 0
2  1 -1 4 -1 3 -1 2 -1 9 1 8 -1 6 1 49 -1 0
1
              1               0               0              -0 
              0               1               0               0 
              0               0               1             3.8 
1
              1               0               0               0 
              0               1               0               0 
              0               0               1             3.8 
2  61 1 47 -1 62 1 48 1 49 1 6 -1 8 1 9 -1 2 1 0
2  2 -1 9 1 8 -1 6 1 49 -1 48 -1 62 -1 47 1 61 -1 0
2  61 -1 0
2  1 -1 4 -1 3 -1 2 -1 9 1 8 -1 6 1 49 -1 48 -1 62 -1 47 1 61 -1 0
2  48 1 49 1 6 -1 8 1 9 -1 2 1 0
2  2 -1 9 1 8 -1 6 1 49 -1 48 -1 0
2  1 -1 4 -1 3 -1 2 -1 9 1 8 -1 6 1 49 -1 48 -1 0
2  53 1 42 -1 43 1 44 1 45 -1 46 1 47 -1 48 1 49 1 6 -1 8 1 9 -1 2 1 0
2  2 -1 9 1 8 -1 6 1 49 -1 48 -1 47 1 46 -1 45 1 44 -1 43 -1 42 1 53 -1 0
2  1 -1 4 -1 3 -1 2 -1 9 1 8 -1 6 1 49 -1 48 -1 47 1 46 -1 45 1 44 -1 43 -1 42 1 53 -1 0
2  53 1 42 -1 44 1 45 -1 46 1 47 -1 48 1 49 1 6 -1 8 1 9 -1 2 1 0
2  4 -1 3 -1 2 -1 27 -1 9 1 0
2  8 1 9 -1 2 1 3 1 4 1 0
2  42 -1 43 1 44 1 45 -1 46 1 47 -1 48 1 49 1 6 -1 0
2  53 1 42 -1 43 1 44 1 45 -1 46 1 47 -1 48 1 49 1 6 -1 0
2  19 1 6 -1 0
2  61 1 47 -1 48 1 49 1 6 -1 0
2  42 -1 43 1 44 1 45 -1 46 1 61 -1 0
2  47 1 61 -1 0
2  1 -1 4 -1 3 -1 2 -1 9 1 8 -1 6 1 49 -1 48 -1 47 1 61 -1 0
2  46 1 47 -1 48 1 49 1 6 -1 8 1 9 -1 2 1 3 1 4 1 0
2  42 -1 44 1 45 -1 0
2  53 1 42 -1 44 1 45 -1 0
2  48 -1 47 1 46 -1 45 1 44 -1 42 1 53 -1 0
1
              1               0               0               0 
              0              -1               0              -0 
              0               0              -1               0 
2  87 1 45 -1 0
2  42 -1 44 1 87 -1 0
2  45 1 87 -1 0
2  1 -1 4 -1 3 -1 2 -1 9 1 8 -1 6 1 49 -1 48 -1 47 1 46 -1 45 1 87 -1 0
2  49 1 6 -1 8 1 9 -1 2 1 3 1 4 1 0
2  61 1 47 -1 62 1 48 1 0
2  48 -1 62 -1 47 1 61 -1 0
2  53 1 42 -1 44 1 45 -1 46 1 47 -1 48 1 0
2  47 -1 62 1 48 1 49 1 6 -1 8 1 9 -1 2 1 3 1 4 1 0
2  62 -1 47 1 61 -1 0
2  48 1 49 1 6 -1 8 1 9 -1 2 1 3 1 4 1 0
2  61 1 47 -1 0
2  61 1 47 -1 62 1 0
2  1 -1 4 -1 3 -1 2 -1 9 1 8 -1 6 1 49 -1 48 -1 47 1 46 -1 0
1
              1               0               0               0 
              0               1               0               0 
              0               0               1           -0.51 
2  87 1 45 -1 102 1 0
2  102 -1 45 1 87 -1 0
2  87 -1 0
2  1 -1 4 -1 3 -1 2 -1 9 1 8 -1 6 1 49 -1 48 -1 47 1 46 -1 102 -1 45 1 87 -1 0
2  45 -1 102 1 46 1 47 -1 48 1 49 1 6 -1 8 1 9 -1 2 1 3 1 4 1 0
1
              1               0               0               0 
              0               1               0               0 
              0               0               1               0 
2  108 1 4 1 0
1
              1               0              -0               0 
             -0 2.22044604925031e-016              -1               0 
              0               1 2.22044604925031e-016               0 
2  1 -1 4 -1 108 -1 110 -1 0
1
              1               0              -0               0 
             -0 2.22044604925031e-016              -1               0 
              0               1 2.22044604925031e-016               0 
1
              1               0               0               0 
              0 -2.22044604925031e-016              -1               0 
              0               1 -2.22044604925031e-016               0 
1
              1               0               0              -0 
              0               1               0 -1.66755498298699e-015 
              0               0               1           -7.51 
2  112 1 113 -1 114 1 0
2  114 -1 113 1 112 -1 0
2  112 -1 0
2  1 -1 4 -1 108 -1 110 -1 114 -1 113 1 112 -1 0
1
              1               0               0               0 
              0               1               0 3.33510996597397e-015 
              0               0               1           15.02 
2  112 1 113 -1 114 1 119 1 0
2  119 -1 114 -1 113 1 112 -1 0
2  1 -1 4 -1 108 -1 110 -1 119 -1 114 -1 113 1 112 -1 0
2  112 1 113 -1 114 1 110 1 0
1
              1               0              -0               0 
             -0 2.22044604925031e-016              -1               0 
              0               1 2.22044604925031e-016               0 
2  110 1 124 -1 0
2  1 -1 4 -1 108 -1 124 -1 0
2  112 1 113 -1 114 1 119 1 110 1 0
2  113 -1 114 1 110 1 0
1
              1               0              -0               0 
             -0 2.22044604925031e-016              -1               0 
              0               1 2.22044604925031e-016               0 
1
              1               0               0               0 
              0 -2.22044604925031e-016              -1               0 
              0               1 -2.22044604925031e-016               0 
1
              1               0               0              -0 
              0               1               0 -1.66755498298699e-015 
              0               0               1           -7.51 
2  129 1 130 -1 131 1 124 1 0
2  113 -1 114 1 110 1 124 -1 131 -1 130 1 129 -1 0
2  129 -1 0
2  1 -1 4 -1 108 -1 124 -1 131 -1 130 1 129 -1 0
2  113 -1 114 1 119 1 110 1 0
1
              1               0               0               0 
              0               1               0 3.33510996597397e-015 
              0               0               1           15.02 
2  129 1 130 -1 131 1 137 1 124 1 0
2  113 -1 114 1 119 1 110 1 124 -1 137 -1 131 -1 130 1 129 -1 0
2  1 -1 4 -1 108 -1 124 -1 137 -1 131 -1 130 1 129 -1 0
2  131 -1 130 1 129 -1 0
2  137 -1 131 -1 130 1 129 -1 0
2  130 -1 131 1 124 1 0
2  124 1 110 -1 0
2  130 -1 131 1 137 1 124 1 0
2  129 1 130 -1 131 1 0
2  129 1 130 -1 131 1 137 1 0
Curve2ds 174
1 0 -2.1999999999999993 1 0 
1 0 0 1 0 
2 3.3000000000000007 -3.0999999999999996 0 -1 -1 -0 0.90000000000000002
1 -3.1415926535897931 0 1 0 
1 0 -15.02 0 1 
1 1.5 0 0 -1 
1 4.1999999999999993 0 0 -1 
1 -5.2999999999999998 -0 -0 1 
1 0 0 1 0 
1 -5.2999999999999998 46.200000000000003 0 1 
1 4.1999999999999993 0 0 -1 
1 -5.2999999999999998 -0 0 1 
1 3.3000000000000007 0 0 -1 
1 0 0 0 1 
1 0 0 0 -1 
1 1.5 -12.82 1 0 
1 0 -2.2999999999999998 1 0 
1 0 0 1 0 
1 1.5707963267948966 0 0 1 
1 -5.2999999999999998 3.0999999999999996 -1 -0 
1 -3.1415926535897931 2.2999999999999998 1 0 
2 3.3000000000000007 -0.90000000000000036 0 -1 -1 -0 0.90000000000000002
1 1.5 0 1 0 
1 5.2999999999999998 -4.1999999999999993 1 0 
1 3.7999999999999998 0 0 -1 
1 0 -12.82 0 1 
1 0 -15.02 1 0 
1 -3.7999999999999998 46.200000000000003 -1 0 
1 0 0 0 -1 
1 46.200000000000003 -15.02 0 1 
1 -7.5999999999999996 2.1999999999999993 0 1 
1 4.1999999999999993 0 0 -1 
1 -5.2999999999999998 15.02 -1 -0 
1 5.2999999999999998 0 1 0 
1 0 -0 0 1 
1 50.399999999999999 0 0 -1 
1 -3.7999999999999998 -0 -1 -0 
1 -3.7999999999999998 50.399999999999999 -1 0 
1 0 0 -1 0 
1 0 -15.02 1 0 
1 -7.5999999999999996 0 0 1 
1 0 0 1 0 
1 -3.7999999999999998 4.1999999999999993 -1 0 
1 0 0 0 -1 
1 -3.7999999999999998 0 0 1 
1 0 0 1 0 
1 0 0 0 1 
1 0 0 1 0 
1 4.1999999999999993 -12.82 -1 0 
1 7.5999999999999996 0 0 -1 
1 3.7999999999999998 0 0 -1 
1 50.399999999999999 -15.02 -1 0 
1 3.7999999999999998 -46.200000000000003 1 0 
1 15.02 0 0 -1 
1 7.5999999999999996 -46.200000000000003 0 -1 
1 4.1999999999999993 -15.02 -1 0 
1 0 -50.399999999999999 1 0 
1 0 0 1 0 
1 0 0 0 -1 
1 50.399999999999999 -15.02 -1 0 
1 4.1999999999999993 0 0 -1 
1 0 0 1 0 
1 0 -15.02 0 1 
1 0 0 0 -1 
2 25.199999999999999 -7.5099999999999998 1 0 0 -1 1.48
1 0 0 1 0 
1 7.5999999999999996 0 0 -1 
1 0 -15.02 0 1 
1 4.1999999999999993 0 0 -1 
1 0 -3.7999999999999998 1 0 
1 0 0 0 -1 
1 6.2831853071795862 0 0 -1 
1 0 -0.51000000000000001 1 0 
2 -1.48 0 1 0 0 -1 1.48
1 0 0 0 -1 
1 0 0 2.2204460492503131e-016 -1 
1 1.5707963267948966 0 0 -1 
1 3.1499999999999968 0 0 -1 
1 0 0 1 0 
2 0 -0.30000000000001847 0 1 1 -0 0.30000000000002203
1 0 -15.02 1 0 
2 0 -0.30000000000001847 0 1 1 -0 0.30000000000002203
1 0 0 1 0 
1 0 3.5527136788005009e-015 -1 0 
1 0.54999999999998117 3.6637359812628912e-016 2.2204460492503131e-016 -1 
1 0 0 0 -1 
1 2.8999025403209078e-015 -15.019999999999998 1 0 
1 0 3.5527136788005009e-015 -1 0 
1 0 0 0 -1 
1 0.40000000000000036 2.6645352591003781e-016 2.2204460492503131e-016 -1 
1 0 -8.8817841970012523e-016 1 0 
1 0.30000000000002292 -3.4500000000000188 0 1 
1 0 -15.02 1 0 
1 0.30000000000002292 -3.4500000000000188 0 1 
1 -3.0499999999999807 7.1054273576010019e-015 1 0 
1 -3.6999999999999997 39.199999999999989 1 0 
1 -2.9999999999999827 3.5527136788005009e-015 0 1 
1 3.5527136788005009e-015 0 1 0 
1 0.70000000000002327 -3.4500000000000188 -1 0 
1 0 0 1 0 
1 -2.9999999999999827 0.40000000000000213 1 0 
1 0 0 1 0 
1 0.70000000000002327 -0.30000000000001847 0 -1 
1 -3.5527136788005009e-015 0 1 0 
2 0 -0.30000000000001847 0 1 1 -0 0.70000000000002416
1 0 0 1 0 
1 -3.0499999999999807 7.1054273576010019e-015 1 0 
1 -3.6999999999999997 39.199999999999989 1 0 
1 -2.9999999999999827 3.5527136788005009e-015 0 1 
1 3.5527136788005009e-015 -15.019999999999998 1 0 
1 0.70000000000002327 -3.4500000000000188 -1 0 
1 2.8999025403209078e-015 -15.019999999999998 1 0 
1 -2.9999999999999827 0.40000000000000213 1 0 
1 -2.8999025403209078e-015 -15.019999999999998 1 0 
1 0.70000000000002327 -0.30000000000001847 0 -1 
1 -3.5527136788005009e-015 -15.019999999999998 1 0 
2 0 -0.30000000000001847 0 1 1 -0 0.70000000000002416
1 0 -15.02 1 0 
1 -3.5527136788005009e-015 0 1 0 
1 -1.2000000000000002 39.199999999999989 0 -1 
1 -3.5527136788005009e-015 -15.019999999999998 1 0 
1 -1.2000000000000002 39.199999999999989 0 -1 
1 0.5 0 0 -1 
1 0 0 -2.2204460492503131e-016 -1 
1 0 0 2.2204460492503131e-016 -1 
1 3.1499999999999968 0 0 -1 
1 0 -3.5527136788005009e-015 -1 0 
1 0 0 1 0 
1 0 35.699999999999989 0 -1 
1 0 0 1 0 
1 -3.6999999999999997 -3.5527136788005009e-015 0 1 
1 -3.5527136788005009e-015 0 1 0 
1 -0.60000000000000053 35.699999999999989 1 0 
1 0 0 1 0 
1 -3.6999999999999997 39.199999999999989 1 0 
1 0 0 1 0 
1 -0.60000000000000053 38.699999999999989 0 -1 
1 -3.5527136788005009e-015 0 1 0 
1 -1.2000000000000002 38.699999999999989 1 0 
1 0 0 1 0 
1 0 0 0 -1 
1 0.049999999999998046 -3.3306690738753395e-017 -2.2204460492503131e-016 -1 
1 0.39999999999999858 0 0 -1 
1 0 0 -2.2204460492503131e-016 -1 
1 2.9999999999999827 -2.2204460492501987e-016 -2.2204460492503131e-016 -1 
1 0 0 0 -1 
1 0 0 0 -1 
1 1.5707963267948966 0 0 -1 
1 0 -3.5527136788005009e-015 -1 0 
1 2.8999025403209078e-015 -15.019999999999998 1 0 
1 0 35.699999999999989 0 -1 
1 0 -15.019999999999998 1 0 
1 -3.6999999999999997 -3.5527136788005009e-015 0 1 
1 -3.5527136788005009e-015 -15.019999999999998 1 0 
1 -0.60000000000000053 35.699999999999989 1 0 
1 -2.8999025403209078e-015 -15.019999999999998 1 0 
1 -3.6999999999999997 39.199999999999989 1 0 
1 -2.8999025403209078e-015 -15.019999999999998 1 0 
1 -0.60000000000000053 38.699999999999989 0 -1 
1 -3.5527136788005009e-015 -15.019999999999998 1 0 
1 -1.2000000000000002 38.699999999999989 1 0 
1 -2.8999025403209078e-015 -15.019999999999998 1 0 
1 0.59999999999999964 -3.9968028886505612e-016 -2.2204460492503131e-016 -1 
1 0 0 0 -1 
1 0 0 2.2204460492503131e-016 -1 
1 35.699999999999989 0 0 -1 
1 3.6999999999999997 -1.9984014443252826e-016 2.2204460492503131e-016 -1 
1 0 0 0 -1 
1 0 0 0 -1 
1 0.60000000000000053 4.8849813083506852e-016 -2.2204460492503131e-016 -1 
1 39.199999999999989 0 0 -1 
1 0 0 -2.2204460492503131e-016 -1 
1 0 0 -2.2204460492503131e-016 -1 
1 2.9999999999999964 0 0 -1 
Curves 87
1 21 5.3100000000000005 0 1 0 0 
8 3.1415926535897931 4.7123889803846897
2 24.300000000000001 4.4100000000000001 5.2999999999999998 -0 -0 -1 0 -1 0 -1 0 0 0.90000000000000002
1 21 -7.5099999999999998 0 0 1 0 
8 2.2000000000000002 3.0999999999999996
1 25.199999999999999 7.5099999999999998 5.2999999999999998 -0 -1 0 
1 21 7.5099999999999998 0 1 0 0 
1 25.199999999999999 7.5099999999999998 0 0 -1 0 
1 24.300000000000001 5.3100000000000005 5.2999999999999998 0 0 1 
1 21 5.3100000000000005 5.2999999999999998 0 0 1 
1 21 5.3100000000000005 0 1 0 0 
1 25.199999999999999 4.4100000000000001 5.2999999999999998 0 0 1 
8 3.1415926535897931 4.7123889803846897
2 24.300000000000001 4.4100000000000001 7.5999999999999996 -0 -0 -1 0 -1 0 -1 0 0 0.90000000000000002
1 21 -7.5099999999999998 5.2999999999999998 0 0 1 
1 21 -7.5099999999999998 0 0 1 0 
1 21 7.5099999999999998 3.7999999999999998 0 0 1 
1 21 -7.5099999999999998 0 0 1 0 
1 25.199999999999999 5.3100000000000005 0 0 -1 0 
1 25.199999999999999 -7.5099999999999998 5.2999999999999998 0 0 1 
1 25.199999999999999 7.5099999999999998 0 0 -1 0 
1 25.199999999999999 7.5099999999999998 3.7999999999999998 0 0 1 
1 -25.199999999999999 7.5099999999999998 0 0 0 1 
1 -25.199999999999999 7.5099999999999998 0 1 0 0 
1 -21 7.5099999999999998 3.7999999999999998 0 0 1 
1 -25.199999999999999 7.5099999999999998 0 1 0 0 
1 -25.199999999999999 7.5099999999999998 0 1 0 0 
1 25.199999999999999 -7.5099999999999998 0 -1 0 0 
1 25.199999999999999 -7.5099999999999998 0 -1 0 0 
1 -21 -7.5099999999999998 3.7999999999999998 0 0 1 
1 -21 -7.5099999999999998 0 -1 0 0 
1 -25.199999999999999 -7.5099999999999998 0 0 0 1 
1 25.199999999999999 -7.5099999999999998 0 -1 0 0 
1 -21 7.5099999999999998 0 0 -1 0 
1 -25.199999999999999 -7.5099999999999998 0 0 1 0 
2 0 0 0 0 0 1 1 0 -0 -0 1 0 1.48
1 -25.199999999999999 -7.5099999999999998 0 0 1 0 
1 -21 7.5099999999999998 0 0 -1 0 
1 1.48 0 0 0 0 -1 
2 0 0 0 0 0 1 1 0 -0 -0 1 0 1.48
1 18.299999999999997 6.899999999999979 -7.5100000000000025 0 2.2204460492503131e-016 1 
1 17.999999999999975 7.200000000000002 -7.5100000000000033 0 2.2204460492503131e-016 1 
2 17.999999999999979 6.8999999999999817 0 0 0 1 1 0 -0 -0 1 0 0.30000000000002319
2 17.999999999999979 6.8999999999999817 0 0 0 1 1 0 -0 -0 1 0 0.30000000000002319
1 18.300000000000001 6.8999999999999817 0 0 -1 0 
1 18.300000000000001 6.3499999999999979 -7.5100000000000025 0 2.2204460492503131e-016 1 
1 18.300000000000001 6.8999999999999817 0 0 -1 0 
1 14.849999999999977 7.200000000000002 -7.5100000000000033 0 2.2204460492503131e-016 1 
1 14.849999999999978 7.2000000000000046 0 1 0 0 
1 14.849999999999978 7.2000000000000046 0 1 0 0 
1 18.300000000000004 3.8500000000000001 0 0 1 0 
1 18.300000000000001 3.8999999999999981 0 1 0 0 
1 14.849999999999978 7.600000000000005 0 0 -1 0 
1 18.699999999999999 3.8999999999999981 0 0 1 0 
1 17.999999999999979 7.600000000000005 0 -1 0 0 
2 17.999999999999979 6.8999999999999817 0 0 0 1 1 0 -0 -0 1 0 0.70000000000002316
1 18.300000000000004 3.8500000000000001 0 0 1 0 
1 18.300000000000001 3.8999999999999981 0 1 0 0 
1 14.849999999999978 7.600000000000005 0 0 -1 0 
1 18.699999999999999 3.8999999999999981 0 0 1 0 
1 17.999999999999979 7.600000000000005 0 -1 0 0 
2 17.999999999999979 6.8999999999999817 0 0 0 1 1 0 -0 -0 1 0 0.70000000000002316
1 18.300000000000004 6.3500000000000005 0 -1 0 0 
1 18.300000000000004 6.3500000000000005 0 -1 0 0 
1 17.800000000000001 6.3499999999999979 -7.5100000000000025 0 2.2204460492503131e-016 1 
1 14.849999999999977 7.6000000000000023 -7.5100000000000033 0 2.2204460492503131e-016 1 
1 -20.899999999999999 7.5500000000000007 0 0 -1 0 
1 14.800000000000004 7.5500000000000007 0 -1 0 0 
1 -20.899999999999999 3.8500000000000001 0 1 0 0 
1 14.800000000000004 6.9500000000000002 0 0 1 0 
1 18.300000000000004 3.8500000000000001 0 0 1 0 
1 17.800000000000004 6.9500000000000002 0 -1 0 0 
1 17.800000000000004 6.3500000000000005 0 0 1 0 
1 18.299999999999997 3.8999999999999959 -7.5100000000000016 0 2.2204460492503131e-016 1 
1 18.699999999999996 3.8999999999999959 -7.5100000000000016 0 2.2204460492503131e-016 1 
1 18.699999999999999 6.899999999999979 -7.5100000000000025 0 2.2204460492503131e-016 1 
1 17.999999999999975 7.6000000000000023 -7.5100000000000033 0 2.2204460492503131e-016 1 
1 -20.899999999999999 7.5500000000000007 0 0 -1 0 
1 14.800000000000004 7.5500000000000007 0 -1 0 0 
1 -20.899999999999999 3.8500000000000001 0 1 0 0 
1 14.800000000000004 6.9500000000000002 0 0 1 0 
1 18.300000000000004 3.8500000000000001 0 0 1 0 
1 17.800000000000004 6.9500000000000002 0 -1 0 0 
1 17.800000000000004 6.3500000000000005 0 0 1 0 
1 17.800000000000001 6.9499999999999975 -7.5100000000000025 0 2.2204460492503131e-016 1 
1 -20.899999999999995 7.549999999999998 -7.5100000000000033 0 2.2204460492503131e-016 1 
1 -20.899999999999995 3.8499999999999979 -7.5100000000000016 0 2.2204460492503131e-016 1 
1 14.800000000000002 7.549999999999998 -7.5100000000000033 0 2.2204460492503131e-016 1 
1 18.300000000000001 3.8499999999999979 -7.5100000000000016 0 2.2204460492503131e-016 1 
1 14.800000000000002 6.9499999999999975 -7.5100000000000025 0 2.2204460492503131e-016 1 
Polygon3D 0
PolygonOnTriangulations 0
Surfaces 35
1 21 7.5099999999999998 3.7999999999999998 -0 0 1 1 0 0 0 1 -0 
1 21 5.3100000000000005 5.2999999999999998 0 1 0 1 0 0 0 0 -1 
2 24.300000000000001 4.4100000000000001 5.2999999999999998 0 0 1 -0 1 0 1 0 -0 0.90000000000000002
1 21 -7.5099999999999998 3.7999999999999998 1 0 0 -0 0 1 0 -1 0 
1 25.199999999999999 7.5099999999999998 0 -1 0 0 0 0 -1 -0 -1 -0 
1 -25.199999999999999 7.5099999999999998 0 0 -1 0 0 -0 -1 1 0 0 
1 21 5.3100000000000005 5.2999999999999998 -0 0 1 1 0 0 0 1 -0 
1 25.199999999999999 -7.5099999999999998 0 0 1 -0 0 0 1 1 -0 0 
1 -25.199999999999999 7.5099999999999998 0 -0 0 1 1 0 0 0 1 -0 
1 -25.199999999999999 7.5099999999999998 0 -0 0 1 1 0 0 0 1 -0 
1 -25.199999999999999 -7.5099999999999998 0 1 0 0 -0 0 1 0 -1 0 
1 -25.199999999999999 7.5099999999999998 3.7999999999999998 -0 0 1 1 0 0 0 1 -0 
1 -21 7.5099999999999998 3.7999999999999998 1 0 -0 0 -1 0 0 -0 -1 
2 0 0 0 -0 -0 1 1 0 0 0 -1 -0 1.48
1 1.48 0 0 0 0 1 1 0 -0 -0 1 0 
2 17.999999999999975 6.899999999999979 -7.5100000000000025 0 -4.4408920985006262e-016 -1 1 0 0 -0 1 -4.4408920985006262e-016 0.30000000000002314
1 18.299999999999997 6.899999999999979 -7.5100000000000025 1 0 -0 0 -1 4.4408920985006262e-016 0 -4.4408920985006262e-016 -1 
1 14.849999999999977 7.200000000000002 -7.5100000000000033 0 1 -2.2204460492503131e-016 1 0 0 0 -2.2204460492503131e-016 -1 
1 18.299999999999997 1.5321077739827122e-015 6.8999999999999808 0 1 -2.2204460492503136e-016 0 2.2204460492503136e-016 1 1 -0 0 
1 18.299999999999997 1.5321077739827122e-015 6.8999999999999808 0 1 -2.2204460492503136e-016 0 2.2204460492503136e-016 1 1 -0 0 
1 18.300000000000001 6.3499999999999979 -7.5100000000000025 0 -1 2.2204460492503131e-016 -1 0 0 -0 -2.2204460492503131e-016 -1 
1 14.849999999999977 7.6000000000000023 -7.5100000000000033 1 0 -0 0 -1 4.4408920985006262e-016 0 -4.4408920985006262e-016 -1 
1 -20.899999999999995 1.6764367671839867e-015 7.5499999999999998 0 1 -2.2204460492503136e-016 0 2.2204460492503136e-016 1 1 -0 0 
1 18.299999999999997 3.8999999999999959 -7.5100000000000016 0 1 -2.2204460492503131e-016 1 0 0 0 -2.2204460492503131e-016 -1 
1 18.699999999999996 3.8999999999999959 -7.5100000000000016 -1 0 0 0 1 -4.4408920985006262e-016 -0 -4.4408920985006262e-016 -1 
1 17.999999999999975 7.6000000000000023 -7.5100000000000033 0 -1 2.2204460492503131e-016 -1 0 0 -0 -2.2204460492503131e-016 -1 
2 17.999999999999975 6.899999999999979 -7.5100000000000025 0 -4.4408920985006262e-016 -1 1 0 0 -0 1 -4.4408920985006262e-016 0.70000000000002305
1 -20.899999999999995 1.6764367671839867e-015 7.5499999999999998 0 1 -2.2204460492503136e-016 0 2.2204460492503136e-016 1 1 -0 0 
1 17.800000000000001 6.3499999999999979 -7.5100000000000025 -1 0 0 0 1 -4.4408920985006262e-016 -0 -4.4408920985006262e-016 -1 
1 -20.899999999999995 7.549999999999998 -7.5100000000000033 1 0 -0 0 -1 4.4408920985006262e-016 0 -4.4408920985006262e-016 -1 
1 14.800000000000002 7.549999999999998 -7.5100000000000033 0 -1 2.2204460492503131e-016 -1 0 0 -0 -2.2204460492503131e-016 -1 
1 -20.899999999999995 3.8499999999999979 -7.5100000000000016 0 1 -2.2204460492503131e-016 1 0 0 0 -2.2204460492503131e-016 -1 
1 14.800000000000002 6.9499999999999975 -7.5100000000000025 -1 0 0 0 1 -4.4408920985006262e-016 -0 -4.4408920985006262e-016 -1 
1 18.300000000000001 3.8499999999999979 -7.5100000000000016 -1 0 0 0 1 -4.4408920985006262e-016 -0 -4.4408920985006262e-016 -1 
1 17.800000000000001 6.9499999999999975 -7.5100000000000025 0 -1 2.2204460492503131e-016 -1 0 0 -0 -2.2204460492503131e-016 -1 
Triangulations 0

TShapes 220
Ve
1e-007
24.3 5.31 5.3
0 0

0101101
*
Ve
1e-007
21 5.31 5.3
0 0

0101101
*
Ed
 1e-007 1 1 0
1  1 0 0 3.3
2  1 1 14 0 3.3
2  2 2 15 0 3.3
0

0101000
-220 16 +219 16 *
Ve
0.0001
25.2 4.41 5.3
0 0

0101101
*
Ed
 1e-007 1 1 0
1  2 0 3.14159265358979 4.71238898038469
2  3 1 17 3.14159265358979 4.71238898038469
2  4 3 0 3.14159265358979 4.71238898038469
0

0101000
+220 18 -217 18 *
Ve
1e-007
21 7.51 5.3
0 0

0101101
*
Ed
 1e-007 1 1 0
1  3 0 12.82 15.02
2  5 1 21 12.82 15.02
2  6 4 22 12.82 15.02
0

0101000
+219 23 -215 23 *
Ve
0.0001
25.2 5.31 5.3
0 0

0101101
*
Ed
 0.0001 1 1 0
1  4 0 2.2 3.1
2  7 1 17 2.2 3.1
2  8 5 24 2.2 3.1
0

0101000
+213 18 -217 18 *
Ve
1e-007
25.2 7.51 5.3
0 0

0101101
*
Ed
 1e-007 1 1 0
1  5 0 0 4.2
2  9 1 21 0 4.2
2  10 6 22 0 4.2
0

0101000
+215 23 -211 23 *
Ed
 1e-007 1 1 0
1  6 0 0 2.2
2  11 1 21 0 2.2
2  12 5 22 0 2.2
0

0101000
+211 23 -213 23 *
Wi

0101100
+218 13 +216 0 -214 20 -212 0 -210 20 -209 20 *
Fa
0  1e-007 1 10

0101000
+208 11 *
Ve
1e-007
24.3 5.31 7.6
0 0

0101101
*
Ed
 1e-007 1 1 0
1  7 0 -0 2.3
2  13 2 5 -0 2.3
2  14 3 0 -0 2.3
4 G1 2 5 3 0
0

0101000
+220 18 -206 18 *
Ve
1e-007
21 5.31 7.6
0 0

0101101
*
Ed
 1e-007 1 1 0
1  8 0 0 2.3
2  15 2 0 0 2.3
2  16 4 25 0 2.3
0

0101000
+219 26 -204 26 *
Ed
 1e-007 1 1 0
1  9 0 0 3.3
2  17 2 29 0 3.3
2  18 7 30 0 3.3
0

0101000
-206 31 +204 31 *
Wi

0101100
-218 13 -205 0 +203 5 +202 28 *
Fa
0  1e-007 2 0

0101000
+201 11 *
Ve
1e-007
25.2 4.41 7.6
0 0

0101101
*
Ed
 1e-007 1 1 0
1  10 0 -0 2.3
2  19 3 0 -0 2.3
2  20 5 24 -0 2.3
4 G1 3 0 5 24
0

0101000
+217 18 -199 18 *
Ed
 1e-007 1 1 0
1  11 0 3.14159265358979 4.71238898038469
2  21 3 0 3.14159265358979 4.71238898038469
2  22 7 32 3.14159265358979 4.71238898038469
0

0101000
+206 18 -199 18 *
Wi

0101100
+216 0 -205 0 +198 0 -197 0 *
Fa
0  1e-007 3 0

0101000
+196 0 *
Ve
1e-007
21 -7.51 3.8
0 0

0101101
*
Ve
1e-007
21 -7.51 7.6
0 0

0101101
*
Ed
 1e-007 1 1 0
1  12 0 -1.5 2.3
2  23 4 0 -1.5 2.3
2  24 8 0 -1.5 2.3
0

0101000
+194 33 -193 33 *
Ed
 1e-007 1 1 0
1  13 0 0 12.82
2  25 4 35 0 12.82
2  26 7 30 0 12.82
0

0101000
+193 31 -204 31 *
Ve
1e-007
21 7.51 3.8
0 0

0101101
*
Ed
 1e-007 1 1 0
1  14 0 0 1.5
2  27 4 38 0 1.5
2  28 6 38 0 1.5
0

0101000
+190 39 -215 39 *
Ed
 1e-007 1 1 0
1  15 0 0 15.02
2  29 4 41 0 15.02
2  30 9 50 0 15.02
0

0101000
+194 51 -190 51 *
Wi

0101000
+192 0 +191 34 -203 2 +214 36 -189 37 -188 40 *
Fa
0  1e-007 4 0

0101000
-187 0 *
Ve
1e-007
25.2 -7.51 7.6
0 0

0101101
*
Ed
 1e-007 1 1 0
1  16 0 0.9 12.82
2  31 5 35 0.9 12.82
2  32 7 30 0.9 12.82
0

0101000
+199 31 -185 31 *
Ve
1e-007
25.2 -7.51 0
0 0

0101101
*
Ed
 1e-007 1 1 0
1  17 0 -5.3 2.3
2  33 5 0 -5.3 2.3
2  34 8 0 -5.3 2.3
0

0101000
+183 33 -185 33 *
Ve
1e-007
25.2 7.51 0
0 0

0101101
*
Ed
 1e-007 1 1 0
1  18 0 0 15.02
2  35 5 55 0 15.02
2  36 10 56 0 15.02
0

0101000
+181 57 -183 57 *
Ed
 1e-007 1 1 0
1  19 0 -3.8 1.5
2  37 5 0 -3.8 1.5
2  38 6 0 -3.8 1.5
0

0101000
+181 33 -211 33 *
Wi

0101100
-184 28 -198 0 +182 24 -212 0 +180 54 -209 20 -179 24 *
Fa
0  1e-007 5 0

0101000
+178 52 *
Ve
1e-007
-25.2 7.51 0
0 0

0101101
*
Ve
1e-007
-25.2 7.51 7.6
0 0

0101101
*
Ed
 1e-007 1 1 0
1  20 0 0 7.6
2  39 6 59 0 7.6
2  40 11 0 0 7.6
0

0101000
+176 60 -175 60 *
Ve
1e-007
-21 7.51 7.6
0 0

0101101
*
Ed
 1e-007 1 1 0
1  21 0 0 4.2
2  41 6 64 0 4.2
2  42 12 65 0 4.2
0

0101000
+175 66 -173 66 *
Ve
1e-007
-21 7.51 3.8
0 0

0101101
*
Ed
 1e-007 1 1 0
1  22 0 0 3.8
2  43 6 68 0 3.8
2  44 13 0 0 3.8
0

0101000
+171 69 -173 69 *
Ed
 1e-007 1 1 0
1  23 0 4.2 46.2
2  45 6 71 4.2 46.2
2  46 9 56 4.2 46.2
0

0101000
+171 72 -190 72 *
Ed
 1e-007 1 1 0
1  24 0 0 50.4
2  47 6 55 0 50.4
2  48 10 56 0 50.4
0

0101000
+176 57 -181 57 *
Wi

0101000
+174 58 +172 63 -170 67 +169 70 +189 37 +210 36 -179 0 -168 73 *
Fa
0  1e-007 6 0

0101000
-167 0 *
Ed
 1e-007 1 1 0
1  25 0 0 4.2
2  49 7 30 0 4.2
2  50 8 35 0 4.2
0

0101000
+185 31 -193 31 *
Wi

0101100
-202 28 -197 0 -191 28 -184 28 -165 28 *
Fa
0  1e-007 7 0

0101000
+164 74 *
Ve
1e-007
-21 -7.51 3.8
0 0

0101101
*
Ed
 1e-007 1 1 0
1  26 0 4.2 46.2
2  51 8 71 4.2 46.2
2  52 9 56 4.2 46.2
0

0101000
+194 72 -162 72 *
Ve
1e-007
-21 -7.51 7.6
0 0

0101101
*
Ed
 1e-007 1 1 0
1  27 0 0 3.8
2  53 8 68 0 3.8
2  54 13 0 0 3.8
0

0101000
+162 69 -160 69 *
Ve
1e-007
-25.2 -7.51 7.6
0 0

0101101
*
Ed
 1e-007 1 1 0
1  28 0 0 4.2
2  55 8 64 0 4.2
2  56 12 65 0 4.2
0

0101000
+160 66 -158 66 *
Ve
1e-007
-25.2 -7.51 0
0 0

0101101
*
Ed
 1e-007 1 1 0
1  29 0 0 7.6
2  57 8 59 0 7.6
2  58 11 0 0 7.6
0

0101000
+156 60 -158 60 *
Ed
 1e-007 1 1 0
1  30 0 0 50.4
2  59 8 55 0 50.4
2  60 10 56 0 50.4
0

0101000
+183 57 -156 57 *
Wi

0101000
+182 0 +165 34 -192 0 +161 70 +159 67 +157 63 -155 58 -154 73 *
Fa
0  1e-007 8 0

0101000
-153 0 *
Ed
 1e-007 1 1 0
1  31 0 0 15.02
2  61 9 80 0 15.02
2  62 13 81 0 15.02
0

0101000
+171 82 -162 82 *
Wi

0101000
-169 77 +188 78 -161 77 +151 79 *
Fa
0  1e-007 9 76

0101000
+150 0 *
Ed
 1e-007 1 1 0
1  32 0 0 15.02
2  63 10 56 0 15.02
2  64 11 86 0 15.02
0

0101000
+156 57 -176 57 *
Wi

0101000
-168 85 -148 85 -180 85 -154 85 *
Ve
1e-007
1.48 0 0
0 0

0101101
*
Ed
 1e-007 1 1 0
1  33 0 0 6.28318530717959
2  65 10 89 0 6.28318530717959
2  66 14 90 0 6.28318530717959
0

0101100
+146 91 -146 91 *
Wi

0101100
+145 88 *
Fa
0  1e-007 10 84

0101000
+147 0 +144 0 *
Ed
 1e-007 1 1 0
1  34 0 0 15.02
2  67 11 94 0 15.02
2  68 12 65 0 15.02
0

0101000
+158 66 -175 66 *
Wi

0101000
+155 0 +142 93 -174 0 -148 95 *
Fa
0  1e-007 11 0

0101000
-141 0 *
Ed
 1e-007 1 1 0
1  35 0 0 15.02
2  69 12 65 0 15.02
2  70 13 97 0 15.02
0

0101000
+173 66 -160 66 *
Wi

0101100
+172 0 +139 0 +157 0 +142 0 *
Fa
0  1e-007 12 0

0101000
-138 61 *
Wi

0101000
+170 0 -151 99 +139 100 -159 0 *
Fa
0  1e-007 13 0

0101000
+136 0 *
Ve
1e-007
1.48 0 -0.51
0 0

0101101
*
Ed
 1e-007 1 1 0
1  36 0 0 0.51
3  71 72CN 14 0 0 0.51
0

0101000
+146 101 -134 101 *
Ed
 1e-007 1 1 0
1  37 0 0 6.28318530717959
2  73 14 104 0 6.28318530717959
2  74 15 105 0 6.28318530717959
0

0101100
+134 106 -134 106 *
Wi

0101000
-145 88 -133 0 +132 103 +133 0 *
Fa
0  1e-007 14 0

0101000
+131 0 *
Wi

0101100
+132 0 *
Fa
0  1e-007 15 0

0101000
-129 87 *
Sh

0101100
+207 5 +200 5 -195 0 -186 24 -177 24 -166 24 +163 32 -152 24 +149 75 -143 83 
-140 92 +137 96 +135 98 -130 83 -128 107 *
So

0100000
+127 0 *
Ve
1e-007
18.3 7.51 6.89999999999998
0 0

0101101
*
Ve
1e-007
18.3 -7.50999999999999 6.89999999999998
0 0

0101101
*
Ed
 1e-007 1 1 0
1  38 0 0 15.02
2  75 16 0 0 15.02
2  76 17 0 0 15.02
4 G1 16 0 17 0
0

0101000
+125 111 -124 111 *
Ve
1e-007
18 7.51 7.2
0 0

0101101
*
Ve
1e-007
18 -7.50999999999999 7.20000000000001
0 0

0101101
*
Ed
 1e-007 1 1 0
1  39 0 0 15.02
2  77 16 0 0 15.02
2  78 18 0 0 15.02
4 G1 16 0 18 0
0

0101000
+122 111 -121 111 *
Ed
 1e-007 1 1 0
1  40 0 0 1.5707963267949
2  79 16 116 0 1.5707963267949
2  80 19 117 0 1.5707963267949
0

0101000
+125 118 -122 118 *
Ed
 1e-007 1 1 0
1  41 0 0 1.5707963267949
2  81 16 121 0 1.5707963267949
2  82 20 117 0 1.5707963267949
0

0101000
+124 122 -121 122 *
Wi

0101000
+123 0 -120 0 -119 115 +118 120 *
Fa
0  1e-007 16 0

0101000
+117 0 *
Ve
1e-007
18.3 7.51 6.35
0 0

0101101
*
Ed
 1e-007 1 1 0
1  42 0 0 0.549999999999981
2  83 17 116 0 0.549999999999981
2  84 19 117 0 0.549999999999981
0

0101000
+125 118 -115 118 *
Ve
1e-007
18.3 -7.50999999999999 6.35
0 0

0101101
*
Ed
 1e-007 1 1 0
1  43 0 0 15.02
2  85 17 125 0 15.02
2  86 21 0 0 15.02
0

0101000
+115 126 -113 126 *
Ed
 1e-007 1 1 0
1  44 0 0 0.549999999999981
2  87 17 121 0 0.549999999999981
2  88 20 117 0 0.549999999999981
0

0101000
+124 122 -113 122 *
Wi

0101000
-114 123 -112 124 +111 127 +123 110 *
Fa
0  1e-007 17 110

0101000
+110 0 *
Ve
1e-007
14.85 7.51 7.2
0 0

0101101
*
Ve
1e-007
14.85 -7.50999999999999 7.20000000000001
0 0

0101101
*
Ed
 1e-007 1 1 0
1  45 0 0 15.02
2  89 18 0 0 15.02
2  90 22 0 0 15.02
0

0101000
+108 111 -107 111 *
Ed
 1e-007 1 1 0
1  46 0 0 3.15
2  91 18 116 0 3.15
2  92 19 117 0 3.15
0

0101000
+108 118 -122 118 *
Ed
 1e-007 1 1 0
1  47 0 0 3.15
2  93 18 121 0 3.15
2  94 20 117 0 3.15
0

0101000
+107 122 -121 122 *
Wi

0101000
+106 0 -120 0 -105 115 +104 120 *
Fa
0  1e-007 18 0

0101000
+103 0 *
Ve
1e-007
18.3 7.51 3.89999999999999
0 0

0101101
*
Ed
 1e-007 1 1 0
1  48 0 0.049999999999998 2.5
2  95 19 133 0.049999999999998 2.5
2  96 23 134 0.049999999999998 2.5
0

0101000
+101 135 -115 135 *
Ve
1e-007
18.7 7.51 3.89999999999999
0 0

0101101
*
Ed
 1e-007 1 1 0
1  49 0 0 0.399999999999999
2  97 19 117 0 0.399999999999999
2  98 24 116 0 0.399999999999999
0

0101000
+101 118 -99 118 *
Ve
1e-007
14.85 7.51 7.6
0 0

0101101
*
Ed
 1e-007 1 1 0
1  50 0 0 0.4
2  99 19 117 0 0.4
2  100 22 116 0 0.4
0

0101000
+97 118 -108 118 *
Ve
1.00000001776357e-007
18.7 7.51 6.89999999999998
0 0

0101101
*
Ed
 1e-007 1 1 0
1  51 0 0 2.99999999999998
2  101 19 117 0 2.99999999999998
2  102 25 116 0 2.99999999999998
0

0101000
+99 118 -95 118 *
Ve
1e-007
18 7.51 7.6
0 0

0101101
*
Ed
 1e-007 1 1 0
1  52 0 0 3.15
2  103 19 117 0 3.15
2  104 26 116 0 3.15
0

0101000
+93 118 -97 118 *
Ed
 1e-007 1 1 0
1  53 0 0 1.5707963267949
2  105 19 117 0 1.5707963267949
2  106 27 116 0 1.5707963267949
0

0101000
+95 118 -93 118 *
Wi

0101000
-114 123 +119 123 +100 132 -105 123 -98 123 -96 123 -94 123 -92 123 -91 123 *
Fa
0  1e-007 19 128

0101000
+90 0 *
Ve
1e-007
18.3 -7.51 3.9
0 0

0101101
*
Ed
 1e-007 1 1 0
1  54 0 0.049999999999998 2.5
2  107 20 139 0.049999999999998 2.5
2  108 28 134 0.049999999999998 2.5
0

0101000
+88 140 -113 140 *
Ve
1e-007
18.7 -7.51 3.9
0 0

0101101
*
Ed
 1e-007 1 1 0
1  55 0 0 0.399999999999999
2  109 20 117 0 0.399999999999999
2  110 24 121 0 0.399999999999999
0

0101000
+88 122 -86 122 *
Ve
1e-007
14.85 -7.50999999999999 7.60000000000001
0 0

0101101
*
Ed
 1e-007 1 1 0
1  56 0 0 0.4
2  111 20 117 0 0.4
2  112 22 121 0 0.4
0

0101000
+84 122 -107 122 *
Ve
1.00000001776357e-007
18.7 -7.50999999999999 6.89999999999998
0 0

0101101
*
Ed
 1e-007 1 1 0
1  57 0 0 2.99999999999998
2  113 20 117 0 2.99999999999998
2  114 25 121 0 2.99999999999998
0

0101000
+86 122 -82 122 *
Ve
1e-007
18 -7.50999999999999 7.60000000000001
0 0

0101101
*
Ed
 1e-007 1 1 0
1  58 0 0 3.15
2  115 20 117 0 3.15
2  116 26 121 0 3.15
0

0101000
+80 122 -84 122 *
Ed
 1e-007 1 1 0
1  59 0 0 1.5707963267949
2  117 20 117 0 1.5707963267949
2  118 27 121 0 1.5707963267949
0

0101000
+82 122 -80 122 *
Wi

0101000
-111 127 +118 127 +87 138 -104 127 -85 127 -83 127 -81 127 -79 127 -78 127 *
Fa
0  1e-007 20 136

0101000
+77 0 *
Ve
1e-007
17.8 7.51 6.35
0 0

0101101
*
Ed
 1e-007 1 1 0
1  60 0 0 0.5
2  119 21 141 0 0.5
2  120 23 134 0 0.5
0

0101000
+115 135 -75 135 *
Ve
1e-007
17.8 -7.50999999999999 6.35
0 0

0101101
*
Ed
 1e-007 1 1 0
1  61 0 0 0.5
2  121 21 142 0 0.5
2  122 28 134 0 0.5
0

0101000
+113 140 -73 140 *
Ed
 1e-007 1 1 0
1  62 0 0 15.02
2  123 21 0 0 15.02
2  124 29 0 0 15.02
0

0101000
+75 126 -73 126 *
Wi

0101000
+112 124 -74 132 +72 138 -71 124 *
Fa
0  1e-007 21 124

0101000
+70 0 *
Ed
 1e-007 1 1 0
1  63 0 0 15.02
2  125 22 0 0 15.02
2  126 26 0 0 15.02
0

0101000
+97 111 -84 111 *
Wi

0101000
+68 0 -106 0 -96 115 +83 120 *
Fa
0  1e-007 22 0

0101000
+67 0 *
Ve
1e-007
-20.9 7.51 7.55
0 0

0101101
*
Ve
1e-007
-20.9 7.51 3.85
0 0

0101101
*
Ed
 1e-007 1 1 0
1  64 0 0 3.7
2  127 23 134 0 3.7
2  128 30 141 0 3.7
0

0101000
+65 135 -64 135 *
Ve
1e-007
14.8 7.51 7.55
0 0

0101101
*
Ed
 1e-007 1 1 0
1  65 0 0 35.7
2  129 23 134 0 35.7
2  130 31 141 0 35.7
0

0101000
+62 135 -65 135 *
Ve
1e-007
18.3 7.51 3.85
0 0

0101101
*
Ed
 1e-007 1 1 0
1  66 0 0 39.2
2  131 23 134 0 39.2
2  132 32 141 0 39.2
0

0101000
+64 135 -60 135 *
Ve
1e-007
14.8 7.51 6.94999999999999
0 0

0101101
*
Ed
 1e-007 1 1 0
1  67 0 0 0.600000000000001
2  133 23 134 0 0.600000000000001
2  134 33 141 0 0.600000000000001
0

0101000
+58 135 -62 135 *
Ed
 1e-007 1 1 0
1  68 0 0 0.049999999999998
2  135 23 134 0 0.049999999999998
2  136 34 141 0 0.049999999999998
0

0101000
+60 135 -101 135 *
Ve
1e-007
17.8 7.51 6.94999999999999
0 0

0101101
*
Ed
 1e-007 1 1 0
1  69 0 0 3
2  137 23 134 0 3
2  138 35 141 0 3
0

0101000
+55 135 -58 135 *
Ed
 1e-007 1 1 0
1  70 0 0 0.6
2  139 23 134 0 0.6
2  140 29 141 0 0.6
0

0101000
+75 135 -55 135 *
Wi

0101000
-63 132 -61 132 -59 132 -57 132 -56 132 -54 132 -100 132 -53 132 -74 132 *
Fa
0  1e-007 23 143

0101000
+52 0 *
Ed
 1e-007 1 1 0
1  71 0 0 15.02
2  141 24 0 0 15.02
2  142 34 144 0 15.02
0

0101000
+101 111 -88 111 *
Ed
 1e-007 1 1 0
1  72 0 0 15.02
2  143 24 0 0 15.02
2  144 25 0 0 15.02
0

0101000
+99 111 -86 111 *
Wi

0101000
+50 110 -98 123 +85 127 -49 110 *
Fa
0  1e-007 24 110

0101000
+48 0 *
Ed
 1.00000001776357e-007 1 1 0
1  73 0 0 15.02
2  145 25 0 0 15.02
2  146 27 0 0 15.02
4 G1 25 0 27 0
0

0101000
+95 111 -82 111 *
Wi

0101000
+49 0 -46 0 -94 115 +81 120 *
Fa
0  1e-007 25 0

0101000
+45 0 *
Ed
 1e-007 1 1 0
1  74 0 0 15.02
2  147 26 0 0 15.02
2  148 27 0 0 15.02
4 G1 26 0 27 0
0

0101000
+93 111 -80 111 *
Wi

0101000
+43 0 -68 0 -92 115 +79 120 *
Fa
0  1e-007 26 0

0101000
+42 0 *
Wi

0101000
+46 0 -43 0 -91 115 +78 120 *
Fa
0  1e-007 27 0

0101000
+40 0 *
Ve
1e-007
-20.9 -7.50999999999999 7.55
0 0

0101101
*
Ve
1e-007
-20.9 -7.51 3.85
0 0

0101101
*
Ed
 1e-007 1 1 0
1  75 0 0 3.7
2  149 28 134 0 3.7
2  150 30 142 0 3.7
0

0101000
+38 140 -37 140 *
Ve
1e-007
14.8 -7.50999999999999 7.55
0 0

0101101
*
Ed
 1e-007 1 1 0
1  76 0 0 35.7
2  151 28 134 0 35.7
2  152 31 142 0 35.7
0

0101000
+35 140 -38 140 *
Ve
1e-007
18.3 -7.51 3.85
0 0

0101101
*
Ed
 1e-007 1 1 0
1  77 0 0 39.2
2  153 28 134 0 39.2
2  154 32 142 0 39.2
0

0101000
+37 140 -33 140 *
Ve
1e-007
14.8 -7.50999999999999 6.95
0 0

0101101
*
Ed
 1e-007 1 1 0
1  78 0 0 0.600000000000001
2  155 28 134 0 0.600000000000001
2  156 33 142 0 0.600000000000001
0

0101000
+31 140 -35 140 *
Ed
 1e-007 1 1 0
1  79 0 0 0.049999999999998
2  157 28 134 0 0.049999999999998
2  158 34 142 0 0.049999999999998
0

0101000
+33 140 -88 140 *
Ve
1e-007
17.8 -7.50999999999999 6.95
0 0

0101101
*
Ed
 1e-007 1 1 0
1  80 0 0 3
2  159 28 134 0 3
2  160 35 142 0 3
0

0101000
+28 140 -31 140 *
Ed
 1e-007 1 1 0
1  81 0 0 0.6
2  161 28 134 0 0.6
2  162 29 142 0 0.6
0

0101000
+73 140 -28 140 *
Wi

0101000
-36 138 -34 138 -32 138 -30 138 -29 138 -27 138 -87 138 -26 138 -72 138 *
Fa
0  1e-007 28 145

0101000
+25 0 *
Ed
 1e-007 1 1 0
1  82 0 0 15.02
2  163 29 0 0 15.02
2  164 35 0 0 15.02
0

0101000
+55 126 -28 126 *
Wi

0101000
+71 0 -23 0 -53 146 +26 147 *
Fa
0  1e-007 29 0

0101000
+22 0 *
Ed
 1e-007 1 1 0
1  83 0 0 15.02
2  165 30 0 0 15.02
2  166 31 0 0 15.02
0

0101000
+65 126 -38 126 *
Ed
 1e-007 1 1 0
1  84 0 0 15.02
2  167 30 0 0 15.02
2  168 32 0 0 15.02
0

0101000
+64 126 -37 126 *
Wi

0101000
+20 0 -19 0 -63 146 +36 147 *
Fa
0  1e-007 30 0

0101000
+18 0 *
Ed
 1e-007 1 1 0
1  85 0 0 15.02
2  169 31 0 0 15.02
2  170 33 0 0 15.02
0

0101000
+62 126 -35 126 *
Wi

0101000
+16 0 -20 0 -61 146 +34 147 *
Fa
0  1e-007 31 0

0101000
+15 0 *
Ed
 1e-007 1 1 0
1  86 0 0 15.02
2  171 32 0 0 15.02
2  172 34 0 0 15.02
0

0101000
+60 126 -33 126 *
Wi

0101000
+19 0 -13 0 -59 146 +32 147 *
Fa
0  1e-007 32 0

0101000
+12 0 *
Ed
 1e-007 1 1 0
1  87 0 0 15.02
2  173 33 0 0 15.02
2  174 35 0 0 15.02
0

0101000
+58 126 -31 126 *
Wi

0101000
+10 0 -16 0 -57 146 +30 147 *
Fa
0  1e-007 33 0

0101000
+9 0 *
Wi

0101000
-56 132 -50 110 +29 138 +13 124 *
Fa
0  1e-007 34 124

0101000
+7 0 *
Wi

0101000
+23 0 -10 0 -54 146 +27 147 *
Fa
0  1e-007 35 0

0101000
+5 0 *
Sh

0101100
+116 110 -109 0 -102 110 +89 0 -76 0 -69 0 -66 110 +51 0 -47 0 -44 110 
-41 110 -39 110 -24 0 -21 124 -17 124 -14 124 -11 124 -8 124 -6 0 -4 124 
*
So

0100000
+3 0 *
Co

1100000
+126 0 +2 109 *

+1 1 