DBRep_DrawableShape

CASCADE Topology V1, (c) Matra-Datavision
Locations 24
1
              1               0               0               0 
              0               1               0               0 
              0               0               1               0 
1
              1               0               0               0 
              0               1               0               0 
              0               0               1               0 
2  2 -1 0
1
              1               0               0               0 
              0               1               0               0 
              0               0               1               0 
2  4 1 2 1 0
2  1 -1 2 -1 4 -1 0
1
2.22044604925031e-016 -1.11022302462516e-016               1            37.5 
              1 1.11022302462516e-016 -2.22044604925031e-016               0 
-1.11022302462516e-016               1 1.11022302462516e-016               0 
1
              1               0               0 -7.88258347483861e-016 
              0               1               0 -3.9412917374193e-016 
              0               0               1            -7.1 
1
2.22044604925031e-016 -1.11022302462516e-016               1            37.5 
              1 1.11022302462516e-016 -2.22044604925031e-016               0 
-1.11022302462516e-016               1 1.11022302462516e-016               0 
2  7 -1 8 1 9 1 0
2  1 -1 2 -1 0
1
2.22044604925031e-016 -1.11022302462516e-016               1            37.5 
              1 1.11022302462516e-016 -2.22044604925031e-016               0 
-1.11022302462516e-016               1 1.11022302462516e-016               0 
2  12 1 7 -1 8 1 9 1 0
2  12 -1 0
2  8 -1 7 1 12 -1 0
2  1 -1 2 -1 9 -1 8 -1 7 1 12 -1 0
2  9 1 2 1 0
2  1 -1 2 -1 9 -1 0
2  12 1 7 -1 0
2  7 1 12 -1 0
2  1 -1 2 -1 9 -1 7 1 12 -1 0
2  12 1 7 -1 8 1 0
2  7 -1 9 1 2 1 0
2  12 1 7 -1 9 1 2 1 0
Curve2ds 20
1 6.2831853071795862 0 0 1 
8 0 9
1 0 0 0 1 
1 0 0 1 0 
2 0 -0.80999999999999872 0 1 1 -0 0.80999999999999872
1 0 9 1 0 
8 0 6.2831853071795862
1 3.1415926535897931 9.4247779607693793 -0 -1 
1 0 3.1415926535897931 1 0 
8 3.1415926535897931 4.7123889803846897
1 0 9.4247779607693793 1 0 
1 4.7123889803846897 0 0 1 
8 3.1415926535897931 9.4247779607693793
1 9.4247779607693793 0 -1 -0 
1 6.2831853071795862 0 0 1 
8 0 16.77
1 0 0 0 1 
1 0 9.6700000000000017 1 0 
2 -3.5527136788005009e-015 2.3749999999999929 -1.0947644252537636e-047 1 1 1.0947644252537636e-047 0.81000000000000005
2 -8.8817841970012523e-016 2.3749999999999964 6.162975822039158e-032 -1 -1 -6.162975822039158e-032 2.375
1 0 -7.0999999999999996 1 0 
1 0 0 0 -1 
1 6.2831853071795862 0 0 -1 
1 0 0 1 0 
2 -8.8817841970012523e-016 2.3749999999999964 6.162975822039158e-032 -1 -1 -6.162975822039158e-032 2.375
Curves 10
1 19.919999999999998 -4.5 5.6600000000000001 0 1 0 
2 19.109999999999999 -4.5 5.6600000000000001 0 1 0 1 0 0 0 0 -1 0.81000000000000005
2 19.109999999999999 4.5 5.6600000000000001 0 1 0 1 0 0 0 0 -1 0.81000000000000005
2 20.73 4.5 5.6600000000000001 0 -0 -1 1 0 0 0 -1 0 0.81000000000000094
2 20.73 6.120000000000001 5.6600000000000001 -1 -1.8369701987210297e-016 0 -1.8369701987210297e-016 1 0 -0 0 -1 0.81000000000000005
1 20.73 5.3100000000000023 5.6600000000000001 1 0 0 
2 30.400000000000002 6.1200000000000028 5.6600000000000001 1 0 0 0 -1 0 0 0 -1 0.81000000000000005
2 6.1200000000000001 5.6600000000000001 0 0 0 1 1 0 -0 -0 1 0 2.375
1 8.4949999999999974 5.6599999999999993 0 -1.1102230246251564e-016 -5.5511151231257809e-017 -1 
2 6.1200000000000001 5.6600000000000001 0 0 0 1 1 0 -0 -0 1 0 2.375
Polygon3D 0
PolygonOnTriangulations 0
Surfaces 7
10 0 6.2831853071795862 0 9
2 19.109999999999999 -4.5 5.6600000000000001 0 1 0 1 0 0 0 0 -1 0.81000000000000005
1 19.919999999999998 -4.5 5.6600000000000001 -0 -1 0 0 -0 -1 1 0 0 
10 3.1415926535897931 4.7123889803846897 3.1415926535897931 9.4247779607693793
5 20.73 4.5 5.6600000000000001 0 -0 -1 1 0 0 0 -1 0 1.620000000000001 0.81000000000000005
10 0 6.2831853071795862 0 16.77
2 20.73 6.1200000000000028 5.6600000000000001 1 0 0 0 -1 0 0 0 -1 0.81000000000000005
1 37.5 8.4949999999999992 5.6599999999999984 -1 -0 0 -0 0 -1 0 -1 -0 
2 6.1199999999999983 5.6599999999999993 1.3078427230084337e-015 -1.1102230246251563e-016 -1.1102230246251562e-016 1 1 1.1102230246251562e-016 1.1102230246251564e-016 -1.1102230246251563e-016 1 1.110223024625156e-016 2.3749999999999996
1 37.5 8.4949999999999992 5.6599999999999984 -1 -0 0 -0 0 -1 0 -1 -0 
Triangulations 0

TShapes 34
Ve
1.00000001991237e-007
19.92 -4.5 5.66
0 0

0101101
*
Ve
1.00000001991237e-007
19.92 4.5 5.66
0 0

0101101
*
Ed
 1e-007 1 1 0
1  1 0 0 9
3  1 2G1 1 0 0 9
0

0101000
+34 6 -33 6 *
Ed
 1e-007 1 1 0
1  2 0 0 6.28318530717959
2  3 1 0 0 6.28318530717959
2  4 2 0 0 6.28318530717959
0

0101100
-34 6 +34 6 *
Ed
 1e-007 1 1 0
1  3 0 0 6.28318530717959
2  5 1 0 0 6.28318530717959
2  6 3 0 0 6.28318530717959
4 G1 1 0 3 0
0

0101100
+33 6 -33 6 *
Wi

0101100
+32 0 +31 0 -32 0 -30 0 *
Fa
0  1e-007 1 0

0101000
+29 0 *
Wi

0101100
-31 0 *
Fa
0  1e-007 2 0

0101000
+27 0 *
Ve
1e-006
20.73 5.31 5.66
0 0

0101101
*
Ed
 1e-007 1 1 0
1  4 0 3.14159265358979 4.71238898038469
3  7 8G1 3 0 3.14159265358979 4.71238898038469
0

0101000
+33 6 -25 6 *
Ed
 1e-007 1 1 0
1  5 0 3.14159265358979 9.42477796076938
2  9 3 0 3.14159265358979 9.42477796076938
2  10 4 0 3.14159265358979 9.42477796076938
4 G1 3 0 4 0
0

0101100
+25 6 -25 6 *
Wi

0101100
+24 0 +30 0 -24 0 +23 0 *
Fa
0  1e-007 3 0

0101000
+22 0 *
Ve
2.00001e-007
30.4 5.31 5.66
0 0

0101101
*
Ed
 1e-007 1 1 0
1  6 0 0 9.67
3  11 12G1 4 0 0 9.67
0

0101000
+25 6 -20 6 *
Ed
 1e-007 1 1 0
1  7 0 0 6.28318530717959
2  13 4 4 0 6.28318530717959
2  14 5 10 0 6.28318530717959
0

0101100
+20 11 -20 11 *
Wi

0101000
-23 4 -19 4 -18 0 +19 4 *
Fa
0  1e-007 4 4

0101000
+17 0 *
Ve
1e-007
30.4 8.495 5.66
0 0

0101101
*
Ed
 1e-007 1 1 0
1  8 0 0 6.28318530717959
2  15 5 14 0 6.28318530717959
2  16 6 15 0 6.28318530717959
0

0101100
+15 16 -15 16 *
Wi

0101000
-14 13 *
Wi

0101100
+18 0 *
Fa
0  1e-007 5 10

0101000
+13 0 +12 0 *
Ve
1e-007
37.5 8.495 5.66
0 0

0101101
*
Ed
 1e-007 1 1 0
1  9 0 0 7.1
3  17 18CN 6 0 0 7.1
0

0101000
+10 18 -15 18 *
Ed
 1e-007 1 1 0
1  10 0 0 6.28318530717959
2  19 6 20 0 6.28318530717959
2  20 7 14 0 6.28318530717959
0

0101100
+10 21 -10 21 *
Wi

0101000
+9 0 -9 0 -8 19 +14 22 *
Fa
0  1e-007 6 0

0101000
+7 0 *
Wi

0101100
+8 24 *
Fa
0  1e-007 7 23

0101000
-5 0 *
Sh

0101100
+28 5 +26 5 +21 5 +16 2 +11 2 +6 17 -4 0 *
So

0100100
+3 3 *
Co

1100000
+2 2 *

+1 1 