DBRep_DrawableShape

CASCADE Topology V1, (c) Matra-Datavision
Locations 10
1
              1               0               0               0 
              0               1               0               0 
              0               0               1            11.4 
1
              1               0               0               0 
              0               1               0               0 
              0               0               1            11.4 
2  1 1 2 -1 0
2  2 1 1 -1 0
2  1 -1 0
1
              1               0               0              -0 
              0               1               0              -0 
              0               0               1            -2.3 
2  1 1 2 -1 6 1 0
2  6 -1 2 1 1 -1 0
2  2 -1 0
2  2 -1 6 1 0
Curve2ds 24
1 1.7763568394002505e-015 0 0 -1 
1 3.6200000000000099 0 0 -1 
1 1.3500000000000014 0 0 -1 
1 -3.5527136788005009e-015 0 0 -1 
1 0 0 1 0 
1 0 0 1 0 
1 0 -2.2999999999999998 1 0 
1 0 0 1 0 
1 3.6200000000000063 0 0 -1 
1 -1.7763568394002505e-015 0 0 -1 
1 0 0 1 0 
1 1.3499999999999996 0 0 -1 
1 0 -2.2999999999999998 1 0 
1 1.3499999999999996 0 0 -1 
1 1.3499999999999979 0 0 -1 
1 0 0 0 -1 
1 0 0 1 0 
1 1.3499999999999996 -3.6200000000000063 -1 0 
1 0 -2.2999999999999998 1 0 
1 1.3499999999999996 -3.6200000000000063 -1 0 
1 0 0 1 0 
1 0 -3.6200000000000063 0 1 
1 0 -2.2999999999999998 1 0 
1 0 -3.6200000000000063 0 1 
Curves 12
1 14.065 5.6200000000000099 0 -0 -0 -1 
1 15.414999999999999 5.6200000000000099 0 -0 -0 -1 
1 14.064999999999998 5.6200000000000063 0 1 0 0 
1 14.064999999999998 5.6200000000000063 0 1 0 0 
1 15.414999999999999 2 0 -0 -0 -1 
1 15.414999999999997 5.6200000000000063 0 0 -1 0 
1 15.414999999999997 5.6200000000000063 0 0 -1 0 
1 14.065 2 0 -0 -0 -1 
1 15.414999999999997 2 0 -1 0 0 
1 15.414999999999997 2 0 -1 0 0 
1 14.064999999999998 2 0 0 1 0 
1 14.064999999999998 2 0 0 1 0 
Polygon3D 0
PolygonOnTriangulations 0
Surfaces 6
1 14.064999999999998 5.6200000000000063 0 0 -1 0 1 0 0 -0 0 1 
1 14.064999999999998 2 0 1 0 0 -0 1 0 0 -0 1 
1 15.414999999999997 5.6200000000000063 0 -1 0 0 0 -1 0 0 0 1 
1 14.064999999999998 5.6200000000000063 11.4 -0 0 1 1 0 0 0 1 -0 
1 14.064999999999998 5.6200000000000063 11.4 -0 0 1 1 0 0 0 1 -0 
1 15.414999999999997 2 0 0 1 -0 -1 0 0 0 0 1 
Triangulations 0

TShapes 34
Ve
1e-007
14.065 5.62000000000001 0
0 0

0101101
*
Ve
1e-007
14.065 5.62000000000001 -2.3
0 0

0101101
*
Ed
 1e-007 1 1 0
1  1 0 0 2.3
2  1 1 0 0 2.3
2  2 2 0 0 2.3
0

0101000
+34 0 -33 0 *
Ve
1e-007
15.415 5.62000000000001 0
0 0

0101101
*
Ve
1e-007
15.415 5.62000000000001 -2.3
0 0

0101101
*
Ed
 1e-007 1 1 0
1  2 0 0 2.3
2  3 1 0 0 2.3
2  4 3 0 0 2.3
0

0101000
+31 0 -30 0 *
Ed
 1e-007 1 1 0
1  3 0 0 1.35
2  5 1 4 0 1.35
2  6 4 5 0 1.35
0

0101000
+34 4 -31 4 *
Ed
 1e-007 1 1 0
1  4 0 0 1.35
2  7 1 8 0 1.35
2  8 5 5 0 1.35
0

0101000
+33 8 -30 8 *
Wi

0101000
+32 0 -29 0 -28 3 +27 7 *
Fa
0  1e-007 1 0

0101000
+26 0 *
Ve
1e-007
15.415 2 0
0 0

0101101
*
Ve
1e-007
15.415 2 -2.3
0 0

0101101
*
Ed
 1e-007 1 1 0
1  5 0 0 2.3
2  9 3 0 0 2.3
2  10 6 0 0 2.3
0

0101000
+24 0 -23 0 *
Ed
 1e-007 1 1 0
1  6 0 0 3.62000000000001
2  11 3 4 0 3.62000000000001
2  12 4 5 0 3.62000000000001
0

0101000
+31 4 -24 4 *
Ed
 1e-007 1 1 0
1  7 0 0 3.62000000000001
2  13 3 8 0 3.62000000000001
2  14 5 5 0 3.62000000000001
0

0101000
+30 8 -23 8 *
Wi

0101000
+29 0 -22 0 -21 3 +20 7 *
Fa
0  1e-007 3 0

0101000
+19 0 *
Ve
1e-007
14.065 2 0
0 0

0101101
*
Ve
1e-007
14.065 2 -2.3
0 0

0101101
*
Ed
 1e-007 1 1 0
1  8 0 0 2.3
2  15 6 0 0 2.3
2  16 2 0 0 2.3
0

0101000
+17 0 -16 0 *
Ed
 1e-007 1 1 0
1  9 0 0 1.35
2  17 6 4 0 1.35
2  18 4 5 0 1.35
0

0101000
+24 4 -17 4 *
Ed
 1e-007 1 1 0
1  10 0 0 1.35
2  19 6 8 0 1.35
2  20 5 5 0 1.35
0

0101000
+23 8 -16 8 *
Wi

0101000
+22 0 -15 0 -14 3 +13 7 *
Fa
0  1e-007 6 0

0101000
+12 0 *
Ed
 1e-007 1 1 0
1  11 0 0 3.62000000000001
2  21 2 4 0 3.62000000000001
2  22 4 5 0 3.62000000000001
0

0101000
+17 4 -34 4 *
Ed
 1e-007 1 1 0
1  12 0 0 3.62000000000001
2  23 2 8 0 3.62000000000001
2  24 5 5 0 3.62000000000001
0

0101000
+16 8 -33 8 *
Wi

0101000
+15 0 -32 0 -10 3 +9 7 *
Fa
0  1e-007 2 0

0101000
+8 0 *
Wi

0101100
+28 0 +21 0 +14 0 +10 0 *
Fa
0  1e-007 4 0

0101000
-6 1 *
Wi

0101100
+27 0 +20 0 +13 0 +9 0 *
Fa
0  1e-007 5 0

0101000
-4 1 *
Sh

0101100
-25 0 -18 0 -11 0 -7 0 +5 9 -3 10 *
So

1100100
+2 0 *

+1 0 